M48
;Layer_Color=9474304
;FILE_FORMAT=4:4
METRIC
;TYPE=PLATED
T01F00S00C0.2000
T02F00S00C0.3000
T03F00S00C1.0160
T04F00S00C3.2000
;TYPE=NON_PLATED
T05F00S00C0.9000
%
T01
X00275620Y00650990
Y00661990
T02
X00276828Y00035928
X00277062Y00118481
X00354313Y00117735
X00357652Y00138714
X00388793Y00143049
X00385000Y00093180
X00402783Y00093184
X00432039Y00127630
X00562553Y00370400
X00559725Y00407500
X00572575Y00433004
X00544225Y00469100
X00514110Y00471728
X00477460
Y00429909
X00431919Y00431790
X00422059Y00419634
X00414607Y00392989
X00405574Y00400511
X00397176Y00363397
X00410141Y00353278
X00416009Y00336500
X00440437
X00471313Y00337396
X00492111Y00348295
X00498121Y00306670
X00485066Y00304341
X00457346
X00462746Y00278932
X00472397Y00233080
X00430214Y00251500
X00387995Y00271500
X00359927Y00284196
Y00296995
X00354582Y00311549
X00357441Y00322265
X00372500Y00323631
X00383500
X00377500Y00355672
X00362500Y00363397
Y00378223
X00347789Y00384006
X00317500Y00363397
X00337500Y00318310
X00324024Y00294298
Y00281500
X00323285Y00270044
X00327500Y00249150
X00327136Y00236420
X00345441Y00246226
X00357500Y00246634
X00307349Y00255098
X00269251Y00241500
X00256229Y00242396
X00246375Y00250250
X00245000Y00277000
X00257126
X00269251
X00283237Y00211724
X00281499Y00163342
X00257419Y00149810
X00349778Y00164092
X00355000Y00189097
X00385789Y00187353
X00400038Y00181940
X00447124Y00191278
X00451425Y00381952
X00436101
X00419890Y00488051
X00376075Y00456784
X00311250Y00485679
X00239203Y00464289
X00204175Y00452310
X00156119Y00409126
X00180604Y00256249
X00219678Y00246000
X00162832Y00208789
X00219013Y00538992
X00259642Y00533543
X00361657Y00543247
X00464758Y00536995
X00495643Y00537957
X00487317Y00521333
X00546301Y00360499
X00536764Y00344798
X00134903Y00351963
X00148844Y00393300
X00134361Y00452306
X00108978Y00605700
X00198740Y00601821
X00213645Y00570342
X00255221Y00585192
X00245000Y00620075
X00314950Y00649726
X00353118Y00642738
X00344581Y00627738
X00397944Y00638481
X00420540Y00649059
X00410994Y00678409
X00402438Y00697707
X00372828Y00733845
X00482092Y00728205
X00500015Y00724459
X00506079Y00688554
X00482092Y00682108
X00478311Y00668693
X00440265
X00442617Y00622500
X00458543Y00627950
X00477459Y00626694
X00487459Y00620400
X00458543Y00602500
X00472460Y00576759
X00487459Y00572500
X00498000Y00574701
X00532703Y00572500
X00546789Y00546147
X00538339Y00612272
X00535710Y00627500
X00407276Y00603976
X00406379Y00572500
X00419490Y00557500
X00261293Y00743680
X00198738Y00762680
X00166110Y00785023
X00615624Y00691841
X00600000Y00672410
X00576068Y00633800
X00559095Y00630527
X00559634Y00585819
X00557424Y00569600
X00667269Y00553063
X00656891Y00606628
X00652436Y00661883
T03
X00032500Y00050400
X00057900
Y00075800
X00032500
Y00101200
X00057900
Y00126600
X00032500
X00108700
Y00101200
Y00075800
Y00050400
X00591300
Y00075800
Y00101200
Y00126600
X00642100
X00667500
Y00101200
X00642100
Y00075800
X00667500
Y00050400
X00642100
Y00152000
Y00177400
Y00202800
Y00228200
X00667500
Y00202800
Y00177400
Y00152000
X00591300
Y00177400
Y00202800
Y00228200
Y00268800
Y00294200
Y00319600
Y00345000
Y00370400
Y00395800
Y00421200
Y00446600
Y00472000
Y00497400
X00642100Y00507600
X00667500
Y00482200
X00642100
Y00456800
X00667500
Y00431400
Y00406000
X00642100
Y00380600
X00667500
Y00355200
X00642100
Y00329800
X00667500
Y00304400
X00642100
Y00279000
X00667500
Y00253600
X00642100
Y00431400
X00328787Y00508390
Y00533790
X00057900Y00507600
Y00482200
Y00456800
Y00431400
Y00406000
Y00380600
Y00355200
Y00329800
Y00304400
Y00279000
Y00253600
X00032500
Y00279000
Y00304400
Y00329800
Y00355200
Y00380600
Y00406000
Y00431400
Y00456800
Y00482200
Y00507600
X00108700Y00406000
Y00380600
Y00355200
Y00329800
Y00304400
Y00279000
Y00253600
Y00228200
Y00177400
Y00152000
X00057900
X00032500
Y00177400
X00057900
Y00202800
X00032500
Y00228200
X00057900
X00150624Y00673669
Y00699069
Y00724469
X00032500Y00761600
Y00787000
X00311250Y00600035
X00336650
X00539239Y00677405
Y00702805
Y00728205
Y00753605
Y00779005
Y00804405
X00626275Y00753610
Y00728210
X00667500Y00761600
Y00787000
X00621668Y00645800
Y00620400
Y00595000
Y00569600
T04
X00438900Y00025000
X00591300Y00533000
X00108700Y00545700
T05
X00433960Y00772500
X00477960
M30
