G04*
G04 #@! TF.GenerationSoftware,Altium Limited,Altium Designer,24.4.1 (13)*
G04*
G04 Layer_Color=8421504*
%FSAX44Y44*%
%MOMM*%
G71*
G04*
G04 #@! TF.SameCoordinates,09090911-0CFD-4792-A0CC-E2C5D1EC5460*
G04*
G04*
G04 #@! TF.FilePolarity,Positive*
G04*
G01*
G75*
%ADD17R,1.1938X0.3048*%
%ADD18R,0.3048X1.1938*%
G04:AMPARAMS|DCode=19|XSize=1.6383mm|YSize=0.6121mm|CornerRadius=0.3061mm|HoleSize=0mm|Usage=FLASHONLY|Rotation=0.000|XOffset=0mm|YOffset=0mm|HoleType=Round|Shape=RoundedRectangle|*
%AMROUNDEDRECTD19*
21,1,1.6383,0.0000,0,0,0.0*
21,1,1.0261,0.6121,0,0,0.0*
1,1,0.6121,0.5131,0.0000*
1,1,0.6121,-0.5131,0.0000*
1,1,0.6121,-0.5131,0.0000*
1,1,0.6121,0.5131,0.0000*
%
%ADD19ROUNDEDRECTD19*%
%ADD20R,1.6383X0.6121*%
%ADD21R,0.7500X1.0000*%
%ADD22R,0.8128X0.8128*%
%ADD23R,1.2500X1.1000*%
%ADD24R,2.0000X2.5000*%
%ADD25R,0.5000X2.3000*%
%ADD26R,1.0000X0.7500*%
%ADD27R,0.5588X1.4224*%
%ADD28R,5.9182X1.2954*%
%ADD29R,0.8600X0.5400*%
%ADD30R,1.1000X1.2500*%
%ADD31O,0.8000X0.4000*%
%ADD32R,1.6500X2.4000*%
%ADD33R,1.9000X1.3000*%
%ADD34R,0.9398X0.8636*%
%ADD35R,1.2954X5.9182*%
%ADD36R,0.8128X0.8128*%
%ADD37R,2.1082X1.3970*%
%ADD38R,0.5588X1.5494*%
%ADD39R,1.3970X2.1082*%
%ADD40R,1.7383X2.4130*%
%ADD41R,0.9144X1.6002*%
%ADD42R,1.4986X1.6002*%
G36*
X00096626Y00723072D02*
Y00739073D01*
X00064622D01*
Y00723072D01*
X00096626D01*
D02*
G37*
D17*
X00292500Y00241500D02*
D03*
Y00246500D02*
D03*
Y00251500D02*
D03*
Y00256500D02*
D03*
Y00261500D02*
D03*
Y00266500D02*
D03*
Y00271500D02*
D03*
Y00276500D02*
D03*
Y00281500D02*
D03*
Y00286500D02*
D03*
Y00291500D02*
D03*
Y00296500D02*
D03*
Y00301500D02*
D03*
Y00306500D02*
D03*
Y00311500D02*
D03*
Y00316500D02*
D03*
X00407500D02*
D03*
Y00311500D02*
D03*
Y00306500D02*
D03*
Y00301500D02*
D03*
Y00296500D02*
D03*
Y00291500D02*
D03*
Y00286500D02*
D03*
Y00281500D02*
D03*
Y00276500D02*
D03*
Y00271500D02*
D03*
Y00266500D02*
D03*
Y00261500D02*
D03*
Y00256500D02*
D03*
Y00251500D02*
D03*
Y00246500D02*
D03*
Y00241500D02*
D03*
X00427459Y00572500D02*
D03*
Y00577500D02*
D03*
Y00582500D02*
D03*
Y00587500D02*
D03*
Y00592500D02*
D03*
Y00597500D02*
D03*
Y00602500D02*
D03*
Y00607500D02*
D03*
Y00612500D02*
D03*
Y00617500D02*
D03*
Y00622500D02*
D03*
Y00627500D02*
D03*
X00512459D02*
D03*
Y00622500D02*
D03*
Y00617500D02*
D03*
Y00612500D02*
D03*
Y00607500D02*
D03*
Y00602500D02*
D03*
Y00597500D02*
D03*
Y00592500D02*
D03*
Y00587500D02*
D03*
Y00582500D02*
D03*
Y00577500D02*
D03*
Y00572500D02*
D03*
D18*
X00312500Y00336500D02*
D03*
X00317500D02*
D03*
X00322500D02*
D03*
X00327500D02*
D03*
X00332500D02*
D03*
X00337500D02*
D03*
X00342500D02*
D03*
X00347500D02*
D03*
X00352500D02*
D03*
X00357500D02*
D03*
X00362500D02*
D03*
X00367500D02*
D03*
X00372500D02*
D03*
X00377500D02*
D03*
X00382500D02*
D03*
X00387500D02*
D03*
Y00221500D02*
D03*
X00382500D02*
D03*
X00377500D02*
D03*
X00372500D02*
D03*
X00367500D02*
D03*
X00362500D02*
D03*
X00357500D02*
D03*
X00352500D02*
D03*
X00347500D02*
D03*
X00342500D02*
D03*
X00337500D02*
D03*
X00332500D02*
D03*
X00327500D02*
D03*
X00322500D02*
D03*
X00317500D02*
D03*
X00312500D02*
D03*
X00442459Y00642500D02*
D03*
X00447459D02*
D03*
X00452459D02*
D03*
X00457459D02*
D03*
X00462459D02*
D03*
X00467459D02*
D03*
X00472459D02*
D03*
X00477459D02*
D03*
X00482459D02*
D03*
X00487459D02*
D03*
X00492459D02*
D03*
X00497459D02*
D03*
Y00557500D02*
D03*
X00492459D02*
D03*
X00487459D02*
D03*
X00482459D02*
D03*
X00477459D02*
D03*
X00472459D02*
D03*
X00467459D02*
D03*
X00462459D02*
D03*
X00457459D02*
D03*
X00452459D02*
D03*
X00447459D02*
D03*
X00442459D02*
D03*
D19*
X00311151Y00762679D02*
D03*
Y00743680D02*
D03*
X00287827D02*
D03*
Y00753180D02*
D03*
D20*
Y00762679D02*
D03*
D21*
X00283853Y00788028D02*
D03*
X00268853D02*
D03*
X00351100Y00804480D02*
D03*
X00336100D02*
D03*
X00351100Y00788028D02*
D03*
X00336100D02*
D03*
X00405544Y00665280D02*
D03*
X00420545D02*
D03*
X00361657Y00594467D02*
D03*
X00376657D02*
D03*
Y00611305D02*
D03*
X00361657D02*
D03*
Y00577630D02*
D03*
X00376657D02*
D03*
X00384157Y00659739D02*
D03*
X00369157D02*
D03*
X00384008Y00543247D02*
D03*
X00399008D02*
D03*
X00419890Y00461622D02*
D03*
X00404890D02*
D03*
X00539359Y00648469D02*
D03*
X00554359D02*
D03*
X00582124Y00677410D02*
D03*
X00567124D02*
D03*
X00582124Y00702810D02*
D03*
X00567124D02*
D03*
X00582124Y00728210D02*
D03*
X00567124D02*
D03*
X00582124Y00804410D02*
D03*
X00567124D02*
D03*
X00582124Y00779010D02*
D03*
X00567124D02*
D03*
X00464365Y00097950D02*
D03*
X00449365D02*
D03*
X00464360Y00116088D02*
D03*
X00449360D02*
D03*
X00222500Y00261500D02*
D03*
X00237500D02*
D03*
X00206492Y00699069D02*
D03*
X00191492D02*
D03*
D22*
X00315791Y00804480D02*
D03*
X00300791D02*
D03*
Y00788028D02*
D03*
X00315791D02*
D03*
X00250299Y00699069D02*
D03*
X00235298D02*
D03*
D23*
X00357990Y00762679D02*
D03*
X00340990D02*
D03*
X00357990Y00743680D02*
D03*
X00340990D02*
D03*
X00290374Y00624068D02*
D03*
X00273374D02*
D03*
X00311250D02*
D03*
X00328250D02*
D03*
X00295500Y00198414D02*
D03*
X00312500D02*
D03*
X00464360Y00137807D02*
D03*
X00447360D02*
D03*
X00450792Y00055231D02*
D03*
X00433792D02*
D03*
X00276132Y00560319D02*
D03*
X00293132D02*
D03*
X00276132Y00543009D02*
D03*
X00293132D02*
D03*
X00276132Y00525700D02*
D03*
X00293132D02*
D03*
X00276132Y00508390D02*
D03*
X00293132D02*
D03*
D24*
X00411460Y00747500D02*
D03*
X00500460D02*
D03*
Y00802500D02*
D03*
X00411460D02*
D03*
D25*
X00471960Y00746500D02*
D03*
X00463960D02*
D03*
X00455960D02*
D03*
X00447960D02*
D03*
X00439960D02*
D03*
D26*
X00470460Y00692500D02*
D03*
Y00707500D02*
D03*
X00449460Y00692500D02*
D03*
Y00707500D02*
D03*
X00434531Y00692500D02*
D03*
Y00707500D02*
D03*
X00416101D02*
D03*
Y00692500D02*
D03*
X00369157Y00642738D02*
D03*
Y00627738D02*
D03*
X00344490Y00692500D02*
D03*
Y00707500D02*
D03*
X00528870Y00444170D02*
D03*
Y00459170D02*
D03*
X00514110Y00444170D02*
D03*
Y00459170D02*
D03*
X00477460Y00457924D02*
D03*
Y00442923D02*
D03*
X00383297Y00419290D02*
D03*
Y00434290D02*
D03*
X00600000Y00687805D02*
D03*
Y00702805D02*
D03*
X00327500Y00179092D02*
D03*
Y00164092D02*
D03*
X00312500Y00179092D02*
D03*
Y00164092D02*
D03*
X00293501Y00149060D02*
D03*
Y00134060D02*
D03*
X00691001Y00347160D02*
D03*
Y00362160D02*
D03*
X00371292Y00128381D02*
D03*
Y00113381D02*
D03*
D27*
X00378682Y00711804D02*
D03*
X00388207Y00692500D02*
D03*
X00369157D02*
D03*
D28*
X00422415Y00505301D02*
D03*
X00507505D02*
D03*
D29*
X00222328Y00762680D02*
D03*
X00243728D02*
D03*
Y00785023D02*
D03*
X00222328D02*
D03*
X00606004Y00804409D02*
D03*
X00627404D02*
D03*
D30*
X00269000Y00702280D02*
D03*
Y00719280D02*
D03*
X00287827Y00702278D02*
D03*
Y00719278D02*
D03*
X00330624Y00665989D02*
D03*
Y00648988D02*
D03*
X00310624Y00665989D02*
D03*
Y00682988D02*
D03*
X00498372Y00457920D02*
D03*
Y00440920D02*
D03*
X00376075Y00488301D02*
D03*
Y00505301D02*
D03*
X00404892Y00436289D02*
D03*
Y00419290D02*
D03*
X00553850Y00488300D02*
D03*
Y00505300D02*
D03*
X00257419Y00191789D02*
D03*
Y00208789D02*
D03*
X00232900Y00191789D02*
D03*
Y00208789D02*
D03*
X00208382Y00191789D02*
D03*
Y00208789D02*
D03*
X00183864Y00191789D02*
D03*
Y00208789D02*
D03*
X00276828Y00054928D02*
D03*
Y00071928D02*
D03*
X00357652Y00054928D02*
D03*
Y00071928D02*
D03*
X00116387Y00462341D02*
D03*
Y00479340D02*
D03*
D31*
X00260870Y00665990D02*
D03*
Y00656490D02*
D03*
Y00646990D02*
D03*
X00290370D02*
D03*
Y00656490D02*
D03*
Y00665990D02*
D03*
D32*
X00275620Y00656490D02*
D03*
D33*
X00336000Y00090928D02*
D03*
X00304000D02*
D03*
X00336000Y00035928D02*
D03*
X00304000D02*
D03*
D34*
X00388793Y00111880D02*
D03*
Y00127881D02*
D03*
D35*
X00509805Y00036752D02*
D03*
Y00121842D02*
D03*
D36*
X00691001Y00321520D02*
D03*
Y00306520D02*
D03*
D37*
X00350479Y00464289D02*
D03*
Y00419290D02*
D03*
X00259479D02*
D03*
Y00464289D02*
D03*
D38*
X00191039Y00620075D02*
D03*
X00203739D02*
D03*
X00216439D02*
D03*
X00229139D02*
D03*
Y00673669D02*
D03*
X00216439D02*
D03*
X00203739D02*
D03*
X00191039D02*
D03*
D39*
X00193844Y00479342D02*
D03*
X00148844D02*
D03*
Y00570342D02*
D03*
X00193844D02*
D03*
D40*
X00055843Y00629069D02*
D03*
X00080624D02*
D03*
X00123233D02*
D03*
X00148015D02*
D03*
D41*
X00103624Y00667065D02*
D03*
X00080624D02*
D03*
X00057624D02*
D03*
D42*
X00125328Y00769068D02*
D03*
X00080624D02*
D03*
M02*
