G04*
G04 #@! TF.GenerationSoftware,Altium Limited,Altium Designer,24.4.1 (13)*
G04*
G04 Layer_Color=32896*
%FSAX44Y44*%
%MOMM*%
G71*
G04*
G04 #@! TF.SameCoordinates,09090911-0CFD-4792-A0CC-E2C5D1EC5460*
G04*
G04*
G04 #@! TF.FilePolarity,Positive*
G04*
G01*
G75*
G36*
X00519520Y00733548D02*
X00519756Y00733521D01*
X00519991Y00733479D01*
X00520200Y00733423D01*
X00520394Y00733354D01*
X00520588Y00733285D01*
X00520754Y00733202D01*
X00520907Y00733132D01*
X00521045Y00733049D01*
X00521170Y00732966D01*
X00521267Y00732896D01*
X00521365Y00732827D01*
X00521434Y00732772D01*
X00521475Y00732730D01*
X00521503Y00732702D01*
X00521517Y00732688D01*
X00521670Y00732522D01*
X00521808Y00732355D01*
X00521919Y00732175D01*
X00522016Y00731995D01*
X00522113Y00731815D01*
X00522183Y00731634D01*
X00522280Y00731301D01*
X00522321Y00731149D01*
X00522349Y00731010D01*
X00522363Y00730885D01*
X00522377Y00730775D01*
X00522391Y00730691D01*
Y00730386D01*
X00522363Y00730220D01*
X00522294Y00729887D01*
X00522197Y00729582D01*
X00522086Y00729305D01*
X00521975Y00729083D01*
X00521919Y00728986D01*
X00521878Y00728902D01*
X00521836Y00728833D01*
X00521808Y00728791D01*
X00521794Y00728764D01*
X00521781Y00728750D01*
X00524374Y00729263D01*
Y00733104D01*
X00525497D01*
Y00728334D01*
X00520560Y00727404D01*
X00520408Y00728514D01*
X00520560Y00728611D01*
X00520685Y00728736D01*
X00520810Y00728847D01*
X00520907Y00728958D01*
X00520976Y00729069D01*
X00521045Y00729152D01*
X00521073Y00729207D01*
X00521087Y00729221D01*
X00521170Y00729402D01*
X00521240Y00729582D01*
X00521281Y00729748D01*
X00521323Y00729915D01*
X00521337Y00730053D01*
X00521351Y00730164D01*
Y00730428D01*
X00521323Y00730594D01*
X00521254Y00730885D01*
X00521157Y00731135D01*
X00521059Y00731357D01*
X00520948Y00731523D01*
X00520851Y00731648D01*
X00520782Y00731718D01*
X00520768Y00731745D01*
X00520754D01*
X00520518Y00731939D01*
X00520269Y00732078D01*
X00520005Y00732175D01*
X00519742Y00732245D01*
X00519520Y00732286D01*
X00519423Y00732300D01*
X00519340D01*
X00519270Y00732314D01*
X00519215D01*
X00519187D01*
X00519173D01*
X00518979D01*
X00518799Y00732286D01*
X00518452Y00732217D01*
X00518161Y00732120D01*
X00517925Y00732023D01*
X00517731Y00731912D01*
X00517578Y00731815D01*
X00517537Y00731773D01*
X00517495Y00731745D01*
X00517481Y00731731D01*
X00517467Y00731718D01*
X00517356Y00731607D01*
X00517259Y00731496D01*
X00517093Y00731246D01*
X00516982Y00731010D01*
X00516913Y00730775D01*
X00516857Y00730580D01*
X00516843Y00730414D01*
X00516829Y00730359D01*
Y00730275D01*
X00516843Y00730012D01*
X00516899Y00729776D01*
X00516968Y00729568D01*
X00517051Y00729402D01*
X00517135Y00729249D01*
X00517204Y00729138D01*
X00517259Y00729083D01*
X00517273Y00729055D01*
X00517467Y00728888D01*
X00517676Y00728750D01*
X00517911Y00728639D01*
X00518119Y00728556D01*
X00518327Y00728500D01*
X00518480Y00728458D01*
X00518549Y00728445D01*
X00518591Y00728431D01*
X00518619D01*
X00518632D01*
X00518535Y00727197D01*
X00518313Y00727224D01*
X00518105Y00727266D01*
X00517717Y00727391D01*
X00517384Y00727543D01*
X00517232Y00727626D01*
X00517107Y00727710D01*
X00516982Y00727779D01*
X00516871Y00727862D01*
X00516788Y00727932D01*
X00516719Y00728001D01*
X00516663Y00728056D01*
X00516608Y00728084D01*
X00516594Y00728112D01*
X00516580Y00728126D01*
X00516455Y00728292D01*
X00516344Y00728458D01*
X00516247Y00728639D01*
X00516164Y00728819D01*
X00516039Y00729166D01*
X00515956Y00729512D01*
X00515914Y00729665D01*
X00515900Y00729818D01*
X00515886Y00729942D01*
X00515873Y00730053D01*
X00515859Y00730151D01*
Y00730275D01*
X00515873Y00730566D01*
X00515914Y00730844D01*
X00515970Y00731107D01*
X00516039Y00731343D01*
X00516136Y00731565D01*
X00516233Y00731773D01*
X00516330Y00731967D01*
X00516441Y00732134D01*
X00516552Y00732286D01*
X00516649Y00732425D01*
X00516760Y00732536D01*
X00516843Y00732633D01*
X00516913Y00732702D01*
X00516968Y00732758D01*
X00517010Y00732785D01*
X00517024Y00732799D01*
X00517204Y00732938D01*
X00517398Y00733049D01*
X00517578Y00733160D01*
X00517773Y00733243D01*
X00518147Y00733382D01*
X00518508Y00733465D01*
X00518660Y00733493D01*
X00518813Y00733521D01*
X00518937Y00733534D01*
X00519049Y00733548D01*
X00519146Y00733562D01*
X00519215D01*
X00519257D01*
X00519270D01*
X00519520Y00733548D01*
D02*
G37*
G36*
X00525664Y00723410D02*
X00525428Y00723272D01*
X00525206Y00723119D01*
X00524984Y00722939D01*
X00524790Y00722773D01*
X00524624Y00722606D01*
X00524485Y00722481D01*
X00524443Y00722426D01*
X00524402Y00722384D01*
X00524388Y00722370D01*
X00524374Y00722356D01*
X00524138Y00722065D01*
X00523916Y00721774D01*
X00523722Y00721497D01*
X00523570Y00721219D01*
X00523431Y00720983D01*
X00523375Y00720886D01*
X00523334Y00720803D01*
X00523292Y00720734D01*
X00523278Y00720678D01*
X00523251Y00720651D01*
Y00720637D01*
X00522113D01*
X00522197Y00720845D01*
X00522294Y00721053D01*
X00522391Y00721261D01*
X00522488Y00721455D01*
X00522571Y00721621D01*
X00522640Y00721760D01*
X00522696Y00721843D01*
X00522710Y00721857D01*
Y00721871D01*
X00522862Y00722121D01*
X00523015Y00722343D01*
X00523153Y00722537D01*
X00523278Y00722689D01*
X00523375Y00722828D01*
X00523459Y00722911D01*
X00523514Y00722980D01*
X00523528Y00722994D01*
X00516025D01*
Y00724173D01*
X00525664D01*
Y00723410D01*
D02*
G37*
G36*
X00519118Y00718459D02*
X00519395Y00718404D01*
X00519631Y00718321D01*
X00519853Y00718238D01*
X00520019Y00718154D01*
X00520144Y00718071D01*
X00520227Y00718016D01*
X00520255Y00718002D01*
X00520477Y00717808D01*
X00520657Y00717600D01*
X00520810Y00717364D01*
X00520935Y00717156D01*
X00521032Y00716962D01*
X00521087Y00716795D01*
X00521115Y00716740D01*
X00521129Y00716698D01*
X00521143Y00716670D01*
Y00716656D01*
X00521281Y00716892D01*
X00521420Y00717100D01*
X00521572Y00717267D01*
X00521711Y00717405D01*
X00521822Y00717516D01*
X00521933Y00717600D01*
X00521989Y00717641D01*
X00522016Y00717655D01*
X00522224Y00717766D01*
X00522419Y00717849D01*
X00522613Y00717918D01*
X00522793Y00717960D01*
X00522946Y00717988D01*
X00523070Y00718002D01*
X00523140D01*
X00523167D01*
X00523403Y00717988D01*
X00523639Y00717946D01*
X00523847Y00717877D01*
X00524041Y00717808D01*
X00524207Y00717738D01*
X00524319Y00717669D01*
X00524402Y00717627D01*
X00524429Y00717613D01*
X00524637Y00717461D01*
X00524832Y00717294D01*
X00524984Y00717114D01*
X00525109Y00716948D01*
X00525206Y00716809D01*
X00525275Y00716684D01*
X00525317Y00716601D01*
X00525331Y00716587D01*
Y00716573D01*
X00525428Y00716310D01*
X00525497Y00716019D01*
X00525553Y00715727D01*
X00525580Y00715450D01*
X00525608Y00715200D01*
Y00715089D01*
X00525622Y00714992D01*
Y00711220D01*
X00516025D01*
Y00714881D01*
X00516039Y00715214D01*
X00516053Y00715505D01*
X00516081Y00715769D01*
X00516108Y00715991D01*
X00516136Y00716171D01*
X00516150Y00716310D01*
X00516178Y00716393D01*
Y00716421D01*
X00516247Y00716656D01*
X00516316Y00716851D01*
X00516400Y00717031D01*
X00516483Y00717184D01*
X00516538Y00717308D01*
X00516594Y00717405D01*
X00516635Y00717461D01*
X00516649Y00717475D01*
X00516774Y00717627D01*
X00516927Y00717766D01*
X00517079Y00717877D01*
X00517218Y00717988D01*
X00517356Y00718071D01*
X00517454Y00718127D01*
X00517523Y00718168D01*
X00517551Y00718182D01*
X00517773Y00718279D01*
X00517994Y00718348D01*
X00518203Y00718404D01*
X00518397Y00718432D01*
X00518563Y00718459D01*
X00518702Y00718473D01*
X00518785D01*
X00518799D01*
X00518813D01*
X00519118Y00718459D01*
D02*
G37*
G36*
X00518993Y00709514D02*
X00519257Y00709473D01*
X00519492Y00709403D01*
X00519686Y00709334D01*
X00519853Y00709251D01*
X00519978Y00709195D01*
X00520047Y00709140D01*
X00520075Y00709126D01*
X00520283Y00708960D01*
X00520477Y00708765D01*
X00520643Y00708557D01*
X00520796Y00708349D01*
X00520907Y00708169D01*
X00520990Y00708017D01*
X00521018Y00707961D01*
X00521045Y00707919D01*
X00521059Y00707892D01*
Y00707878D01*
X00521115Y00707767D01*
X00521157Y00707628D01*
X00521212Y00707476D01*
X00521267Y00707309D01*
X00521365Y00706963D01*
X00521462Y00706602D01*
X00521503Y00706435D01*
X00521545Y00706283D01*
X00521586Y00706130D01*
X00521614Y00706006D01*
X00521642Y00705909D01*
X00521656Y00705825D01*
X00521670Y00705770D01*
Y00705756D01*
X00521739Y00705479D01*
X00521794Y00705229D01*
X00521864Y00705007D01*
X00521919Y00704813D01*
X00521989Y00704633D01*
X00522044Y00704480D01*
X00522099Y00704341D01*
X00522141Y00704217D01*
X00522197Y00704119D01*
X00522238Y00704036D01*
X00522266Y00703981D01*
X00522308Y00703925D01*
X00522349Y00703856D01*
X00522363Y00703842D01*
X00522502Y00703717D01*
X00522640Y00703634D01*
X00522779Y00703565D01*
X00522918Y00703523D01*
X00523029Y00703495D01*
X00523126Y00703482D01*
X00523181D01*
X00523209D01*
X00523431Y00703509D01*
X00523625Y00703565D01*
X00523792Y00703648D01*
X00523944Y00703745D01*
X00524055Y00703828D01*
X00524152Y00703911D01*
X00524207Y00703967D01*
X00524221Y00703995D01*
X00524291Y00704106D01*
X00524360Y00704217D01*
X00524471Y00704480D01*
X00524540Y00704757D01*
X00524596Y00705035D01*
X00524624Y00705284D01*
X00524637Y00705395D01*
X00524651Y00705479D01*
Y00705673D01*
X00524637Y00706061D01*
X00524582Y00706408D01*
X00524499Y00706685D01*
X00524416Y00706921D01*
X00524332Y00707101D01*
X00524249Y00707240D01*
X00524194Y00707309D01*
X00524180Y00707337D01*
X00523986Y00707531D01*
X00523778Y00707684D01*
X00523556Y00707809D01*
X00523334Y00707892D01*
X00523126Y00707947D01*
X00522973Y00707989D01*
X00522904Y00708003D01*
X00522862Y00708017D01*
X00522835D01*
X00522821D01*
X00522918Y00709237D01*
X00523223Y00709209D01*
X00523500Y00709140D01*
X00523764Y00709071D01*
X00523986Y00708973D01*
X00524166Y00708890D01*
X00524305Y00708821D01*
X00524346Y00708793D01*
X00524388Y00708765D01*
X00524402Y00708752D01*
X00524416D01*
X00524651Y00708571D01*
X00524859Y00708377D01*
X00525040Y00708169D01*
X00525178Y00707961D01*
X00525303Y00707781D01*
X00525373Y00707642D01*
X00525400Y00707587D01*
X00525428Y00707545D01*
X00525442Y00707517D01*
Y00707503D01*
X00525553Y00707198D01*
X00525636Y00706865D01*
X00525705Y00706560D01*
X00525747Y00706269D01*
X00525775Y00706006D01*
Y00705909D01*
X00525788Y00705811D01*
Y00705631D01*
X00525775Y00705270D01*
X00525733Y00704952D01*
X00525678Y00704647D01*
X00525622Y00704383D01*
X00525567Y00704175D01*
X00525539Y00704078D01*
X00525511Y00704008D01*
X00525483Y00703953D01*
X00525470Y00703911D01*
X00525456Y00703884D01*
Y00703870D01*
X00525317Y00703593D01*
X00525164Y00703343D01*
X00524998Y00703135D01*
X00524846Y00702968D01*
X00524707Y00702844D01*
X00524596Y00702747D01*
X00524513Y00702677D01*
X00524499Y00702663D01*
X00524485D01*
X00524249Y00702525D01*
X00524013Y00702428D01*
X00523778Y00702358D01*
X00523570Y00702317D01*
X00523389Y00702289D01*
X00523251Y00702261D01*
X00523195D01*
X00523153D01*
X00523140D01*
X00523126D01*
X00522890Y00702275D01*
X00522668Y00702317D01*
X00522460Y00702372D01*
X00522280Y00702428D01*
X00522141Y00702483D01*
X00522030Y00702539D01*
X00521961Y00702580D01*
X00521933Y00702594D01*
X00521739Y00702733D01*
X00521559Y00702899D01*
X00521406Y00703065D01*
X00521281Y00703232D01*
X00521170Y00703371D01*
X00521101Y00703495D01*
X00521045Y00703579D01*
X00521032Y00703593D01*
Y00703606D01*
X00520976Y00703717D01*
X00520921Y00703842D01*
X00520824Y00704119D01*
X00520727Y00704438D01*
X00520630Y00704743D01*
X00520546Y00705021D01*
X00520518Y00705146D01*
X00520491Y00705257D01*
X00520463Y00705340D01*
X00520449Y00705409D01*
X00520435Y00705451D01*
Y00705465D01*
X00520380Y00705701D01*
X00520324Y00705922D01*
X00520269Y00706116D01*
X00520227Y00706283D01*
X00520186Y00706449D01*
X00520144Y00706588D01*
X00520116Y00706713D01*
X00520075Y00706810D01*
X00520047Y00706907D01*
X00520033Y00706976D01*
X00519991Y00707087D01*
X00519978Y00707157D01*
X00519964Y00707170D01*
X00519881Y00707378D01*
X00519784Y00707559D01*
X00519686Y00707711D01*
X00519603Y00707822D01*
X00519520Y00707919D01*
X00519464Y00707975D01*
X00519423Y00708017D01*
X00519409Y00708030D01*
X00519284Y00708127D01*
X00519146Y00708197D01*
X00519007Y00708238D01*
X00518896Y00708280D01*
X00518785Y00708294D01*
X00518702Y00708308D01*
X00518632D01*
X00518619D01*
X00518452Y00708294D01*
X00518300Y00708266D01*
X00518161Y00708224D01*
X00518050Y00708169D01*
X00517939Y00708114D01*
X00517870Y00708072D01*
X00517814Y00708044D01*
X00517800Y00708030D01*
X00517662Y00707919D01*
X00517551Y00707781D01*
X00517454Y00707642D01*
X00517356Y00707517D01*
X00517301Y00707392D01*
X00517246Y00707295D01*
X00517218Y00707226D01*
X00517204Y00707198D01*
X00517135Y00706990D01*
X00517079Y00706768D01*
X00517051Y00706546D01*
X00517024Y00706352D01*
X00517010Y00706186D01*
X00516996Y00706047D01*
Y00705922D01*
X00517010Y00705617D01*
X00517038Y00705340D01*
X00517079Y00705090D01*
X00517135Y00704868D01*
X00517190Y00704688D01*
X00517232Y00704549D01*
X00517246Y00704508D01*
X00517259Y00704466D01*
X00517273Y00704452D01*
Y00704438D01*
X00517384Y00704217D01*
X00517509Y00704008D01*
X00517634Y00703856D01*
X00517759Y00703717D01*
X00517856Y00703606D01*
X00517953Y00703537D01*
X00518008Y00703495D01*
X00518022Y00703482D01*
X00518203Y00703384D01*
X00518397Y00703287D01*
X00518605Y00703232D01*
X00518785Y00703176D01*
X00518965Y00703135D01*
X00519090Y00703107D01*
X00519146D01*
X00519187Y00703093D01*
X00519201D01*
X00519215D01*
X00519104Y00701900D01*
X00518757Y00701928D01*
X00518424Y00701984D01*
X00518133Y00702067D01*
X00517870Y00702164D01*
X00517662Y00702261D01*
X00517578Y00702303D01*
X00517509Y00702330D01*
X00517454Y00702372D01*
X00517412Y00702386D01*
X00517384Y00702414D01*
X00517370D01*
X00517107Y00702622D01*
X00516871Y00702844D01*
X00516677Y00703079D01*
X00516511Y00703301D01*
X00516386Y00703495D01*
X00516302Y00703662D01*
X00516275Y00703717D01*
X00516247Y00703759D01*
X00516233Y00703787D01*
Y00703801D01*
X00516108Y00704147D01*
X00516011Y00704508D01*
X00515956Y00704868D01*
X00515900Y00705215D01*
X00515886Y00705381D01*
X00515873Y00705520D01*
Y00705645D01*
X00515859Y00705756D01*
Y00705978D01*
X00515873Y00706352D01*
X00515914Y00706699D01*
X00515984Y00707018D01*
X00516053Y00707281D01*
X00516108Y00707503D01*
X00516150Y00707600D01*
X00516178Y00707684D01*
X00516205Y00707739D01*
X00516219Y00707781D01*
X00516233Y00707809D01*
Y00707822D01*
X00516386Y00708114D01*
X00516552Y00708363D01*
X00516732Y00708585D01*
X00516899Y00708765D01*
X00517038Y00708904D01*
X00517162Y00709001D01*
X00517246Y00709071D01*
X00517259Y00709084D01*
X00517273D01*
X00517537Y00709237D01*
X00517786Y00709348D01*
X00518022Y00709417D01*
X00518244Y00709473D01*
X00518438Y00709500D01*
X00518591Y00709528D01*
X00518646D01*
X00518688D01*
X00518702D01*
X00518716D01*
X00518993Y00709514D01*
D02*
G37*
G36*
X00570108Y00662129D02*
X00570256Y00662111D01*
X00570404Y00662083D01*
X00570533Y00662046D01*
X00570783Y00661944D01*
X00570894Y00661898D01*
X00570987Y00661843D01*
X00571079Y00661778D01*
X00571153Y00661732D01*
X00571227Y00661676D01*
X00571282Y00661630D01*
X00571329Y00661593D01*
X00571356Y00661565D01*
X00571375Y00661547D01*
X00571384Y00661538D01*
X00571486Y00661427D01*
X00571569Y00661297D01*
X00571652Y00661177D01*
X00571717Y00661048D01*
X00571772Y00660909D01*
X00571819Y00660779D01*
X00571883Y00660539D01*
X00571911Y00660419D01*
X00571930Y00660317D01*
X00571939Y00660216D01*
X00571948Y00660132D01*
X00571957Y00660068D01*
Y00660021D01*
Y00659984D01*
Y00659975D01*
X00571948Y00659799D01*
X00571930Y00659642D01*
X00571911Y00659485D01*
X00571874Y00659337D01*
X00571828Y00659208D01*
X00571782Y00659078D01*
X00571735Y00658967D01*
X00571680Y00658866D01*
X00571634Y00658773D01*
X00571587Y00658690D01*
X00571541Y00658625D01*
X00571495Y00658560D01*
X00571458Y00658514D01*
X00571440Y00658486D01*
X00571421Y00658468D01*
X00571412Y00658459D01*
X00571310Y00658357D01*
X00571199Y00658274D01*
X00571088Y00658191D01*
X00570968Y00658126D01*
X00570857Y00658071D01*
X00570746Y00658024D01*
X00570533Y00657960D01*
X00570441Y00657932D01*
X00570349Y00657913D01*
X00570275Y00657904D01*
X00570201Y00657895D01*
X00570145Y00657886D01*
X00570071D01*
X00569896Y00657895D01*
X00569729Y00657923D01*
X00569581Y00657960D01*
X00569442Y00658006D01*
X00569341Y00658043D01*
X00569258Y00658080D01*
X00569202Y00658108D01*
X00569184Y00658117D01*
X00569036Y00658209D01*
X00568906Y00658311D01*
X00568795Y00658413D01*
X00568703Y00658505D01*
X00568638Y00658597D01*
X00568583Y00658662D01*
X00568546Y00658708D01*
X00568536Y00658727D01*
Y00658653D01*
Y00658607D01*
Y00658579D01*
Y00658570D01*
X00568546Y00658385D01*
X00568555Y00658209D01*
X00568573Y00658052D01*
X00568592Y00657904D01*
X00568620Y00657784D01*
X00568638Y00657691D01*
X00568647Y00657654D01*
Y00657627D01*
X00568657Y00657617D01*
Y00657608D01*
X00568703Y00657442D01*
X00568749Y00657294D01*
X00568795Y00657164D01*
X00568842Y00657054D01*
X00568879Y00656970D01*
X00568915Y00656906D01*
X00568934Y00656859D01*
X00568943Y00656850D01*
X00569017Y00656748D01*
X00569091Y00656665D01*
X00569165Y00656591D01*
X00569239Y00656526D01*
X00569295Y00656471D01*
X00569350Y00656434D01*
X00569387Y00656415D01*
X00569396Y00656406D01*
X00569498Y00656351D01*
X00569609Y00656314D01*
X00569711Y00656286D01*
X00569812Y00656268D01*
X00569896Y00656258D01*
X00569960Y00656249D01*
X00570025D01*
X00570173Y00656258D01*
X00570312Y00656286D01*
X00570432Y00656323D01*
X00570533Y00656369D01*
X00570607Y00656406D01*
X00570672Y00656443D01*
X00570709Y00656471D01*
X00570718Y00656480D01*
X00570811Y00656582D01*
X00570885Y00656702D01*
X00570950Y00656832D01*
X00570996Y00656961D01*
X00571033Y00657072D01*
X00571060Y00657174D01*
X00571070Y00657211D01*
Y00657229D01*
X00571079Y00657248D01*
Y00657257D01*
X00571837Y00657192D01*
X00571782Y00656924D01*
X00571708Y00656693D01*
X00571615Y00656489D01*
X00571523Y00656323D01*
X00571430Y00656194D01*
X00571384Y00656138D01*
X00571347Y00656092D01*
X00571319Y00656064D01*
X00571292Y00656037D01*
X00571282Y00656027D01*
X00571273Y00656018D01*
X00571181Y00655944D01*
X00571079Y00655879D01*
X00570876Y00655778D01*
X00570672Y00655704D01*
X00570478Y00655657D01*
X00570302Y00655620D01*
X00570228Y00655611D01*
X00570164D01*
X00570117Y00655602D01*
X00570043D01*
X00569785Y00655620D01*
X00569553Y00655657D01*
X00569341Y00655722D01*
X00569165Y00655796D01*
X00569091Y00655824D01*
X00569017Y00655861D01*
X00568962Y00655898D01*
X00568906Y00655926D01*
X00568869Y00655944D01*
X00568842Y00655963D01*
X00568823Y00655981D01*
X00568814D01*
X00568629Y00656138D01*
X00568462Y00656314D01*
X00568333Y00656499D01*
X00568222Y00656674D01*
X00568130Y00656832D01*
X00568093Y00656906D01*
X00568065Y00656961D01*
X00568046Y00657017D01*
X00568028Y00657054D01*
X00568019Y00657072D01*
Y00657081D01*
X00567972Y00657220D01*
X00567926Y00657377D01*
X00567862Y00657691D01*
X00567815Y00658024D01*
X00567788Y00658339D01*
X00567769Y00658477D01*
X00567760Y00658616D01*
Y00658736D01*
X00567751Y00658838D01*
Y00658921D01*
Y00658986D01*
Y00659032D01*
Y00659041D01*
Y00659254D01*
X00567760Y00659457D01*
X00567778Y00659642D01*
X00567797Y00659818D01*
X00567815Y00659975D01*
X00567834Y00660123D01*
X00567862Y00660262D01*
X00567889Y00660382D01*
X00567917Y00660484D01*
X00567935Y00660576D01*
X00567963Y00660659D01*
X00567982Y00660724D01*
X00568000Y00660770D01*
X00568019Y00660807D01*
X00568028Y00660826D01*
Y00660835D01*
X00568139Y00661057D01*
X00568259Y00661251D01*
X00568398Y00661417D01*
X00568518Y00661556D01*
X00568638Y00661658D01*
X00568731Y00661732D01*
X00568768Y00661759D01*
X00568795Y00661778D01*
X00568805Y00661796D01*
X00568814D01*
X00569008Y00661907D01*
X00569202Y00661991D01*
X00569396Y00662055D01*
X00569572Y00662092D01*
X00569729Y00662120D01*
X00569794Y00662129D01*
X00569840D01*
X00569886Y00662139D01*
X00569951D01*
X00570108Y00662129D01*
D02*
G37*
G36*
X00577634Y00655713D02*
X00575193D01*
X00574971Y00655722D01*
X00574777Y00655731D01*
X00574602Y00655750D01*
X00574454Y00655768D01*
X00574333Y00655787D01*
X00574241Y00655796D01*
X00574185Y00655815D01*
X00574167D01*
X00574010Y00655861D01*
X00573880Y00655907D01*
X00573760Y00655963D01*
X00573658Y00656018D01*
X00573575Y00656055D01*
X00573511Y00656092D01*
X00573474Y00656120D01*
X00573464Y00656129D01*
X00573363Y00656212D01*
X00573270Y00656314D01*
X00573196Y00656415D01*
X00573122Y00656508D01*
X00573067Y00656600D01*
X00573030Y00656665D01*
X00573002Y00656711D01*
X00572993Y00656730D01*
X00572928Y00656878D01*
X00572882Y00657026D01*
X00572845Y00657164D01*
X00572826Y00657294D01*
X00572808Y00657405D01*
X00572799Y00657497D01*
Y00657553D01*
Y00657562D01*
Y00657571D01*
X00572808Y00657775D01*
X00572845Y00657960D01*
X00572900Y00658117D01*
X00572956Y00658265D01*
X00573011Y00658376D01*
X00573067Y00658459D01*
X00573104Y00658514D01*
X00573113Y00658533D01*
X00573242Y00658681D01*
X00573381Y00658801D01*
X00573538Y00658903D01*
X00573677Y00658986D01*
X00573806Y00659051D01*
X00573917Y00659088D01*
X00573954Y00659106D01*
X00573982Y00659115D01*
X00574001Y00659125D01*
X00574010D01*
X00573853Y00659217D01*
X00573714Y00659309D01*
X00573603Y00659411D01*
X00573511Y00659504D01*
X00573437Y00659577D01*
X00573381Y00659651D01*
X00573353Y00659688D01*
X00573344Y00659707D01*
X00573270Y00659846D01*
X00573215Y00659975D01*
X00573168Y00660105D01*
X00573141Y00660225D01*
X00573122Y00660326D01*
X00573113Y00660410D01*
Y00660456D01*
Y00660474D01*
X00573122Y00660631D01*
X00573150Y00660789D01*
X00573196Y00660927D01*
X00573242Y00661057D01*
X00573289Y00661168D01*
X00573335Y00661242D01*
X00573363Y00661297D01*
X00573372Y00661316D01*
X00573474Y00661454D01*
X00573585Y00661584D01*
X00573705Y00661685D01*
X00573816Y00661769D01*
X00573908Y00661833D01*
X00573991Y00661880D01*
X00574047Y00661907D01*
X00574056Y00661917D01*
X00574065D01*
X00574241Y00661981D01*
X00574435Y00662028D01*
X00574629Y00662065D01*
X00574814Y00662083D01*
X00574981Y00662102D01*
X00575055D01*
X00575119Y00662111D01*
X00577634D01*
Y00655713D01*
D02*
G37*
G36*
X00581600Y00662213D02*
X00581813Y00662185D01*
X00582017Y00662148D01*
X00582192Y00662111D01*
X00582331Y00662074D01*
X00582396Y00662055D01*
X00582442Y00662037D01*
X00582479Y00662018D01*
X00582507Y00662009D01*
X00582525Y00662000D01*
X00582534D01*
X00582719Y00661907D01*
X00582886Y00661806D01*
X00583024Y00661695D01*
X00583135Y00661593D01*
X00583218Y00661501D01*
X00583283Y00661427D01*
X00583329Y00661371D01*
X00583339Y00661362D01*
Y00661353D01*
X00583431Y00661196D01*
X00583496Y00661038D01*
X00583542Y00660881D01*
X00583570Y00660742D01*
X00583588Y00660622D01*
X00583607Y00660530D01*
Y00660493D01*
Y00660465D01*
Y00660456D01*
Y00660447D01*
X00583598Y00660289D01*
X00583570Y00660142D01*
X00583533Y00660003D01*
X00583496Y00659883D01*
X00583459Y00659790D01*
X00583422Y00659716D01*
X00583394Y00659670D01*
X00583385Y00659651D01*
X00583293Y00659522D01*
X00583181Y00659402D01*
X00583071Y00659300D01*
X00582960Y00659217D01*
X00582867Y00659143D01*
X00582784Y00659097D01*
X00582729Y00659060D01*
X00582719Y00659051D01*
X00582710D01*
X00582636Y00659014D01*
X00582553Y00658977D01*
X00582368Y00658912D01*
X00582155Y00658847D01*
X00581952Y00658782D01*
X00581767Y00658727D01*
X00581684Y00658708D01*
X00581610Y00658690D01*
X00581554Y00658671D01*
X00581508Y00658662D01*
X00581480Y00658653D01*
X00581471D01*
X00581314Y00658616D01*
X00581166Y00658579D01*
X00581036Y00658542D01*
X00580926Y00658514D01*
X00580815Y00658486D01*
X00580722Y00658459D01*
X00580639Y00658440D01*
X00580574Y00658413D01*
X00580509Y00658394D01*
X00580463Y00658385D01*
X00580389Y00658357D01*
X00580343Y00658348D01*
X00580334Y00658339D01*
X00580195Y00658283D01*
X00580075Y00658218D01*
X00579973Y00658154D01*
X00579899Y00658098D01*
X00579835Y00658043D01*
X00579798Y00658006D01*
X00579770Y00657978D01*
X00579761Y00657969D01*
X00579696Y00657886D01*
X00579650Y00657793D01*
X00579622Y00657701D01*
X00579594Y00657627D01*
X00579585Y00657553D01*
X00579576Y00657497D01*
Y00657451D01*
Y00657442D01*
X00579585Y00657331D01*
X00579604Y00657229D01*
X00579631Y00657137D01*
X00579668Y00657063D01*
X00579705Y00656989D01*
X00579733Y00656943D01*
X00579751Y00656906D01*
X00579761Y00656896D01*
X00579835Y00656804D01*
X00579927Y00656730D01*
X00580019Y00656665D01*
X00580103Y00656600D01*
X00580186Y00656563D01*
X00580251Y00656526D01*
X00580297Y00656508D01*
X00580315Y00656499D01*
X00580454Y00656452D01*
X00580602Y00656415D01*
X00580750Y00656397D01*
X00580879Y00656378D01*
X00580990Y00656369D01*
X00581083Y00656360D01*
X00581166D01*
X00581369Y00656369D01*
X00581554Y00656388D01*
X00581721Y00656415D01*
X00581869Y00656452D01*
X00581989Y00656489D01*
X00582081Y00656517D01*
X00582109Y00656526D01*
X00582137Y00656536D01*
X00582146Y00656545D01*
X00582155D01*
X00582303Y00656619D01*
X00582442Y00656702D01*
X00582544Y00656785D01*
X00582636Y00656869D01*
X00582710Y00656933D01*
X00582756Y00656998D01*
X00582784Y00657035D01*
X00582793Y00657044D01*
X00582858Y00657164D01*
X00582923Y00657294D01*
X00582960Y00657432D01*
X00582997Y00657553D01*
X00583024Y00657673D01*
X00583043Y00657756D01*
Y00657793D01*
X00583052Y00657821D01*
Y00657830D01*
Y00657839D01*
X00583847Y00657765D01*
X00583829Y00657534D01*
X00583792Y00657312D01*
X00583736Y00657118D01*
X00583671Y00656943D01*
X00583607Y00656804D01*
X00583579Y00656748D01*
X00583561Y00656702D01*
X00583533Y00656665D01*
X00583524Y00656637D01*
X00583505Y00656619D01*
Y00656610D01*
X00583366Y00656434D01*
X00583218Y00656277D01*
X00583061Y00656147D01*
X00582913Y00656037D01*
X00582784Y00655953D01*
X00582673Y00655898D01*
X00582636Y00655879D01*
X00582608Y00655861D01*
X00582590Y00655852D01*
X00582580D01*
X00582349Y00655768D01*
X00582109Y00655704D01*
X00581869Y00655667D01*
X00581637Y00655630D01*
X00581526Y00655620D01*
X00581434Y00655611D01*
X00581351D01*
X00581277Y00655602D01*
X00581129D01*
X00580879Y00655611D01*
X00580648Y00655639D01*
X00580436Y00655685D01*
X00580260Y00655731D01*
X00580112Y00655768D01*
X00580047Y00655796D01*
X00579992Y00655815D01*
X00579955Y00655833D01*
X00579927Y00655842D01*
X00579909Y00655852D01*
X00579899D01*
X00579705Y00655953D01*
X00579539Y00656064D01*
X00579391Y00656184D01*
X00579271Y00656295D01*
X00579178Y00656388D01*
X00579113Y00656471D01*
X00579067Y00656526D01*
X00579058Y00656536D01*
Y00656545D01*
X00578956Y00656721D01*
X00578882Y00656887D01*
X00578836Y00657044D01*
X00578799Y00657192D01*
X00578781Y00657322D01*
X00578762Y00657423D01*
Y00657460D01*
Y00657488D01*
Y00657497D01*
Y00657506D01*
X00578771Y00657691D01*
X00578799Y00657867D01*
X00578845Y00658024D01*
X00578892Y00658154D01*
X00578947Y00658265D01*
X00578984Y00658348D01*
X00579021Y00658394D01*
X00579030Y00658413D01*
X00579141Y00658551D01*
X00579271Y00658681D01*
X00579409Y00658792D01*
X00579548Y00658893D01*
X00579668Y00658967D01*
X00579770Y00659023D01*
X00579807Y00659041D01*
X00579835Y00659060D01*
X00579853Y00659069D01*
X00579862D01*
X00579936Y00659106D01*
X00580029Y00659134D01*
X00580131Y00659171D01*
X00580241Y00659208D01*
X00580472Y00659272D01*
X00580713Y00659337D01*
X00580824Y00659365D01*
X00580926Y00659393D01*
X00581027Y00659420D01*
X00581110Y00659439D01*
X00581175Y00659457D01*
X00581231Y00659467D01*
X00581268Y00659476D01*
X00581277D01*
X00581462Y00659522D01*
X00581628Y00659559D01*
X00581776Y00659605D01*
X00581906Y00659642D01*
X00582026Y00659688D01*
X00582127Y00659725D01*
X00582220Y00659762D01*
X00582303Y00659790D01*
X00582368Y00659827D01*
X00582423Y00659855D01*
X00582460Y00659873D01*
X00582497Y00659901D01*
X00582544Y00659929D01*
X00582553Y00659938D01*
X00582636Y00660031D01*
X00582691Y00660123D01*
X00582738Y00660216D01*
X00582766Y00660308D01*
X00582784Y00660382D01*
X00582793Y00660447D01*
Y00660484D01*
Y00660502D01*
X00582775Y00660650D01*
X00582738Y00660779D01*
X00582682Y00660890D01*
X00582617Y00660992D01*
X00582562Y00661066D01*
X00582507Y00661131D01*
X00582470Y00661168D01*
X00582451Y00661177D01*
X00582377Y00661223D01*
X00582303Y00661270D01*
X00582127Y00661343D01*
X00581943Y00661390D01*
X00581758Y00661427D01*
X00581591Y00661445D01*
X00581517Y00661454D01*
X00581462Y00661464D01*
X00581332D01*
X00581073Y00661454D01*
X00580842Y00661417D01*
X00580658Y00661362D01*
X00580500Y00661306D01*
X00580380Y00661251D01*
X00580288Y00661196D01*
X00580241Y00661159D01*
X00580223Y00661149D01*
X00580093Y00661020D01*
X00579992Y00660881D01*
X00579909Y00660733D01*
X00579853Y00660585D01*
X00579816Y00660447D01*
X00579788Y00660345D01*
X00579779Y00660299D01*
X00579770Y00660271D01*
Y00660253D01*
Y00660243D01*
X00578956Y00660308D01*
X00578975Y00660511D01*
X00579021Y00660696D01*
X00579067Y00660872D01*
X00579132Y00661020D01*
X00579187Y00661140D01*
X00579234Y00661233D01*
X00579252Y00661260D01*
X00579271Y00661288D01*
X00579280Y00661297D01*
Y00661306D01*
X00579400Y00661464D01*
X00579529Y00661602D01*
X00579668Y00661722D01*
X00579807Y00661815D01*
X00579927Y00661898D01*
X00580019Y00661944D01*
X00580056Y00661963D01*
X00580084Y00661981D01*
X00580103Y00661991D01*
X00580112D01*
X00580315Y00662065D01*
X00580537Y00662120D01*
X00580741Y00662166D01*
X00580935Y00662194D01*
X00581110Y00662213D01*
X00581175D01*
X00581240Y00662222D01*
X00581360D01*
X00581600Y00662213D01*
D02*
G37*
G36*
X00585660Y00606113D02*
X00583219D01*
X00582997Y00606122D01*
X00582803Y00606132D01*
X00582627Y00606150D01*
X00582480Y00606169D01*
X00582359Y00606187D01*
X00582267Y00606196D01*
X00582211Y00606215D01*
X00582193D01*
X00582036Y00606261D01*
X00581906Y00606307D01*
X00581786Y00606363D01*
X00581684Y00606418D01*
X00581601Y00606455D01*
X00581536Y00606492D01*
X00581499Y00606520D01*
X00581490Y00606529D01*
X00581389Y00606612D01*
X00581296Y00606714D01*
X00581222Y00606816D01*
X00581148Y00606908D01*
X00581093Y00607001D01*
X00581056Y00607065D01*
X00581028Y00607112D01*
X00581019Y00607130D01*
X00580954Y00607278D01*
X00580908Y00607426D01*
X00580871Y00607565D01*
X00580852Y00607694D01*
X00580834Y00607805D01*
X00580825Y00607897D01*
Y00607953D01*
Y00607962D01*
Y00607971D01*
X00580834Y00608175D01*
X00580871Y00608360D01*
X00580926Y00608517D01*
X00580982Y00608665D01*
X00581037Y00608776D01*
X00581093Y00608859D01*
X00581130Y00608914D01*
X00581139Y00608933D01*
X00581268Y00609081D01*
X00581407Y00609201D01*
X00581564Y00609303D01*
X00581703Y00609386D01*
X00581832Y00609451D01*
X00581943Y00609488D01*
X00581980Y00609506D01*
X00582008Y00609515D01*
X00582026Y00609525D01*
X00582036D01*
X00581879Y00609617D01*
X00581740Y00609710D01*
X00581629Y00609811D01*
X00581536Y00609904D01*
X00581462Y00609978D01*
X00581407Y00610052D01*
X00581379Y00610089D01*
X00581370Y00610107D01*
X00581296Y00610246D01*
X00581241Y00610375D01*
X00581194Y00610505D01*
X00581167Y00610625D01*
X00581148Y00610727D01*
X00581139Y00610810D01*
Y00610856D01*
Y00610874D01*
X00581148Y00611032D01*
X00581176Y00611189D01*
X00581222Y00611328D01*
X00581268Y00611457D01*
X00581315Y00611568D01*
X00581361Y00611642D01*
X00581389Y00611697D01*
X00581398Y00611716D01*
X00581499Y00611855D01*
X00581610Y00611984D01*
X00581731Y00612086D01*
X00581842Y00612169D01*
X00581934Y00612234D01*
X00582017Y00612280D01*
X00582073Y00612308D01*
X00582082Y00612317D01*
X00582091D01*
X00582267Y00612382D01*
X00582461Y00612428D01*
X00582655Y00612465D01*
X00582840Y00612483D01*
X00583007Y00612502D01*
X00583080D01*
X00583145Y00612511D01*
X00585660D01*
Y00606113D01*
D02*
G37*
G36*
X00579928Y00611670D02*
X00576793D01*
X00577015Y00611401D01*
X00577228Y00611115D01*
X00577413Y00610838D01*
X00577589Y00610569D01*
X00577663Y00610449D01*
X00577727Y00610338D01*
X00577792Y00610237D01*
X00577838Y00610153D01*
X00577875Y00610079D01*
X00577903Y00610033D01*
X00577921Y00609996D01*
X00577931Y00609987D01*
X00578116Y00609617D01*
X00578282Y00609247D01*
X00578421Y00608896D01*
X00578476Y00608739D01*
X00578532Y00608582D01*
X00578587Y00608443D01*
X00578624Y00608313D01*
X00578661Y00608203D01*
X00578689Y00608110D01*
X00578717Y00608027D01*
X00578735Y00607971D01*
X00578744Y00607934D01*
Y00607925D01*
X00578837Y00607546D01*
X00578874Y00607361D01*
X00578901Y00607195D01*
X00578929Y00607038D01*
X00578957Y00606880D01*
X00578975Y00606751D01*
X00578994Y00606622D01*
X00579003Y00606511D01*
X00579012Y00606409D01*
X00579022Y00606316D01*
Y00606242D01*
X00579031Y00606187D01*
Y00606150D01*
Y00606122D01*
Y00606113D01*
X00578227D01*
X00578199Y00606464D01*
X00578153Y00606788D01*
X00578106Y00607084D01*
X00578078Y00607223D01*
X00578051Y00607352D01*
X00578032Y00607463D01*
X00578005Y00607565D01*
X00577986Y00607657D01*
X00577968Y00607731D01*
X00577949Y00607786D01*
X00577940Y00607833D01*
X00577931Y00607860D01*
Y00607870D01*
X00577792Y00608295D01*
X00577644Y00608693D01*
X00577570Y00608887D01*
X00577496Y00609072D01*
X00577413Y00609238D01*
X00577339Y00609404D01*
X00577274Y00609552D01*
X00577210Y00609682D01*
X00577154Y00609793D01*
X00577108Y00609894D01*
X00577062Y00609978D01*
X00577034Y00610033D01*
X00577015Y00610070D01*
X00577006Y00610079D01*
X00576895Y00610274D01*
X00576784Y00610468D01*
X00576673Y00610643D01*
X00576562Y00610810D01*
X00576461Y00610958D01*
X00576359Y00611106D01*
X00576257Y00611235D01*
X00576174Y00611346D01*
X00576091Y00611457D01*
X00576017Y00611549D01*
X00575943Y00611623D01*
X00575887Y00611688D01*
X00575850Y00611744D01*
X00575813Y00611781D01*
X00575795Y00611799D01*
X00575786Y00611808D01*
Y00612428D01*
X00579928D01*
Y00611670D01*
D02*
G37*
G36*
X00589626Y00612613D02*
X00589839Y00612585D01*
X00590042Y00612548D01*
X00590218Y00612511D01*
X00590357Y00612474D01*
X00590421Y00612455D01*
X00590468Y00612437D01*
X00590505Y00612419D01*
X00590532Y00612409D01*
X00590551Y00612400D01*
X00590560D01*
X00590745Y00612308D01*
X00590911Y00612206D01*
X00591050Y00612095D01*
X00591161Y00611993D01*
X00591244Y00611901D01*
X00591309Y00611827D01*
X00591355Y00611771D01*
X00591365Y00611762D01*
Y00611753D01*
X00591457Y00611596D01*
X00591522Y00611438D01*
X00591568Y00611281D01*
X00591596Y00611143D01*
X00591614Y00611022D01*
X00591633Y00610930D01*
Y00610893D01*
Y00610865D01*
Y00610856D01*
Y00610847D01*
X00591623Y00610690D01*
X00591596Y00610542D01*
X00591559Y00610403D01*
X00591522Y00610283D01*
X00591485Y00610190D01*
X00591448Y00610116D01*
X00591420Y00610070D01*
X00591411Y00610052D01*
X00591318Y00609922D01*
X00591207Y00609802D01*
X00591096Y00609700D01*
X00590985Y00609617D01*
X00590893Y00609543D01*
X00590810Y00609497D01*
X00590754Y00609460D01*
X00590745Y00609451D01*
X00590736D01*
X00590662Y00609414D01*
X00590579Y00609377D01*
X00590394Y00609312D01*
X00590181Y00609247D01*
X00589978Y00609183D01*
X00589793Y00609127D01*
X00589710Y00609109D01*
X00589636Y00609090D01*
X00589580Y00609072D01*
X00589534Y00609062D01*
X00589506Y00609053D01*
X00589497D01*
X00589340Y00609016D01*
X00589192Y00608979D01*
X00589062Y00608942D01*
X00588951Y00608914D01*
X00588840Y00608887D01*
X00588748Y00608859D01*
X00588665Y00608840D01*
X00588600Y00608813D01*
X00588535Y00608794D01*
X00588489Y00608785D01*
X00588415Y00608757D01*
X00588369Y00608748D01*
X00588360Y00608739D01*
X00588221Y00608683D01*
X00588101Y00608619D01*
X00587999Y00608554D01*
X00587925Y00608498D01*
X00587860Y00608443D01*
X00587823Y00608406D01*
X00587796Y00608378D01*
X00587786Y00608369D01*
X00587722Y00608286D01*
X00587676Y00608193D01*
X00587648Y00608101D01*
X00587620Y00608027D01*
X00587611Y00607953D01*
X00587602Y00607897D01*
Y00607851D01*
Y00607842D01*
X00587611Y00607731D01*
X00587629Y00607629D01*
X00587657Y00607537D01*
X00587694Y00607463D01*
X00587731Y00607389D01*
X00587759Y00607343D01*
X00587777Y00607306D01*
X00587786Y00607296D01*
X00587860Y00607204D01*
X00587953Y00607130D01*
X00588045Y00607065D01*
X00588129Y00607001D01*
X00588212Y00606964D01*
X00588276Y00606927D01*
X00588323Y00606908D01*
X00588341Y00606899D01*
X00588480Y00606853D01*
X00588628Y00606816D01*
X00588776Y00606797D01*
X00588905Y00606779D01*
X00589016Y00606769D01*
X00589109Y00606760D01*
X00589192D01*
X00589395Y00606769D01*
X00589580Y00606788D01*
X00589747Y00606816D01*
X00589894Y00606853D01*
X00590015Y00606890D01*
X00590107Y00606917D01*
X00590135Y00606927D01*
X00590163Y00606936D01*
X00590172Y00606945D01*
X00590181D01*
X00590329Y00607019D01*
X00590468Y00607102D01*
X00590569Y00607186D01*
X00590662Y00607269D01*
X00590736Y00607333D01*
X00590782Y00607398D01*
X00590810Y00607435D01*
X00590819Y00607444D01*
X00590884Y00607565D01*
X00590948Y00607694D01*
X00590985Y00607833D01*
X00591022Y00607953D01*
X00591050Y00608073D01*
X00591069Y00608156D01*
Y00608193D01*
X00591078Y00608221D01*
Y00608230D01*
Y00608240D01*
X00591873Y00608166D01*
X00591855Y00607934D01*
X00591818Y00607713D01*
X00591762Y00607518D01*
X00591697Y00607343D01*
X00591633Y00607204D01*
X00591605Y00607149D01*
X00591586Y00607102D01*
X00591559Y00607065D01*
X00591549Y00607038D01*
X00591531Y00607019D01*
Y00607010D01*
X00591392Y00606834D01*
X00591244Y00606677D01*
X00591087Y00606548D01*
X00590939Y00606437D01*
X00590810Y00606353D01*
X00590699Y00606298D01*
X00590662Y00606279D01*
X00590634Y00606261D01*
X00590616Y00606252D01*
X00590606D01*
X00590375Y00606169D01*
X00590135Y00606104D01*
X00589894Y00606067D01*
X00589663Y00606030D01*
X00589552Y00606021D01*
X00589460Y00606011D01*
X00589377D01*
X00589303Y00606002D01*
X00589155D01*
X00588905Y00606011D01*
X00588674Y00606039D01*
X00588461Y00606085D01*
X00588286Y00606132D01*
X00588138Y00606169D01*
X00588073Y00606196D01*
X00588018Y00606215D01*
X00587981Y00606233D01*
X00587953Y00606242D01*
X00587934Y00606252D01*
X00587925D01*
X00587731Y00606353D01*
X00587565Y00606464D01*
X00587417Y00606585D01*
X00587296Y00606696D01*
X00587204Y00606788D01*
X00587139Y00606871D01*
X00587093Y00606927D01*
X00587084Y00606936D01*
Y00606945D01*
X00586982Y00607121D01*
X00586908Y00607287D01*
X00586862Y00607444D01*
X00586825Y00607592D01*
X00586806Y00607722D01*
X00586788Y00607823D01*
Y00607860D01*
Y00607888D01*
Y00607897D01*
Y00607907D01*
X00586797Y00608092D01*
X00586825Y00608267D01*
X00586871Y00608424D01*
X00586917Y00608554D01*
X00586973Y00608665D01*
X00587010Y00608748D01*
X00587047Y00608794D01*
X00587056Y00608813D01*
X00587167Y00608951D01*
X00587296Y00609081D01*
X00587435Y00609192D01*
X00587574Y00609294D01*
X00587694Y00609367D01*
X00587796Y00609423D01*
X00587833Y00609441D01*
X00587860Y00609460D01*
X00587879Y00609469D01*
X00587888D01*
X00587962Y00609506D01*
X00588055Y00609534D01*
X00588156Y00609571D01*
X00588267Y00609608D01*
X00588498Y00609673D01*
X00588739Y00609737D01*
X00588850Y00609765D01*
X00588951Y00609793D01*
X00589053Y00609821D01*
X00589136Y00609839D01*
X00589201Y00609857D01*
X00589257Y00609867D01*
X00589294Y00609876D01*
X00589303D01*
X00589488Y00609922D01*
X00589654Y00609959D01*
X00589802Y00610005D01*
X00589931Y00610042D01*
X00590052Y00610089D01*
X00590153Y00610126D01*
X00590246Y00610163D01*
X00590329Y00610190D01*
X00590394Y00610227D01*
X00590449Y00610255D01*
X00590486Y00610274D01*
X00590523Y00610301D01*
X00590569Y00610329D01*
X00590579Y00610338D01*
X00590662Y00610431D01*
X00590717Y00610523D01*
X00590764Y00610616D01*
X00590791Y00610708D01*
X00590810Y00610782D01*
X00590819Y00610847D01*
Y00610884D01*
Y00610902D01*
X00590801Y00611050D01*
X00590764Y00611180D01*
X00590708Y00611291D01*
X00590643Y00611392D01*
X00590588Y00611466D01*
X00590532Y00611531D01*
X00590495Y00611568D01*
X00590477Y00611577D01*
X00590403Y00611623D01*
X00590329Y00611670D01*
X00590153Y00611744D01*
X00589968Y00611790D01*
X00589784Y00611827D01*
X00589617Y00611845D01*
X00589543Y00611855D01*
X00589488Y00611864D01*
X00589358D01*
X00589099Y00611855D01*
X00588868Y00611818D01*
X00588683Y00611762D01*
X00588526Y00611707D01*
X00588406Y00611651D01*
X00588313Y00611596D01*
X00588267Y00611559D01*
X00588249Y00611549D01*
X00588119Y00611420D01*
X00588018Y00611281D01*
X00587934Y00611133D01*
X00587879Y00610985D01*
X00587842Y00610847D01*
X00587814Y00610745D01*
X00587805Y00610699D01*
X00587796Y00610671D01*
Y00610653D01*
Y00610643D01*
X00586982Y00610708D01*
X00587001Y00610911D01*
X00587047Y00611096D01*
X00587093Y00611272D01*
X00587158Y00611420D01*
X00587213Y00611540D01*
X00587259Y00611633D01*
X00587278Y00611660D01*
X00587296Y00611688D01*
X00587306Y00611697D01*
Y00611707D01*
X00587426Y00611864D01*
X00587555Y00612002D01*
X00587694Y00612123D01*
X00587833Y00612215D01*
X00587953Y00612298D01*
X00588045Y00612345D01*
X00588082Y00612363D01*
X00588110Y00612382D01*
X00588129Y00612391D01*
X00588138D01*
X00588341Y00612465D01*
X00588563Y00612520D01*
X00588767Y00612566D01*
X00588961Y00612594D01*
X00589136Y00612613D01*
X00589201D01*
X00589266Y00612622D01*
X00589386D01*
X00589626Y00612613D01*
D02*
G37*
G36*
X00579080Y00582998D02*
X00578341Y00582896D01*
X00578276Y00582998D01*
X00578193Y00583081D01*
X00578119Y00583165D01*
X00578045Y00583229D01*
X00577971Y00583275D01*
X00577915Y00583322D01*
X00577878Y00583340D01*
X00577869Y00583349D01*
X00577749Y00583405D01*
X00577629Y00583451D01*
X00577518Y00583479D01*
X00577407Y00583507D01*
X00577314Y00583516D01*
X00577240Y00583525D01*
X00577065D01*
X00576954Y00583507D01*
X00576760Y00583460D01*
X00576593Y00583396D01*
X00576445Y00583331D01*
X00576334Y00583257D01*
X00576251Y00583192D01*
X00576205Y00583146D01*
X00576186Y00583137D01*
Y00583128D01*
X00576057Y00582970D01*
X00575965Y00582804D01*
X00575900Y00582628D01*
X00575854Y00582453D01*
X00575826Y00582305D01*
X00575817Y00582240D01*
Y00582184D01*
X00575807Y00582138D01*
Y00582101D01*
Y00582083D01*
Y00582074D01*
Y00581944D01*
X00575826Y00581824D01*
X00575872Y00581593D01*
X00575937Y00581399D01*
X00576002Y00581241D01*
X00576076Y00581112D01*
X00576140Y00581010D01*
X00576168Y00580983D01*
X00576186Y00580955D01*
X00576196Y00580946D01*
X00576205Y00580936D01*
X00576279Y00580862D01*
X00576353Y00580798D01*
X00576519Y00580687D01*
X00576676Y00580613D01*
X00576834Y00580567D01*
X00576963Y00580530D01*
X00577074Y00580520D01*
X00577111Y00580511D01*
X00577166D01*
X00577342Y00580520D01*
X00577499Y00580557D01*
X00577638Y00580603D01*
X00577749Y00580659D01*
X00577851Y00580714D01*
X00577925Y00580761D01*
X00577962Y00580798D01*
X00577980Y00580807D01*
X00578091Y00580936D01*
X00578184Y00581075D01*
X00578257Y00581232D01*
X00578313Y00581371D01*
X00578350Y00581510D01*
X00578378Y00581611D01*
X00578387Y00581657D01*
X00578396Y00581685D01*
Y00581704D01*
Y00581713D01*
X00579219Y00581648D01*
X00579201Y00581500D01*
X00579173Y00581362D01*
X00579090Y00581103D01*
X00578988Y00580881D01*
X00578932Y00580779D01*
X00578877Y00580696D01*
X00578831Y00580613D01*
X00578775Y00580539D01*
X00578729Y00580483D01*
X00578683Y00580437D01*
X00578646Y00580400D01*
X00578627Y00580363D01*
X00578609Y00580354D01*
X00578600Y00580345D01*
X00578489Y00580261D01*
X00578378Y00580187D01*
X00578257Y00580123D01*
X00578137Y00580067D01*
X00577906Y00579984D01*
X00577675Y00579929D01*
X00577573Y00579901D01*
X00577472Y00579892D01*
X00577388Y00579882D01*
X00577314Y00579873D01*
X00577250Y00579864D01*
X00577166D01*
X00576972Y00579873D01*
X00576787Y00579901D01*
X00576612Y00579938D01*
X00576455Y00579984D01*
X00576307Y00580049D01*
X00576168Y00580113D01*
X00576039Y00580178D01*
X00575928Y00580252D01*
X00575826Y00580326D01*
X00575733Y00580391D01*
X00575659Y00580465D01*
X00575595Y00580520D01*
X00575549Y00580567D01*
X00575512Y00580603D01*
X00575493Y00580631D01*
X00575484Y00580640D01*
X00575391Y00580761D01*
X00575317Y00580890D01*
X00575243Y00581010D01*
X00575188Y00581140D01*
X00575095Y00581389D01*
X00575040Y00581630D01*
X00575022Y00581731D01*
X00575003Y00581833D01*
X00574994Y00581916D01*
X00574985Y00581990D01*
X00574975Y00582055D01*
Y00582101D01*
Y00582129D01*
Y00582138D01*
X00574985Y00582305D01*
X00575003Y00582462D01*
X00575031Y00582619D01*
X00575068Y00582758D01*
X00575114Y00582887D01*
X00575160Y00583017D01*
X00575216Y00583128D01*
X00575262Y00583229D01*
X00575317Y00583322D01*
X00575373Y00583405D01*
X00575419Y00583470D01*
X00575465Y00583534D01*
X00575502Y00583581D01*
X00575530Y00583608D01*
X00575549Y00583627D01*
X00575558Y00583636D01*
X00575669Y00583738D01*
X00575780Y00583830D01*
X00575900Y00583904D01*
X00576020Y00583969D01*
X00576140Y00584034D01*
X00576260Y00584080D01*
X00576482Y00584145D01*
X00576584Y00584172D01*
X00576676Y00584191D01*
X00576760Y00584200D01*
X00576834Y00584209D01*
X00576889Y00584219D01*
X00577093D01*
X00577203Y00584200D01*
X00577425Y00584154D01*
X00577629Y00584089D01*
X00577814Y00584015D01*
X00577962Y00583941D01*
X00578026Y00583904D01*
X00578082Y00583876D01*
X00578128Y00583849D01*
X00578156Y00583830D01*
X00578174Y00583821D01*
X00578184Y00583812D01*
X00577841Y00585541D01*
X00575280D01*
Y00586290D01*
X00578461D01*
X00579080Y00582998D01*
D02*
G37*
G36*
X00584896Y00579975D02*
X00582455D01*
X00582233Y00579984D01*
X00582039Y00579993D01*
X00581863Y00580012D01*
X00581715Y00580030D01*
X00581595Y00580049D01*
X00581503Y00580058D01*
X00581447Y00580076D01*
X00581429D01*
X00581272Y00580123D01*
X00581142Y00580169D01*
X00581022Y00580224D01*
X00580920Y00580280D01*
X00580837Y00580317D01*
X00580772Y00580354D01*
X00580735Y00580382D01*
X00580726Y00580391D01*
X00580624Y00580474D01*
X00580532Y00580576D01*
X00580458Y00580677D01*
X00580384Y00580770D01*
X00580328Y00580862D01*
X00580291Y00580927D01*
X00580264Y00580973D01*
X00580255Y00580992D01*
X00580190Y00581140D01*
X00580144Y00581288D01*
X00580107Y00581426D01*
X00580088Y00581556D01*
X00580070Y00581667D01*
X00580060Y00581759D01*
Y00581815D01*
Y00581824D01*
Y00581833D01*
X00580070Y00582037D01*
X00580107Y00582221D01*
X00580162Y00582379D01*
X00580218Y00582527D01*
X00580273Y00582638D01*
X00580328Y00582721D01*
X00580365Y00582776D01*
X00580375Y00582795D01*
X00580504Y00582943D01*
X00580643Y00583063D01*
X00580800Y00583165D01*
X00580939Y00583248D01*
X00581068Y00583312D01*
X00581179Y00583349D01*
X00581216Y00583368D01*
X00581244Y00583377D01*
X00581262Y00583386D01*
X00581272D01*
X00581114Y00583479D01*
X00580976Y00583571D01*
X00580865Y00583673D01*
X00580772Y00583765D01*
X00580698Y00583839D01*
X00580643Y00583913D01*
X00580615Y00583950D01*
X00580606Y00583969D01*
X00580532Y00584108D01*
X00580476Y00584237D01*
X00580430Y00584366D01*
X00580402Y00584487D01*
X00580384Y00584588D01*
X00580375Y00584672D01*
Y00584718D01*
Y00584736D01*
X00580384Y00584893D01*
X00580412Y00585051D01*
X00580458Y00585189D01*
X00580504Y00585319D01*
X00580550Y00585430D01*
X00580597Y00585504D01*
X00580624Y00585559D01*
X00580634Y00585578D01*
X00580735Y00585716D01*
X00580846Y00585846D01*
X00580966Y00585947D01*
X00581077Y00586031D01*
X00581170Y00586095D01*
X00581253Y00586142D01*
X00581309Y00586169D01*
X00581318Y00586179D01*
X00581327D01*
X00581503Y00586243D01*
X00581697Y00586290D01*
X00581891Y00586327D01*
X00582076Y00586345D01*
X00582242Y00586363D01*
X00582316D01*
X00582381Y00586373D01*
X00584896D01*
Y00579975D01*
D02*
G37*
G36*
X00588862Y00586474D02*
X00589075Y00586447D01*
X00589278Y00586410D01*
X00589454Y00586373D01*
X00589593Y00586336D01*
X00589657Y00586317D01*
X00589703Y00586299D01*
X00589740Y00586280D01*
X00589768Y00586271D01*
X00589787Y00586262D01*
X00589796D01*
X00589981Y00586169D01*
X00590147Y00586068D01*
X00590286Y00585957D01*
X00590397Y00585855D01*
X00590480Y00585763D01*
X00590545Y00585689D01*
X00590591Y00585633D01*
X00590600Y00585624D01*
Y00585615D01*
X00590693Y00585457D01*
X00590757Y00585300D01*
X00590804Y00585143D01*
X00590831Y00585004D01*
X00590850Y00584884D01*
X00590868Y00584792D01*
Y00584755D01*
Y00584727D01*
Y00584718D01*
Y00584709D01*
X00590859Y00584551D01*
X00590831Y00584403D01*
X00590794Y00584265D01*
X00590757Y00584145D01*
X00590720Y00584052D01*
X00590684Y00583978D01*
X00590656Y00583932D01*
X00590647Y00583913D01*
X00590554Y00583784D01*
X00590443Y00583664D01*
X00590332Y00583562D01*
X00590221Y00583479D01*
X00590129Y00583405D01*
X00590046Y00583359D01*
X00589990Y00583322D01*
X00589981Y00583312D01*
X00589972D01*
X00589898Y00583275D01*
X00589814Y00583238D01*
X00589630Y00583174D01*
X00589417Y00583109D01*
X00589213Y00583044D01*
X00589029Y00582989D01*
X00588945Y00582970D01*
X00588871Y00582952D01*
X00588816Y00582933D01*
X00588770Y00582924D01*
X00588742Y00582915D01*
X00588733D01*
X00588576Y00582878D01*
X00588428Y00582841D01*
X00588298Y00582804D01*
X00588187Y00582776D01*
X00588076Y00582748D01*
X00587984Y00582721D01*
X00587901Y00582702D01*
X00587836Y00582675D01*
X00587771Y00582656D01*
X00587725Y00582647D01*
X00587651Y00582619D01*
X00587605Y00582610D01*
X00587595Y00582601D01*
X00587457Y00582545D01*
X00587337Y00582480D01*
X00587235Y00582416D01*
X00587161Y00582360D01*
X00587096Y00582305D01*
X00587059Y00582268D01*
X00587032Y00582240D01*
X00587022Y00582231D01*
X00586958Y00582148D01*
X00586911Y00582055D01*
X00586884Y00581963D01*
X00586856Y00581889D01*
X00586847Y00581815D01*
X00586837Y00581759D01*
Y00581713D01*
Y00581704D01*
X00586847Y00581593D01*
X00586865Y00581491D01*
X00586893Y00581399D01*
X00586930Y00581325D01*
X00586967Y00581251D01*
X00586995Y00581204D01*
X00587013Y00581167D01*
X00587022Y00581158D01*
X00587096Y00581066D01*
X00587189Y00580992D01*
X00587281Y00580927D01*
X00587364Y00580862D01*
X00587448Y00580825D01*
X00587512Y00580788D01*
X00587559Y00580770D01*
X00587577Y00580761D01*
X00587716Y00580714D01*
X00587864Y00580677D01*
X00588012Y00580659D01*
X00588141Y00580640D01*
X00588252Y00580631D01*
X00588344Y00580622D01*
X00588428D01*
X00588631Y00580631D01*
X00588816Y00580650D01*
X00588982Y00580677D01*
X00589130Y00580714D01*
X00589250Y00580751D01*
X00589343Y00580779D01*
X00589371Y00580788D01*
X00589398Y00580798D01*
X00589408Y00580807D01*
X00589417D01*
X00589565Y00580881D01*
X00589703Y00580964D01*
X00589805Y00581047D01*
X00589898Y00581130D01*
X00589972Y00581195D01*
X00590018Y00581260D01*
X00590046Y00581297D01*
X00590055Y00581306D01*
X00590120Y00581426D01*
X00590184Y00581556D01*
X00590221Y00581694D01*
X00590258Y00581815D01*
X00590286Y00581935D01*
X00590304Y00582018D01*
Y00582055D01*
X00590314Y00582083D01*
Y00582092D01*
Y00582101D01*
X00591109Y00582027D01*
X00591090Y00581796D01*
X00591053Y00581574D01*
X00590998Y00581380D01*
X00590933Y00581204D01*
X00590868Y00581066D01*
X00590841Y00581010D01*
X00590822Y00580964D01*
X00590794Y00580927D01*
X00590785Y00580899D01*
X00590767Y00580881D01*
Y00580872D01*
X00590628Y00580696D01*
X00590480Y00580539D01*
X00590323Y00580409D01*
X00590175Y00580298D01*
X00590046Y00580215D01*
X00589935Y00580160D01*
X00589898Y00580141D01*
X00589870Y00580123D01*
X00589851Y00580113D01*
X00589842D01*
X00589611Y00580030D01*
X00589371Y00579966D01*
X00589130Y00579929D01*
X00588899Y00579892D01*
X00588788Y00579882D01*
X00588696Y00579873D01*
X00588613D01*
X00588539Y00579864D01*
X00588391D01*
X00588141Y00579873D01*
X00587910Y00579901D01*
X00587697Y00579947D01*
X00587522Y00579993D01*
X00587374Y00580030D01*
X00587309Y00580058D01*
X00587253Y00580076D01*
X00587216Y00580095D01*
X00587189Y00580104D01*
X00587170Y00580113D01*
X00587161D01*
X00586967Y00580215D01*
X00586800Y00580326D01*
X00586652Y00580446D01*
X00586532Y00580557D01*
X00586440Y00580650D01*
X00586375Y00580733D01*
X00586329Y00580788D01*
X00586320Y00580798D01*
Y00580807D01*
X00586218Y00580983D01*
X00586144Y00581149D01*
X00586098Y00581306D01*
X00586061Y00581454D01*
X00586042Y00581584D01*
X00586024Y00581685D01*
Y00581722D01*
Y00581750D01*
Y00581759D01*
Y00581768D01*
X00586033Y00581953D01*
X00586061Y00582129D01*
X00586107Y00582286D01*
X00586153Y00582416D01*
X00586209Y00582527D01*
X00586246Y00582610D01*
X00586283Y00582656D01*
X00586292Y00582675D01*
X00586403Y00582813D01*
X00586532Y00582943D01*
X00586671Y00583054D01*
X00586810Y00583155D01*
X00586930Y00583229D01*
X00587032Y00583285D01*
X00587068Y00583303D01*
X00587096Y00583322D01*
X00587115Y00583331D01*
X00587124D01*
X00587198Y00583368D01*
X00587290Y00583396D01*
X00587392Y00583433D01*
X00587503Y00583470D01*
X00587734Y00583534D01*
X00587975Y00583599D01*
X00588086Y00583627D01*
X00588187Y00583655D01*
X00588289Y00583682D01*
X00588372Y00583701D01*
X00588437Y00583719D01*
X00588492Y00583729D01*
X00588529Y00583738D01*
X00588539D01*
X00588723Y00583784D01*
X00588890Y00583821D01*
X00589038Y00583867D01*
X00589167Y00583904D01*
X00589287Y00583950D01*
X00589389Y00583987D01*
X00589482Y00584024D01*
X00589565Y00584052D01*
X00589630Y00584089D01*
X00589685Y00584117D01*
X00589722Y00584135D01*
X00589759Y00584163D01*
X00589805Y00584191D01*
X00589814Y00584200D01*
X00589898Y00584292D01*
X00589953Y00584385D01*
X00589999Y00584477D01*
X00590027Y00584570D01*
X00590046Y00584644D01*
X00590055Y00584709D01*
Y00584746D01*
Y00584764D01*
X00590036Y00584912D01*
X00589999Y00585041D01*
X00589944Y00585152D01*
X00589879Y00585254D01*
X00589824Y00585328D01*
X00589768Y00585393D01*
X00589731Y00585430D01*
X00589713Y00585439D01*
X00589639Y00585485D01*
X00589565Y00585531D01*
X00589389Y00585605D01*
X00589204Y00585652D01*
X00589019Y00585689D01*
X00588853Y00585707D01*
X00588779Y00585716D01*
X00588723Y00585726D01*
X00588594D01*
X00588335Y00585716D01*
X00588104Y00585679D01*
X00587919Y00585624D01*
X00587762Y00585568D01*
X00587642Y00585513D01*
X00587549Y00585457D01*
X00587503Y00585420D01*
X00587485Y00585411D01*
X00587355Y00585282D01*
X00587253Y00585143D01*
X00587170Y00584995D01*
X00587115Y00584847D01*
X00587078Y00584709D01*
X00587050Y00584607D01*
X00587041Y00584561D01*
X00587032Y00584533D01*
Y00584514D01*
Y00584505D01*
X00586218Y00584570D01*
X00586236Y00584773D01*
X00586283Y00584958D01*
X00586329Y00585134D01*
X00586394Y00585282D01*
X00586449Y00585402D01*
X00586495Y00585494D01*
X00586514Y00585522D01*
X00586532Y00585550D01*
X00586541Y00585559D01*
Y00585568D01*
X00586662Y00585726D01*
X00586791Y00585864D01*
X00586930Y00585984D01*
X00587068Y00586077D01*
X00587189Y00586160D01*
X00587281Y00586206D01*
X00587318Y00586225D01*
X00587346Y00586243D01*
X00587364Y00586253D01*
X00587374D01*
X00587577Y00586327D01*
X00587799Y00586382D01*
X00588002Y00586428D01*
X00588196Y00586456D01*
X00588372Y00586474D01*
X00588437D01*
X00588502Y00586484D01*
X00588622D01*
X00588862Y00586474D01*
D02*
G37*
G36*
X00577377Y00561607D02*
X00577626Y00561560D01*
X00577839Y00561487D01*
X00578024Y00561413D01*
X00578107Y00561366D01*
X00578172Y00561329D01*
X00578237Y00561292D01*
X00578283Y00561255D01*
X00578320Y00561228D01*
X00578348Y00561209D01*
X00578366Y00561200D01*
X00578375Y00561191D01*
X00578551Y00561015D01*
X00578690Y00560821D01*
X00578801Y00560617D01*
X00578893Y00560414D01*
X00578949Y00560238D01*
X00578976Y00560164D01*
X00578995Y00560100D01*
X00579004Y00560044D01*
X00579013Y00560007D01*
X00579023Y00559979D01*
Y00559970D01*
X00578237Y00559832D01*
X00578200Y00560035D01*
X00578144Y00560211D01*
X00578080Y00560359D01*
X00578015Y00560479D01*
X00577950Y00560571D01*
X00577895Y00560636D01*
X00577858Y00560682D01*
X00577848Y00560691D01*
X00577728Y00560784D01*
X00577599Y00560858D01*
X00577479Y00560904D01*
X00577358Y00560941D01*
X00577248Y00560960D01*
X00577164Y00560978D01*
X00577090D01*
X00576924Y00560969D01*
X00576776Y00560932D01*
X00576646Y00560886D01*
X00576535Y00560839D01*
X00576452Y00560784D01*
X00576388Y00560738D01*
X00576341Y00560701D01*
X00576332Y00560691D01*
X00576230Y00560580D01*
X00576157Y00560460D01*
X00576110Y00560340D01*
X00576073Y00560229D01*
X00576055Y00560127D01*
X00576036Y00560053D01*
Y00559998D01*
Y00559989D01*
Y00559979D01*
Y00559878D01*
X00576055Y00559785D01*
X00576101Y00559628D01*
X00576166Y00559489D01*
X00576240Y00559369D01*
X00576314Y00559286D01*
X00576378Y00559221D01*
X00576425Y00559184D01*
X00576434Y00559175D01*
X00576443D01*
X00576600Y00559092D01*
X00576748Y00559027D01*
X00576905Y00558981D01*
X00577044Y00558953D01*
X00577164Y00558935D01*
X00577266Y00558916D01*
X00577386D01*
X00577423Y00558926D01*
X00577469D01*
X00577562Y00558232D01*
X00577442Y00558260D01*
X00577331Y00558278D01*
X00577238Y00558297D01*
X00577155Y00558306D01*
X00577090Y00558315D01*
X00577007D01*
X00576813Y00558297D01*
X00576637Y00558260D01*
X00576480Y00558204D01*
X00576351Y00558140D01*
X00576249Y00558075D01*
X00576175Y00558019D01*
X00576129Y00557982D01*
X00576110Y00557964D01*
X00575990Y00557825D01*
X00575898Y00557677D01*
X00575833Y00557529D01*
X00575796Y00557381D01*
X00575768Y00557261D01*
X00575759Y00557160D01*
X00575750Y00557123D01*
Y00557095D01*
Y00557076D01*
Y00557067D01*
X00575768Y00556864D01*
X00575814Y00556679D01*
X00575870Y00556522D01*
X00575944Y00556383D01*
X00576018Y00556272D01*
X00576073Y00556189D01*
X00576119Y00556133D01*
X00576138Y00556115D01*
X00576286Y00555985D01*
X00576443Y00555893D01*
X00576600Y00555828D01*
X00576748Y00555782D01*
X00576878Y00555754D01*
X00576979Y00555745D01*
X00577016Y00555736D01*
X00577072D01*
X00577238Y00555745D01*
X00577395Y00555782D01*
X00577534Y00555828D01*
X00577645Y00555884D01*
X00577738Y00555930D01*
X00577811Y00555976D01*
X00577848Y00556013D01*
X00577867Y00556022D01*
X00577978Y00556152D01*
X00578070Y00556300D01*
X00578153Y00556457D01*
X00578218Y00556623D01*
X00578265Y00556762D01*
X00578283Y00556827D01*
X00578292Y00556882D01*
X00578302Y00556928D01*
X00578311Y00556965D01*
X00578320Y00556984D01*
Y00556993D01*
X00579106Y00556891D01*
X00579087Y00556744D01*
X00579060Y00556605D01*
X00578976Y00556346D01*
X00578875Y00556124D01*
X00578819Y00556032D01*
X00578764Y00555939D01*
X00578708Y00555856D01*
X00578653Y00555791D01*
X00578607Y00555727D01*
X00578560Y00555680D01*
X00578533Y00555643D01*
X00578505Y00555616D01*
X00578486Y00555597D01*
X00578477Y00555588D01*
X00578366Y00555505D01*
X00578255Y00555421D01*
X00578144Y00555357D01*
X00578024Y00555301D01*
X00577793Y00555209D01*
X00577571Y00555153D01*
X00577469Y00555135D01*
X00577377Y00555116D01*
X00577294Y00555107D01*
X00577220Y00555098D01*
X00577164Y00555089D01*
X00577081D01*
X00576905Y00555098D01*
X00576748Y00555116D01*
X00576591Y00555144D01*
X00576443Y00555181D01*
X00576304Y00555227D01*
X00576184Y00555273D01*
X00576064Y00555329D01*
X00575962Y00555384D01*
X00575861Y00555431D01*
X00575777Y00555486D01*
X00575703Y00555532D01*
X00575648Y00555578D01*
X00575602Y00555616D01*
X00575565Y00555643D01*
X00575546Y00555662D01*
X00575537Y00555671D01*
X00575426Y00555782D01*
X00575334Y00555902D01*
X00575250Y00556022D01*
X00575176Y00556143D01*
X00575121Y00556254D01*
X00575065Y00556374D01*
X00574991Y00556596D01*
X00574973Y00556697D01*
X00574955Y00556790D01*
X00574936Y00556873D01*
X00574927Y00556947D01*
X00574918Y00557002D01*
Y00557049D01*
Y00557076D01*
Y00557086D01*
X00574927Y00557308D01*
X00574964Y00557511D01*
X00575019Y00557687D01*
X00575075Y00557835D01*
X00575130Y00557955D01*
X00575186Y00558047D01*
X00575223Y00558103D01*
X00575232Y00558121D01*
X00575361Y00558260D01*
X00575500Y00558380D01*
X00575648Y00558472D01*
X00575796Y00558546D01*
X00575925Y00558602D01*
X00576027Y00558639D01*
X00576064Y00558648D01*
X00576092Y00558657D01*
X00576110Y00558667D01*
X00576119D01*
X00575962Y00558750D01*
X00575833Y00558833D01*
X00575722Y00558926D01*
X00575630Y00559009D01*
X00575555Y00559083D01*
X00575500Y00559147D01*
X00575472Y00559184D01*
X00575463Y00559203D01*
X00575389Y00559332D01*
X00575334Y00559462D01*
X00575287Y00559591D01*
X00575260Y00559711D01*
X00575241Y00559813D01*
X00575232Y00559887D01*
Y00559943D01*
Y00559961D01*
X00575241Y00560118D01*
X00575269Y00560275D01*
X00575306Y00560414D01*
X00575352Y00560534D01*
X00575398Y00560636D01*
X00575435Y00560719D01*
X00575463Y00560765D01*
X00575472Y00560784D01*
X00575565Y00560923D01*
X00575676Y00561043D01*
X00575787Y00561144D01*
X00575898Y00561237D01*
X00575990Y00561302D01*
X00576073Y00561357D01*
X00576129Y00561385D01*
X00576138Y00561394D01*
X00576147D01*
X00576314Y00561468D01*
X00576480Y00561524D01*
X00576646Y00561570D01*
X00576794Y00561597D01*
X00576915Y00561616D01*
X00577016Y00561625D01*
X00577248D01*
X00577377Y00561607D01*
D02*
G37*
G36*
X00584792Y00555200D02*
X00582351D01*
X00582129Y00555209D01*
X00581935Y00555218D01*
X00581759Y00555237D01*
X00581611Y00555255D01*
X00581491Y00555273D01*
X00581399Y00555283D01*
X00581343Y00555301D01*
X00581325D01*
X00581168Y00555347D01*
X00581038Y00555394D01*
X00580918Y00555449D01*
X00580816Y00555505D01*
X00580733Y00555542D01*
X00580668Y00555578D01*
X00580631Y00555606D01*
X00580622Y00555616D01*
X00580520Y00555699D01*
X00580428Y00555800D01*
X00580354Y00555902D01*
X00580280Y00555995D01*
X00580224Y00556087D01*
X00580188Y00556152D01*
X00580160Y00556198D01*
X00580151Y00556217D01*
X00580086Y00556364D01*
X00580040Y00556512D01*
X00580003Y00556651D01*
X00579984Y00556781D01*
X00579966Y00556891D01*
X00579956Y00556984D01*
Y00557039D01*
Y00557049D01*
Y00557058D01*
X00579966Y00557261D01*
X00580003Y00557446D01*
X00580058Y00557603D01*
X00580114Y00557751D01*
X00580169Y00557862D01*
X00580224Y00557945D01*
X00580261Y00558001D01*
X00580271Y00558019D01*
X00580400Y00558167D01*
X00580539Y00558288D01*
X00580696Y00558389D01*
X00580835Y00558472D01*
X00580964Y00558537D01*
X00581075Y00558574D01*
X00581112Y00558593D01*
X00581140Y00558602D01*
X00581158Y00558611D01*
X00581168D01*
X00581010Y00558704D01*
X00580872Y00558796D01*
X00580761Y00558898D01*
X00580668Y00558990D01*
X00580594Y00559064D01*
X00580539Y00559138D01*
X00580511Y00559175D01*
X00580502Y00559194D01*
X00580428Y00559332D01*
X00580373Y00559462D01*
X00580326Y00559591D01*
X00580299Y00559711D01*
X00580280Y00559813D01*
X00580271Y00559896D01*
Y00559943D01*
Y00559961D01*
X00580280Y00560118D01*
X00580308Y00560275D01*
X00580354Y00560414D01*
X00580400Y00560543D01*
X00580446Y00560654D01*
X00580493Y00560728D01*
X00580520Y00560784D01*
X00580530Y00560802D01*
X00580631Y00560941D01*
X00580742Y00561070D01*
X00580863Y00561172D01*
X00580973Y00561255D01*
X00581066Y00561320D01*
X00581149Y00561366D01*
X00581205Y00561394D01*
X00581214Y00561403D01*
X00581223D01*
X00581399Y00561468D01*
X00581593Y00561514D01*
X00581787Y00561551D01*
X00581972Y00561570D01*
X00582138Y00561588D01*
X00582212D01*
X00582277Y00561597D01*
X00584792D01*
Y00555200D01*
D02*
G37*
G36*
X00588758Y00561699D02*
X00588971Y00561671D01*
X00589174Y00561634D01*
X00589350Y00561597D01*
X00589489Y00561560D01*
X00589553Y00561542D01*
X00589600Y00561524D01*
X00589637Y00561505D01*
X00589664Y00561496D01*
X00589683Y00561487D01*
X00589692D01*
X00589877Y00561394D01*
X00590043Y00561292D01*
X00590182Y00561181D01*
X00590293Y00561080D01*
X00590376Y00560987D01*
X00590441Y00560913D01*
X00590487Y00560858D01*
X00590496Y00560849D01*
Y00560839D01*
X00590589Y00560682D01*
X00590654Y00560525D01*
X00590700Y00560368D01*
X00590728Y00560229D01*
X00590746Y00560109D01*
X00590765Y00560016D01*
Y00559979D01*
Y00559952D01*
Y00559943D01*
Y00559933D01*
X00590755Y00559776D01*
X00590728Y00559628D01*
X00590691Y00559489D01*
X00590654Y00559369D01*
X00590617Y00559277D01*
X00590580Y00559203D01*
X00590552Y00559157D01*
X00590543Y00559138D01*
X00590450Y00559009D01*
X00590339Y00558889D01*
X00590228Y00558787D01*
X00590117Y00558704D01*
X00590025Y00558630D01*
X00589942Y00558583D01*
X00589886Y00558546D01*
X00589877Y00558537D01*
X00589868D01*
X00589794Y00558500D01*
X00589711Y00558463D01*
X00589526Y00558399D01*
X00589313Y00558334D01*
X00589110Y00558269D01*
X00588925Y00558214D01*
X00588841Y00558195D01*
X00588768Y00558177D01*
X00588712Y00558158D01*
X00588666Y00558149D01*
X00588638Y00558140D01*
X00588629D01*
X00588472Y00558103D01*
X00588324Y00558066D01*
X00588194Y00558029D01*
X00588083Y00558001D01*
X00587972Y00557973D01*
X00587880Y00557945D01*
X00587797Y00557927D01*
X00587732Y00557899D01*
X00587667Y00557881D01*
X00587621Y00557872D01*
X00587547Y00557844D01*
X00587501Y00557835D01*
X00587492Y00557825D01*
X00587353Y00557770D01*
X00587233Y00557705D01*
X00587131Y00557640D01*
X00587057Y00557585D01*
X00586992Y00557529D01*
X00586955Y00557492D01*
X00586928Y00557465D01*
X00586918Y00557455D01*
X00586854Y00557372D01*
X00586807Y00557280D01*
X00586780Y00557187D01*
X00586752Y00557113D01*
X00586743Y00557039D01*
X00586733Y00556984D01*
Y00556938D01*
Y00556928D01*
X00586743Y00556818D01*
X00586761Y00556716D01*
X00586789Y00556623D01*
X00586826Y00556549D01*
X00586863Y00556475D01*
X00586891Y00556429D01*
X00586909Y00556392D01*
X00586918Y00556383D01*
X00586992Y00556291D01*
X00587085Y00556217D01*
X00587177Y00556152D01*
X00587260Y00556087D01*
X00587344Y00556050D01*
X00587408Y00556013D01*
X00587455Y00555995D01*
X00587473Y00555985D01*
X00587612Y00555939D01*
X00587760Y00555902D01*
X00587908Y00555884D01*
X00588037Y00555865D01*
X00588148Y00555856D01*
X00588241Y00555847D01*
X00588324D01*
X00588527Y00555856D01*
X00588712Y00555874D01*
X00588878Y00555902D01*
X00589026Y00555939D01*
X00589146Y00555976D01*
X00589239Y00556004D01*
X00589267Y00556013D01*
X00589295Y00556022D01*
X00589304Y00556032D01*
X00589313D01*
X00589461Y00556105D01*
X00589600Y00556189D01*
X00589701Y00556272D01*
X00589794Y00556355D01*
X00589868Y00556420D01*
X00589914Y00556485D01*
X00589942Y00556522D01*
X00589951Y00556531D01*
X00590016Y00556651D01*
X00590080Y00556781D01*
X00590117Y00556919D01*
X00590154Y00557039D01*
X00590182Y00557160D01*
X00590201Y00557243D01*
Y00557280D01*
X00590210Y00557308D01*
Y00557317D01*
Y00557326D01*
X00591005Y00557252D01*
X00590986Y00557021D01*
X00590949Y00556799D01*
X00590894Y00556605D01*
X00590829Y00556429D01*
X00590765Y00556291D01*
X00590737Y00556235D01*
X00590718Y00556189D01*
X00590691Y00556152D01*
X00590681Y00556124D01*
X00590663Y00556105D01*
Y00556096D01*
X00590524Y00555921D01*
X00590376Y00555764D01*
X00590219Y00555634D01*
X00590071Y00555523D01*
X00589942Y00555440D01*
X00589831Y00555384D01*
X00589794Y00555366D01*
X00589766Y00555347D01*
X00589748Y00555338D01*
X00589738D01*
X00589507Y00555255D01*
X00589267Y00555190D01*
X00589026Y00555153D01*
X00588795Y00555116D01*
X00588684Y00555107D01*
X00588592Y00555098D01*
X00588509D01*
X00588435Y00555089D01*
X00588287D01*
X00588037Y00555098D01*
X00587806Y00555126D01*
X00587593Y00555172D01*
X00587418Y00555218D01*
X00587270Y00555255D01*
X00587205Y00555283D01*
X00587150Y00555301D01*
X00587113Y00555320D01*
X00587085Y00555329D01*
X00587066Y00555338D01*
X00587057D01*
X00586863Y00555440D01*
X00586697Y00555551D01*
X00586549Y00555671D01*
X00586428Y00555782D01*
X00586336Y00555874D01*
X00586271Y00555958D01*
X00586225Y00556013D01*
X00586216Y00556022D01*
Y00556032D01*
X00586114Y00556207D01*
X00586040Y00556374D01*
X00585994Y00556531D01*
X00585957Y00556679D01*
X00585938Y00556808D01*
X00585920Y00556910D01*
Y00556947D01*
Y00556975D01*
Y00556984D01*
Y00556993D01*
X00585929Y00557178D01*
X00585957Y00557354D01*
X00586003Y00557511D01*
X00586049Y00557640D01*
X00586105Y00557751D01*
X00586142Y00557835D01*
X00586179Y00557881D01*
X00586188Y00557899D01*
X00586299Y00558038D01*
X00586428Y00558167D01*
X00586567Y00558278D01*
X00586706Y00558380D01*
X00586826Y00558454D01*
X00586928Y00558509D01*
X00586965Y00558528D01*
X00586992Y00558546D01*
X00587011Y00558556D01*
X00587020D01*
X00587094Y00558593D01*
X00587187Y00558620D01*
X00587288Y00558657D01*
X00587399Y00558694D01*
X00587630Y00558759D01*
X00587871Y00558824D01*
X00587982Y00558852D01*
X00588083Y00558879D01*
X00588185Y00558907D01*
X00588268Y00558926D01*
X00588333Y00558944D01*
X00588388Y00558953D01*
X00588425Y00558962D01*
X00588435D01*
X00588619Y00559009D01*
X00588786Y00559046D01*
X00588934Y00559092D01*
X00589063Y00559129D01*
X00589184Y00559175D01*
X00589285Y00559212D01*
X00589378Y00559249D01*
X00589461Y00559277D01*
X00589526Y00559314D01*
X00589581Y00559342D01*
X00589618Y00559360D01*
X00589655Y00559388D01*
X00589701Y00559416D01*
X00589711Y00559425D01*
X00589794Y00559517D01*
X00589849Y00559610D01*
X00589895Y00559702D01*
X00589923Y00559795D01*
X00589942Y00559869D01*
X00589951Y00559933D01*
Y00559970D01*
Y00559989D01*
X00589932Y00560137D01*
X00589895Y00560266D01*
X00589840Y00560377D01*
X00589775Y00560479D01*
X00589720Y00560553D01*
X00589664Y00560617D01*
X00589627Y00560654D01*
X00589609Y00560664D01*
X00589535Y00560710D01*
X00589461Y00560756D01*
X00589285Y00560830D01*
X00589100Y00560876D01*
X00588915Y00560913D01*
X00588749Y00560932D01*
X00588675Y00560941D01*
X00588619Y00560950D01*
X00588490D01*
X00588231Y00560941D01*
X00588000Y00560904D01*
X00587815Y00560849D01*
X00587658Y00560793D01*
X00587538Y00560738D01*
X00587445Y00560682D01*
X00587399Y00560645D01*
X00587381Y00560636D01*
X00587251Y00560506D01*
X00587150Y00560368D01*
X00587066Y00560220D01*
X00587011Y00560072D01*
X00586974Y00559933D01*
X00586946Y00559832D01*
X00586937Y00559785D01*
X00586928Y00559758D01*
Y00559739D01*
Y00559730D01*
X00586114Y00559795D01*
X00586133Y00559998D01*
X00586179Y00560183D01*
X00586225Y00560359D01*
X00586290Y00560506D01*
X00586345Y00560627D01*
X00586391Y00560719D01*
X00586410Y00560747D01*
X00586428Y00560775D01*
X00586438Y00560784D01*
Y00560793D01*
X00586558Y00560950D01*
X00586687Y00561089D01*
X00586826Y00561209D01*
X00586965Y00561302D01*
X00587085Y00561385D01*
X00587177Y00561431D01*
X00587214Y00561450D01*
X00587242Y00561468D01*
X00587260Y00561477D01*
X00587270D01*
X00587473Y00561551D01*
X00587695Y00561607D01*
X00587898Y00561653D01*
X00588092Y00561681D01*
X00588268Y00561699D01*
X00588333D01*
X00588398Y00561708D01*
X00588518D01*
X00588758Y00561699D01*
D02*
G37*
G36*
X00680979Y00655886D02*
X00681127D01*
X00681275Y00655877D01*
X00681405Y00655859D01*
X00681534Y00655849D01*
X00681645Y00655840D01*
X00681747Y00655822D01*
X00681839Y00655812D01*
X00681922Y00655794D01*
X00681987Y00655785D01*
X00682043Y00655775D01*
X00682089Y00655766D01*
X00682116Y00655757D01*
X00682135Y00655748D01*
X00682144D01*
X00682348Y00655692D01*
X00682533Y00655627D01*
X00682690Y00655554D01*
X00682829Y00655498D01*
X00682949Y00655433D01*
X00683032Y00655396D01*
X00683078Y00655359D01*
X00683097Y00655350D01*
X00683235Y00655248D01*
X00683355Y00655147D01*
X00683457Y00655036D01*
X00683550Y00654934D01*
X00683614Y00654842D01*
X00683661Y00654768D01*
X00683688Y00654721D01*
X00683698Y00654712D01*
Y00654703D01*
X00683772Y00654555D01*
X00683818Y00654398D01*
X00683855Y00654250D01*
X00683883Y00654111D01*
X00683901Y00653991D01*
X00683910Y00653889D01*
Y00653806D01*
X00683892Y00653556D01*
X00683855Y00653325D01*
X00683790Y00653131D01*
X00683725Y00652965D01*
X00683651Y00652826D01*
X00683624Y00652770D01*
X00683587Y00652724D01*
X00683568Y00652687D01*
X00683550Y00652660D01*
X00683531Y00652650D01*
Y00652641D01*
X00683383Y00652475D01*
X00683207Y00652336D01*
X00683032Y00652216D01*
X00682865Y00652123D01*
X00682708Y00652049D01*
X00682644Y00652012D01*
X00682579Y00651994D01*
X00682533Y00651975D01*
X00682496Y00651957D01*
X00682477Y00651948D01*
X00682468D01*
X00682329Y00651911D01*
X00682190Y00651874D01*
X00681885Y00651818D01*
X00681580Y00651772D01*
X00681294Y00651744D01*
X00681155Y00651735D01*
X00681035Y00651726D01*
X00680924D01*
X00680822Y00651717D01*
X00680748D01*
X00680684D01*
X00680647D01*
X00680637D01*
X00680314Y00651726D01*
X00680008Y00651744D01*
X00679731Y00651772D01*
X00679472Y00651818D01*
X00679232Y00651864D01*
X00679019Y00651920D01*
X00678825Y00651975D01*
X00678659Y00652031D01*
X00678511Y00652086D01*
X00678381Y00652151D01*
X00678270Y00652197D01*
X00678187Y00652243D01*
X00678113Y00652290D01*
X00678067Y00652318D01*
X00678039Y00652336D01*
X00678030Y00652345D01*
X00677919Y00652447D01*
X00677817Y00652558D01*
X00677725Y00652678D01*
X00677651Y00652798D01*
X00677586Y00652918D01*
X00677531Y00653039D01*
X00677494Y00653159D01*
X00677457Y00653270D01*
X00677429Y00653381D01*
X00677411Y00653482D01*
X00677392Y00653575D01*
X00677383Y00653649D01*
X00677374Y00653714D01*
Y00653806D01*
X00677392Y00654056D01*
X00677429Y00654287D01*
X00677494Y00654481D01*
X00677559Y00654647D01*
X00677623Y00654786D01*
X00677660Y00654832D01*
X00677688Y00654878D01*
X00677706Y00654915D01*
X00677725Y00654943D01*
X00677743Y00654952D01*
Y00654962D01*
X00677900Y00655128D01*
X00678067Y00655267D01*
X00678252Y00655387D01*
X00678418Y00655480D01*
X00678576Y00655554D01*
X00678640Y00655590D01*
X00678705Y00655609D01*
X00678751Y00655627D01*
X00678788Y00655646D01*
X00678807Y00655655D01*
X00678816D01*
X00678954Y00655701D01*
X00679093Y00655738D01*
X00679389Y00655794D01*
X00679694Y00655840D01*
X00679990Y00655868D01*
X00680119Y00655877D01*
X00680240Y00655886D01*
X00680351D01*
X00680452Y00655895D01*
X00680526D01*
X00680591D01*
X00680628D01*
X00680637D01*
X00680813D01*
X00680979Y00655886D01*
D02*
G37*
G36*
X00683910Y00649193D02*
X00683753Y00649100D01*
X00683605Y00648998D01*
X00683457Y00648878D01*
X00683328Y00648767D01*
X00683217Y00648656D01*
X00683124Y00648573D01*
X00683097Y00648536D01*
X00683069Y00648508D01*
X00683060Y00648499D01*
X00683050Y00648490D01*
X00682893Y00648296D01*
X00682745Y00648102D01*
X00682616Y00647917D01*
X00682514Y00647732D01*
X00682422Y00647574D01*
X00682385Y00647510D01*
X00682357Y00647454D01*
X00682329Y00647408D01*
X00682320Y00647371D01*
X00682301Y00647353D01*
Y00647343D01*
X00681543D01*
X00681599Y00647482D01*
X00681664Y00647621D01*
X00681728Y00647759D01*
X00681793Y00647889D01*
X00681848Y00648000D01*
X00681895Y00648092D01*
X00681932Y00648148D01*
X00681941Y00648157D01*
Y00648166D01*
X00682043Y00648333D01*
X00682144Y00648481D01*
X00682237Y00648610D01*
X00682320Y00648712D01*
X00682385Y00648804D01*
X00682440Y00648860D01*
X00682477Y00648906D01*
X00682486Y00648915D01*
X00677485D01*
Y00649701D01*
X00683910D01*
Y00649193D01*
D02*
G37*
G36*
X00679546Y00645892D02*
X00679731Y00645855D01*
X00679888Y00645799D01*
X00680036Y00645744D01*
X00680147Y00645688D01*
X00680230Y00645633D01*
X00680286Y00645596D01*
X00680304Y00645587D01*
X00680452Y00645457D01*
X00680573Y00645319D01*
X00680674Y00645161D01*
X00680757Y00645023D01*
X00680822Y00644893D01*
X00680859Y00644782D01*
X00680878Y00644745D01*
X00680887Y00644718D01*
X00680896Y00644699D01*
Y00644690D01*
X00680989Y00644847D01*
X00681081Y00644986D01*
X00681183Y00645097D01*
X00681275Y00645189D01*
X00681349Y00645263D01*
X00681423Y00645319D01*
X00681460Y00645346D01*
X00681479Y00645356D01*
X00681617Y00645430D01*
X00681747Y00645485D01*
X00681876Y00645531D01*
X00681996Y00645559D01*
X00682098Y00645577D01*
X00682181Y00645587D01*
X00682227D01*
X00682246D01*
X00682403Y00645577D01*
X00682560Y00645550D01*
X00682699Y00645503D01*
X00682829Y00645457D01*
X00682939Y00645411D01*
X00683013Y00645365D01*
X00683069Y00645337D01*
X00683087Y00645328D01*
X00683226Y00645226D01*
X00683355Y00645115D01*
X00683457Y00644995D01*
X00683540Y00644884D01*
X00683605Y00644792D01*
X00683651Y00644708D01*
X00683679Y00644653D01*
X00683688Y00644644D01*
Y00644634D01*
X00683753Y00644459D01*
X00683799Y00644265D01*
X00683836Y00644070D01*
X00683855Y00643885D01*
X00683873Y00643719D01*
Y00643645D01*
X00683883Y00643580D01*
Y00641066D01*
X00677485D01*
Y00643506D01*
X00677494Y00643728D01*
X00677503Y00643923D01*
X00677522Y00644098D01*
X00677540Y00644246D01*
X00677559Y00644366D01*
X00677568Y00644459D01*
X00677586Y00644514D01*
Y00644533D01*
X00677632Y00644690D01*
X00677679Y00644819D01*
X00677734Y00644939D01*
X00677790Y00645041D01*
X00677827Y00645124D01*
X00677864Y00645189D01*
X00677891Y00645226D01*
X00677900Y00645235D01*
X00677984Y00645337D01*
X00678085Y00645430D01*
X00678187Y00645503D01*
X00678280Y00645577D01*
X00678372Y00645633D01*
X00678437Y00645670D01*
X00678483Y00645698D01*
X00678502Y00645707D01*
X00678649Y00645772D01*
X00678797Y00645818D01*
X00678936Y00645855D01*
X00679065Y00645873D01*
X00679176Y00645892D01*
X00679269Y00645901D01*
X00679324D01*
X00679334D01*
X00679343D01*
X00679546Y00645892D01*
D02*
G37*
G36*
X00679463Y00639928D02*
X00679639Y00639901D01*
X00679796Y00639854D01*
X00679925Y00639808D01*
X00680036Y00639753D01*
X00680119Y00639716D01*
X00680166Y00639679D01*
X00680184Y00639669D01*
X00680323Y00639559D01*
X00680452Y00639429D01*
X00680563Y00639290D01*
X00680665Y00639152D01*
X00680739Y00639032D01*
X00680794Y00638930D01*
X00680813Y00638893D01*
X00680831Y00638865D01*
X00680841Y00638847D01*
Y00638837D01*
X00680878Y00638763D01*
X00680905Y00638671D01*
X00680942Y00638569D01*
X00680979Y00638458D01*
X00681044Y00638227D01*
X00681109Y00637987D01*
X00681136Y00637876D01*
X00681164Y00637774D01*
X00681192Y00637673D01*
X00681210Y00637589D01*
X00681229Y00637524D01*
X00681238Y00637469D01*
X00681247Y00637432D01*
Y00637423D01*
X00681294Y00637238D01*
X00681331Y00637071D01*
X00681377Y00636924D01*
X00681414Y00636794D01*
X00681460Y00636674D01*
X00681497Y00636572D01*
X00681534Y00636480D01*
X00681562Y00636397D01*
X00681599Y00636332D01*
X00681627Y00636276D01*
X00681645Y00636239D01*
X00681673Y00636202D01*
X00681701Y00636156D01*
X00681710Y00636147D01*
X00681802Y00636064D01*
X00681895Y00636008D01*
X00681987Y00635962D01*
X00682080Y00635934D01*
X00682153Y00635916D01*
X00682218Y00635907D01*
X00682255D01*
X00682274D01*
X00682422Y00635925D01*
X00682551Y00635962D01*
X00682662Y00636017D01*
X00682764Y00636082D01*
X00682838Y00636138D01*
X00682902Y00636193D01*
X00682939Y00636230D01*
X00682949Y00636249D01*
X00682995Y00636323D01*
X00683041Y00636397D01*
X00683115Y00636572D01*
X00683161Y00636757D01*
X00683198Y00636942D01*
X00683217Y00637108D01*
X00683226Y00637182D01*
X00683235Y00637238D01*
Y00637367D01*
X00683226Y00637626D01*
X00683189Y00637857D01*
X00683134Y00638042D01*
X00683078Y00638200D01*
X00683023Y00638320D01*
X00682967Y00638412D01*
X00682930Y00638458D01*
X00682921Y00638477D01*
X00682792Y00638606D01*
X00682653Y00638708D01*
X00682505Y00638791D01*
X00682357Y00638847D01*
X00682218Y00638884D01*
X00682116Y00638911D01*
X00682070Y00638921D01*
X00682043Y00638930D01*
X00682024D01*
X00682015D01*
X00682080Y00639743D01*
X00682283Y00639725D01*
X00682468Y00639679D01*
X00682644Y00639632D01*
X00682792Y00639568D01*
X00682912Y00639512D01*
X00683004Y00639466D01*
X00683032Y00639448D01*
X00683060Y00639429D01*
X00683069Y00639420D01*
X00683078D01*
X00683235Y00639300D01*
X00683374Y00639170D01*
X00683494Y00639032D01*
X00683587Y00638893D01*
X00683670Y00638773D01*
X00683716Y00638680D01*
X00683735Y00638643D01*
X00683753Y00638615D01*
X00683762Y00638597D01*
Y00638588D01*
X00683836Y00638384D01*
X00683892Y00638162D01*
X00683938Y00637959D01*
X00683966Y00637765D01*
X00683984Y00637589D01*
Y00637524D01*
X00683993Y00637460D01*
Y00637340D01*
X00683984Y00637099D01*
X00683956Y00636887D01*
X00683919Y00636683D01*
X00683883Y00636507D01*
X00683846Y00636369D01*
X00683827Y00636304D01*
X00683809Y00636258D01*
X00683790Y00636221D01*
X00683781Y00636193D01*
X00683772Y00636175D01*
Y00636165D01*
X00683679Y00635980D01*
X00683577Y00635814D01*
X00683466Y00635675D01*
X00683365Y00635564D01*
X00683272Y00635481D01*
X00683198Y00635416D01*
X00683143Y00635370D01*
X00683134Y00635361D01*
X00683124D01*
X00682967Y00635269D01*
X00682810Y00635204D01*
X00682653Y00635158D01*
X00682514Y00635130D01*
X00682394Y00635111D01*
X00682301Y00635093D01*
X00682264D01*
X00682237D01*
X00682227D01*
X00682218D01*
X00682061Y00635102D01*
X00681913Y00635130D01*
X00681775Y00635167D01*
X00681654Y00635204D01*
X00681562Y00635241D01*
X00681488Y00635278D01*
X00681442Y00635306D01*
X00681423Y00635315D01*
X00681294Y00635407D01*
X00681173Y00635518D01*
X00681072Y00635629D01*
X00680989Y00635740D01*
X00680915Y00635833D01*
X00680868Y00635916D01*
X00680831Y00635971D01*
X00680822Y00635980D01*
Y00635990D01*
X00680785Y00636064D01*
X00680748Y00636147D01*
X00680684Y00636332D01*
X00680619Y00636544D01*
X00680554Y00636748D01*
X00680499Y00636933D01*
X00680480Y00637016D01*
X00680462Y00637090D01*
X00680443Y00637146D01*
X00680434Y00637192D01*
X00680425Y00637219D01*
Y00637229D01*
X00680388Y00637386D01*
X00680351Y00637534D01*
X00680314Y00637663D01*
X00680286Y00637774D01*
X00680258Y00637885D01*
X00680230Y00637978D01*
X00680212Y00638061D01*
X00680184Y00638125D01*
X00680166Y00638190D01*
X00680156Y00638236D01*
X00680129Y00638310D01*
X00680119Y00638357D01*
X00680110Y00638366D01*
X00680055Y00638505D01*
X00679990Y00638625D01*
X00679925Y00638727D01*
X00679870Y00638800D01*
X00679814Y00638865D01*
X00679777Y00638902D01*
X00679750Y00638930D01*
X00679740Y00638939D01*
X00679657Y00639004D01*
X00679565Y00639050D01*
X00679472Y00639078D01*
X00679398Y00639105D01*
X00679324Y00639115D01*
X00679269Y00639124D01*
X00679223D01*
X00679213D01*
X00679102Y00639115D01*
X00679001Y00639096D01*
X00678908Y00639068D01*
X00678834Y00639032D01*
X00678760Y00638995D01*
X00678714Y00638967D01*
X00678677Y00638948D01*
X00678668Y00638939D01*
X00678576Y00638865D01*
X00678502Y00638773D01*
X00678437Y00638680D01*
X00678372Y00638597D01*
X00678335Y00638514D01*
X00678298Y00638449D01*
X00678280Y00638403D01*
X00678270Y00638384D01*
X00678224Y00638246D01*
X00678187Y00638098D01*
X00678169Y00637950D01*
X00678150Y00637820D01*
X00678141Y00637709D01*
X00678132Y00637617D01*
Y00637534D01*
X00678141Y00637330D01*
X00678159Y00637146D01*
X00678187Y00636979D01*
X00678224Y00636831D01*
X00678261Y00636711D01*
X00678289Y00636618D01*
X00678298Y00636591D01*
X00678307Y00636563D01*
X00678317Y00636554D01*
Y00636544D01*
X00678391Y00636397D01*
X00678474Y00636258D01*
X00678557Y00636156D01*
X00678640Y00636064D01*
X00678705Y00635990D01*
X00678770Y00635943D01*
X00678807Y00635916D01*
X00678816Y00635907D01*
X00678936Y00635842D01*
X00679065Y00635777D01*
X00679204Y00635740D01*
X00679324Y00635703D01*
X00679445Y00635675D01*
X00679528Y00635657D01*
X00679565D01*
X00679593Y00635648D01*
X00679602D01*
X00679611D01*
X00679537Y00634853D01*
X00679306Y00634871D01*
X00679084Y00634908D01*
X00678890Y00634963D01*
X00678714Y00635028D01*
X00678576Y00635093D01*
X00678520Y00635121D01*
X00678474Y00635139D01*
X00678437Y00635167D01*
X00678409Y00635176D01*
X00678391Y00635195D01*
X00678381D01*
X00678206Y00635333D01*
X00678048Y00635481D01*
X00677919Y00635638D01*
X00677808Y00635786D01*
X00677725Y00635916D01*
X00677669Y00636027D01*
X00677651Y00636064D01*
X00677632Y00636091D01*
X00677623Y00636110D01*
Y00636119D01*
X00677540Y00636350D01*
X00677475Y00636591D01*
X00677438Y00636831D01*
X00677401Y00637062D01*
X00677392Y00637173D01*
X00677383Y00637266D01*
Y00637349D01*
X00677374Y00637423D01*
Y00637571D01*
X00677383Y00637820D01*
X00677411Y00638051D01*
X00677457Y00638264D01*
X00677503Y00638440D01*
X00677540Y00638588D01*
X00677568Y00638652D01*
X00677586Y00638708D01*
X00677605Y00638745D01*
X00677614Y00638773D01*
X00677623Y00638791D01*
Y00638800D01*
X00677725Y00638995D01*
X00677836Y00639161D01*
X00677956Y00639309D01*
X00678067Y00639429D01*
X00678159Y00639522D01*
X00678243Y00639586D01*
X00678298Y00639632D01*
X00678307Y00639642D01*
X00678317D01*
X00678492Y00639743D01*
X00678659Y00639817D01*
X00678816Y00639864D01*
X00678964Y00639901D01*
X00679093Y00639919D01*
X00679195Y00639938D01*
X00679232D01*
X00679260D01*
X00679269D01*
X00679278D01*
X00679463Y00639928D01*
D02*
G37*
G36*
X00678997Y00627952D02*
X00679191Y00627915D01*
X00679366Y00627860D01*
X00679514Y00627804D01*
X00679634Y00627749D01*
X00679727Y00627693D01*
X00679782Y00627656D01*
X00679792Y00627647D01*
X00679801D01*
X00679949Y00627518D01*
X00680078Y00627379D01*
X00680180Y00627231D01*
X00680272Y00627092D01*
X00680337Y00626963D01*
X00680383Y00626852D01*
X00680402Y00626815D01*
X00680411Y00626787D01*
X00680420Y00626769D01*
Y00626760D01*
X00680494Y00626926D01*
X00680577Y00627065D01*
X00680661Y00627185D01*
X00680744Y00627287D01*
X00680818Y00627360D01*
X00680873Y00627416D01*
X00680910Y00627453D01*
X00680929Y00627462D01*
X00681058Y00627545D01*
X00681188Y00627601D01*
X00681317Y00627647D01*
X00681447Y00627675D01*
X00681548Y00627693D01*
X00681631Y00627703D01*
X00681687D01*
X00681696D01*
X00681705D01*
X00681835Y00627693D01*
X00681955Y00627684D01*
X00682186Y00627619D01*
X00682390Y00627536D01*
X00682565Y00627444D01*
X00682704Y00627351D01*
X00682759Y00627305D01*
X00682815Y00627268D01*
X00682852Y00627231D01*
X00682880Y00627203D01*
X00682889Y00627194D01*
X00682898Y00627185D01*
X00682981Y00627083D01*
X00683065Y00626981D01*
X00683129Y00626870D01*
X00683185Y00626760D01*
X00683268Y00626538D01*
X00683323Y00626316D01*
X00683351Y00626223D01*
X00683360Y00626131D01*
X00683370Y00626048D01*
X00683379Y00625974D01*
X00683388Y00625918D01*
Y00625835D01*
X00683379Y00625687D01*
X00683370Y00625539D01*
X00683314Y00625280D01*
X00683277Y00625160D01*
X00683240Y00625049D01*
X00683194Y00624947D01*
X00683148Y00624855D01*
X00683102Y00624781D01*
X00683055Y00624707D01*
X00683018Y00624642D01*
X00682981Y00624596D01*
X00682954Y00624559D01*
X00682926Y00624531D01*
X00682917Y00624513D01*
X00682907Y00624504D01*
X00682815Y00624420D01*
X00682722Y00624337D01*
X00682621Y00624272D01*
X00682519Y00624217D01*
X00682325Y00624125D01*
X00682140Y00624069D01*
X00681983Y00624032D01*
X00681909Y00624023D01*
X00681853Y00624014D01*
X00681798Y00624004D01*
X00681761D01*
X00681742D01*
X00681733D01*
X00681567Y00624014D01*
X00681410Y00624041D01*
X00681271Y00624078D01*
X00681151Y00624125D01*
X00681058Y00624161D01*
X00680984Y00624198D01*
X00680947Y00624226D01*
X00680929Y00624235D01*
X00680818Y00624337D01*
X00680716Y00624448D01*
X00680624Y00624568D01*
X00680550Y00624688D01*
X00680494Y00624799D01*
X00680457Y00624883D01*
X00680439Y00624920D01*
X00680430Y00624947D01*
X00680420Y00624957D01*
Y00624966D01*
X00680356Y00624753D01*
X00680272Y00624578D01*
X00680171Y00624420D01*
X00680078Y00624291D01*
X00679986Y00624189D01*
X00679912Y00624115D01*
X00679866Y00624078D01*
X00679856Y00624060D01*
X00679847D01*
X00679681Y00623958D01*
X00679505Y00623875D01*
X00679339Y00623820D01*
X00679172Y00623783D01*
X00679024Y00623764D01*
X00678960Y00623755D01*
X00678904D01*
X00678867Y00623745D01*
X00678830D01*
X00678812D01*
X00678802D01*
X00678654Y00623755D01*
X00678506Y00623773D01*
X00678368Y00623801D01*
X00678229Y00623838D01*
X00677998Y00623930D01*
X00677887Y00623977D01*
X00677795Y00624032D01*
X00677702Y00624088D01*
X00677628Y00624134D01*
X00677563Y00624189D01*
X00677508Y00624226D01*
X00677462Y00624263D01*
X00677434Y00624291D01*
X00677415Y00624310D01*
X00677406Y00624319D01*
X00677305Y00624430D01*
X00677221Y00624550D01*
X00677147Y00624679D01*
X00677083Y00624809D01*
X00677036Y00624929D01*
X00676990Y00625058D01*
X00676926Y00625308D01*
X00676898Y00625419D01*
X00676879Y00625521D01*
X00676870Y00625613D01*
X00676861Y00625696D01*
X00676852Y00625761D01*
Y00625854D01*
X00676861Y00626029D01*
X00676879Y00626186D01*
X00676907Y00626343D01*
X00676935Y00626491D01*
X00676981Y00626621D01*
X00677027Y00626750D01*
X00677073Y00626870D01*
X00677129Y00626972D01*
X00677184Y00627065D01*
X00677231Y00627148D01*
X00677277Y00627213D01*
X00677323Y00627277D01*
X00677351Y00627323D01*
X00677378Y00627351D01*
X00677397Y00627370D01*
X00677406Y00627379D01*
X00677517Y00627481D01*
X00677628Y00627573D01*
X00677739Y00627647D01*
X00677859Y00627712D01*
X00677970Y00627777D01*
X00678090Y00627823D01*
X00678303Y00627887D01*
X00678405Y00627915D01*
X00678497Y00627934D01*
X00678580Y00627943D01*
X00678645Y00627952D01*
X00678701Y00627962D01*
X00678747D01*
X00678775D01*
X00678784D01*
X00678997Y00627952D01*
D02*
G37*
G36*
X00679024Y00622904D02*
X00679209Y00622867D01*
X00679366Y00622812D01*
X00679514Y00622756D01*
X00679625Y00622701D01*
X00679708Y00622645D01*
X00679764Y00622608D01*
X00679782Y00622599D01*
X00679930Y00622470D01*
X00680051Y00622331D01*
X00680152Y00622174D01*
X00680235Y00622035D01*
X00680300Y00621906D01*
X00680337Y00621795D01*
X00680356Y00621758D01*
X00680365Y00621730D01*
X00680374Y00621712D01*
Y00621702D01*
X00680467Y00621859D01*
X00680559Y00621998D01*
X00680661Y00622109D01*
X00680753Y00622201D01*
X00680827Y00622275D01*
X00680901Y00622331D01*
X00680938Y00622359D01*
X00680957Y00622368D01*
X00681095Y00622442D01*
X00681225Y00622497D01*
X00681354Y00622544D01*
X00681474Y00622571D01*
X00681576Y00622590D01*
X00681659Y00622599D01*
X00681705D01*
X00681724D01*
X00681881Y00622590D01*
X00682038Y00622562D01*
X00682177Y00622516D01*
X00682306Y00622470D01*
X00682417Y00622423D01*
X00682491Y00622377D01*
X00682547Y00622349D01*
X00682565Y00622340D01*
X00682704Y00622239D01*
X00682833Y00622127D01*
X00682935Y00622007D01*
X00683018Y00621896D01*
X00683083Y00621804D01*
X00683129Y00621721D01*
X00683157Y00621665D01*
X00683166Y00621656D01*
Y00621647D01*
X00683231Y00621471D01*
X00683277Y00621277D01*
X00683314Y00621083D01*
X00683333Y00620898D01*
X00683351Y00620731D01*
Y00620658D01*
X00683360Y00620593D01*
Y00618078D01*
X00676963D01*
Y00620519D01*
X00676972Y00620741D01*
X00676981Y00620935D01*
X00677000Y00621110D01*
X00677018Y00621258D01*
X00677036Y00621379D01*
X00677046Y00621471D01*
X00677064Y00621526D01*
Y00621545D01*
X00677110Y00621702D01*
X00677157Y00621832D01*
X00677212Y00621952D01*
X00677268Y00622053D01*
X00677305Y00622137D01*
X00677342Y00622201D01*
X00677369Y00622239D01*
X00677378Y00622248D01*
X00677462Y00622349D01*
X00677563Y00622442D01*
X00677665Y00622516D01*
X00677758Y00622590D01*
X00677850Y00622645D01*
X00677915Y00622682D01*
X00677961Y00622710D01*
X00677980Y00622719D01*
X00678127Y00622784D01*
X00678275Y00622830D01*
X00678414Y00622867D01*
X00678543Y00622886D01*
X00678654Y00622904D01*
X00678747Y00622913D01*
X00678802D01*
X00678812D01*
X00678821D01*
X00679024Y00622904D01*
D02*
G37*
G36*
X00678941Y00616941D02*
X00679117Y00616913D01*
X00679274Y00616867D01*
X00679403Y00616820D01*
X00679514Y00616765D01*
X00679597Y00616728D01*
X00679644Y00616691D01*
X00679662Y00616682D01*
X00679801Y00616571D01*
X00679930Y00616441D01*
X00680041Y00616303D01*
X00680143Y00616164D01*
X00680217Y00616044D01*
X00680272Y00615942D01*
X00680291Y00615905D01*
X00680309Y00615877D01*
X00680319Y00615859D01*
Y00615850D01*
X00680356Y00615776D01*
X00680383Y00615683D01*
X00680420Y00615582D01*
X00680457Y00615471D01*
X00680522Y00615239D01*
X00680587Y00614999D01*
X00680614Y00614888D01*
X00680642Y00614786D01*
X00680670Y00614685D01*
X00680688Y00614602D01*
X00680707Y00614537D01*
X00680716Y00614481D01*
X00680725Y00614444D01*
Y00614435D01*
X00680772Y00614250D01*
X00680809Y00614084D01*
X00680855Y00613936D01*
X00680892Y00613806D01*
X00680938Y00613686D01*
X00680975Y00613585D01*
X00681012Y00613492D01*
X00681040Y00613409D01*
X00681077Y00613344D01*
X00681105Y00613289D01*
X00681123Y00613252D01*
X00681151Y00613215D01*
X00681179Y00613168D01*
X00681188Y00613159D01*
X00681280Y00613076D01*
X00681373Y00613021D01*
X00681465Y00612974D01*
X00681557Y00612947D01*
X00681631Y00612928D01*
X00681696Y00612919D01*
X00681733D01*
X00681752D01*
X00681900Y00612937D01*
X00682029Y00612974D01*
X00682140Y00613030D01*
X00682242Y00613095D01*
X00682316Y00613150D01*
X00682380Y00613205D01*
X00682417Y00613242D01*
X00682427Y00613261D01*
X00682473Y00613335D01*
X00682519Y00613409D01*
X00682593Y00613585D01*
X00682639Y00613769D01*
X00682676Y00613954D01*
X00682695Y00614121D01*
X00682704Y00614195D01*
X00682713Y00614250D01*
Y00614380D01*
X00682704Y00614639D01*
X00682667Y00614870D01*
X00682611Y00615055D01*
X00682556Y00615212D01*
X00682501Y00615332D01*
X00682445Y00615424D01*
X00682408Y00615471D01*
X00682399Y00615489D01*
X00682270Y00615619D01*
X00682131Y00615720D01*
X00681983Y00615803D01*
X00681835Y00615859D01*
X00681696Y00615896D01*
X00681594Y00615924D01*
X00681548Y00615933D01*
X00681521Y00615942D01*
X00681502D01*
X00681493D01*
X00681557Y00616756D01*
X00681761Y00616737D01*
X00681946Y00616691D01*
X00682122Y00616645D01*
X00682270Y00616580D01*
X00682390Y00616525D01*
X00682482Y00616478D01*
X00682510Y00616460D01*
X00682538Y00616441D01*
X00682547Y00616432D01*
X00682556D01*
X00682713Y00616312D01*
X00682852Y00616183D01*
X00682972Y00616044D01*
X00683065Y00615905D01*
X00683148Y00615785D01*
X00683194Y00615693D01*
X00683213Y00615656D01*
X00683231Y00615628D01*
X00683240Y00615609D01*
Y00615600D01*
X00683314Y00615397D01*
X00683370Y00615175D01*
X00683416Y00614971D01*
X00683444Y00614777D01*
X00683462Y00614602D01*
Y00614537D01*
X00683471Y00614472D01*
Y00614352D01*
X00683462Y00614112D01*
X00683434Y00613899D01*
X00683397Y00613695D01*
X00683360Y00613520D01*
X00683323Y00613381D01*
X00683305Y00613316D01*
X00683287Y00613270D01*
X00683268Y00613233D01*
X00683259Y00613205D01*
X00683250Y00613187D01*
Y00613178D01*
X00683157Y00612993D01*
X00683055Y00612826D01*
X00682944Y00612688D01*
X00682843Y00612577D01*
X00682750Y00612494D01*
X00682676Y00612429D01*
X00682621Y00612383D01*
X00682611Y00612373D01*
X00682602D01*
X00682445Y00612281D01*
X00682288Y00612216D01*
X00682131Y00612170D01*
X00681992Y00612142D01*
X00681872Y00612124D01*
X00681779Y00612105D01*
X00681742D01*
X00681715D01*
X00681705D01*
X00681696D01*
X00681539Y00612114D01*
X00681391Y00612142D01*
X00681252Y00612179D01*
X00681132Y00612216D01*
X00681040Y00612253D01*
X00680966Y00612290D01*
X00680920Y00612318D01*
X00680901Y00612327D01*
X00680772Y00612420D01*
X00680651Y00612531D01*
X00680550Y00612641D01*
X00680467Y00612752D01*
X00680393Y00612845D01*
X00680346Y00612928D01*
X00680309Y00612984D01*
X00680300Y00612993D01*
Y00613002D01*
X00680263Y00613076D01*
X00680226Y00613159D01*
X00680162Y00613344D01*
X00680097Y00613557D01*
X00680032Y00613760D01*
X00679977Y00613945D01*
X00679958Y00614028D01*
X00679940Y00614102D01*
X00679921Y00614158D01*
X00679912Y00614204D01*
X00679903Y00614232D01*
Y00614241D01*
X00679866Y00614398D01*
X00679829Y00614546D01*
X00679792Y00614676D01*
X00679764Y00614786D01*
X00679736Y00614897D01*
X00679708Y00614990D01*
X00679690Y00615073D01*
X00679662Y00615138D01*
X00679644Y00615203D01*
X00679634Y00615249D01*
X00679607Y00615323D01*
X00679597Y00615369D01*
X00679588Y00615378D01*
X00679533Y00615517D01*
X00679468Y00615637D01*
X00679403Y00615739D01*
X00679348Y00615813D01*
X00679292Y00615877D01*
X00679255Y00615914D01*
X00679228Y00615942D01*
X00679218Y00615951D01*
X00679135Y00616016D01*
X00679043Y00616062D01*
X00678950Y00616090D01*
X00678876Y00616118D01*
X00678802Y00616127D01*
X00678747Y00616136D01*
X00678701D01*
X00678691D01*
X00678580Y00616127D01*
X00678479Y00616109D01*
X00678386Y00616081D01*
X00678312Y00616044D01*
X00678238Y00616007D01*
X00678192Y00615979D01*
X00678155Y00615961D01*
X00678146Y00615951D01*
X00678054Y00615877D01*
X00677980Y00615785D01*
X00677915Y00615693D01*
X00677850Y00615609D01*
X00677813Y00615526D01*
X00677776Y00615461D01*
X00677758Y00615415D01*
X00677748Y00615397D01*
X00677702Y00615258D01*
X00677665Y00615110D01*
X00677647Y00614962D01*
X00677628Y00614833D01*
X00677619Y00614722D01*
X00677610Y00614629D01*
Y00614546D01*
X00677619Y00614343D01*
X00677637Y00614158D01*
X00677665Y00613991D01*
X00677702Y00613843D01*
X00677739Y00613723D01*
X00677767Y00613631D01*
X00677776Y00613603D01*
X00677785Y00613575D01*
X00677795Y00613566D01*
Y00613557D01*
X00677868Y00613409D01*
X00677952Y00613270D01*
X00678035Y00613168D01*
X00678118Y00613076D01*
X00678183Y00613002D01*
X00678248Y00612956D01*
X00678285Y00612928D01*
X00678294Y00612919D01*
X00678414Y00612854D01*
X00678543Y00612789D01*
X00678682Y00612752D01*
X00678802Y00612715D01*
X00678923Y00612688D01*
X00679006Y00612669D01*
X00679043D01*
X00679071Y00612660D01*
X00679080D01*
X00679089D01*
X00679015Y00611865D01*
X00678784Y00611883D01*
X00678562Y00611920D01*
X00678368Y00611976D01*
X00678192Y00612041D01*
X00678054Y00612105D01*
X00677998Y00612133D01*
X00677952Y00612151D01*
X00677915Y00612179D01*
X00677887Y00612188D01*
X00677868Y00612207D01*
X00677859D01*
X00677684Y00612346D01*
X00677526Y00612494D01*
X00677397Y00612651D01*
X00677286Y00612799D01*
X00677203Y00612928D01*
X00677147Y00613039D01*
X00677129Y00613076D01*
X00677110Y00613104D01*
X00677101Y00613122D01*
Y00613131D01*
X00677018Y00613363D01*
X00676953Y00613603D01*
X00676916Y00613843D01*
X00676879Y00614075D01*
X00676870Y00614185D01*
X00676861Y00614278D01*
Y00614361D01*
X00676852Y00614435D01*
Y00614583D01*
X00676861Y00614833D01*
X00676889Y00615064D01*
X00676935Y00615276D01*
X00676981Y00615452D01*
X00677018Y00615600D01*
X00677046Y00615665D01*
X00677064Y00615720D01*
X00677083Y00615757D01*
X00677092Y00615785D01*
X00677101Y00615803D01*
Y00615813D01*
X00677203Y00616007D01*
X00677314Y00616173D01*
X00677434Y00616321D01*
X00677545Y00616441D01*
X00677637Y00616534D01*
X00677721Y00616599D01*
X00677776Y00616645D01*
X00677785Y00616654D01*
X00677795D01*
X00677970Y00616756D01*
X00678137Y00616830D01*
X00678294Y00616876D01*
X00678442Y00616913D01*
X00678571Y00616931D01*
X00678673Y00616950D01*
X00678710D01*
X00678738D01*
X00678747D01*
X00678756D01*
X00678941Y00616941D01*
D02*
G37*
G36*
X00679592Y00603270D02*
X00679749Y00603252D01*
X00679906Y00603224D01*
X00680045Y00603196D01*
X00680174Y00603150D01*
X00680303Y00603104D01*
X00680414Y00603058D01*
X00680516Y00603002D01*
X00680609Y00602947D01*
X00680692Y00602900D01*
X00680757Y00602854D01*
X00680821Y00602808D01*
X00680867Y00602780D01*
X00680895Y00602752D01*
X00680914Y00602734D01*
X00680923Y00602725D01*
X00681025Y00602623D01*
X00681117Y00602512D01*
X00681191Y00602392D01*
X00681256Y00602281D01*
X00681320Y00602170D01*
X00681367Y00602059D01*
X00681432Y00601846D01*
X00681459Y00601754D01*
X00681478Y00601661D01*
X00681487Y00601587D01*
X00681496Y00601513D01*
X00681505Y00601458D01*
Y00601384D01*
X00681496Y00601218D01*
X00681468Y00601060D01*
X00681441Y00600913D01*
X00681404Y00600783D01*
X00681357Y00600672D01*
X00681330Y00600589D01*
X00681302Y00600533D01*
X00681293Y00600524D01*
Y00600515D01*
X00681200Y00600367D01*
X00681099Y00600238D01*
X00680997Y00600117D01*
X00680886Y00600025D01*
X00680794Y00599942D01*
X00680720Y00599877D01*
X00680664Y00599840D01*
X00680655Y00599831D01*
X00680821D01*
X00680988Y00599840D01*
X00681136Y00599849D01*
X00681283Y00599868D01*
X00681413Y00599877D01*
X00681533Y00599896D01*
X00681644Y00599914D01*
X00681746Y00599942D01*
X00681838Y00599960D01*
X00681912Y00599979D01*
X00681977Y00599997D01*
X00682032Y00600006D01*
X00682069Y00600025D01*
X00682097Y00600034D01*
X00682116Y00600043D01*
X00682125D01*
X00682310Y00600136D01*
X00682476Y00600228D01*
X00682606Y00600330D01*
X00682717Y00600423D01*
X00682809Y00600506D01*
X00682874Y00600570D01*
X00682911Y00600617D01*
X00682920Y00600635D01*
X00682994Y00600746D01*
X00683040Y00600857D01*
X00683077Y00600968D01*
X00683105Y00601079D01*
X00683123Y00601162D01*
X00683133Y00601236D01*
Y00601301D01*
X00683114Y00601467D01*
X00683077Y00601624D01*
X00683022Y00601754D01*
X00682966Y00601874D01*
X00682902Y00601967D01*
X00682846Y00602031D01*
X00682809Y00602068D01*
X00682791Y00602087D01*
X00682707Y00602151D01*
X00682606Y00602216D01*
X00682495Y00602272D01*
X00682384Y00602309D01*
X00682282Y00602346D01*
X00682199Y00602373D01*
X00682143Y00602383D01*
X00682134Y00602392D01*
X00682125D01*
X00682190Y00603178D01*
X00682449Y00603122D01*
X00682680Y00603039D01*
X00682883Y00602947D01*
X00683049Y00602845D01*
X00683179Y00602743D01*
X00683234Y00602706D01*
X00683281Y00602660D01*
X00683308Y00602632D01*
X00683336Y00602604D01*
X00683345Y00602595D01*
X00683354Y00602586D01*
X00683428Y00602494D01*
X00683493Y00602392D01*
X00683604Y00602188D01*
X00683678Y00601985D01*
X00683724Y00601791D01*
X00683761Y00601615D01*
X00683771Y00601541D01*
Y00601477D01*
X00683780Y00601421D01*
Y00601347D01*
X00683771Y00601162D01*
X00683752Y00600987D01*
X00683715Y00600820D01*
X00683669Y00600663D01*
X00683604Y00600524D01*
X00683549Y00600386D01*
X00683475Y00600265D01*
X00683410Y00600154D01*
X00683345Y00600062D01*
X00683271Y00599969D01*
X00683216Y00599896D01*
X00683160Y00599840D01*
X00683105Y00599794D01*
X00683068Y00599757D01*
X00683049Y00599738D01*
X00683040Y00599729D01*
X00682874Y00599609D01*
X00682680Y00599507D01*
X00682476Y00599415D01*
X00682264Y00599332D01*
X00682042Y00599267D01*
X00681820Y00599211D01*
X00681589Y00599165D01*
X00681376Y00599128D01*
X00681163Y00599100D01*
X00680969Y00599082D01*
X00680794Y00599063D01*
X00680646Y00599054D01*
X00680516D01*
X00680424Y00599045D01*
X00680387D01*
X00680359D01*
X00680350D01*
X00680340D01*
X00680045Y00599054D01*
X00679767Y00599073D01*
X00679508Y00599100D01*
X00679268Y00599147D01*
X00679055Y00599193D01*
X00678861Y00599239D01*
X00678686Y00599295D01*
X00678528Y00599359D01*
X00678399Y00599415D01*
X00678279Y00599470D01*
X00678186Y00599516D01*
X00678103Y00599572D01*
X00678038Y00599609D01*
X00678001Y00599637D01*
X00677974Y00599655D01*
X00677964Y00599664D01*
X00677835Y00599785D01*
X00677724Y00599914D01*
X00677632Y00600043D01*
X00677548Y00600173D01*
X00677474Y00600312D01*
X00677419Y00600441D01*
X00677373Y00600570D01*
X00677336Y00600700D01*
X00677308Y00600811D01*
X00677280Y00600922D01*
X00677262Y00601014D01*
X00677252Y00601097D01*
Y00601171D01*
X00677243Y00601218D01*
Y00601264D01*
X00677252Y00601477D01*
X00677289Y00601671D01*
X00677326Y00601846D01*
X00677382Y00602004D01*
X00677428Y00602124D01*
X00677474Y00602216D01*
X00677484Y00602253D01*
X00677502Y00602281D01*
X00677511Y00602290D01*
Y00602299D01*
X00677622Y00602457D01*
X00677752Y00602604D01*
X00677881Y00602725D01*
X00678011Y00602826D01*
X00678131Y00602910D01*
X00678223Y00602965D01*
X00678260Y00602984D01*
X00678288Y00603002D01*
X00678297Y00603011D01*
X00678306D01*
X00678501Y00603104D01*
X00678704Y00603168D01*
X00678889Y00603215D01*
X00679065Y00603242D01*
X00679212Y00603270D01*
X00679268D01*
X00679324Y00603279D01*
X00679370D01*
X00679397D01*
X00679416D01*
X00679425D01*
X00679592Y00603270D01*
D02*
G37*
G36*
X00679416Y00598231D02*
X00679601Y00598194D01*
X00679758Y00598139D01*
X00679906Y00598083D01*
X00680017Y00598028D01*
X00680100Y00597972D01*
X00680156Y00597935D01*
X00680174Y00597926D01*
X00680322Y00597797D01*
X00680442Y00597658D01*
X00680544Y00597501D01*
X00680627Y00597362D01*
X00680692Y00597233D01*
X00680729Y00597122D01*
X00680747Y00597085D01*
X00680757Y00597057D01*
X00680766Y00597039D01*
Y00597029D01*
X00680858Y00597187D01*
X00680951Y00597325D01*
X00681052Y00597436D01*
X00681145Y00597529D01*
X00681219Y00597603D01*
X00681293Y00597658D01*
X00681330Y00597686D01*
X00681348Y00597695D01*
X00681487Y00597769D01*
X00681616Y00597825D01*
X00681746Y00597871D01*
X00681866Y00597898D01*
X00681968Y00597917D01*
X00682051Y00597926D01*
X00682097D01*
X00682116D01*
X00682273Y00597917D01*
X00682430Y00597889D01*
X00682569Y00597843D01*
X00682698Y00597797D01*
X00682809Y00597751D01*
X00682883Y00597704D01*
X00682939Y00597677D01*
X00682957Y00597667D01*
X00683096Y00597566D01*
X00683225Y00597455D01*
X00683327Y00597335D01*
X00683410Y00597224D01*
X00683475Y00597131D01*
X00683521Y00597048D01*
X00683549Y00596992D01*
X00683558Y00596983D01*
Y00596974D01*
X00683623Y00596798D01*
X00683669Y00596604D01*
X00683706Y00596410D01*
X00683724Y00596225D01*
X00683743Y00596059D01*
Y00595985D01*
X00683752Y00595920D01*
Y00593405D01*
X00677354D01*
Y00595846D01*
X00677363Y00596068D01*
X00677373Y00596262D01*
X00677391Y00596438D01*
X00677410Y00596586D01*
X00677428Y00596706D01*
X00677437Y00596798D01*
X00677456Y00596854D01*
Y00596872D01*
X00677502Y00597029D01*
X00677548Y00597159D01*
X00677604Y00597279D01*
X00677659Y00597381D01*
X00677696Y00597464D01*
X00677733Y00597529D01*
X00677761Y00597566D01*
X00677770Y00597575D01*
X00677853Y00597677D01*
X00677955Y00597769D01*
X00678057Y00597843D01*
X00678149Y00597917D01*
X00678242Y00597972D01*
X00678306Y00598009D01*
X00678353Y00598037D01*
X00678371Y00598046D01*
X00678519Y00598111D01*
X00678667Y00598157D01*
X00678806Y00598194D01*
X00678935Y00598213D01*
X00679046Y00598231D01*
X00679138Y00598241D01*
X00679194D01*
X00679203D01*
X00679212D01*
X00679416Y00598231D01*
D02*
G37*
G36*
X00679333Y00592268D02*
X00679508Y00592240D01*
X00679666Y00592194D01*
X00679795Y00592148D01*
X00679906Y00592092D01*
X00679989Y00592055D01*
X00680035Y00592018D01*
X00680054Y00592009D01*
X00680192Y00591898D01*
X00680322Y00591769D01*
X00680433Y00591630D01*
X00680535Y00591491D01*
X00680609Y00591371D01*
X00680664Y00591269D01*
X00680683Y00591232D01*
X00680701Y00591205D01*
X00680710Y00591186D01*
Y00591177D01*
X00680747Y00591103D01*
X00680775Y00591011D01*
X00680812Y00590909D01*
X00680849Y00590798D01*
X00680914Y00590567D01*
X00680978Y00590326D01*
X00681006Y00590215D01*
X00681034Y00590114D01*
X00681062Y00590012D01*
X00681080Y00589929D01*
X00681099Y00589864D01*
X00681108Y00589809D01*
X00681117Y00589772D01*
Y00589762D01*
X00681163Y00589577D01*
X00681200Y00589411D01*
X00681246Y00589263D01*
X00681283Y00589134D01*
X00681330Y00589013D01*
X00681367Y00588912D01*
X00681404Y00588819D01*
X00681432Y00588736D01*
X00681468Y00588671D01*
X00681496Y00588616D01*
X00681515Y00588579D01*
X00681542Y00588542D01*
X00681570Y00588496D01*
X00681579Y00588486D01*
X00681672Y00588403D01*
X00681764Y00588348D01*
X00681857Y00588302D01*
X00681949Y00588274D01*
X00682023Y00588255D01*
X00682088Y00588246D01*
X00682125D01*
X00682143D01*
X00682291Y00588265D01*
X00682421Y00588302D01*
X00682532Y00588357D01*
X00682633Y00588422D01*
X00682707Y00588477D01*
X00682772Y00588533D01*
X00682809Y00588570D01*
X00682818Y00588588D01*
X00682865Y00588662D01*
X00682911Y00588736D01*
X00682985Y00588912D01*
X00683031Y00589097D01*
X00683068Y00589282D01*
X00683086Y00589448D01*
X00683096Y00589522D01*
X00683105Y00589577D01*
Y00589707D01*
X00683096Y00589966D01*
X00683059Y00590197D01*
X00683003Y00590382D01*
X00682948Y00590539D01*
X00682892Y00590659D01*
X00682837Y00590752D01*
X00682800Y00590798D01*
X00682791Y00590816D01*
X00682661Y00590946D01*
X00682522Y00591048D01*
X00682374Y00591131D01*
X00682227Y00591186D01*
X00682088Y00591223D01*
X00681986Y00591251D01*
X00681940Y00591260D01*
X00681912Y00591269D01*
X00681894D01*
X00681885D01*
X00681949Y00592083D01*
X00682153Y00592065D01*
X00682337Y00592018D01*
X00682513Y00591972D01*
X00682661Y00591907D01*
X00682781Y00591852D01*
X00682874Y00591806D01*
X00682902Y00591787D01*
X00682929Y00591769D01*
X00682939Y00591759D01*
X00682948D01*
X00683105Y00591639D01*
X00683244Y00591510D01*
X00683364Y00591371D01*
X00683456Y00591232D01*
X00683540Y00591112D01*
X00683586Y00591020D01*
X00683604Y00590983D01*
X00683623Y00590955D01*
X00683632Y00590937D01*
Y00590927D01*
X00683706Y00590724D01*
X00683761Y00590502D01*
X00683808Y00590299D01*
X00683835Y00590104D01*
X00683854Y00589929D01*
Y00589864D01*
X00683863Y00589799D01*
Y00589679D01*
X00683854Y00589439D01*
X00683826Y00589226D01*
X00683789Y00589023D01*
X00683752Y00588847D01*
X00683715Y00588708D01*
X00683697Y00588644D01*
X00683678Y00588597D01*
X00683660Y00588560D01*
X00683650Y00588533D01*
X00683641Y00588514D01*
Y00588505D01*
X00683549Y00588320D01*
X00683447Y00588154D01*
X00683336Y00588015D01*
X00683234Y00587904D01*
X00683142Y00587821D01*
X00683068Y00587756D01*
X00683012Y00587710D01*
X00683003Y00587701D01*
X00682994D01*
X00682837Y00587608D01*
X00682680Y00587543D01*
X00682522Y00587497D01*
X00682384Y00587469D01*
X00682264Y00587451D01*
X00682171Y00587432D01*
X00682134D01*
X00682106D01*
X00682097D01*
X00682088D01*
X00681931Y00587442D01*
X00681783Y00587469D01*
X00681644Y00587506D01*
X00681524Y00587543D01*
X00681432Y00587580D01*
X00681357Y00587617D01*
X00681311Y00587645D01*
X00681293Y00587654D01*
X00681163Y00587747D01*
X00681043Y00587858D01*
X00680941Y00587969D01*
X00680858Y00588080D01*
X00680784Y00588172D01*
X00680738Y00588255D01*
X00680701Y00588311D01*
X00680692Y00588320D01*
Y00588329D01*
X00680655Y00588403D01*
X00680618Y00588486D01*
X00680553Y00588671D01*
X00680488Y00588884D01*
X00680424Y00589087D01*
X00680368Y00589272D01*
X00680350Y00589356D01*
X00680331Y00589430D01*
X00680313Y00589485D01*
X00680303Y00589531D01*
X00680294Y00589559D01*
Y00589568D01*
X00680257Y00589725D01*
X00680220Y00589873D01*
X00680183Y00590003D01*
X00680156Y00590114D01*
X00680128Y00590225D01*
X00680100Y00590317D01*
X00680082Y00590400D01*
X00680054Y00590465D01*
X00680035Y00590530D01*
X00680026Y00590576D01*
X00679998Y00590650D01*
X00679989Y00590696D01*
X00679980Y00590705D01*
X00679924Y00590844D01*
X00679860Y00590964D01*
X00679795Y00591066D01*
X00679740Y00591140D01*
X00679684Y00591205D01*
X00679647Y00591242D01*
X00679619Y00591269D01*
X00679610Y00591279D01*
X00679527Y00591343D01*
X00679434Y00591390D01*
X00679342Y00591417D01*
X00679268Y00591445D01*
X00679194Y00591454D01*
X00679138Y00591464D01*
X00679092D01*
X00679083D01*
X00678972Y00591454D01*
X00678870Y00591436D01*
X00678778Y00591408D01*
X00678704Y00591371D01*
X00678630Y00591334D01*
X00678584Y00591306D01*
X00678547Y00591288D01*
X00678538Y00591279D01*
X00678445Y00591205D01*
X00678371Y00591112D01*
X00678306Y00591020D01*
X00678242Y00590937D01*
X00678205Y00590853D01*
X00678168Y00590789D01*
X00678149Y00590742D01*
X00678140Y00590724D01*
X00678094Y00590585D01*
X00678057Y00590437D01*
X00678038Y00590289D01*
X00678020Y00590160D01*
X00678011Y00590049D01*
X00678001Y00589957D01*
Y00589873D01*
X00678011Y00589670D01*
X00678029Y00589485D01*
X00678057Y00589319D01*
X00678094Y00589171D01*
X00678131Y00589050D01*
X00678158Y00588958D01*
X00678168Y00588930D01*
X00678177Y00588903D01*
X00678186Y00588893D01*
Y00588884D01*
X00678260Y00588736D01*
X00678343Y00588597D01*
X00678427Y00588496D01*
X00678510Y00588403D01*
X00678575Y00588329D01*
X00678639Y00588283D01*
X00678676Y00588255D01*
X00678686Y00588246D01*
X00678806Y00588181D01*
X00678935Y00588117D01*
X00679074Y00588080D01*
X00679194Y00588043D01*
X00679314Y00588015D01*
X00679397Y00587996D01*
X00679434D01*
X00679462Y00587987D01*
X00679471D01*
X00679481D01*
X00679407Y00587192D01*
X00679175Y00587211D01*
X00678954Y00587248D01*
X00678760Y00587303D01*
X00678584Y00587368D01*
X00678445Y00587432D01*
X00678390Y00587460D01*
X00678343Y00587479D01*
X00678306Y00587506D01*
X00678279Y00587516D01*
X00678260Y00587534D01*
X00678251D01*
X00678075Y00587673D01*
X00677918Y00587821D01*
X00677789Y00587978D01*
X00677678Y00588126D01*
X00677595Y00588255D01*
X00677539Y00588366D01*
X00677521Y00588403D01*
X00677502Y00588431D01*
X00677493Y00588449D01*
Y00588459D01*
X00677410Y00588690D01*
X00677345Y00588930D01*
X00677308Y00589171D01*
X00677271Y00589402D01*
X00677262Y00589513D01*
X00677252Y00589605D01*
Y00589688D01*
X00677243Y00589762D01*
Y00589910D01*
X00677252Y00590160D01*
X00677280Y00590391D01*
X00677326Y00590604D01*
X00677373Y00590779D01*
X00677410Y00590927D01*
X00677437Y00590992D01*
X00677456Y00591048D01*
X00677474Y00591084D01*
X00677484Y00591112D01*
X00677493Y00591131D01*
Y00591140D01*
X00677595Y00591334D01*
X00677706Y00591501D01*
X00677826Y00591648D01*
X00677937Y00591769D01*
X00678029Y00591861D01*
X00678112Y00591926D01*
X00678168Y00591972D01*
X00678177Y00591981D01*
X00678186D01*
X00678362Y00592083D01*
X00678528Y00592157D01*
X00678686Y00592203D01*
X00678833Y00592240D01*
X00678963Y00592259D01*
X00679065Y00592277D01*
X00679102D01*
X00679129D01*
X00679138D01*
X00679148D01*
X00679333Y00592268D01*
D02*
G37*
G36*
X00680002Y00576152D02*
X00684144D01*
Y00575514D01*
X00680002Y00572583D01*
X00679281D01*
Y00575366D01*
X00677746D01*
Y00576152D01*
X00679281D01*
Y00577021D01*
X00680002D01*
Y00576152D01*
D02*
G37*
G36*
X00679808Y00572001D02*
X00679993Y00571964D01*
X00680150Y00571908D01*
X00680298Y00571853D01*
X00680408Y00571797D01*
X00680492Y00571742D01*
X00680547Y00571705D01*
X00680566Y00571696D01*
X00680714Y00571566D01*
X00680834Y00571427D01*
X00680936Y00571270D01*
X00681019Y00571132D01*
X00681084Y00571002D01*
X00681121Y00570891D01*
X00681139Y00570854D01*
X00681148Y00570827D01*
X00681157Y00570808D01*
Y00570799D01*
X00681250Y00570956D01*
X00681342Y00571095D01*
X00681444Y00571206D01*
X00681536Y00571298D01*
X00681610Y00571372D01*
X00681684Y00571427D01*
X00681721Y00571455D01*
X00681740Y00571465D01*
X00681879Y00571539D01*
X00682008Y00571594D01*
X00682138Y00571640D01*
X00682258Y00571668D01*
X00682359Y00571686D01*
X00682443Y00571696D01*
X00682489D01*
X00682507D01*
X00682664Y00571686D01*
X00682822Y00571659D01*
X00682960Y00571612D01*
X00683090Y00571566D01*
X00683201Y00571520D01*
X00683275Y00571474D01*
X00683330Y00571446D01*
X00683349Y00571437D01*
X00683487Y00571335D01*
X00683617Y00571224D01*
X00683718Y00571104D01*
X00683802Y00570993D01*
X00683866Y00570900D01*
X00683913Y00570817D01*
X00683940Y00570762D01*
X00683950Y00570753D01*
Y00570743D01*
X00684014Y00570568D01*
X00684061Y00570373D01*
X00684098Y00570179D01*
X00684116Y00569995D01*
X00684135Y00569828D01*
Y00569754D01*
X00684144Y00569689D01*
Y00567175D01*
X00677746D01*
Y00569615D01*
X00677755Y00569837D01*
X00677764Y00570031D01*
X00677783Y00570207D01*
X00677801Y00570355D01*
X00677820Y00570475D01*
X00677829Y00570568D01*
X00677848Y00570623D01*
Y00570642D01*
X00677894Y00570799D01*
X00677940Y00570928D01*
X00677995Y00571049D01*
X00678051Y00571150D01*
X00678088Y00571233D01*
X00678125Y00571298D01*
X00678153Y00571335D01*
X00678162Y00571344D01*
X00678245Y00571446D01*
X00678347Y00571539D01*
X00678448Y00571612D01*
X00678541Y00571686D01*
X00678633Y00571742D01*
X00678698Y00571779D01*
X00678744Y00571807D01*
X00678763Y00571816D01*
X00678911Y00571881D01*
X00679059Y00571927D01*
X00679197Y00571964D01*
X00679327Y00571982D01*
X00679438Y00572001D01*
X00679530Y00572010D01*
X00679586D01*
X00679595D01*
X00679604D01*
X00679808Y00572001D01*
D02*
G37*
G36*
X00679724Y00566037D02*
X00679900Y00566010D01*
X00680057Y00565963D01*
X00680187Y00565917D01*
X00680298Y00565862D01*
X00680381Y00565825D01*
X00680427Y00565788D01*
X00680445Y00565779D01*
X00680584Y00565667D01*
X00680714Y00565538D01*
X00680825Y00565399D01*
X00680926Y00565261D01*
X00681000Y00565140D01*
X00681056Y00565039D01*
X00681074Y00565002D01*
X00681093Y00564974D01*
X00681102Y00564956D01*
Y00564946D01*
X00681139Y00564872D01*
X00681167Y00564780D01*
X00681204Y00564678D01*
X00681241Y00564567D01*
X00681305Y00564336D01*
X00681370Y00564096D01*
X00681398Y00563985D01*
X00681426Y00563883D01*
X00681453Y00563781D01*
X00681472Y00563698D01*
X00681490Y00563633D01*
X00681499Y00563578D01*
X00681509Y00563541D01*
Y00563532D01*
X00681555Y00563347D01*
X00681592Y00563181D01*
X00681638Y00563032D01*
X00681675Y00562903D01*
X00681721Y00562783D01*
X00681758Y00562681D01*
X00681795Y00562589D01*
X00681823Y00562505D01*
X00681860Y00562441D01*
X00681888Y00562385D01*
X00681906Y00562348D01*
X00681934Y00562311D01*
X00681962Y00562265D01*
X00681971Y00562256D01*
X00682064Y00562173D01*
X00682156Y00562117D01*
X00682248Y00562071D01*
X00682341Y00562043D01*
X00682415Y00562025D01*
X00682480Y00562015D01*
X00682516D01*
X00682535D01*
X00682683Y00562034D01*
X00682812Y00562071D01*
X00682923Y00562127D01*
X00683025Y00562191D01*
X00683099Y00562247D01*
X00683164Y00562302D01*
X00683201Y00562339D01*
X00683210Y00562358D01*
X00683256Y00562432D01*
X00683302Y00562505D01*
X00683376Y00562681D01*
X00683423Y00562866D01*
X00683460Y00563051D01*
X00683478Y00563217D01*
X00683487Y00563291D01*
X00683497Y00563347D01*
Y00563476D01*
X00683487Y00563735D01*
X00683450Y00563966D01*
X00683395Y00564151D01*
X00683339Y00564308D01*
X00683284Y00564429D01*
X00683229Y00564521D01*
X00683192Y00564567D01*
X00683182Y00564586D01*
X00683053Y00564715D01*
X00682914Y00564817D01*
X00682766Y00564900D01*
X00682618Y00564956D01*
X00682480Y00564993D01*
X00682378Y00565020D01*
X00682332Y00565030D01*
X00682304Y00565039D01*
X00682285D01*
X00682276D01*
X00682341Y00565852D01*
X00682544Y00565834D01*
X00682729Y00565788D01*
X00682905Y00565742D01*
X00683053Y00565677D01*
X00683173Y00565621D01*
X00683265Y00565575D01*
X00683293Y00565557D01*
X00683321Y00565538D01*
X00683330Y00565529D01*
X00683339D01*
X00683497Y00565409D01*
X00683635Y00565279D01*
X00683755Y00565140D01*
X00683848Y00565002D01*
X00683931Y00564882D01*
X00683977Y00564789D01*
X00683996Y00564752D01*
X00684014Y00564725D01*
X00684024Y00564706D01*
Y00564697D01*
X00684098Y00564493D01*
X00684153Y00564271D01*
X00684199Y00564068D01*
X00684227Y00563874D01*
X00684246Y00563698D01*
Y00563633D01*
X00684255Y00563569D01*
Y00563449D01*
X00684246Y00563208D01*
X00684218Y00562995D01*
X00684181Y00562792D01*
X00684144Y00562617D01*
X00684107Y00562478D01*
X00684088Y00562413D01*
X00684070Y00562367D01*
X00684051Y00562330D01*
X00684042Y00562302D01*
X00684033Y00562284D01*
Y00562274D01*
X00683940Y00562090D01*
X00683839Y00561923D01*
X00683728Y00561784D01*
X00683626Y00561673D01*
X00683534Y00561590D01*
X00683460Y00561525D01*
X00683404Y00561479D01*
X00683395Y00561470D01*
X00683386D01*
X00683229Y00561378D01*
X00683071Y00561313D01*
X00682914Y00561267D01*
X00682775Y00561239D01*
X00682655Y00561220D01*
X00682563Y00561202D01*
X00682526D01*
X00682498D01*
X00682489D01*
X00682480D01*
X00682322Y00561211D01*
X00682175Y00561239D01*
X00682036Y00561276D01*
X00681916Y00561313D01*
X00681823Y00561350D01*
X00681749Y00561387D01*
X00681703Y00561414D01*
X00681684Y00561424D01*
X00681555Y00561516D01*
X00681435Y00561627D01*
X00681333Y00561738D01*
X00681250Y00561849D01*
X00681176Y00561941D01*
X00681130Y00562025D01*
X00681093Y00562080D01*
X00681084Y00562090D01*
Y00562099D01*
X00681047Y00562173D01*
X00681010Y00562256D01*
X00680945Y00562441D01*
X00680880Y00562654D01*
X00680815Y00562857D01*
X00680760Y00563042D01*
X00680741Y00563125D01*
X00680723Y00563199D01*
X00680704Y00563254D01*
X00680695Y00563301D01*
X00680686Y00563328D01*
Y00563338D01*
X00680649Y00563495D01*
X00680612Y00563643D01*
X00680575Y00563772D01*
X00680547Y00563883D01*
X00680519Y00563994D01*
X00680492Y00564086D01*
X00680473Y00564170D01*
X00680445Y00564235D01*
X00680427Y00564299D01*
X00680418Y00564345D01*
X00680390Y00564419D01*
X00680381Y00564466D01*
X00680372Y00564475D01*
X00680316Y00564613D01*
X00680251Y00564734D01*
X00680187Y00564835D01*
X00680131Y00564909D01*
X00680076Y00564974D01*
X00680039Y00565011D01*
X00680011Y00565039D01*
X00680002Y00565048D01*
X00679919Y00565113D01*
X00679826Y00565159D01*
X00679734Y00565187D01*
X00679660Y00565215D01*
X00679586Y00565224D01*
X00679530Y00565233D01*
X00679484D01*
X00679475D01*
X00679364Y00565224D01*
X00679262Y00565205D01*
X00679170Y00565177D01*
X00679096Y00565140D01*
X00679022Y00565103D01*
X00678976Y00565076D01*
X00678939Y00565057D01*
X00678929Y00565048D01*
X00678837Y00564974D01*
X00678763Y00564882D01*
X00678698Y00564789D01*
X00678633Y00564706D01*
X00678596Y00564623D01*
X00678559Y00564558D01*
X00678541Y00564512D01*
X00678532Y00564493D01*
X00678485Y00564355D01*
X00678448Y00564207D01*
X00678430Y00564059D01*
X00678411Y00563929D01*
X00678402Y00563818D01*
X00678393Y00563726D01*
Y00563643D01*
X00678402Y00563439D01*
X00678421Y00563254D01*
X00678448Y00563088D01*
X00678485Y00562940D01*
X00678522Y00562820D01*
X00678550Y00562727D01*
X00678559Y00562700D01*
X00678569Y00562672D01*
X00678578Y00562663D01*
Y00562654D01*
X00678652Y00562505D01*
X00678735Y00562367D01*
X00678818Y00562265D01*
X00678902Y00562173D01*
X00678966Y00562099D01*
X00679031Y00562052D01*
X00679068Y00562025D01*
X00679077Y00562015D01*
X00679197Y00561951D01*
X00679327Y00561886D01*
X00679465Y00561849D01*
X00679586Y00561812D01*
X00679706Y00561784D01*
X00679789Y00561766D01*
X00679826D01*
X00679854Y00561757D01*
X00679863D01*
X00679872D01*
X00679798Y00560961D01*
X00679567Y00560980D01*
X00679345Y00561017D01*
X00679151Y00561073D01*
X00678976Y00561137D01*
X00678837Y00561202D01*
X00678781Y00561230D01*
X00678735Y00561248D01*
X00678698Y00561276D01*
X00678670Y00561285D01*
X00678652Y00561304D01*
X00678643D01*
X00678467Y00561442D01*
X00678310Y00561590D01*
X00678180Y00561747D01*
X00678069Y00561895D01*
X00677986Y00562025D01*
X00677931Y00562136D01*
X00677912Y00562173D01*
X00677894Y00562200D01*
X00677885Y00562219D01*
Y00562228D01*
X00677801Y00562459D01*
X00677737Y00562700D01*
X00677700Y00562940D01*
X00677663Y00563171D01*
X00677653Y00563282D01*
X00677644Y00563375D01*
Y00563458D01*
X00677635Y00563532D01*
Y00563680D01*
X00677644Y00563929D01*
X00677672Y00564160D01*
X00677718Y00564373D01*
X00677764Y00564549D01*
X00677801Y00564697D01*
X00677829Y00564762D01*
X00677848Y00564817D01*
X00677866Y00564854D01*
X00677875Y00564882D01*
X00677885Y00564900D01*
Y00564909D01*
X00677986Y00565103D01*
X00678097Y00565270D01*
X00678217Y00565418D01*
X00678328Y00565538D01*
X00678421Y00565630D01*
X00678504Y00565695D01*
X00678559Y00565742D01*
X00678569Y00565751D01*
X00678578D01*
X00678754Y00565852D01*
X00678920Y00565926D01*
X00679077Y00565973D01*
X00679225Y00566010D01*
X00679354Y00566028D01*
X00679456Y00566047D01*
X00679493D01*
X00679521D01*
X00679530D01*
X00679539D01*
X00679724Y00566037D01*
D02*
G37*
G36*
X00621407Y00541357D02*
X00621781Y00541287D01*
X00622100Y00541176D01*
X00622377Y00541065D01*
X00622502Y00540996D01*
X00622599Y00540940D01*
X00622696Y00540885D01*
X00622766Y00540830D01*
X00622821Y00540788D01*
X00622863Y00540760D01*
X00622890Y00540746D01*
X00622904Y00540732D01*
X00623168Y00540469D01*
X00623376Y00540178D01*
X00623542Y00539873D01*
X00623681Y00539567D01*
X00623764Y00539304D01*
X00623806Y00539193D01*
X00623834Y00539096D01*
X00623847Y00539013D01*
X00623861Y00538957D01*
X00623875Y00538916D01*
Y00538902D01*
X00622696Y00538694D01*
X00622641Y00538999D01*
X00622558Y00539262D01*
X00622461Y00539484D01*
X00622363Y00539664D01*
X00622266Y00539803D01*
X00622183Y00539900D01*
X00622128Y00539970D01*
X00622114Y00539983D01*
X00621934Y00540122D01*
X00621739Y00540233D01*
X00621559Y00540303D01*
X00621379Y00540358D01*
X00621212Y00540386D01*
X00621088Y00540413D01*
X00620977D01*
X00620727Y00540400D01*
X00620505Y00540344D01*
X00620311Y00540275D01*
X00620145Y00540205D01*
X00620020Y00540122D01*
X00619923Y00540053D01*
X00619853Y00539997D01*
X00619839Y00539983D01*
X00619687Y00539817D01*
X00619576Y00539637D01*
X00619507Y00539456D01*
X00619451Y00539290D01*
X00619423Y00539137D01*
X00619396Y00539027D01*
Y00538943D01*
Y00538929D01*
Y00538916D01*
Y00538763D01*
X00619423Y00538624D01*
X00619493Y00538389D01*
X00619590Y00538181D01*
X00619701Y00538000D01*
X00619812Y00537876D01*
X00619909Y00537778D01*
X00619978Y00537723D01*
X00619992Y00537709D01*
X00620006D01*
X00620242Y00537584D01*
X00620463Y00537487D01*
X00620699Y00537418D01*
X00620907Y00537376D01*
X00621088Y00537349D01*
X00621240Y00537321D01*
X00621420D01*
X00621476Y00537335D01*
X00621545D01*
X00621684Y00536295D01*
X00621504Y00536336D01*
X00621337Y00536364D01*
X00621199Y00536392D01*
X00621074Y00536405D01*
X00620977Y00536419D01*
X00620852D01*
X00620561Y00536392D01*
X00620297Y00536336D01*
X00620061Y00536253D01*
X00619867Y00536156D01*
X00619715Y00536059D01*
X00619604Y00535975D01*
X00619534Y00535920D01*
X00619507Y00535892D01*
X00619326Y00535684D01*
X00619188Y00535462D01*
X00619090Y00535241D01*
X00619035Y00535019D01*
X00618993Y00534838D01*
X00618980Y00534686D01*
X00618966Y00534630D01*
Y00534589D01*
Y00534561D01*
Y00534547D01*
X00618993Y00534242D01*
X00619063Y00533965D01*
X00619146Y00533729D01*
X00619257Y00533521D01*
X00619368Y00533354D01*
X00619451Y00533230D01*
X00619520Y00533146D01*
X00619548Y00533119D01*
X00619770Y00532924D01*
X00620006Y00532786D01*
X00620242Y00532689D01*
X00620463Y00532619D01*
X00620658Y00532578D01*
X00620810Y00532564D01*
X00620866Y00532550D01*
X00620949D01*
X00621199Y00532564D01*
X00621434Y00532619D01*
X00621642Y00532689D01*
X00621809Y00532772D01*
X00621947Y00532841D01*
X00622058Y00532911D01*
X00622114Y00532966D01*
X00622142Y00532980D01*
X00622308Y00533174D01*
X00622447Y00533396D01*
X00622571Y00533632D01*
X00622669Y00533881D01*
X00622738Y00534089D01*
X00622766Y00534187D01*
X00622780Y00534270D01*
X00622793Y00534339D01*
X00622807Y00534394D01*
X00622821Y00534422D01*
Y00534436D01*
X00624000Y00534284D01*
X00623972Y00534062D01*
X00623931Y00533854D01*
X00623806Y00533465D01*
X00623653Y00533133D01*
X00623570Y00532994D01*
X00623487Y00532855D01*
X00623404Y00532730D01*
X00623320Y00532633D01*
X00623251Y00532536D01*
X00623182Y00532467D01*
X00623140Y00532411D01*
X00623098Y00532370D01*
X00623071Y00532342D01*
X00623057Y00532328D01*
X00622890Y00532203D01*
X00622724Y00532079D01*
X00622558Y00531981D01*
X00622377Y00531898D01*
X00622031Y00531759D01*
X00621698Y00531676D01*
X00621545Y00531649D01*
X00621407Y00531621D01*
X00621282Y00531607D01*
X00621171Y00531593D01*
X00621088Y00531579D01*
X00620963D01*
X00620699Y00531593D01*
X00620463Y00531621D01*
X00620228Y00531662D01*
X00620006Y00531718D01*
X00619798Y00531787D01*
X00619618Y00531857D01*
X00619437Y00531940D01*
X00619285Y00532023D01*
X00619132Y00532092D01*
X00619007Y00532176D01*
X00618896Y00532245D01*
X00618813Y00532314D01*
X00618744Y00532370D01*
X00618688Y00532411D01*
X00618661Y00532439D01*
X00618647Y00532453D01*
X00618480Y00532619D01*
X00618342Y00532800D01*
X00618217Y00532980D01*
X00618106Y00533160D01*
X00618023Y00533327D01*
X00617939Y00533507D01*
X00617828Y00533840D01*
X00617801Y00533992D01*
X00617773Y00534131D01*
X00617745Y00534256D01*
X00617731Y00534367D01*
X00617718Y00534450D01*
Y00534519D01*
Y00534561D01*
Y00534575D01*
X00617731Y00534908D01*
X00617787Y00535213D01*
X00617870Y00535476D01*
X00617953Y00535698D01*
X00618036Y00535878D01*
X00618120Y00536017D01*
X00618175Y00536100D01*
X00618189Y00536128D01*
X00618383Y00536336D01*
X00618591Y00536516D01*
X00618813Y00536655D01*
X00619035Y00536766D01*
X00619229Y00536849D01*
X00619382Y00536905D01*
X00619437Y00536919D01*
X00619479Y00536932D01*
X00619507Y00536946D01*
X00619520D01*
X00619285Y00537071D01*
X00619090Y00537196D01*
X00618924Y00537335D01*
X00618785Y00537459D01*
X00618675Y00537570D01*
X00618591Y00537668D01*
X00618550Y00537723D01*
X00618536Y00537751D01*
X00618425Y00537945D01*
X00618342Y00538139D01*
X00618272Y00538333D01*
X00618231Y00538513D01*
X00618203Y00538666D01*
X00618189Y00538777D01*
Y00538860D01*
Y00538888D01*
X00618203Y00539124D01*
X00618245Y00539359D01*
X00618300Y00539567D01*
X00618369Y00539748D01*
X00618439Y00539900D01*
X00618494Y00540025D01*
X00618536Y00540094D01*
X00618550Y00540122D01*
X00618688Y00540330D01*
X00618855Y00540510D01*
X00619021Y00540663D01*
X00619188Y00540802D01*
X00619326Y00540899D01*
X00619451Y00540982D01*
X00619534Y00541024D01*
X00619548Y00541037D01*
X00619562D01*
X00619812Y00541148D01*
X00620061Y00541232D01*
X00620311Y00541301D01*
X00620533Y00541343D01*
X00620713Y00541370D01*
X00620866Y00541384D01*
X00621212D01*
X00621407Y00541357D01*
D02*
G37*
G36*
X00627938Y00541148D02*
X00628091Y00540927D01*
X00628271Y00540705D01*
X00628438Y00540510D01*
X00628604Y00540344D01*
X00628729Y00540205D01*
X00628784Y00540164D01*
X00628826Y00540122D01*
X00628840Y00540108D01*
X00628854Y00540094D01*
X00629145Y00539859D01*
X00629436Y00539637D01*
X00629714Y00539443D01*
X00629991Y00539290D01*
X00630227Y00539151D01*
X00630324Y00539096D01*
X00630407Y00539054D01*
X00630476Y00539013D01*
X00630532Y00538999D01*
X00630560Y00538971D01*
X00630574D01*
Y00537834D01*
X00630365Y00537917D01*
X00630158Y00538014D01*
X00629949Y00538111D01*
X00629755Y00538208D01*
X00629589Y00538292D01*
X00629450Y00538361D01*
X00629367Y00538416D01*
X00629353Y00538430D01*
X00629339D01*
X00629090Y00538583D01*
X00628868Y00538735D01*
X00628674Y00538874D01*
X00628521Y00538999D01*
X00628382Y00539096D01*
X00628299Y00539179D01*
X00628230Y00539235D01*
X00628216Y00539249D01*
Y00531746D01*
X00627037D01*
Y00541384D01*
X00627800D01*
X00627938Y00541148D01*
D02*
G37*
G36*
X00636981Y00541481D02*
X00637425Y00541412D01*
X00637813Y00541329D01*
X00637993Y00541273D01*
X00638160Y00541218D01*
X00638312Y00541162D01*
X00638451Y00541107D01*
X00638562Y00541065D01*
X00638673Y00541024D01*
X00638742Y00540982D01*
X00638797Y00540954D01*
X00638839Y00540940D01*
X00638853Y00540927D01*
X00639227Y00540691D01*
X00639546Y00540413D01*
X00639824Y00540136D01*
X00640060Y00539859D01*
X00640240Y00539609D01*
X00640309Y00539498D01*
X00640365Y00539401D01*
X00640420Y00539332D01*
X00640448Y00539276D01*
X00640462Y00539235D01*
X00640476Y00539221D01*
X00640670Y00538791D01*
X00640808Y00538347D01*
X00640906Y00537903D01*
X00640975Y00537501D01*
X00641003Y00537321D01*
X00641016Y00537141D01*
X00641030Y00537002D01*
Y00536863D01*
X00641044Y00536766D01*
Y00536683D01*
Y00536627D01*
Y00536614D01*
X00641016Y00536114D01*
X00640961Y00535629D01*
X00640892Y00535199D01*
X00640836Y00534991D01*
X00640795Y00534811D01*
X00640753Y00534644D01*
X00640697Y00534492D01*
X00640656Y00534353D01*
X00640628Y00534242D01*
X00640586Y00534159D01*
X00640573Y00534089D01*
X00640545Y00534048D01*
Y00534034D01*
X00640337Y00533618D01*
X00640101Y00533243D01*
X00639851Y00532924D01*
X00639727Y00532800D01*
X00639616Y00532675D01*
X00639505Y00532564D01*
X00639394Y00532467D01*
X00639297Y00532384D01*
X00639214Y00532328D01*
X00639158Y00532273D01*
X00639103Y00532231D01*
X00639075Y00532217D01*
X00639061Y00532203D01*
X00638867Y00532092D01*
X00638673Y00531995D01*
X00638257Y00531843D01*
X00637841Y00531732D01*
X00637438Y00531662D01*
X00637244Y00531635D01*
X00637078Y00531607D01*
X00636925Y00531593D01*
X00636800D01*
X00636689Y00531579D01*
X00636537D01*
X00636260Y00531593D01*
X00635996Y00531621D01*
X00635746Y00531649D01*
X00635511Y00531704D01*
X00635289Y00531773D01*
X00635081Y00531843D01*
X00634887Y00531912D01*
X00634706Y00531995D01*
X00634554Y00532065D01*
X00634401Y00532134D01*
X00634290Y00532203D01*
X00634179Y00532273D01*
X00634110Y00532328D01*
X00634041Y00532356D01*
X00634013Y00532384D01*
X00633999Y00532397D01*
X00633805Y00532564D01*
X00633638Y00532730D01*
X00633486Y00532924D01*
X00633333Y00533119D01*
X00633084Y00533507D01*
X00632890Y00533895D01*
X00632806Y00534076D01*
X00632737Y00534242D01*
X00632682Y00534394D01*
X00632640Y00534519D01*
X00632598Y00534630D01*
X00632571Y00534714D01*
X00632557Y00534769D01*
Y00534783D01*
X00633833Y00535102D01*
X00633888Y00534880D01*
X00633957Y00534672D01*
X00634027Y00534478D01*
X00634096Y00534297D01*
X00634179Y00534131D01*
X00634263Y00533992D01*
X00634360Y00533854D01*
X00634443Y00533729D01*
X00634512Y00533618D01*
X00634595Y00533535D01*
X00634665Y00533451D01*
X00634720Y00533382D01*
X00634776Y00533340D01*
X00634817Y00533299D01*
X00634831Y00533285D01*
X00634845Y00533271D01*
X00634984Y00533160D01*
X00635136Y00533077D01*
X00635441Y00532924D01*
X00635733Y00532813D01*
X00636024Y00532744D01*
X00636273Y00532689D01*
X00636371Y00532675D01*
X00636468D01*
X00636551Y00532661D01*
X00636648D01*
X00636967Y00532675D01*
X00637272Y00532730D01*
X00637549Y00532800D01*
X00637799Y00532883D01*
X00637993Y00532966D01*
X00638076Y00533008D01*
X00638146Y00533035D01*
X00638201Y00533063D01*
X00638243Y00533091D01*
X00638270Y00533105D01*
X00638284D01*
X00638548Y00533299D01*
X00638770Y00533507D01*
X00638964Y00533743D01*
X00639117Y00533965D01*
X00639241Y00534159D01*
X00639324Y00534325D01*
X00639352Y00534394D01*
X00639380Y00534436D01*
X00639394Y00534464D01*
Y00534478D01*
X00639505Y00534838D01*
X00639588Y00535199D01*
X00639657Y00535560D01*
X00639699Y00535892D01*
X00639713Y00536045D01*
X00639727Y00536184D01*
Y00536308D01*
X00639741Y00536405D01*
Y00536489D01*
Y00536558D01*
Y00536600D01*
Y00536614D01*
X00639727Y00536974D01*
X00639699Y00537307D01*
X00639644Y00537612D01*
X00639588Y00537889D01*
X00639546Y00538125D01*
X00639519Y00538222D01*
X00639491Y00538305D01*
X00639477Y00538375D01*
X00639463Y00538416D01*
X00639449Y00538444D01*
Y00538458D01*
X00639311Y00538777D01*
X00639158Y00539068D01*
X00638992Y00539304D01*
X00638811Y00539512D01*
X00638659Y00539678D01*
X00638534Y00539789D01*
X00638437Y00539859D01*
X00638423Y00539886D01*
X00638409D01*
X00638118Y00540067D01*
X00637799Y00540205D01*
X00637494Y00540303D01*
X00637203Y00540358D01*
X00636939Y00540400D01*
X00636828Y00540413D01*
X00636731D01*
X00636662Y00540427D01*
X00636551D01*
X00636204Y00540413D01*
X00635885Y00540358D01*
X00635622Y00540275D01*
X00635386Y00540191D01*
X00635206Y00540094D01*
X00635067Y00540025D01*
X00634984Y00539970D01*
X00634956Y00539942D01*
X00634734Y00539734D01*
X00634526Y00539498D01*
X00634360Y00539249D01*
X00634221Y00538999D01*
X00634110Y00538777D01*
X00634068Y00538666D01*
X00634041Y00538583D01*
X00634013Y00538513D01*
X00633985Y00538458D01*
X00633971Y00538430D01*
Y00538416D01*
X00632723Y00538708D01*
X00632806Y00538957D01*
X00632890Y00539179D01*
X00633000Y00539387D01*
X00633098Y00539595D01*
X00633209Y00539776D01*
X00633333Y00539942D01*
X00633444Y00540108D01*
X00633555Y00540247D01*
X00633666Y00540358D01*
X00633763Y00540469D01*
X00633860Y00540566D01*
X00633930Y00540635D01*
X00633999Y00540705D01*
X00634054Y00540746D01*
X00634082Y00540760D01*
X00634096Y00540774D01*
X00634290Y00540899D01*
X00634484Y00541024D01*
X00634679Y00541121D01*
X00634887Y00541204D01*
X00635303Y00541329D01*
X00635677Y00541412D01*
X00635857Y00541454D01*
X00636010Y00541467D01*
X00636162Y00541481D01*
X00636287Y00541495D01*
X00636384Y00541509D01*
X00636523D01*
X00636981Y00541481D01*
D02*
G37*
G36*
X00408720Y00151128D02*
X00409095Y00151059D01*
X00409414Y00150948D01*
X00409691Y00150837D01*
X00409816Y00150767D01*
X00409913Y00150712D01*
X00410010Y00150656D01*
X00410079Y00150601D01*
X00410135Y00150559D01*
X00410176Y00150532D01*
X00410204Y00150518D01*
X00410218Y00150504D01*
X00410481Y00150240D01*
X00410690Y00149949D01*
X00410856Y00149644D01*
X00410995Y00149339D01*
X00411078Y00149075D01*
X00411119Y00148965D01*
X00411147Y00148867D01*
X00411161Y00148784D01*
X00411175Y00148729D01*
X00411189Y00148687D01*
Y00148673D01*
X00410010Y00148465D01*
X00409954Y00148770D01*
X00409871Y00149034D01*
X00409774Y00149256D01*
X00409677Y00149436D01*
X00409580Y00149575D01*
X00409497Y00149672D01*
X00409441Y00149741D01*
X00409427Y00149755D01*
X00409247Y00149894D01*
X00409053Y00150005D01*
X00408873Y00150074D01*
X00408692Y00150129D01*
X00408526Y00150157D01*
X00408401Y00150185D01*
X00408290D01*
X00408041Y00150171D01*
X00407819Y00150115D01*
X00407625Y00150046D01*
X00407458Y00149977D01*
X00407333Y00149894D01*
X00407236Y00149824D01*
X00407167Y00149769D01*
X00407153Y00149755D01*
X00407001Y00149589D01*
X00406889Y00149408D01*
X00406820Y00149228D01*
X00406765Y00149062D01*
X00406737Y00148909D01*
X00406709Y00148798D01*
Y00148715D01*
Y00148701D01*
Y00148687D01*
Y00148535D01*
X00406737Y00148396D01*
X00406806Y00148160D01*
X00406903Y00147952D01*
X00407014Y00147772D01*
X00407125Y00147647D01*
X00407222Y00147550D01*
X00407292Y00147494D01*
X00407306Y00147481D01*
X00407319D01*
X00407555Y00147356D01*
X00407777Y00147259D01*
X00408013Y00147189D01*
X00408221Y00147148D01*
X00408401Y00147120D01*
X00408554Y00147092D01*
X00408734D01*
X00408789Y00147106D01*
X00408859D01*
X00408997Y00146066D01*
X00408817Y00146108D01*
X00408651Y00146135D01*
X00408512Y00146163D01*
X00408387Y00146177D01*
X00408290Y00146191D01*
X00408165D01*
X00407874Y00146163D01*
X00407611Y00146108D01*
X00407375Y00146024D01*
X00407181Y00145927D01*
X00407028Y00145830D01*
X00406917Y00145747D01*
X00406848Y00145691D01*
X00406820Y00145664D01*
X00406640Y00145456D01*
X00406501Y00145234D01*
X00406404Y00145012D01*
X00406349Y00144790D01*
X00406307Y00144610D01*
X00406293Y00144457D01*
X00406279Y00144402D01*
Y00144360D01*
Y00144332D01*
Y00144319D01*
X00406307Y00144014D01*
X00406376Y00143736D01*
X00406460Y00143500D01*
X00406571Y00143292D01*
X00406682Y00143126D01*
X00406765Y00143001D01*
X00406834Y00142918D01*
X00406862Y00142890D01*
X00407084Y00142696D01*
X00407319Y00142557D01*
X00407555Y00142460D01*
X00407777Y00142391D01*
X00407971Y00142349D01*
X00408124Y00142335D01*
X00408179Y00142322D01*
X00408262D01*
X00408512Y00142335D01*
X00408748Y00142391D01*
X00408956Y00142460D01*
X00409122Y00142543D01*
X00409261Y00142613D01*
X00409372Y00142682D01*
X00409427Y00142738D01*
X00409455Y00142751D01*
X00409622Y00142946D01*
X00409760Y00143167D01*
X00409885Y00143403D01*
X00409982Y00143653D01*
X00410051Y00143861D01*
X00410079Y00143958D01*
X00410093Y00144041D01*
X00410107Y00144110D01*
X00410121Y00144166D01*
X00410135Y00144194D01*
Y00144208D01*
X00411314Y00144055D01*
X00411286Y00143833D01*
X00411244Y00143625D01*
X00411119Y00143237D01*
X00410967Y00142904D01*
X00410884Y00142765D01*
X00410800Y00142627D01*
X00410717Y00142502D01*
X00410634Y00142405D01*
X00410565Y00142308D01*
X00410495Y00142238D01*
X00410454Y00142183D01*
X00410412Y00142141D01*
X00410384Y00142114D01*
X00410370Y00142100D01*
X00410204Y00141975D01*
X00410038Y00141850D01*
X00409871Y00141753D01*
X00409691Y00141670D01*
X00409344Y00141531D01*
X00409011Y00141448D01*
X00408859Y00141420D01*
X00408720Y00141392D01*
X00408595Y00141378D01*
X00408484Y00141365D01*
X00408401Y00141351D01*
X00408276D01*
X00408013Y00141365D01*
X00407777Y00141392D01*
X00407541Y00141434D01*
X00407319Y00141489D01*
X00407111Y00141559D01*
X00406931Y00141628D01*
X00406751Y00141711D01*
X00406598Y00141795D01*
X00406446Y00141864D01*
X00406321Y00141947D01*
X00406210Y00142016D01*
X00406127Y00142086D01*
X00406057Y00142141D01*
X00406002Y00142183D01*
X00405974Y00142211D01*
X00405960Y00142224D01*
X00405794Y00142391D01*
X00405655Y00142571D01*
X00405530Y00142751D01*
X00405420Y00142932D01*
X00405336Y00143098D01*
X00405253Y00143278D01*
X00405142Y00143611D01*
X00405114Y00143764D01*
X00405087Y00143903D01*
X00405059Y00144027D01*
X00405045Y00144138D01*
X00405031Y00144221D01*
Y00144291D01*
Y00144332D01*
Y00144346D01*
X00405045Y00144679D01*
X00405101Y00144984D01*
X00405184Y00145248D01*
X00405267Y00145470D01*
X00405350Y00145650D01*
X00405433Y00145789D01*
X00405489Y00145872D01*
X00405503Y00145900D01*
X00405697Y00146108D01*
X00405905Y00146288D01*
X00406127Y00146427D01*
X00406349Y00146538D01*
X00406543Y00146621D01*
X00406695Y00146676D01*
X00406751Y00146690D01*
X00406792Y00146704D01*
X00406820Y00146718D01*
X00406834D01*
X00406598Y00146843D01*
X00406404Y00146967D01*
X00406238Y00147106D01*
X00406099Y00147231D01*
X00405988Y00147342D01*
X00405905Y00147439D01*
X00405863Y00147494D01*
X00405849Y00147522D01*
X00405738Y00147716D01*
X00405655Y00147910D01*
X00405586Y00148105D01*
X00405544Y00148285D01*
X00405517Y00148438D01*
X00405503Y00148548D01*
Y00148632D01*
Y00148659D01*
X00405517Y00148895D01*
X00405558Y00149131D01*
X00405614Y00149339D01*
X00405683Y00149519D01*
X00405752Y00149672D01*
X00405808Y00149797D01*
X00405849Y00149866D01*
X00405863Y00149894D01*
X00406002Y00150102D01*
X00406168Y00150282D01*
X00406335Y00150435D01*
X00406501Y00150573D01*
X00406640Y00150670D01*
X00406765Y00150753D01*
X00406848Y00150795D01*
X00406862Y00150809D01*
X00406876D01*
X00407125Y00150920D01*
X00407375Y00151003D01*
X00407625Y00151073D01*
X00407846Y00151114D01*
X00408027Y00151142D01*
X00408179Y00151156D01*
X00408526D01*
X00408720Y00151128D01*
D02*
G37*
G36*
X00416833Y00151253D02*
X00417277Y00151183D01*
X00417665Y00151100D01*
X00417845Y00151045D01*
X00418012Y00150989D01*
X00418164Y00150934D01*
X00418303Y00150878D01*
X00418414Y00150837D01*
X00418525Y00150795D01*
X00418594Y00150753D01*
X00418650Y00150726D01*
X00418691Y00150712D01*
X00418705Y00150698D01*
X00419080Y00150462D01*
X00419399Y00150185D01*
X00419676Y00149908D01*
X00419912Y00149630D01*
X00420092Y00149381D01*
X00420162Y00149270D01*
X00420217Y00149172D01*
X00420272Y00149103D01*
X00420300Y00149048D01*
X00420314Y00149006D01*
X00420328Y00148992D01*
X00420522Y00148562D01*
X00420661Y00148118D01*
X00420758Y00147675D01*
X00420827Y00147273D01*
X00420855Y00147092D01*
X00420869Y00146912D01*
X00420883Y00146773D01*
Y00146635D01*
X00420897Y00146538D01*
Y00146454D01*
Y00146399D01*
Y00146385D01*
X00420869Y00145886D01*
X00420813Y00145400D01*
X00420744Y00144970D01*
X00420689Y00144762D01*
X00420647Y00144582D01*
X00420605Y00144416D01*
X00420550Y00144263D01*
X00420508Y00144124D01*
X00420480Y00144014D01*
X00420439Y00143930D01*
X00420425Y00143861D01*
X00420397Y00143819D01*
Y00143805D01*
X00420189Y00143389D01*
X00419953Y00143015D01*
X00419704Y00142696D01*
X00419579Y00142571D01*
X00419468Y00142446D01*
X00419357Y00142335D01*
X00419246Y00142238D01*
X00419149Y00142155D01*
X00419066Y00142100D01*
X00419011Y00142044D01*
X00418955Y00142002D01*
X00418927Y00141989D01*
X00418913Y00141975D01*
X00418719Y00141864D01*
X00418525Y00141767D01*
X00418109Y00141614D01*
X00417693Y00141503D01*
X00417291Y00141434D01*
X00417097Y00141406D01*
X00416930Y00141378D01*
X00416778Y00141365D01*
X00416653D01*
X00416542Y00141351D01*
X00416389D01*
X00416112Y00141365D01*
X00415849Y00141392D01*
X00415599Y00141420D01*
X00415363Y00141475D01*
X00415141Y00141545D01*
X00414933Y00141614D01*
X00414739Y00141684D01*
X00414559Y00141767D01*
X00414406Y00141836D01*
X00414254Y00141905D01*
X00414143Y00141975D01*
X00414032Y00142044D01*
X00413962Y00142100D01*
X00413893Y00142127D01*
X00413865Y00142155D01*
X00413851Y00142169D01*
X00413657Y00142335D01*
X00413491Y00142502D01*
X00413338Y00142696D01*
X00413186Y00142890D01*
X00412936Y00143278D01*
X00412742Y00143667D01*
X00412659Y00143847D01*
X00412589Y00144014D01*
X00412534Y00144166D01*
X00412492Y00144291D01*
X00412451Y00144402D01*
X00412423Y00144485D01*
X00412409Y00144541D01*
Y00144554D01*
X00413685Y00144873D01*
X00413741Y00144651D01*
X00413810Y00144443D01*
X00413879Y00144249D01*
X00413949Y00144069D01*
X00414032Y00143903D01*
X00414115Y00143764D01*
X00414212Y00143625D01*
X00414295Y00143500D01*
X00414365Y00143389D01*
X00414448Y00143306D01*
X00414517Y00143223D01*
X00414573Y00143154D01*
X00414628Y00143112D01*
X00414670Y00143070D01*
X00414683Y00143056D01*
X00414697Y00143043D01*
X00414836Y00142932D01*
X00414989Y00142849D01*
X00415294Y00142696D01*
X00415585Y00142585D01*
X00415876Y00142516D01*
X00416126Y00142460D01*
X00416223Y00142446D01*
X00416320D01*
X00416403Y00142432D01*
X00416500D01*
X00416819Y00142446D01*
X00417124Y00142502D01*
X00417402Y00142571D01*
X00417651Y00142654D01*
X00417845Y00142738D01*
X00417929Y00142779D01*
X00417998Y00142807D01*
X00418054Y00142835D01*
X00418095Y00142862D01*
X00418123Y00142876D01*
X00418137D01*
X00418400Y00143070D01*
X00418622Y00143278D01*
X00418816Y00143514D01*
X00418969Y00143736D01*
X00419094Y00143930D01*
X00419177Y00144097D01*
X00419205Y00144166D01*
X00419232Y00144208D01*
X00419246Y00144235D01*
Y00144249D01*
X00419357Y00144610D01*
X00419440Y00144970D01*
X00419510Y00145331D01*
X00419551Y00145664D01*
X00419565Y00145816D01*
X00419579Y00145955D01*
Y00146080D01*
X00419593Y00146177D01*
Y00146260D01*
Y00146329D01*
Y00146371D01*
Y00146385D01*
X00419579Y00146746D01*
X00419551Y00147078D01*
X00419496Y00147383D01*
X00419440Y00147661D01*
X00419399Y00147897D01*
X00419371Y00147994D01*
X00419343Y00148077D01*
X00419329Y00148146D01*
X00419316Y00148188D01*
X00419302Y00148216D01*
Y00148229D01*
X00419163Y00148548D01*
X00419011Y00148840D01*
X00418844Y00149075D01*
X00418664Y00149283D01*
X00418511Y00149450D01*
X00418386Y00149561D01*
X00418289Y00149630D01*
X00418275Y00149658D01*
X00418262D01*
X00417970Y00149838D01*
X00417651Y00149977D01*
X00417346Y00150074D01*
X00417055Y00150129D01*
X00416791Y00150171D01*
X00416681Y00150185D01*
X00416584D01*
X00416514Y00150199D01*
X00416403D01*
X00416057Y00150185D01*
X00415737Y00150129D01*
X00415474Y00150046D01*
X00415238Y00149963D01*
X00415058Y00149866D01*
X00414919Y00149797D01*
X00414836Y00149741D01*
X00414808Y00149713D01*
X00414586Y00149505D01*
X00414378Y00149270D01*
X00414212Y00149020D01*
X00414073Y00148770D01*
X00413962Y00148548D01*
X00413921Y00148438D01*
X00413893Y00148354D01*
X00413865Y00148285D01*
X00413838Y00148229D01*
X00413824Y00148202D01*
Y00148188D01*
X00412576Y00148479D01*
X00412659Y00148729D01*
X00412742Y00148951D01*
X00412853Y00149159D01*
X00412950Y00149367D01*
X00413061Y00149547D01*
X00413186Y00149713D01*
X00413297Y00149880D01*
X00413408Y00150019D01*
X00413519Y00150129D01*
X00413616Y00150240D01*
X00413713Y00150337D01*
X00413782Y00150407D01*
X00413851Y00150476D01*
X00413907Y00150518D01*
X00413935Y00150532D01*
X00413949Y00150546D01*
X00414143Y00150670D01*
X00414337Y00150795D01*
X00414531Y00150892D01*
X00414739Y00150975D01*
X00415155Y00151100D01*
X00415530Y00151183D01*
X00415710Y00151225D01*
X00415862Y00151239D01*
X00416015Y00151253D01*
X00416140Y00151267D01*
X00416237Y00151280D01*
X00416376D01*
X00416833Y00151253D01*
D02*
G37*
G36*
X00401106Y00151128D02*
X00401453Y00151073D01*
X00401744Y00150975D01*
X00401994Y00150878D01*
X00402202Y00150767D01*
X00402285Y00150726D01*
X00402355Y00150670D01*
X00402410Y00150642D01*
X00402452Y00150615D01*
X00402466Y00150587D01*
X00402479D01*
X00402729Y00150365D01*
X00402937Y00150102D01*
X00403117Y00149838D01*
X00403256Y00149589D01*
X00403367Y00149353D01*
X00403422Y00149256D01*
X00403450Y00149159D01*
X00403478Y00149089D01*
X00403506Y00149034D01*
X00403520Y00149006D01*
Y00148992D01*
X00403575Y00148784D01*
X00403630Y00148576D01*
X00403714Y00148118D01*
X00403783Y00147661D01*
X00403825Y00147231D01*
X00403839Y00147023D01*
X00403852Y00146843D01*
Y00146676D01*
X00403866Y00146524D01*
Y00146413D01*
Y00146316D01*
Y00146260D01*
Y00146246D01*
X00403852Y00145761D01*
X00403825Y00145303D01*
X00403783Y00144887D01*
X00403714Y00144499D01*
X00403644Y00144138D01*
X00403561Y00143819D01*
X00403478Y00143528D01*
X00403395Y00143278D01*
X00403312Y00143056D01*
X00403214Y00142862D01*
X00403145Y00142696D01*
X00403076Y00142571D01*
X00403006Y00142460D01*
X00402965Y00142391D01*
X00402937Y00142349D01*
X00402923Y00142335D01*
X00402771Y00142169D01*
X00402604Y00142016D01*
X00402424Y00141878D01*
X00402244Y00141767D01*
X00402063Y00141670D01*
X00401883Y00141587D01*
X00401703Y00141531D01*
X00401536Y00141475D01*
X00401370Y00141434D01*
X00401217Y00141406D01*
X00401079Y00141378D01*
X00400968Y00141365D01*
X00400871Y00141351D01*
X00400732D01*
X00400358Y00141378D01*
X00400011Y00141434D01*
X00399720Y00141531D01*
X00399470Y00141628D01*
X00399262Y00141725D01*
X00399193Y00141781D01*
X00399123Y00141822D01*
X00399068Y00141850D01*
X00399026Y00141878D01*
X00399012Y00141905D01*
X00398998D01*
X00398749Y00142141D01*
X00398541Y00142391D01*
X00398360Y00142668D01*
X00398222Y00142918D01*
X00398111Y00143154D01*
X00398055Y00143251D01*
X00398028Y00143348D01*
X00398000Y00143417D01*
X00397972Y00143473D01*
X00397958Y00143500D01*
Y00143514D01*
X00397889Y00143722D01*
X00397833Y00143930D01*
X00397750Y00144374D01*
X00397681Y00144832D01*
X00397639Y00145275D01*
X00397625Y00145470D01*
X00397612Y00145650D01*
Y00145816D01*
X00397598Y00145969D01*
Y00146080D01*
Y00146177D01*
Y00146232D01*
Y00146246D01*
Y00146510D01*
X00397612Y00146759D01*
Y00146981D01*
X00397625Y00147203D01*
X00397653Y00147397D01*
X00397667Y00147591D01*
X00397681Y00147758D01*
X00397709Y00147910D01*
X00397723Y00148049D01*
X00397750Y00148174D01*
X00397764Y00148271D01*
X00397778Y00148354D01*
X00397792Y00148424D01*
X00397806Y00148465D01*
X00397820Y00148493D01*
Y00148507D01*
X00397903Y00148812D01*
X00398000Y00149089D01*
X00398111Y00149325D01*
X00398194Y00149533D01*
X00398291Y00149713D01*
X00398347Y00149838D01*
X00398402Y00149908D01*
X00398416Y00149935D01*
X00398568Y00150143D01*
X00398721Y00150324D01*
X00398887Y00150476D01*
X00399040Y00150615D01*
X00399179Y00150712D01*
X00399290Y00150781D01*
X00399359Y00150823D01*
X00399373Y00150837D01*
X00399387D01*
X00399609Y00150948D01*
X00399844Y00151017D01*
X00400066Y00151073D01*
X00400274Y00151114D01*
X00400455Y00151142D01*
X00400607Y00151156D01*
X00400732D01*
X00401106Y00151128D01*
D02*
G37*
G36*
X00447536Y00701821D02*
X00447772Y00701807D01*
X00447994Y00701765D01*
X00448202Y00701724D01*
X00448396Y00701668D01*
X00448576Y00701613D01*
X00448743Y00701543D01*
X00448895Y00701474D01*
X00449034Y00701405D01*
X00449145Y00701335D01*
X00449242Y00701280D01*
X00449325Y00701224D01*
X00449394Y00701183D01*
X00449436Y00701141D01*
X00449464Y00701127D01*
X00449478Y00701113D01*
X00449616Y00700975D01*
X00449741Y00700822D01*
X00449866Y00700656D01*
X00449963Y00700489D01*
X00450129Y00700156D01*
X00450240Y00699824D01*
X00450282Y00699671D01*
X00450324Y00699519D01*
X00450351Y00699394D01*
X00450379Y00699283D01*
X00450393Y00699186D01*
Y00699116D01*
X00450407Y00699075D01*
Y00699061D01*
X00449200Y00698936D01*
X00449173Y00699255D01*
X00449117Y00699532D01*
X00449034Y00699782D01*
X00448937Y00699976D01*
X00448853Y00700143D01*
X00448770Y00700254D01*
X00448715Y00700323D01*
X00448687Y00700351D01*
X00448479Y00700517D01*
X00448257Y00700642D01*
X00448021Y00700739D01*
X00447813Y00700794D01*
X00447619Y00700836D01*
X00447453Y00700850D01*
X00447397Y00700864D01*
X00447314D01*
X00447023Y00700850D01*
X00446759Y00700794D01*
X00446538Y00700711D01*
X00446343Y00700628D01*
X00446191Y00700531D01*
X00446094Y00700462D01*
X00446024Y00700406D01*
X00445997Y00700378D01*
X00445830Y00700184D01*
X00445705Y00699990D01*
X00445608Y00699796D01*
X00445553Y00699602D01*
X00445511Y00699449D01*
X00445497Y00699311D01*
X00445484Y00699227D01*
Y00699213D01*
Y00699200D01*
X00445511Y00698950D01*
X00445567Y00698686D01*
X00445664Y00698451D01*
X00445761Y00698229D01*
X00445872Y00698048D01*
X00445969Y00697896D01*
X00445997Y00697840D01*
X00446024Y00697799D01*
X00446052Y00697785D01*
Y00697771D01*
X00446163Y00697619D01*
X00446302Y00697466D01*
X00446454Y00697300D01*
X00446621Y00697133D01*
X00446967Y00696800D01*
X00447314Y00696468D01*
X00447494Y00696315D01*
X00447647Y00696176D01*
X00447799Y00696051D01*
X00447924Y00695940D01*
X00448021Y00695857D01*
X00448105Y00695788D01*
X00448160Y00695746D01*
X00448174Y00695732D01*
X00448521Y00695441D01*
X00448840Y00695164D01*
X00449103Y00694914D01*
X00449311Y00694706D01*
X00449492Y00694526D01*
X00449616Y00694401D01*
X00449686Y00694318D01*
X00449713Y00694304D01*
Y00694290D01*
X00449907Y00694054D01*
X00450060Y00693832D01*
X00450199Y00693611D01*
X00450310Y00693416D01*
X00450393Y00693250D01*
X00450448Y00693125D01*
X00450476Y00693042D01*
X00450490Y00693028D01*
Y00693014D01*
X00450546Y00692862D01*
X00450573Y00692723D01*
X00450601Y00692584D01*
X00450615Y00692459D01*
X00450629Y00692349D01*
Y00692265D01*
Y00692210D01*
Y00692196D01*
X00444263D01*
Y00693333D01*
X00448992D01*
X00448826Y00693569D01*
X00448743Y00693666D01*
X00448673Y00693763D01*
X00448604Y00693846D01*
X00448548Y00693902D01*
X00448507Y00693943D01*
X00448493Y00693957D01*
X00448424Y00694027D01*
X00448340Y00694096D01*
X00448146Y00694276D01*
X00447924Y00694484D01*
X00447689Y00694692D01*
X00447467Y00694873D01*
X00447370Y00694956D01*
X00447286Y00695039D01*
X00447217Y00695095D01*
X00447162Y00695136D01*
X00447134Y00695164D01*
X00447120Y00695178D01*
X00446898Y00695372D01*
X00446676Y00695552D01*
X00446482Y00695732D01*
X00446302Y00695885D01*
X00446135Y00696038D01*
X00445997Y00696176D01*
X00445858Y00696301D01*
X00445747Y00696412D01*
X00445636Y00696523D01*
X00445553Y00696606D01*
X00445484Y00696675D01*
X00445414Y00696745D01*
X00445345Y00696828D01*
X00445317Y00696856D01*
X00445123Y00697092D01*
X00444957Y00697300D01*
X00444818Y00697508D01*
X00444707Y00697674D01*
X00444624Y00697827D01*
X00444568Y00697937D01*
X00444540Y00698007D01*
X00444527Y00698035D01*
X00444443Y00698243D01*
X00444388Y00698451D01*
X00444332Y00698645D01*
X00444305Y00698811D01*
X00444291Y00698964D01*
X00444277Y00699075D01*
Y00699144D01*
Y00699172D01*
X00444291Y00699380D01*
X00444319Y00699574D01*
X00444346Y00699768D01*
X00444402Y00699935D01*
X00444540Y00700267D01*
X00444679Y00700531D01*
X00444762Y00700656D01*
X00444832Y00700753D01*
X00444901Y00700850D01*
X00444970Y00700919D01*
X00445026Y00700975D01*
X00445054Y00701030D01*
X00445081Y00701044D01*
X00445095Y00701058D01*
X00445248Y00701197D01*
X00445414Y00701321D01*
X00445594Y00701419D01*
X00445775Y00701502D01*
X00446135Y00701640D01*
X00446496Y00701738D01*
X00446648Y00701765D01*
X00446801Y00701793D01*
X00446940Y00701807D01*
X00447051Y00701821D01*
X00447148Y00701835D01*
X00447286D01*
X00447536Y00701821D01*
D02*
G37*
G36*
X00459643Y00692196D02*
X00458367D01*
Y00696454D01*
X00456731D01*
X00456578Y00696440D01*
X00456467D01*
X00456370Y00696426D01*
X00456301Y00696412D01*
X00456245D01*
X00456218Y00696398D01*
X00456204D01*
X00455982Y00696329D01*
X00455885Y00696287D01*
X00455802Y00696246D01*
X00455718Y00696204D01*
X00455663Y00696176D01*
X00455635Y00696162D01*
X00455621Y00696149D01*
X00455510Y00696065D01*
X00455399Y00695968D01*
X00455191Y00695760D01*
X00455094Y00695663D01*
X00455025Y00695580D01*
X00454983Y00695524D01*
X00454969Y00695511D01*
X00454831Y00695316D01*
X00454678Y00695108D01*
X00454526Y00694886D01*
X00454373Y00694678D01*
X00454248Y00694484D01*
X00454151Y00694332D01*
X00454110Y00694276D01*
X00454082Y00694235D01*
X00454054Y00694207D01*
Y00694193D01*
X00452792Y00692196D01*
X00451211D01*
X00452862Y00694803D01*
X00453056Y00695081D01*
X00453236Y00695330D01*
X00453416Y00695538D01*
X00453569Y00695732D01*
X00453708Y00695871D01*
X00453818Y00695982D01*
X00453888Y00696051D01*
X00453915Y00696079D01*
X00454026Y00696162D01*
X00454151Y00696260D01*
X00454401Y00696412D01*
X00454512Y00696468D01*
X00454595Y00696523D01*
X00454650Y00696551D01*
X00454678Y00696565D01*
X00454429Y00696606D01*
X00454193Y00696648D01*
X00453985Y00696717D01*
X00453777Y00696773D01*
X00453596Y00696842D01*
X00453430Y00696925D01*
X00453278Y00696994D01*
X00453139Y00697064D01*
X00453028Y00697147D01*
X00452917Y00697216D01*
X00452834Y00697272D01*
X00452764Y00697327D01*
X00452709Y00697369D01*
X00452667Y00697411D01*
X00452654Y00697424D01*
X00452640Y00697438D01*
X00452529Y00697577D01*
X00452418Y00697716D01*
X00452251Y00698007D01*
X00452140Y00698298D01*
X00452057Y00698576D01*
X00452002Y00698811D01*
X00451988Y00698908D01*
Y00699005D01*
X00451974Y00699075D01*
Y00699130D01*
Y00699158D01*
Y00699172D01*
X00451988Y00699463D01*
X00452029Y00699727D01*
X00452099Y00699976D01*
X00452168Y00700184D01*
X00452251Y00700365D01*
X00452307Y00700503D01*
X00452362Y00700586D01*
X00452376Y00700600D01*
Y00700614D01*
X00452542Y00700836D01*
X00452709Y00701030D01*
X00452889Y00701197D01*
X00453056Y00701321D01*
X00453208Y00701419D01*
X00453333Y00701474D01*
X00453416Y00701516D01*
X00453430Y00701529D01*
X00453444D01*
X00453569Y00701571D01*
X00453721Y00701613D01*
X00454026Y00701682D01*
X00454359Y00701724D01*
X00454664Y00701765D01*
X00454956Y00701779D01*
X00455080D01*
X00455191Y00701793D01*
X00459643D01*
Y00692196D01*
D02*
G37*
G36*
X00440103Y00701821D02*
X00440325Y00701807D01*
X00440713Y00701724D01*
X00440893Y00701668D01*
X00441059Y00701613D01*
X00441212Y00701543D01*
X00441351Y00701474D01*
X00441462Y00701405D01*
X00441573Y00701335D01*
X00441670Y00701280D01*
X00441739Y00701224D01*
X00441795Y00701183D01*
X00441836Y00701141D01*
X00441864Y00701127D01*
X00441878Y00701113D01*
X00442002Y00700975D01*
X00442127Y00700836D01*
X00442224Y00700684D01*
X00442308Y00700531D01*
X00442446Y00700240D01*
X00442529Y00699962D01*
X00442585Y00699727D01*
X00442599Y00699616D01*
X00442613Y00699532D01*
X00442627Y00699449D01*
Y00699394D01*
Y00699366D01*
Y00699352D01*
X00442613Y00699102D01*
X00442571Y00698867D01*
X00442516Y00698659D01*
X00442446Y00698478D01*
X00442391Y00698340D01*
X00442335Y00698229D01*
X00442294Y00698173D01*
X00442280Y00698146D01*
X00442127Y00697979D01*
X00441961Y00697827D01*
X00441781Y00697688D01*
X00441600Y00697577D01*
X00441434Y00697494D01*
X00441309Y00697438D01*
X00441254Y00697411D01*
X00441212Y00697397D01*
X00441198Y00697383D01*
X00441184D01*
X00441503Y00697286D01*
X00441767Y00697161D01*
X00442002Y00697008D01*
X00442197Y00696870D01*
X00442349Y00696731D01*
X00442460Y00696620D01*
X00442516Y00696551D01*
X00442543Y00696537D01*
Y00696523D01*
X00442696Y00696273D01*
X00442821Y00696010D01*
X00442904Y00695760D01*
X00442960Y00695511D01*
X00442987Y00695289D01*
X00443001Y00695192D01*
Y00695108D01*
X00443015Y00695053D01*
Y00694997D01*
Y00694970D01*
Y00694956D01*
X00443001Y00694734D01*
X00442973Y00694512D01*
X00442932Y00694304D01*
X00442876Y00694096D01*
X00442738Y00693749D01*
X00442668Y00693583D01*
X00442585Y00693444D01*
X00442502Y00693306D01*
X00442433Y00693195D01*
X00442349Y00693098D01*
X00442294Y00693014D01*
X00442238Y00692945D01*
X00442197Y00692903D01*
X00442169Y00692876D01*
X00442155Y00692862D01*
X00441989Y00692709D01*
X00441808Y00692584D01*
X00441614Y00692473D01*
X00441420Y00692376D01*
X00441240Y00692307D01*
X00441046Y00692238D01*
X00440671Y00692141D01*
X00440505Y00692099D01*
X00440352Y00692071D01*
X00440214Y00692057D01*
X00440089Y00692044D01*
X00439992Y00692030D01*
X00439853D01*
X00439589Y00692044D01*
X00439354Y00692071D01*
X00439118Y00692113D01*
X00438896Y00692154D01*
X00438702Y00692224D01*
X00438508Y00692293D01*
X00438327Y00692362D01*
X00438175Y00692446D01*
X00438036Y00692529D01*
X00437911Y00692598D01*
X00437814Y00692668D01*
X00437717Y00692737D01*
X00437648Y00692778D01*
X00437606Y00692820D01*
X00437579Y00692848D01*
X00437565Y00692862D01*
X00437412Y00693028D01*
X00437273Y00693195D01*
X00437163Y00693361D01*
X00437065Y00693541D01*
X00436968Y00693708D01*
X00436899Y00693888D01*
X00436802Y00694207D01*
X00436760Y00694360D01*
X00436733Y00694498D01*
X00436719Y00694623D01*
X00436705Y00694720D01*
X00436691Y00694803D01*
Y00694873D01*
Y00694914D01*
Y00694928D01*
X00436705Y00695247D01*
X00436760Y00695538D01*
X00436843Y00695802D01*
X00436927Y00696024D01*
X00437010Y00696204D01*
X00437093Y00696343D01*
X00437149Y00696426D01*
X00437163Y00696440D01*
Y00696454D01*
X00437357Y00696675D01*
X00437565Y00696870D01*
X00437787Y00697022D01*
X00437995Y00697161D01*
X00438189Y00697258D01*
X00438355Y00697327D01*
X00438411Y00697355D01*
X00438452Y00697369D01*
X00438480Y00697383D01*
X00438494D01*
X00438244Y00697494D01*
X00438036Y00697619D01*
X00437856Y00697743D01*
X00437703Y00697868D01*
X00437592Y00697979D01*
X00437509Y00698062D01*
X00437454Y00698118D01*
X00437440Y00698146D01*
X00437315Y00698340D01*
X00437232Y00698534D01*
X00437163Y00698728D01*
X00437121Y00698922D01*
X00437093Y00699075D01*
X00437079Y00699200D01*
Y00699283D01*
Y00699297D01*
Y00699311D01*
X00437093Y00699505D01*
X00437107Y00699685D01*
X00437204Y00700032D01*
X00437329Y00700337D01*
X00437468Y00700600D01*
X00437606Y00700808D01*
X00437676Y00700891D01*
X00437731Y00700975D01*
X00437787Y00701030D01*
X00437828Y00701072D01*
X00437842Y00701086D01*
X00437856Y00701099D01*
X00438008Y00701224D01*
X00438161Y00701349D01*
X00438327Y00701446D01*
X00438494Y00701529D01*
X00438827Y00701654D01*
X00439160Y00701738D01*
X00439298Y00701779D01*
X00439437Y00701793D01*
X00439562Y00701807D01*
X00439673Y00701821D01*
X00439756Y00701835D01*
X00439881D01*
X00440103Y00701821D01*
D02*
G37*
%LPC*%
G36*
X00523098Y00716754D02*
X00523043D01*
X00523015D01*
X00522835Y00716740D01*
X00522668Y00716712D01*
X00522529Y00716670D01*
X00522419Y00716629D01*
X00522321Y00716587D01*
X00522238Y00716546D01*
X00522197Y00716518D01*
X00522183Y00716504D01*
X00522072Y00716407D01*
X00521961Y00716282D01*
X00521878Y00716157D01*
X00521822Y00716046D01*
X00521767Y00715935D01*
X00521725Y00715852D01*
X00521711Y00715797D01*
X00521697Y00715769D01*
X00521670Y00715616D01*
X00521642Y00715422D01*
X00521628Y00715228D01*
X00521614Y00715034D01*
X00521600Y00714854D01*
Y00712496D01*
X00524485D01*
Y00714770D01*
X00524457Y00715076D01*
X00524443Y00715311D01*
X00524416Y00715519D01*
X00524388Y00715672D01*
X00524374Y00715769D01*
X00524346Y00715838D01*
Y00715852D01*
X00524291Y00716005D01*
X00524207Y00716143D01*
X00524124Y00716254D01*
X00524041Y00716351D01*
X00523972Y00716421D01*
X00523902Y00716476D01*
X00523861Y00716504D01*
X00523847Y00716518D01*
X00523708Y00716601D01*
X00523570Y00716656D01*
X00523431Y00716698D01*
X00523292Y00716726D01*
X00523181Y00716740D01*
X00523098Y00716754D01*
D02*
G37*
G36*
X00518896Y00717170D02*
X00518840D01*
X00518813D01*
X00518646Y00717156D01*
X00518480Y00717142D01*
X00518341Y00717114D01*
X00518230Y00717073D01*
X00518133Y00717031D01*
X00518050Y00717003D01*
X00518008Y00716989D01*
X00517994Y00716975D01*
X00517870Y00716892D01*
X00517759Y00716823D01*
X00517676Y00716726D01*
X00517592Y00716656D01*
X00517537Y00716587D01*
X00517495Y00716532D01*
X00517467Y00716490D01*
X00517454Y00716476D01*
X00517343Y00716240D01*
X00517259Y00716005D01*
X00517232Y00715908D01*
X00517218Y00715824D01*
X00517204Y00715769D01*
Y00715755D01*
X00517190Y00715644D01*
X00517176Y00715519D01*
X00517162Y00715228D01*
Y00712496D01*
X00520463D01*
Y00715020D01*
X00520435Y00715311D01*
X00520408Y00715547D01*
X00520380Y00715741D01*
X00520352Y00715894D01*
X00520324Y00716019D01*
X00520311Y00716074D01*
X00520297Y00716102D01*
X00520227Y00716282D01*
X00520144Y00716435D01*
X00520047Y00716573D01*
X00519950Y00716684D01*
X00519867Y00716768D01*
X00519797Y00716823D01*
X00519742Y00716864D01*
X00519728Y00716878D01*
X00519576Y00716975D01*
X00519423Y00717045D01*
X00519270Y00717100D01*
X00519132Y00717128D01*
X00519007Y00717156D01*
X00518896Y00717170D01*
D02*
G37*
G36*
X00569905Y00661491D02*
X00569757D01*
X00569664Y00661473D01*
X00569498Y00661427D01*
X00569350Y00661362D01*
X00569221Y00661297D01*
X00569119Y00661223D01*
X00569045Y00661159D01*
X00568999Y00661112D01*
X00568980Y00661103D01*
Y00661094D01*
X00568860Y00660937D01*
X00568768Y00660761D01*
X00568703Y00660576D01*
X00568666Y00660400D01*
X00568638Y00660253D01*
X00568629Y00660188D01*
Y00660123D01*
X00568620Y00660077D01*
Y00660040D01*
Y00660021D01*
Y00660012D01*
X00568638Y00659772D01*
X00568675Y00659559D01*
X00568731Y00659383D01*
X00568795Y00659235D01*
X00568869Y00659115D01*
X00568925Y00659032D01*
X00568962Y00658977D01*
X00568980Y00658958D01*
X00569119Y00658829D01*
X00569267Y00658736D01*
X00569415Y00658671D01*
X00569563Y00658625D01*
X00569683Y00658597D01*
X00569785Y00658588D01*
X00569822Y00658579D01*
X00569877D01*
X00570071Y00658597D01*
X00570247Y00658634D01*
X00570404Y00658699D01*
X00570543Y00658773D01*
X00570644Y00658838D01*
X00570728Y00658903D01*
X00570774Y00658940D01*
X00570792Y00658958D01*
X00570913Y00659106D01*
X00571005Y00659272D01*
X00571060Y00659439D01*
X00571107Y00659596D01*
X00571134Y00659735D01*
X00571144Y00659790D01*
Y00659846D01*
X00571153Y00659892D01*
Y00659920D01*
Y00659938D01*
Y00659947D01*
X00571134Y00660188D01*
X00571097Y00660410D01*
X00571033Y00660604D01*
X00570959Y00660761D01*
X00570894Y00660890D01*
X00570829Y00660983D01*
X00570811Y00661011D01*
X00570792Y00661038D01*
X00570774Y00661048D01*
Y00661057D01*
X00570700Y00661131D01*
X00570626Y00661205D01*
X00570469Y00661306D01*
X00570312Y00661390D01*
X00570164Y00661436D01*
X00570043Y00661473D01*
X00569942Y00661482D01*
X00569905Y00661491D01*
D02*
G37*
G36*
X00576784Y00661353D02*
X00575267D01*
X00575064Y00661334D01*
X00574907Y00661325D01*
X00574768Y00661306D01*
X00574666Y00661288D01*
X00574602Y00661279D01*
X00574555Y00661260D01*
X00574546D01*
X00574444Y00661223D01*
X00574352Y00661168D01*
X00574278Y00661112D01*
X00574213Y00661057D01*
X00574167Y00661011D01*
X00574130Y00660964D01*
X00574112Y00660937D01*
X00574102Y00660927D01*
X00574047Y00660835D01*
X00574010Y00660742D01*
X00573982Y00660650D01*
X00573964Y00660558D01*
X00573954Y00660484D01*
X00573945Y00660428D01*
Y00660391D01*
Y00660373D01*
X00573954Y00660253D01*
X00573973Y00660142D01*
X00574001Y00660049D01*
X00574028Y00659975D01*
X00574056Y00659910D01*
X00574084Y00659855D01*
X00574102Y00659827D01*
X00574112Y00659818D01*
X00574176Y00659744D01*
X00574259Y00659670D01*
X00574343Y00659614D01*
X00574417Y00659577D01*
X00574491Y00659540D01*
X00574546Y00659513D01*
X00574583Y00659504D01*
X00574602Y00659494D01*
X00574703Y00659476D01*
X00574833Y00659457D01*
X00574962Y00659448D01*
X00575092Y00659439D01*
X00575212Y00659430D01*
X00576784D01*
Y00661353D01*
D02*
G37*
G36*
Y00658671D02*
X00575101D01*
X00574907Y00658653D01*
X00574749Y00658634D01*
X00574620Y00658616D01*
X00574518Y00658597D01*
X00574435Y00658579D01*
X00574398Y00658570D01*
X00574380Y00658560D01*
X00574259Y00658514D01*
X00574158Y00658459D01*
X00574065Y00658394D01*
X00573991Y00658329D01*
X00573936Y00658274D01*
X00573899Y00658228D01*
X00573871Y00658191D01*
X00573862Y00658181D01*
X00573797Y00658080D01*
X00573751Y00657978D01*
X00573714Y00657876D01*
X00573695Y00657784D01*
X00573677Y00657701D01*
X00573668Y00657627D01*
Y00657590D01*
Y00657571D01*
X00573677Y00657460D01*
X00573686Y00657349D01*
X00573705Y00657257D01*
X00573732Y00657183D01*
X00573760Y00657118D01*
X00573779Y00657063D01*
X00573788Y00657035D01*
X00573797Y00657026D01*
X00573853Y00656943D01*
X00573899Y00656869D01*
X00573964Y00656813D01*
X00574010Y00656758D01*
X00574056Y00656721D01*
X00574093Y00656693D01*
X00574121Y00656674D01*
X00574130Y00656665D01*
X00574287Y00656591D01*
X00574444Y00656536D01*
X00574509Y00656517D01*
X00574565Y00656508D01*
X00574602Y00656499D01*
X00574611D01*
X00574685Y00656489D01*
X00574768Y00656480D01*
X00574962Y00656471D01*
X00576784D01*
Y00658671D01*
D02*
G37*
G36*
X00584809Y00611753D02*
X00583293D01*
X00583090Y00611734D01*
X00582933Y00611725D01*
X00582794Y00611707D01*
X00582692Y00611688D01*
X00582627Y00611679D01*
X00582581Y00611660D01*
X00582572D01*
X00582470Y00611623D01*
X00582378Y00611568D01*
X00582304Y00611512D01*
X00582239Y00611457D01*
X00582193Y00611411D01*
X00582156Y00611365D01*
X00582137Y00611337D01*
X00582128Y00611328D01*
X00582073Y00611235D01*
X00582036Y00611143D01*
X00582008Y00611050D01*
X00581989Y00610958D01*
X00581980Y00610884D01*
X00581971Y00610828D01*
Y00610791D01*
Y00610773D01*
X00581980Y00610653D01*
X00581999Y00610542D01*
X00582026Y00610449D01*
X00582054Y00610375D01*
X00582082Y00610311D01*
X00582110Y00610255D01*
X00582128Y00610227D01*
X00582137Y00610218D01*
X00582202Y00610144D01*
X00582285Y00610070D01*
X00582369Y00610015D01*
X00582443Y00609978D01*
X00582516Y00609941D01*
X00582572Y00609913D01*
X00582609Y00609904D01*
X00582627Y00609894D01*
X00582729Y00609876D01*
X00582859Y00609857D01*
X00582988Y00609848D01*
X00583117Y00609839D01*
X00583238Y00609830D01*
X00584809D01*
Y00611753D01*
D02*
G37*
G36*
Y00609072D02*
X00583127D01*
X00582933Y00609053D01*
X00582775Y00609035D01*
X00582646Y00609016D01*
X00582544Y00608998D01*
X00582461Y00608979D01*
X00582424Y00608970D01*
X00582406Y00608961D01*
X00582285Y00608914D01*
X00582184Y00608859D01*
X00582091Y00608794D01*
X00582017Y00608730D01*
X00581962Y00608674D01*
X00581925Y00608628D01*
X00581897Y00608591D01*
X00581888Y00608582D01*
X00581823Y00608480D01*
X00581777Y00608378D01*
X00581740Y00608276D01*
X00581721Y00608184D01*
X00581703Y00608101D01*
X00581694Y00608027D01*
Y00607990D01*
Y00607971D01*
X00581703Y00607860D01*
X00581712Y00607749D01*
X00581731Y00607657D01*
X00581758Y00607583D01*
X00581786Y00607518D01*
X00581805Y00607463D01*
X00581814Y00607435D01*
X00581823Y00607426D01*
X00581879Y00607343D01*
X00581925Y00607269D01*
X00581989Y00607213D01*
X00582036Y00607158D01*
X00582082Y00607121D01*
X00582119Y00607093D01*
X00582147Y00607075D01*
X00582156Y00607065D01*
X00582313Y00606991D01*
X00582470Y00606936D01*
X00582535Y00606917D01*
X00582590Y00606908D01*
X00582627Y00606899D01*
X00582637D01*
X00582711Y00606890D01*
X00582794Y00606880D01*
X00582988Y00606871D01*
X00584809D01*
Y00609072D01*
D02*
G37*
G36*
X00584045Y00585615D02*
X00582529D01*
X00582326Y00585596D01*
X00582168Y00585587D01*
X00582030Y00585568D01*
X00581928Y00585550D01*
X00581863Y00585541D01*
X00581817Y00585522D01*
X00581808D01*
X00581706Y00585485D01*
X00581614Y00585430D01*
X00581540Y00585374D01*
X00581475Y00585319D01*
X00581429Y00585273D01*
X00581392Y00585226D01*
X00581373Y00585199D01*
X00581364Y00585189D01*
X00581309Y00585097D01*
X00581272Y00585004D01*
X00581244Y00584912D01*
X00581225Y00584819D01*
X00581216Y00584746D01*
X00581207Y00584690D01*
Y00584653D01*
Y00584635D01*
X00581216Y00584514D01*
X00581235Y00584403D01*
X00581262Y00584311D01*
X00581290Y00584237D01*
X00581318Y00584172D01*
X00581345Y00584117D01*
X00581364Y00584089D01*
X00581373Y00584080D01*
X00581438Y00584006D01*
X00581521Y00583932D01*
X00581604Y00583876D01*
X00581678Y00583839D01*
X00581752Y00583802D01*
X00581808Y00583775D01*
X00581845Y00583765D01*
X00581863Y00583756D01*
X00581965Y00583738D01*
X00582094Y00583719D01*
X00582224Y00583710D01*
X00582353Y00583701D01*
X00582473Y00583692D01*
X00584045D01*
Y00585615D01*
D02*
G37*
G36*
Y00582933D02*
X00582363D01*
X00582168Y00582915D01*
X00582011Y00582896D01*
X00581882Y00582878D01*
X00581780Y00582859D01*
X00581697Y00582841D01*
X00581660Y00582832D01*
X00581641Y00582822D01*
X00581521Y00582776D01*
X00581419Y00582721D01*
X00581327Y00582656D01*
X00581253Y00582591D01*
X00581198Y00582536D01*
X00581161Y00582490D01*
X00581133Y00582453D01*
X00581124Y00582443D01*
X00581059Y00582342D01*
X00581013Y00582240D01*
X00580976Y00582138D01*
X00580957Y00582046D01*
X00580939Y00581963D01*
X00580929Y00581889D01*
Y00581852D01*
Y00581833D01*
X00580939Y00581722D01*
X00580948Y00581611D01*
X00580966Y00581519D01*
X00580994Y00581445D01*
X00581022Y00581380D01*
X00581040Y00581325D01*
X00581050Y00581297D01*
X00581059Y00581288D01*
X00581114Y00581204D01*
X00581161Y00581130D01*
X00581225Y00581075D01*
X00581272Y00581020D01*
X00581318Y00580983D01*
X00581355Y00580955D01*
X00581382Y00580936D01*
X00581392Y00580927D01*
X00581549Y00580853D01*
X00581706Y00580798D01*
X00581771Y00580779D01*
X00581826Y00580770D01*
X00581863Y00580761D01*
X00581872D01*
X00581946Y00580751D01*
X00582030Y00580742D01*
X00582224Y00580733D01*
X00584045D01*
Y00582933D01*
D02*
G37*
G36*
X00583941Y00560839D02*
X00582425D01*
X00582222Y00560821D01*
X00582064Y00560812D01*
X00581926Y00560793D01*
X00581824Y00560775D01*
X00581759Y00560765D01*
X00581713Y00560747D01*
X00581704D01*
X00581602Y00560710D01*
X00581510Y00560654D01*
X00581436Y00560599D01*
X00581371Y00560543D01*
X00581325Y00560497D01*
X00581288Y00560451D01*
X00581269Y00560423D01*
X00581260Y00560414D01*
X00581205Y00560322D01*
X00581168Y00560229D01*
X00581140Y00560137D01*
X00581121Y00560044D01*
X00581112Y00559970D01*
X00581103Y00559915D01*
Y00559878D01*
Y00559859D01*
X00581112Y00559739D01*
X00581131Y00559628D01*
X00581158Y00559536D01*
X00581186Y00559462D01*
X00581214Y00559397D01*
X00581242Y00559342D01*
X00581260Y00559314D01*
X00581269Y00559305D01*
X00581334Y00559231D01*
X00581417Y00559157D01*
X00581500Y00559101D01*
X00581574Y00559064D01*
X00581648Y00559027D01*
X00581704Y00558999D01*
X00581741Y00558990D01*
X00581759Y00558981D01*
X00581861Y00558962D01*
X00581991Y00558944D01*
X00582120Y00558935D01*
X00582249Y00558926D01*
X00582369Y00558916D01*
X00583941D01*
Y00560839D01*
D02*
G37*
G36*
Y00558158D02*
X00582259D01*
X00582064Y00558140D01*
X00581907Y00558121D01*
X00581778Y00558103D01*
X00581676Y00558084D01*
X00581593Y00558066D01*
X00581556Y00558056D01*
X00581537Y00558047D01*
X00581417Y00558001D01*
X00581315Y00557945D01*
X00581223Y00557881D01*
X00581149Y00557816D01*
X00581094Y00557761D01*
X00581057Y00557714D01*
X00581029Y00557677D01*
X00581020Y00557668D01*
X00580955Y00557566D01*
X00580909Y00557465D01*
X00580872Y00557363D01*
X00580853Y00557271D01*
X00580835Y00557187D01*
X00580826Y00557113D01*
Y00557076D01*
Y00557058D01*
X00580835Y00556947D01*
X00580844Y00556836D01*
X00580863Y00556744D01*
X00580890Y00556670D01*
X00580918Y00556605D01*
X00580937Y00556549D01*
X00580946Y00556522D01*
X00580955Y00556512D01*
X00581010Y00556429D01*
X00581057Y00556355D01*
X00581121Y00556300D01*
X00581168Y00556244D01*
X00581214Y00556207D01*
X00581251Y00556180D01*
X00581278Y00556161D01*
X00581288Y00556152D01*
X00581445Y00556078D01*
X00581602Y00556022D01*
X00581667Y00556004D01*
X00581722Y00555995D01*
X00581759Y00555985D01*
X00581769D01*
X00581842Y00555976D01*
X00581926Y00555967D01*
X00582120Y00555958D01*
X00583941D01*
Y00558158D01*
D02*
G37*
G36*
X00680785Y00655091D02*
X00680702D01*
X00680656D01*
X00680647D01*
X00680637D01*
X00680351D01*
X00680092Y00655073D01*
X00679861Y00655054D01*
X00679639Y00655036D01*
X00679454Y00655008D01*
X00679278Y00654971D01*
X00679130Y00654934D01*
X00678991Y00654906D01*
X00678881Y00654869D01*
X00678788Y00654832D01*
X00678705Y00654805D01*
X00678640Y00654768D01*
X00678594Y00654749D01*
X00678566Y00654731D01*
X00678548Y00654712D01*
X00678539D01*
X00678446Y00654638D01*
X00678372Y00654564D01*
X00678298Y00654490D01*
X00678243Y00654416D01*
X00678150Y00654259D01*
X00678085Y00654120D01*
X00678048Y00653991D01*
X00678030Y00653898D01*
X00678021Y00653861D01*
Y00653806D01*
X00678030Y00653704D01*
X00678039Y00653612D01*
X00678104Y00653436D01*
X00678187Y00653279D01*
X00678280Y00653140D01*
X00678372Y00653039D01*
X00678455Y00652955D01*
X00678520Y00652909D01*
X00678529Y00652891D01*
X00678539D01*
X00678649Y00652826D01*
X00678779Y00652770D01*
X00678927Y00652715D01*
X00679084Y00652678D01*
X00679250Y00652641D01*
X00679426Y00652613D01*
X00679787Y00652567D01*
X00679953Y00652549D01*
X00680110Y00652539D01*
X00680258Y00652530D01*
X00680378D01*
X00680489Y00652521D01*
X00680573D01*
X00680619D01*
X00680637D01*
X00680924Y00652530D01*
X00681183Y00652539D01*
X00681423Y00652558D01*
X00681645Y00652586D01*
X00681839Y00652613D01*
X00682015Y00652650D01*
X00682172Y00652687D01*
X00682311Y00652724D01*
X00682431Y00652761D01*
X00682533Y00652789D01*
X00682616Y00652826D01*
X00682690Y00652854D01*
X00682736Y00652881D01*
X00682773Y00652900D01*
X00682792Y00652918D01*
X00682801D01*
X00682884Y00652983D01*
X00682958Y00653048D01*
X00683013Y00653122D01*
X00683069Y00653196D01*
X00683152Y00653344D01*
X00683207Y00653482D01*
X00683235Y00653603D01*
X00683254Y00653704D01*
X00683263Y00653741D01*
Y00653797D01*
X00683254Y00653898D01*
X00683244Y00654000D01*
X00683217Y00654093D01*
X00683180Y00654176D01*
X00683097Y00654333D01*
X00683004Y00654472D01*
X00682902Y00654573D01*
X00682819Y00654657D01*
X00682782Y00654684D01*
X00682755Y00654703D01*
X00682745Y00654721D01*
X00682736D01*
X00682625Y00654786D01*
X00682496Y00654842D01*
X00682348Y00654897D01*
X00682190Y00654934D01*
X00682024Y00654971D01*
X00681848Y00654999D01*
X00681497Y00655045D01*
X00681321Y00655063D01*
X00681164Y00655073D01*
X00681016Y00655082D01*
X00680896D01*
X00680785Y00655091D01*
D02*
G37*
G36*
X00682200Y00644755D02*
X00682163D01*
X00682144D01*
X00682024Y00644745D01*
X00681913Y00644727D01*
X00681821Y00644699D01*
X00681747Y00644671D01*
X00681682Y00644644D01*
X00681627Y00644616D01*
X00681599Y00644597D01*
X00681590Y00644588D01*
X00681516Y00644523D01*
X00681442Y00644440D01*
X00681386Y00644357D01*
X00681349Y00644283D01*
X00681312Y00644209D01*
X00681284Y00644154D01*
X00681275Y00644117D01*
X00681266Y00644098D01*
X00681247Y00643997D01*
X00681229Y00643867D01*
X00681220Y00643738D01*
X00681210Y00643608D01*
X00681201Y00643488D01*
Y00641916D01*
X00683124D01*
Y00643432D01*
X00683106Y00643636D01*
X00683097Y00643793D01*
X00683078Y00643932D01*
X00683060Y00644033D01*
X00683050Y00644098D01*
X00683032Y00644144D01*
Y00644154D01*
X00682995Y00644255D01*
X00682939Y00644348D01*
X00682884Y00644422D01*
X00682829Y00644486D01*
X00682782Y00644533D01*
X00682736Y00644570D01*
X00682708Y00644588D01*
X00682699Y00644597D01*
X00682607Y00644653D01*
X00682514Y00644690D01*
X00682422Y00644718D01*
X00682329Y00644736D01*
X00682255Y00644745D01*
X00682200Y00644755D01*
D02*
G37*
G36*
X00679398Y00645032D02*
X00679361D01*
X00679343D01*
X00679232Y00645023D01*
X00679121Y00645014D01*
X00679028Y00644995D01*
X00678954Y00644967D01*
X00678890Y00644939D01*
X00678834Y00644921D01*
X00678807Y00644912D01*
X00678797Y00644902D01*
X00678714Y00644847D01*
X00678640Y00644801D01*
X00678585Y00644736D01*
X00678529Y00644690D01*
X00678492Y00644644D01*
X00678465Y00644607D01*
X00678446Y00644579D01*
X00678437Y00644570D01*
X00678363Y00644413D01*
X00678307Y00644255D01*
X00678289Y00644191D01*
X00678280Y00644135D01*
X00678270Y00644098D01*
Y00644089D01*
X00678261Y00644015D01*
X00678252Y00643932D01*
X00678243Y00643738D01*
Y00641916D01*
X00680443D01*
Y00643599D01*
X00680425Y00643793D01*
X00680406Y00643950D01*
X00680388Y00644080D01*
X00680369Y00644181D01*
X00680351Y00644265D01*
X00680341Y00644302D01*
X00680332Y00644320D01*
X00680286Y00644440D01*
X00680230Y00644542D01*
X00680166Y00644634D01*
X00680101Y00644708D01*
X00680045Y00644764D01*
X00679999Y00644801D01*
X00679962Y00644829D01*
X00679953Y00644838D01*
X00679851Y00644902D01*
X00679750Y00644949D01*
X00679648Y00644986D01*
X00679556Y00645004D01*
X00679472Y00645023D01*
X00679398Y00645032D01*
D02*
G37*
G36*
X00681789Y00626898D02*
X00681733D01*
X00681724D01*
X00681715D01*
X00681567Y00626889D01*
X00681428Y00626852D01*
X00681308Y00626806D01*
X00681206Y00626750D01*
X00681123Y00626695D01*
X00681068Y00626649D01*
X00681021Y00626612D01*
X00681012Y00626602D01*
X00680920Y00626491D01*
X00680846Y00626362D01*
X00680799Y00626242D01*
X00680762Y00626122D01*
X00680744Y00626011D01*
X00680735Y00625928D01*
X00680725Y00625872D01*
Y00625854D01*
X00680735Y00625687D01*
X00680772Y00625539D01*
X00680818Y00625410D01*
X00680873Y00625299D01*
X00680920Y00625215D01*
X00680966Y00625151D01*
X00681003Y00625105D01*
X00681012Y00625095D01*
X00681123Y00625003D01*
X00681252Y00624929D01*
X00681373Y00624883D01*
X00681493Y00624846D01*
X00681594Y00624827D01*
X00681678Y00624818D01*
X00681733Y00624809D01*
X00681742D01*
X00681752D01*
X00681900Y00624818D01*
X00682029Y00624855D01*
X00682149Y00624901D01*
X00682251Y00624957D01*
X00682334Y00625003D01*
X00682399Y00625049D01*
X00682436Y00625086D01*
X00682445Y00625095D01*
X00682547Y00625215D01*
X00682621Y00625336D01*
X00682667Y00625465D01*
X00682704Y00625585D01*
X00682722Y00625696D01*
X00682741Y00625779D01*
Y00625854D01*
X00682732Y00626011D01*
X00682695Y00626159D01*
X00682648Y00626279D01*
X00682593Y00626390D01*
X00682538Y00626473D01*
X00682491Y00626538D01*
X00682454Y00626584D01*
X00682445Y00626593D01*
X00682325Y00626695D01*
X00682205Y00626769D01*
X00682085Y00626824D01*
X00681974Y00626861D01*
X00681872Y00626880D01*
X00681789Y00626898D01*
D02*
G37*
G36*
X00678830Y00627157D02*
X00678802D01*
X00678784D01*
X00678775D01*
X00678580Y00627139D01*
X00678395Y00627102D01*
X00678238Y00627037D01*
X00678109Y00626972D01*
X00678007Y00626908D01*
X00677924Y00626843D01*
X00677878Y00626806D01*
X00677859Y00626787D01*
X00677739Y00626639D01*
X00677647Y00626491D01*
X00677591Y00626334D01*
X00677545Y00626186D01*
X00677517Y00626057D01*
X00677508Y00625946D01*
X00677499Y00625909D01*
Y00625854D01*
X00677508Y00625724D01*
X00677526Y00625595D01*
X00677554Y00625474D01*
X00677582Y00625373D01*
X00677610Y00625289D01*
X00677637Y00625225D01*
X00677656Y00625188D01*
X00677665Y00625169D01*
X00677739Y00625058D01*
X00677813Y00624966D01*
X00677896Y00624883D01*
X00677980Y00624818D01*
X00678044Y00624762D01*
X00678100Y00624725D01*
X00678146Y00624707D01*
X00678155Y00624698D01*
X00678275Y00624652D01*
X00678386Y00624615D01*
X00678497Y00624587D01*
X00678599Y00624568D01*
X00678682Y00624559D01*
X00678747Y00624550D01*
X00678784D01*
X00678802D01*
X00678997Y00624568D01*
X00679172Y00624605D01*
X00679329Y00624661D01*
X00679468Y00624735D01*
X00679570Y00624799D01*
X00679653Y00624855D01*
X00679699Y00624892D01*
X00679718Y00624910D01*
X00679838Y00625049D01*
X00679930Y00625206D01*
X00679995Y00625354D01*
X00680041Y00625502D01*
X00680069Y00625632D01*
X00680078Y00625733D01*
X00680088Y00625770D01*
Y00625826D01*
X00680069Y00626029D01*
X00680032Y00626214D01*
X00679967Y00626381D01*
X00679903Y00626519D01*
X00679829Y00626630D01*
X00679764Y00626713D01*
X00679727Y00626760D01*
X00679708Y00626778D01*
X00679560Y00626908D01*
X00679403Y00627000D01*
X00679246Y00627065D01*
X00679108Y00627111D01*
X00678969Y00627139D01*
X00678867Y00627148D01*
X00678830Y00627157D01*
D02*
G37*
G36*
X00681678Y00621767D02*
X00681641D01*
X00681622D01*
X00681502Y00621758D01*
X00681391Y00621739D01*
X00681299Y00621712D01*
X00681225Y00621684D01*
X00681160Y00621656D01*
X00681105Y00621628D01*
X00681077Y00621610D01*
X00681068Y00621600D01*
X00680994Y00621536D01*
X00680920Y00621453D01*
X00680864Y00621369D01*
X00680827Y00621295D01*
X00680790Y00621221D01*
X00680762Y00621166D01*
X00680753Y00621129D01*
X00680744Y00621110D01*
X00680725Y00621009D01*
X00680707Y00620879D01*
X00680698Y00620750D01*
X00680688Y00620620D01*
X00680679Y00620500D01*
Y00618928D01*
X00682602D01*
Y00620445D01*
X00682584Y00620648D01*
X00682575Y00620805D01*
X00682556Y00620944D01*
X00682538Y00621046D01*
X00682528Y00621110D01*
X00682510Y00621157D01*
Y00621166D01*
X00682473Y00621268D01*
X00682417Y00621360D01*
X00682362Y00621434D01*
X00682306Y00621499D01*
X00682260Y00621545D01*
X00682214Y00621582D01*
X00682186Y00621600D01*
X00682177Y00621610D01*
X00682085Y00621665D01*
X00681992Y00621702D01*
X00681900Y00621730D01*
X00681807Y00621748D01*
X00681733Y00621758D01*
X00681678Y00621767D01*
D02*
G37*
G36*
X00678876Y00622044D02*
X00678839D01*
X00678821D01*
X00678710Y00622035D01*
X00678599Y00622026D01*
X00678506Y00622007D01*
X00678432Y00621980D01*
X00678368Y00621952D01*
X00678312Y00621933D01*
X00678285Y00621924D01*
X00678275Y00621915D01*
X00678192Y00621859D01*
X00678118Y00621813D01*
X00678063Y00621748D01*
X00678007Y00621702D01*
X00677970Y00621656D01*
X00677943Y00621619D01*
X00677924Y00621591D01*
X00677915Y00621582D01*
X00677841Y00621425D01*
X00677785Y00621268D01*
X00677767Y00621203D01*
X00677758Y00621147D01*
X00677748Y00621110D01*
Y00621101D01*
X00677739Y00621027D01*
X00677730Y00620944D01*
X00677721Y00620750D01*
Y00618928D01*
X00679921D01*
Y00620611D01*
X00679903Y00620805D01*
X00679884Y00620963D01*
X00679866Y00621092D01*
X00679847Y00621194D01*
X00679829Y00621277D01*
X00679819Y00621314D01*
X00679810Y00621332D01*
X00679764Y00621453D01*
X00679708Y00621554D01*
X00679644Y00621647D01*
X00679579Y00621721D01*
X00679523Y00621776D01*
X00679477Y00621813D01*
X00679440Y00621841D01*
X00679431Y00621850D01*
X00679329Y00621915D01*
X00679228Y00621961D01*
X00679126Y00621998D01*
X00679034Y00622017D01*
X00678950Y00622035D01*
X00678876Y00622044D01*
D02*
G37*
G36*
X00679444Y00602475D02*
X00679407D01*
X00679388D01*
X00679379D01*
X00679129Y00602457D01*
X00678917Y00602420D01*
X00678732Y00602364D01*
X00678575Y00602299D01*
X00678454Y00602225D01*
X00678362Y00602170D01*
X00678306Y00602133D01*
X00678297Y00602114D01*
X00678288D01*
X00678214Y00602050D01*
X00678158Y00601976D01*
X00678057Y00601828D01*
X00677992Y00601680D01*
X00677937Y00601550D01*
X00677909Y00601430D01*
X00677900Y00601338D01*
X00677890Y00601301D01*
Y00601255D01*
X00677900Y00601125D01*
X00677918Y00601005D01*
X00677955Y00600894D01*
X00677992Y00600802D01*
X00678020Y00600718D01*
X00678057Y00600654D01*
X00678075Y00600617D01*
X00678084Y00600598D01*
X00678168Y00600487D01*
X00678251Y00600395D01*
X00678353Y00600312D01*
X00678436Y00600247D01*
X00678519Y00600191D01*
X00678584Y00600154D01*
X00678630Y00600127D01*
X00678649Y00600117D01*
X00678787Y00600062D01*
X00678926Y00600025D01*
X00679055Y00599988D01*
X00679175Y00599969D01*
X00679277Y00599960D01*
X00679360Y00599951D01*
X00679407D01*
X00679425D01*
X00679647Y00599969D01*
X00679841Y00600006D01*
X00680017Y00600071D01*
X00680156Y00600136D01*
X00680276Y00600201D01*
X00680359Y00600265D01*
X00680405Y00600302D01*
X00680424Y00600321D01*
X00680553Y00600469D01*
X00680646Y00600617D01*
X00680720Y00600774D01*
X00680766Y00600913D01*
X00680794Y00601042D01*
X00680803Y00601134D01*
X00680812Y00601171D01*
Y00601227D01*
X00680794Y00601421D01*
X00680747Y00601597D01*
X00680692Y00601745D01*
X00680618Y00601874D01*
X00680544Y00601976D01*
X00680488Y00602050D01*
X00680442Y00602096D01*
X00680424Y00602114D01*
X00680266Y00602235D01*
X00680100Y00602327D01*
X00679924Y00602392D01*
X00679758Y00602429D01*
X00679610Y00602457D01*
X00679545Y00602466D01*
X00679490D01*
X00679444Y00602475D01*
D02*
G37*
G36*
X00682069Y00597094D02*
X00682032D01*
X00682014D01*
X00681894Y00597085D01*
X00681783Y00597066D01*
X00681690Y00597039D01*
X00681616Y00597011D01*
X00681552Y00596983D01*
X00681496Y00596955D01*
X00681468Y00596937D01*
X00681459Y00596928D01*
X00681385Y00596863D01*
X00681311Y00596780D01*
X00681256Y00596697D01*
X00681219Y00596623D01*
X00681182Y00596549D01*
X00681154Y00596493D01*
X00681145Y00596456D01*
X00681136Y00596438D01*
X00681117Y00596336D01*
X00681099Y00596207D01*
X00681089Y00596077D01*
X00681080Y00595948D01*
X00681071Y00595827D01*
Y00594256D01*
X00682994D01*
Y00595772D01*
X00682975Y00595975D01*
X00682966Y00596133D01*
X00682948Y00596271D01*
X00682929Y00596373D01*
X00682920Y00596438D01*
X00682902Y00596484D01*
Y00596493D01*
X00682865Y00596595D01*
X00682809Y00596687D01*
X00682754Y00596761D01*
X00682698Y00596826D01*
X00682652Y00596872D01*
X00682606Y00596909D01*
X00682578Y00596928D01*
X00682569Y00596937D01*
X00682476Y00596992D01*
X00682384Y00597029D01*
X00682291Y00597057D01*
X00682199Y00597076D01*
X00682125Y00597085D01*
X00682069Y00597094D01*
D02*
G37*
G36*
X00679268Y00597371D02*
X00679231D01*
X00679212D01*
X00679102Y00597362D01*
X00678991Y00597353D01*
X00678898Y00597335D01*
X00678824Y00597307D01*
X00678760Y00597279D01*
X00678704Y00597261D01*
X00678676Y00597251D01*
X00678667Y00597242D01*
X00678584Y00597187D01*
X00678510Y00597140D01*
X00678454Y00597076D01*
X00678399Y00597029D01*
X00678362Y00596983D01*
X00678334Y00596946D01*
X00678316Y00596918D01*
X00678306Y00596909D01*
X00678232Y00596752D01*
X00678177Y00596595D01*
X00678158Y00596530D01*
X00678149Y00596475D01*
X00678140Y00596438D01*
Y00596428D01*
X00678131Y00596354D01*
X00678121Y00596271D01*
X00678112Y00596077D01*
Y00594256D01*
X00680313D01*
Y00595938D01*
X00680294Y00596133D01*
X00680276Y00596290D01*
X00680257Y00596419D01*
X00680239Y00596521D01*
X00680220Y00596604D01*
X00680211Y00596641D01*
X00680202Y00596660D01*
X00680156Y00596780D01*
X00680100Y00596881D01*
X00680035Y00596974D01*
X00679971Y00597048D01*
X00679915Y00597103D01*
X00679869Y00597140D01*
X00679832Y00597168D01*
X00679823Y00597177D01*
X00679721Y00597242D01*
X00679619Y00597288D01*
X00679518Y00597325D01*
X00679425Y00597344D01*
X00679342Y00597362D01*
X00679268Y00597371D01*
D02*
G37*
G36*
X00682868Y00575366D02*
X00680002D01*
Y00573351D01*
X00682868Y00575366D01*
D02*
G37*
G36*
X00682461Y00570864D02*
X00682424D01*
X00682406D01*
X00682285Y00570854D01*
X00682175Y00570836D01*
X00682082Y00570808D01*
X00682008Y00570780D01*
X00681943Y00570753D01*
X00681888Y00570725D01*
X00681860Y00570706D01*
X00681851Y00570697D01*
X00681777Y00570632D01*
X00681703Y00570549D01*
X00681647Y00570466D01*
X00681610Y00570392D01*
X00681573Y00570318D01*
X00681546Y00570263D01*
X00681536Y00570226D01*
X00681527Y00570207D01*
X00681509Y00570105D01*
X00681490Y00569976D01*
X00681481Y00569846D01*
X00681472Y00569717D01*
X00681462Y00569597D01*
Y00568025D01*
X00683386D01*
Y00569541D01*
X00683367Y00569745D01*
X00683358Y00569902D01*
X00683339Y00570041D01*
X00683321Y00570142D01*
X00683312Y00570207D01*
X00683293Y00570253D01*
Y00570263D01*
X00683256Y00570364D01*
X00683201Y00570457D01*
X00683145Y00570531D01*
X00683090Y00570595D01*
X00683044Y00570642D01*
X00682997Y00570679D01*
X00682970Y00570697D01*
X00682960Y00570706D01*
X00682868Y00570762D01*
X00682775Y00570799D01*
X00682683Y00570827D01*
X00682590Y00570845D01*
X00682516Y00570854D01*
X00682461Y00570864D01*
D02*
G37*
G36*
X00679660Y00571141D02*
X00679623D01*
X00679604D01*
X00679493Y00571132D01*
X00679382Y00571122D01*
X00679290Y00571104D01*
X00679216Y00571076D01*
X00679151Y00571049D01*
X00679096Y00571030D01*
X00679068Y00571021D01*
X00679059Y00571012D01*
X00678976Y00570956D01*
X00678902Y00570910D01*
X00678846Y00570845D01*
X00678791Y00570799D01*
X00678754Y00570753D01*
X00678726Y00570716D01*
X00678707Y00570688D01*
X00678698Y00570679D01*
X00678624Y00570522D01*
X00678569Y00570364D01*
X00678550Y00570300D01*
X00678541Y00570244D01*
X00678532Y00570207D01*
Y00570198D01*
X00678522Y00570124D01*
X00678513Y00570041D01*
X00678504Y00569846D01*
Y00568025D01*
X00680704D01*
Y00569708D01*
X00680686Y00569902D01*
X00680667Y00570059D01*
X00680649Y00570189D01*
X00680630Y00570290D01*
X00680612Y00570373D01*
X00680603Y00570410D01*
X00680593Y00570429D01*
X00680547Y00570549D01*
X00680492Y00570651D01*
X00680427Y00570743D01*
X00680362Y00570817D01*
X00680307Y00570873D01*
X00680261Y00570910D01*
X00680224Y00570938D01*
X00680214Y00570947D01*
X00680113Y00571012D01*
X00680011Y00571058D01*
X00679909Y00571095D01*
X00679817Y00571113D01*
X00679734Y00571132D01*
X00679660Y00571141D01*
D02*
G37*
G36*
X00400829Y00150185D02*
X00400746D01*
X00400593Y00150171D01*
X00400441Y00150157D01*
X00400302Y00150115D01*
X00400177Y00150060D01*
X00399941Y00149935D01*
X00399733Y00149797D01*
X00399581Y00149644D01*
X00399456Y00149519D01*
X00399414Y00149464D01*
X00399387Y00149422D01*
X00399359Y00149408D01*
Y00149394D01*
X00399262Y00149228D01*
X00399179Y00149034D01*
X00399095Y00148812D01*
X00399040Y00148576D01*
X00398984Y00148327D01*
X00398943Y00148063D01*
X00398874Y00147536D01*
X00398846Y00147273D01*
X00398832Y00147037D01*
X00398818Y00146815D01*
Y00146635D01*
X00398804Y00146468D01*
Y00146343D01*
Y00146274D01*
Y00146260D01*
Y00146246D01*
Y00145816D01*
X00398832Y00145428D01*
X00398860Y00145081D01*
X00398887Y00144748D01*
X00398929Y00144471D01*
X00398984Y00144208D01*
X00399040Y00143986D01*
X00399082Y00143778D01*
X00399137Y00143611D01*
X00399193Y00143473D01*
X00399234Y00143348D01*
X00399290Y00143251D01*
X00399317Y00143181D01*
X00399345Y00143140D01*
X00399373Y00143112D01*
Y00143098D01*
X00399484Y00142959D01*
X00399595Y00142849D01*
X00399706Y00142738D01*
X00399817Y00142654D01*
X00400052Y00142516D01*
X00400260Y00142419D01*
X00400455Y00142363D01*
X00400593Y00142335D01*
X00400649Y00142322D01*
X00400732D01*
X00400885Y00142335D01*
X00401023Y00142349D01*
X00401287Y00142446D01*
X00401522Y00142571D01*
X00401730Y00142710D01*
X00401883Y00142849D01*
X00402008Y00142973D01*
X00402077Y00143070D01*
X00402105Y00143084D01*
Y00143098D01*
X00402202Y00143265D01*
X00402285Y00143459D01*
X00402368Y00143681D01*
X00402424Y00143916D01*
X00402479Y00144166D01*
X00402521Y00144430D01*
X00402590Y00144970D01*
X00402618Y00145220D01*
X00402632Y00145456D01*
X00402646Y00145678D01*
Y00145858D01*
X00402660Y00146024D01*
Y00146149D01*
Y00146219D01*
Y00146246D01*
X00402646Y00146676D01*
X00402632Y00147065D01*
X00402604Y00147425D01*
X00402563Y00147758D01*
X00402521Y00148049D01*
X00402466Y00148313D01*
X00402410Y00148548D01*
X00402355Y00148756D01*
X00402299Y00148937D01*
X00402257Y00149089D01*
X00402202Y00149214D01*
X00402160Y00149325D01*
X00402119Y00149394D01*
X00402091Y00149450D01*
X00402063Y00149478D01*
Y00149492D01*
X00401966Y00149616D01*
X00401869Y00149727D01*
X00401758Y00149810D01*
X00401647Y00149894D01*
X00401425Y00150019D01*
X00401217Y00150102D01*
X00401037Y00150143D01*
X00400885Y00150171D01*
X00400829Y00150185D01*
D02*
G37*
G36*
X00458367Y00700725D02*
X00455344D01*
X00454969Y00700711D01*
X00454650Y00700656D01*
X00454373Y00700586D01*
X00454165Y00700503D01*
X00453985Y00700420D01*
X00453874Y00700351D01*
X00453805Y00700295D01*
X00453777Y00700281D01*
X00453610Y00700101D01*
X00453486Y00699921D01*
X00453402Y00699727D01*
X00453333Y00699560D01*
X00453305Y00699394D01*
X00453291Y00699269D01*
X00453278Y00699186D01*
Y00699172D01*
Y00699158D01*
X00453291Y00698991D01*
X00453319Y00698825D01*
X00453361Y00698686D01*
X00453402Y00698562D01*
X00453458Y00698451D01*
X00453499Y00698367D01*
X00453527Y00698312D01*
X00453541Y00698298D01*
X00453638Y00698159D01*
X00453763Y00698035D01*
X00453888Y00697937D01*
X00454013Y00697854D01*
X00454123Y00697799D01*
X00454207Y00697757D01*
X00454262Y00697729D01*
X00454290Y00697716D01*
X00454484Y00697660D01*
X00454706Y00697619D01*
X00454928Y00697591D01*
X00455150Y00697577D01*
X00455344Y00697563D01*
X00455510Y00697549D01*
X00458367D01*
Y00700725D01*
D02*
G37*
G36*
X00439964Y00700864D02*
X00439853D01*
X00439617Y00700850D01*
X00439395Y00700794D01*
X00439215Y00700725D01*
X00439049Y00700642D01*
X00438924Y00700559D01*
X00438827Y00700489D01*
X00438757Y00700434D01*
X00438744Y00700420D01*
X00438591Y00700240D01*
X00438480Y00700059D01*
X00438397Y00699879D01*
X00438341Y00699713D01*
X00438314Y00699560D01*
X00438286Y00699435D01*
Y00699352D01*
Y00699338D01*
Y00699324D01*
X00438300Y00699102D01*
X00438355Y00698895D01*
X00438424Y00698714D01*
X00438508Y00698562D01*
X00438591Y00698437D01*
X00438660Y00698354D01*
X00438716Y00698284D01*
X00438730Y00698270D01*
X00438896Y00698132D01*
X00439090Y00698021D01*
X00439271Y00697951D01*
X00439451Y00697896D01*
X00439617Y00697868D01*
X00439742Y00697854D01*
X00439825Y00697840D01*
X00439853D01*
X00440103Y00697854D01*
X00440325Y00697910D01*
X00440519Y00697979D01*
X00440685Y00698062D01*
X00440810Y00698132D01*
X00440907Y00698201D01*
X00440976Y00698257D01*
X00440990Y00698270D01*
X00441129Y00698437D01*
X00441240Y00698631D01*
X00441309Y00698811D01*
X00441365Y00698991D01*
X00441392Y00699144D01*
X00441406Y00699269D01*
X00441420Y00699352D01*
Y00699366D01*
Y00699380D01*
X00441406Y00699602D01*
X00441351Y00699796D01*
X00441281Y00699976D01*
X00441198Y00700129D01*
X00441129Y00700254D01*
X00441059Y00700351D01*
X00441004Y00700406D01*
X00440990Y00700420D01*
X00440810Y00700573D01*
X00440630Y00700684D01*
X00440435Y00700753D01*
X00440255Y00700808D01*
X00440089Y00700836D01*
X00439964Y00700864D01*
D02*
G37*
G36*
X00439978Y00696883D02*
X00439894D01*
X00439589Y00696856D01*
X00439312Y00696800D01*
X00439062Y00696703D01*
X00438854Y00696606D01*
X00438688Y00696495D01*
X00438563Y00696398D01*
X00438494Y00696343D01*
X00438466Y00696315D01*
X00438272Y00696093D01*
X00438133Y00695857D01*
X00438036Y00695621D01*
X00437967Y00695414D01*
X00437925Y00695206D01*
X00437911Y00695053D01*
X00437897Y00694997D01*
Y00694956D01*
Y00694928D01*
Y00694914D01*
X00437925Y00694623D01*
X00437981Y00694346D01*
X00438078Y00694110D01*
X00438175Y00693916D01*
X00438272Y00693763D01*
X00438369Y00693638D01*
X00438424Y00693569D01*
X00438452Y00693541D01*
X00438674Y00693361D01*
X00438896Y00693222D01*
X00439132Y00693139D01*
X00439354Y00693070D01*
X00439548Y00693028D01*
X00439714Y00693014D01*
X00439770Y00693000D01*
X00439853D01*
X00440047Y00693014D01*
X00440241Y00693042D01*
X00440421Y00693084D01*
X00440574Y00693125D01*
X00440699Y00693167D01*
X00440796Y00693208D01*
X00440852Y00693236D01*
X00440879Y00693250D01*
X00441046Y00693361D01*
X00441184Y00693472D01*
X00441309Y00693597D01*
X00441406Y00693721D01*
X00441489Y00693819D01*
X00441545Y00693902D01*
X00441573Y00693971D01*
X00441586Y00693985D01*
X00441656Y00694165D01*
X00441711Y00694332D01*
X00441753Y00694498D01*
X00441781Y00694651D01*
X00441795Y00694775D01*
X00441808Y00694873D01*
Y00694928D01*
Y00694956D01*
X00441781Y00695247D01*
X00441725Y00695511D01*
X00441642Y00695746D01*
X00441531Y00695954D01*
X00441434Y00696107D01*
X00441351Y00696232D01*
X00441295Y00696301D01*
X00441268Y00696329D01*
X00441059Y00696509D01*
X00440824Y00696648D01*
X00440602Y00696745D01*
X00440380Y00696814D01*
X00440186Y00696856D01*
X00440033Y00696870D01*
X00439978Y00696883D01*
D02*
G37*
%LPD*%
M02*
