G04*
G04 #@! TF.GenerationSoftware,Altium Limited,Altium Designer,24.4.1 (13)*
G04*
G04 Layer_Physical_Order=1*
G04 Layer_Color=255*
%FSAX44Y44*%
%MOMM*%
G71*
G04*
G04 #@! TF.SameCoordinates,09090911-0CFD-4792-A0CC-E2C5D1EC5460*
G04*
G04*
G04 #@! TF.FilePolarity,Positive*
G04*
G01*
G75*
%ADD13C,0.5080*%
%ADD14C,0.2540*%
%ADD17R,1.1938X0.3048*%
%ADD18R,0.3048X1.1938*%
G04:AMPARAMS|DCode=19|XSize=1.6383mm|YSize=0.6121mm|CornerRadius=0.3061mm|HoleSize=0mm|Usage=FLASHONLY|Rotation=0.000|XOffset=0mm|YOffset=0mm|HoleType=Round|Shape=RoundedRectangle|*
%AMROUNDEDRECTD19*
21,1,1.6383,0.0000,0,0,0.0*
21,1,1.0261,0.6121,0,0,0.0*
1,1,0.6121,0.5131,0.0000*
1,1,0.6121,-0.5131,0.0000*
1,1,0.6121,-0.5131,0.0000*
1,1,0.6121,0.5131,0.0000*
%
%ADD19ROUNDEDRECTD19*%
%ADD20R,1.6383X0.6121*%
%ADD21R,0.7500X1.0000*%
%ADD22R,0.8128X0.8128*%
%ADD23R,1.2500X1.1000*%
%ADD24R,2.0000X2.5000*%
%ADD25R,0.5000X2.3000*%
%ADD26R,1.0000X0.7500*%
%ADD27R,0.5588X1.4224*%
%ADD28R,5.9182X1.2954*%
%ADD29R,0.8600X0.5400*%
%ADD30R,1.1000X1.2500*%
%ADD31O,0.8000X0.4000*%
%ADD32R,1.6500X2.4000*%
%ADD33R,1.9000X1.3000*%
%ADD34R,0.9398X0.8636*%
%ADD35R,1.2954X5.9182*%
%ADD36R,0.8128X0.8128*%
%ADD37R,2.1082X1.3970*%
%ADD38R,0.5588X1.5494*%
%ADD39R,1.3970X2.1082*%
%ADD40R,1.7383X2.4130*%
%ADD41R,0.9144X1.6002*%
%ADD42R,1.4986X1.6002*%
%ADD50R,3.2000X1.6000*%
%ADD51C,1.5240*%
%ADD52R,1.5240X1.5240*%
%ADD54R,1.5240X1.5240*%
%ADD56C,0.5400*%
%ADD57C,0.9140*%
%ADD58C,0.6120*%
%ADD59C,1.0160*%
%ADD60C,1.2500*%
%ADD61C,1.0000*%
%ADD62C,0.8600*%
%ADD63C,0.7500*%
%ADD64C,0.5590*%
%ADD65C,0.8130*%
%ADD66C,0.6000*%
%ADD67C,3.2000*%
%ADD68C,0.5000*%
G36*
X00697411Y00369720D02*
X00682191D01*
Y00367339D01*
X00678086D01*
X00675546Y00369879D01*
X00675659Y00372594D01*
X00676646Y00373582D01*
X00678151Y00376188D01*
X00678930Y00379095D01*
Y00382105D01*
X00678151Y00385012D01*
X00676646Y00387618D01*
X00674518Y00389746D01*
X00671912Y00391251D01*
X00669005Y00392030D01*
X00665995D01*
X00663088Y00391251D01*
X00660482Y00389746D01*
X00658354Y00387618D01*
X00656849Y00385012D01*
X00656070Y00382105D01*
Y00379095D01*
X00656849Y00376188D01*
X00657100Y00375753D01*
X00655500Y00374525D01*
X00653530Y00376495D01*
Y00392030D01*
X00630670D01*
Y00385779D01*
X00624189D01*
X00610505Y00399463D01*
X00608825Y00400585D01*
X00606843Y00400980D01*
X00601508D01*
X00600446Y00402818D01*
X00598318Y00404946D01*
X00595712Y00406451D01*
X00592805Y00407230D01*
X00589795D01*
X00586888Y00406451D01*
X00584282Y00404946D01*
X00582154Y00402818D01*
X00580649Y00400212D01*
X00579870Y00397305D01*
Y00394295D01*
X00580649Y00391388D01*
X00582154Y00388782D01*
X00584282Y00386654D01*
X00586888Y00385149D01*
X00589795Y00384370D01*
X00592805D01*
X00595712Y00385149D01*
X00598318Y00386654D01*
X00600446Y00388782D01*
X00601508Y00390621D01*
X00604697D01*
X00618381Y00376937D01*
X00620061Y00375815D01*
X00622043Y00375420D01*
X00630670D01*
Y00369170D01*
X00645019D01*
X00645403Y00368630D01*
X00644371Y00366630D01*
X00630670D01*
Y00360379D01*
X00624189D01*
X00610505Y00374063D01*
X00608825Y00375185D01*
X00606843Y00375580D01*
X00601508D01*
X00600446Y00377418D01*
X00598318Y00379546D01*
X00595712Y00381051D01*
X00592805Y00381830D01*
X00589795D01*
X00586888Y00381051D01*
X00584282Y00379546D01*
X00582154Y00377418D01*
X00580649Y00374812D01*
X00579870Y00371905D01*
Y00368895D01*
X00580649Y00365988D01*
X00582154Y00363382D01*
X00584282Y00361254D01*
X00586888Y00359749D01*
X00589795Y00358970D01*
X00592805D01*
X00595712Y00359749D01*
X00598318Y00361254D01*
X00600446Y00363382D01*
X00601508Y00365221D01*
X00604697D01*
X00618381Y00351537D01*
X00620061Y00350415D01*
X00622043Y00350020D01*
X00630670D01*
Y00343770D01*
X00653530D01*
Y00360904D01*
X00655237Y00362386D01*
X00656434Y00362239D01*
X00657364Y00360503D01*
X00656849Y00359612D01*
X00656070Y00356705D01*
Y00353695D01*
X00656849Y00350788D01*
X00658354Y00348182D01*
X00660482Y00346054D01*
X00663088Y00344549D01*
X00665995Y00343770D01*
X00669005D01*
X00671912Y00344549D01*
X00674518Y00346054D01*
X00676646Y00348182D01*
X00678151Y00350788D01*
X00678930Y00353695D01*
Y00356704D01*
X00679142Y00356980D01*
X00682191D01*
Y00339600D01*
X00685821D01*
Y00329394D01*
X00683127D01*
Y00313646D01*
X00697411D01*
Y00002590D01*
X00521776D01*
X00520092Y00003351D01*
X00520092Y00004590D01*
Y00070153D01*
X00499518D01*
Y00041932D01*
X00484531D01*
X00469426Y00057037D01*
Y00089140D01*
X00471925D01*
Y00105280D01*
X00471925Y00106760D01*
X00471925D01*
X00471920Y00107278D01*
X00471920D01*
Y00110908D01*
X00474714D01*
X00475700Y00111104D01*
X00476696Y00111302D01*
X00476696Y00111302D01*
X00476696Y00111302D01*
X00477464Y00111816D01*
X00478376Y00112425D01*
X00483022Y00117071D01*
X00499518D01*
Y00088441D01*
X00520092D01*
Y00155243D01*
X00499518D01*
Y00127430D01*
X00480877D01*
X00480877Y00127430D01*
X00480877Y00127430D01*
X00480165Y00127288D01*
X00478895Y00127036D01*
X00478895Y00127036D01*
X00478895Y00127036D01*
X00477986Y00126428D01*
X00477214Y00125913D01*
X00473920Y00122619D01*
X00471920Y00123447D01*
Y00124898D01*
X00469540D01*
Y00128497D01*
X00474420D01*
Y00147117D01*
X00454300D01*
Y00128497D01*
X00459181D01*
Y00124898D01*
X00441800D01*
Y00121267D01*
X00438136D01*
X00437505Y00122203D01*
X00437247Y00123207D01*
X00437489Y00123449D01*
X00438385Y00125001D01*
X00438849Y00126734D01*
Y00128527D01*
X00438385Y00130259D01*
X00437489Y00131812D01*
X00436221Y00133079D01*
X00434668Y00133976D01*
X00432936Y00134440D01*
X00431143D01*
X00429411Y00133976D01*
X00427858Y00133079D01*
X00426590Y00131812D01*
X00425693Y00130259D01*
X00425229Y00128527D01*
Y00128145D01*
X00422144Y00125060D01*
X00397302D01*
Y00136010D01*
X00395267D01*
Y00140367D01*
X00408244Y00153344D01*
X00437746D01*
X00440223Y00153837D01*
X00442324Y00155240D01*
X00451703Y00164620D01*
X00453106Y00166720D01*
X00453599Y00169198D01*
Y00189128D01*
X00453599Y00189129D01*
X00455830Y00189726D01*
X00476894Y00168662D01*
X00478575Y00167539D01*
X00480557Y00167145D01*
X00480557Y00167145D01*
X00518165D01*
X00553050Y00132260D01*
Y00037948D01*
X00553445Y00035966D01*
X00554567Y00034286D01*
X00571197Y00017657D01*
X00572877Y00016534D01*
X00574859Y00016140D01*
X00664223D01*
X00666205Y00016534D01*
X00666355Y00016634D01*
X00678695D01*
X00680677Y00017028D01*
X00682357Y00018151D01*
X00686403Y00022197D01*
X00687525Y00023877D01*
X00687920Y00025859D01*
Y00060560D01*
X00687525Y00062542D01*
X00686403Y00064222D01*
X00678381Y00072244D01*
X00678930Y00074295D01*
Y00077305D01*
X00678151Y00080212D01*
X00676646Y00082818D01*
X00674518Y00084946D01*
X00671912Y00086451D01*
X00669005Y00087230D01*
X00665995D01*
X00663088Y00086451D01*
X00660482Y00084946D01*
X00658354Y00082818D01*
X00656849Y00080212D01*
X00656070Y00077305D01*
Y00074295D01*
X00656849Y00071388D01*
X00658354Y00068782D01*
X00660482Y00066653D01*
X00663088Y00065149D01*
X00665995Y00064370D01*
X00669005D01*
X00671056Y00064919D01*
X00673575Y00062400D01*
X00672347Y00060800D01*
X00671912Y00061051D01*
X00669005Y00061830D01*
X00665995D01*
X00663088Y00061051D01*
X00660482Y00059546D01*
X00658354Y00057418D01*
X00656849Y00054812D01*
X00656070Y00051905D01*
Y00048895D01*
X00656849Y00045988D01*
X00658354Y00043382D01*
X00660482Y00041253D01*
X00662321Y00040192D01*
Y00032847D01*
X00660512Y00031039D01*
X00578885D01*
X00567949Y00041974D01*
Y00107202D01*
X00569495Y00108470D01*
X00569540Y00108462D01*
X00579985D01*
X00581140Y00106462D01*
X00580649Y00105612D01*
X00579870Y00102705D01*
Y00099695D01*
X00580649Y00096788D01*
X00582154Y00094182D01*
X00584282Y00092053D01*
X00586888Y00090549D01*
X00589795Y00089770D01*
X00592805D01*
X00595712Y00090549D01*
X00598318Y00092053D01*
X00600446Y00094182D01*
X00601508Y00096020D01*
X00630670D01*
Y00089770D01*
X00653530D01*
Y00100318D01*
X00655530Y00101351D01*
X00656070Y00100967D01*
Y00099695D01*
X00656849Y00096788D01*
X00658354Y00094182D01*
X00660482Y00092053D01*
X00663088Y00090549D01*
X00665995Y00089770D01*
X00669005D01*
X00671912Y00090549D01*
X00674518Y00092053D01*
X00676646Y00094182D01*
X00678151Y00096788D01*
X00678930Y00099695D01*
Y00102705D01*
X00678151Y00105612D01*
X00676646Y00108218D01*
X00674518Y00110346D01*
X00671912Y00111851D01*
X00669005Y00112630D01*
X00665995D01*
X00663088Y00111851D01*
X00661778Y00111095D01*
X00655569Y00117304D01*
X00654942Y00117723D01*
X00653889Y00118427D01*
X00653530Y00118498D01*
Y00138030D01*
X00630670D01*
Y00131779D01*
X00601508D01*
X00600446Y00133618D01*
X00598318Y00135746D01*
X00595712Y00137251D01*
X00592805Y00138030D01*
X00589795D01*
X00586888Y00137251D01*
X00584282Y00135746D01*
X00582154Y00133618D01*
X00580649Y00131012D01*
X00579870Y00128105D01*
Y00125095D01*
X00580649Y00122188D01*
X00581438Y00120821D01*
X00580284Y00118821D01*
X00572489D01*
Y00138166D01*
X00572095Y00140149D01*
X00570972Y00141829D01*
X00479207Y00233595D01*
Y00233976D01*
X00479114Y00234320D01*
X00480602Y00236320D01*
X00521711D01*
X00523693Y00236714D01*
X00525373Y00237837D01*
X00576237Y00288701D01*
X00577360Y00290382D01*
X00577754Y00292364D01*
Y00428553D01*
X00578024Y00428823D01*
X00578921Y00430376D01*
X00579385Y00432108D01*
Y00433901D01*
X00578921Y00435633D01*
X00578024Y00437186D01*
X00576756Y00438454D01*
X00575203Y00439351D01*
X00573471Y00439814D01*
X00571835D01*
X00571509Y00440196D01*
X00570857Y00441665D01*
X00577984Y00448792D01*
X00579248Y00448332D01*
X00579870Y00447850D01*
Y00445095D01*
X00580649Y00442188D01*
X00582154Y00439582D01*
X00584282Y00437454D01*
X00586888Y00435949D01*
X00589795Y00435170D01*
X00592805D01*
X00595712Y00435949D01*
X00598318Y00437454D01*
X00600446Y00439582D01*
X00600760Y00440126D01*
X00604161D01*
X00617465Y00426822D01*
X00619566Y00425418D01*
X00622043Y00424925D01*
X00630670D01*
Y00419970D01*
X00653530D01*
Y00442830D01*
X00630670D01*
Y00437874D01*
X00624725D01*
X00611421Y00451178D01*
X00609321Y00452582D01*
X00606843Y00453075D01*
X00600760D01*
X00600446Y00453618D01*
X00598318Y00455746D01*
X00595712Y00457251D01*
X00592805Y00458030D01*
X00589795D01*
X00586888Y00457251D01*
X00586454Y00457000D01*
X00585226Y00458601D01*
X00587745Y00461120D01*
X00589795Y00460570D01*
X00592805D01*
X00595712Y00461349D01*
X00598318Y00462854D01*
X00600446Y00464982D01*
X00601508Y00466821D01*
X00604697D01*
X00618381Y00453137D01*
X00620061Y00452015D01*
X00622043Y00451620D01*
X00630670D01*
Y00445370D01*
X00653530D01*
Y00468230D01*
X00630670D01*
Y00461979D01*
X00624189D01*
X00610505Y00475663D01*
X00608825Y00476785D01*
X00606843Y00477180D01*
X00601508D01*
X00600446Y00479018D01*
X00598318Y00481146D01*
X00595712Y00482651D01*
X00592805Y00483430D01*
X00589795D01*
X00586888Y00482651D01*
X00586454Y00482400D01*
X00585226Y00484001D01*
X00587195Y00485970D01*
X00602730D01*
Y00492142D01*
X00604730Y00492188D01*
X00618381Y00478537D01*
X00620061Y00477415D01*
X00622043Y00477020D01*
X00630670D01*
Y00470770D01*
X00653530D01*
Y00493630D01*
X00630670D01*
Y00487379D01*
X00624189D01*
X00610505Y00501063D01*
X00608825Y00502185D01*
X00606843Y00502580D01*
X00602730D01*
Y00508830D01*
X00579870D01*
Y00493295D01*
X00576789Y00490214D01*
X00574941Y00490980D01*
Y00518514D01*
X00576941Y00519343D01*
X00578672Y00517612D01*
X00581917Y00515444D01*
X00585522Y00513951D01*
X00589349Y00513190D01*
X00593251D01*
X00597079Y00513951D01*
X00600684Y00515444D01*
X00603928Y00517612D01*
X00606688Y00520372D01*
X00608856Y00523616D01*
X00610349Y00527221D01*
X00611110Y00531049D01*
Y00534951D01*
X00610349Y00538778D01*
X00608856Y00542383D01*
X00606688Y00545628D01*
X00603928Y00548387D01*
X00600684Y00550555D01*
X00597079Y00552048D01*
X00593251Y00552810D01*
X00589349D01*
X00585522Y00552048D01*
X00583247Y00551106D01*
X00581247Y00552443D01*
Y00629349D01*
X00581517Y00629619D01*
X00582414Y00631172D01*
X00582878Y00632904D01*
Y00634697D01*
X00582414Y00636429D01*
X00581517Y00637982D01*
X00580249Y00639249D01*
X00578696Y00640146D01*
X00576964Y00640610D01*
X00575171D01*
X00573439Y00640146D01*
X00571886Y00639249D01*
X00570618Y00637982D01*
X00569722Y00636429D01*
X00569258Y00634697D01*
Y00632904D01*
X00569722Y00631172D01*
X00570618Y00629619D01*
X00570888Y00629349D01*
Y00552765D01*
X00566740Y00548616D01*
X00564618Y00548345D01*
X00564038Y00548490D01*
X00539513Y00573015D01*
Y00573396D01*
X00539049Y00575128D01*
X00538938Y00575320D01*
X00540093Y00577320D01*
X00542379D01*
X00550614Y00569085D01*
Y00568704D01*
X00551078Y00566972D01*
X00551975Y00565419D01*
X00553243Y00564151D01*
X00554796Y00563254D01*
X00556528Y00562790D01*
X00558321D01*
X00560053Y00563254D01*
X00561606Y00564151D01*
X00562874Y00565419D01*
X00563770Y00566972D01*
X00564234Y00568704D01*
Y00570497D01*
X00563770Y00572229D01*
X00562874Y00573782D01*
X00561606Y00575050D01*
X00560053Y00575946D01*
X00558557Y00576347D01*
X00558028Y00577129D01*
X00558349Y00577978D01*
X00559168Y00579005D01*
X00559174Y00579009D01*
X00560531D01*
X00562263Y00579473D01*
X00563816Y00580370D01*
X00565084Y00581638D01*
X00565980Y00583190D01*
X00566444Y00584922D01*
Y00586716D01*
X00565980Y00588448D01*
X00565084Y00590000D01*
X00563816Y00591268D01*
X00562263Y00592165D01*
X00560531Y00592629D01*
X00558738D01*
X00557006Y00592165D01*
X00555453Y00591268D01*
X00554185Y00590000D01*
X00553288Y00588448D01*
X00552824Y00586716D01*
Y00584922D01*
X00553033Y00584145D01*
X00551240Y00583110D01*
X00548187Y00586162D01*
X00546507Y00587285D01*
X00544524Y00587679D01*
X00520428D01*
Y00592321D01*
X00538975D01*
X00540957Y00592715D01*
X00542638Y00593838D01*
X00550521Y00601721D01*
X00550521Y00601721D01*
X00551644Y00603401D01*
X00552038Y00605383D01*
Y00625249D01*
X00552404Y00625499D01*
X00554038Y00625952D01*
X00554913Y00625077D01*
X00556466Y00624181D01*
X00558199Y00623717D01*
X00559991D01*
X00561724Y00624181D01*
X00563276Y00625077D01*
X00564544Y00626345D01*
X00565441Y00627898D01*
X00565905Y00629630D01*
Y00631423D01*
X00565441Y00633155D01*
X00564544Y00634708D01*
X00563276Y00635976D01*
X00561724Y00636872D01*
X00559991Y00637337D01*
X00559769D01*
X00559538Y00637567D01*
Y00639659D01*
X00561919D01*
Y00643290D01*
X00599157D01*
X00601139Y00643684D01*
X00602820Y00644807D01*
X00609367Y00651354D01*
X00611017Y00650212D01*
X00610238Y00647305D01*
Y00644295D01*
X00611017Y00641388D01*
X00612522Y00638782D01*
X00614650Y00636654D01*
X00617256Y00635149D01*
X00620163Y00634370D01*
X00623173D01*
X00626080Y00635149D01*
X00628686Y00636654D01*
X00630814Y00638782D01*
X00632319Y00641388D01*
X00633098Y00644295D01*
Y00647305D01*
X00632319Y00650212D01*
X00630814Y00652818D01*
X00628686Y00654946D01*
X00626080Y00656451D01*
X00623173Y00657230D01*
X00620163D01*
X00617256Y00656451D01*
X00616114Y00658101D01*
X00636760Y00678747D01*
X00637883Y00680428D01*
X00638277Y00682410D01*
Y00691841D01*
X00637883Y00693823D01*
X00636760Y00695503D01*
X00600391Y00731872D01*
X00598711Y00732995D01*
X00596729Y00733390D01*
X00589684D01*
Y00737020D01*
X00563951D01*
X00563374Y00737096D01*
X00546513D01*
X00546257Y00737352D01*
X00543651Y00738856D01*
X00540744Y00739635D01*
X00537734D01*
X00534827Y00738856D01*
X00532221Y00737352D01*
X00530093Y00735223D01*
X00528588Y00732617D01*
X00527809Y00729710D01*
Y00726701D01*
X00528588Y00723793D01*
X00530093Y00721187D01*
X00532221Y00719059D01*
X00534827Y00717554D01*
X00537734Y00716775D01*
X00540744D01*
X00543651Y00717554D01*
X00546257Y00719059D01*
X00546522Y00719324D01*
X00563374D01*
X00563951Y00719400D01*
X00589684D01*
Y00723030D01*
X00594583D01*
X00605401Y00712213D01*
X00604635Y00710365D01*
X00591190D01*
X00589684Y00711558D01*
Y00711620D01*
X00563951D01*
X00563374Y00711696D01*
X00546513D01*
X00546257Y00711952D01*
X00543651Y00713456D01*
X00540744Y00714235D01*
X00537734D01*
X00534827Y00713456D01*
X00532221Y00711952D01*
X00530093Y00709824D01*
X00528588Y00707217D01*
X00527809Y00704310D01*
Y00701301D01*
X00528588Y00698393D01*
X00530093Y00695787D01*
X00530299Y00695581D01*
X00529533Y00693734D01*
X00510530D01*
X00510261Y00694003D01*
X00508708Y00694900D01*
X00506976Y00695364D01*
X00505183D01*
X00503451Y00694900D01*
X00501898Y00694003D01*
X00500630Y00692735D01*
X00499733Y00691182D01*
X00499639Y00690830D01*
X00497639Y00691093D01*
Y00699238D01*
X00518590Y00720190D01*
X00519713Y00721870D01*
X00520107Y00723852D01*
Y00751214D01*
X00528502Y00759609D01*
X00576719D01*
X00578701Y00760003D01*
X00580382Y00761126D01*
X00585787Y00766531D01*
X00586909Y00768212D01*
X00587304Y00770194D01*
X00589189Y00770200D01*
X00589684D01*
Y00787820D01*
X00563951D01*
X00563374Y00787896D01*
X00546513D01*
X00546257Y00788152D01*
X00543651Y00789656D01*
X00540744Y00790435D01*
X00537734D01*
X00534827Y00789656D01*
X00532221Y00788152D01*
X00530093Y00786023D01*
X00528588Y00783417D01*
X00527809Y00780510D01*
Y00777501D01*
X00528588Y00774594D01*
X00530093Y00771987D01*
X00530264Y00771816D01*
X00529499Y00769968D01*
X00526356D01*
X00524374Y00769574D01*
X00522694Y00768451D01*
X00511265Y00757022D01*
X00510142Y00755342D01*
X00509748Y00753360D01*
Y00726675D01*
X00508547Y00725593D01*
X00506573Y00726296D01*
X00506361Y00727088D01*
X00505464Y00728641D01*
X00504197Y00729908D01*
X00502644Y00730805D01*
X00500911Y00731269D01*
X00499118D01*
X00497386Y00730805D01*
X00495834Y00729908D01*
X00494566Y00728641D01*
X00493669Y00727088D01*
X00493205Y00725356D01*
Y00723562D01*
X00493669Y00721831D01*
X00494566Y00720278D01*
X00495834Y00719010D01*
X00497386Y00718113D01*
X00498687Y00717765D01*
X00499276Y00716527D01*
X00499399Y00715649D01*
X00488797Y00705046D01*
X00487674Y00703366D01*
X00487280Y00701384D01*
Y00689281D01*
X00485280Y00688131D01*
X00484720Y00688454D01*
X00482988Y00688918D01*
X00481195D01*
X00479270Y00690473D01*
Y00699940D01*
Y00715060D01*
X00475640D01*
Y00722026D01*
X00476982Y00722931D01*
X00477640Y00723027D01*
X00477910Y00722756D01*
X00479463Y00721860D01*
X00481195Y00721395D01*
X00482988D01*
X00484720Y00721860D01*
X00486273Y00722756D01*
X00487541Y00724024D01*
X00488438Y00725577D01*
X00488902Y00727309D01*
Y00729102D01*
X00488438Y00730834D01*
X00487541Y00732387D01*
X00486273Y00733655D01*
X00484720Y00734551D01*
X00483934Y00734762D01*
X00478434Y00740262D01*
Y00746500D01*
X00478270Y00747327D01*
Y00761810D01*
X00441650D01*
Y00735012D01*
X00440494D01*
X00438511Y00734618D01*
X00436831Y00733495D01*
X00436831Y00733495D01*
X00422058Y00718722D01*
X00420936Y00717042D01*
X00420541Y00715060D01*
Y00703015D01*
X00417586Y00700060D01*
X00408858D01*
X00408784Y00700336D01*
X00407887Y00701888D01*
X00407618Y00702158D01*
Y00721594D01*
X00407223Y00723576D01*
X00406101Y00725256D01*
X00406101Y00725256D01*
X00386655Y00744702D01*
Y00781559D01*
X00386459Y00782544D01*
X00386261Y00783540D01*
X00386261Y00783541D01*
X00386261Y00783541D01*
X00385555Y00784597D01*
X00385138Y00785221D01*
X00385138Y00785221D01*
X00385138Y00785221D01*
X00378669Y00791691D01*
X00378669Y00791691D01*
X00377776Y00792287D01*
X00376989Y00792814D01*
X00376989Y00792814D01*
X00376989Y00792814D01*
X00376058Y00792999D01*
X00375007Y00793208D01*
X00375007Y00793208D01*
X00375006Y00793208D01*
X00358660D01*
Y00795670D01*
Y00813290D01*
X00328540D01*
Y00809660D01*
X00323665D01*
Y00812354D01*
X00307917D01*
Y00796606D01*
X00306208Y00795902D01*
X00292917D01*
X00291413Y00796839D01*
Y00796839D01*
X00261293D01*
Y00779219D01*
X00262528D01*
Y00778812D01*
X00263021Y00776334D01*
X00264424Y00774234D01*
X00267564Y00771094D01*
X00266799Y00769246D01*
X00251908D01*
Y00782323D01*
X00251838Y00782854D01*
Y00791533D01*
X00235618D01*
Y00782854D01*
X00235548Y00782323D01*
Y00765000D01*
X00235618Y00764468D01*
Y00756170D01*
X00237161D01*
Y00722443D01*
X00237385Y00720744D01*
X00238041Y00719160D01*
X00239085Y00717800D01*
X00242248Y00714637D01*
X00243608Y00713594D01*
X00245191Y00712938D01*
X00246891Y00712714D01*
X00259690D01*
Y00709220D01*
X00278310D01*
Y00709220D01*
X00278517Y00709218D01*
Y00709218D01*
X00280309Y00709218D01*
X00297136D01*
Y00729338D01*
X00294393D01*
Y00736939D01*
X00294751Y00736986D01*
X00296422Y00737678D01*
X00297857Y00738779D01*
X00298284Y00739336D01*
X00298393Y00739391D01*
X00300585D01*
X00300693Y00739336D01*
X00301120Y00738779D01*
X00302555Y00737678D01*
X00304226Y00736986D01*
X00306020Y00736750D01*
X00316282D01*
X00316287Y00736750D01*
X00330930D01*
Y00734370D01*
X00351050D01*
Y00752990D01*
X00351050D01*
Y00753369D01*
X00351050D01*
Y00767569D01*
X00365762D01*
X00365899Y00767433D01*
Y00733845D01*
X00366135Y00732052D01*
X00366827Y00730381D01*
X00367928Y00728946D01*
X00371753Y00725121D01*
Y00711804D01*
X00371989Y00710011D01*
X00372078Y00709795D01*
Y00703422D01*
X00362553D01*
Y00700125D01*
X00344490D01*
X00343994Y00700060D01*
X00335680D01*
Y00684940D01*
X00343994D01*
X00344490Y00684875D01*
X00362495D01*
Y00668549D01*
X00361597D01*
Y00660234D01*
X00361532Y00659739D01*
Y00650298D01*
X00360347D01*
Y00647838D01*
X00359277Y00647286D01*
X00358347Y00647141D01*
X00357300Y00648188D01*
X00355747Y00649084D01*
X00354015Y00649548D01*
X00352222D01*
X00350490Y00649084D01*
X00348937Y00648188D01*
X00347669Y00646920D01*
X00346772Y00645367D01*
X00346308Y00643635D01*
Y00641842D01*
X00346644Y00640589D01*
Y00635443D01*
X00345478Y00634548D01*
X00343685D01*
X00341953Y00634084D01*
X00340400Y00633188D01*
X00339132Y00631920D01*
X00338236Y00630367D01*
X00337771Y00628635D01*
Y00626842D01*
X00338236Y00625110D01*
X00339132Y00623557D01*
X00340400Y00622289D01*
X00341523Y00621641D01*
X00346644Y00616520D01*
Y00611465D01*
X00325220D01*
Y00598615D01*
X00324589Y00598186D01*
X00324381Y00598223D01*
X00322680Y00599306D01*
Y00601540D01*
X00321901Y00604447D01*
X00320396Y00607053D01*
X00320217Y00607233D01*
Y00614758D01*
X00321310D01*
Y00633378D01*
X00301190D01*
Y00633378D01*
X00300434D01*
Y00633378D01*
X00296849D01*
Y00643235D01*
X00297843Y00644723D01*
X00298294Y00646990D01*
X00297843Y00649257D01*
X00297151Y00650292D01*
X00296724Y00651740D01*
X00297151Y00653188D01*
X00297843Y00654223D01*
X00298294Y00656490D01*
X00299598Y00657894D01*
X00301314Y00656298D01*
Y00655929D01*
X00319934D01*
Y00655928D01*
X00321314D01*
Y00655929D01*
X00339934D01*
Y00676049D01*
X00321314D01*
Y00676049D01*
X00319934D01*
Y00676049D01*
X00301314D01*
Y00672462D01*
X00298259Y00672462D01*
X00296844Y00673876D01*
Y00674297D01*
X00296352Y00676775D01*
X00294948Y00678876D01*
X00291386Y00682438D01*
X00289286Y00683841D01*
X00286808Y00684334D01*
X00263846D01*
X00261368Y00683841D01*
X00259268Y00682438D01*
X00256292Y00679462D01*
X00254888Y00677361D01*
X00254396Y00674884D01*
Y00673555D01*
X00252396Y00672914D01*
X00249787Y00675522D01*
Y00684855D01*
X00249294Y00687332D01*
X00247891Y00689433D01*
X00245290Y00692034D01*
X00243189Y00693437D01*
X00243172Y00693441D01*
Y00698545D01*
X00243241Y00699069D01*
X00243172Y00699592D01*
Y00706943D01*
X00235822D01*
X00235298Y00707011D01*
X00214052D01*
Y00707878D01*
X00188319D01*
X00187742Y00707954D01*
X00157902D01*
X00157642Y00708215D01*
X00155036Y00709720D01*
X00152129Y00710499D01*
X00149119D01*
X00146212Y00709720D01*
X00143606Y00708215D01*
X00141478Y00706087D01*
X00139973Y00703480D01*
X00139194Y00700573D01*
Y00697564D01*
X00139973Y00694657D01*
X00141478Y00692050D01*
X00143606Y00689922D01*
X00146212Y00688418D01*
X00149119Y00687638D01*
X00152129D01*
X00155036Y00688418D01*
X00157642Y00689922D01*
X00157902Y00690182D01*
X00185018D01*
Y00689361D01*
X00185442Y00687225D01*
X00184435Y00685226D01*
X00184435D01*
Y00682635D01*
X00157822D01*
X00157642Y00682815D01*
X00155036Y00684320D01*
X00152129Y00685098D01*
X00149119D01*
X00146212Y00684320D01*
X00143606Y00682815D01*
X00141478Y00680687D01*
X00139973Y00678080D01*
X00139194Y00675173D01*
Y00672164D01*
X00139973Y00669257D01*
X00141478Y00666650D01*
X00143606Y00664522D01*
X00146212Y00663018D01*
X00149119Y00662238D01*
X00152129D01*
X00155036Y00663018D01*
X00157642Y00664522D01*
X00157822Y00664702D01*
X00184435D01*
Y00662112D01*
X00235743D01*
Y00669140D01*
X00237743Y00669746D01*
X00238734Y00668262D01*
X00245589Y00661407D01*
X00247690Y00660004D01*
X00250168Y00659511D01*
X00257240D01*
X00259718Y00660004D01*
X00259811Y00660066D01*
X00262870D01*
X00265137Y00660517D01*
X00267059Y00661801D01*
X00268343Y00663723D01*
X00268794Y00665990D01*
X00268343Y00668257D01*
X00267589Y00669385D01*
X00268225Y00671385D01*
X00283015D01*
X00283651Y00669385D01*
X00282897Y00668257D01*
X00282446Y00665990D01*
X00282897Y00663723D01*
X00284181Y00661801D01*
Y00660679D01*
X00282897Y00658757D01*
X00282446Y00656490D01*
X00282897Y00654223D01*
X00283589Y00653188D01*
X00284016Y00651740D01*
X00283589Y00650292D01*
X00282897Y00649257D01*
X00282446Y00646990D01*
X00282897Y00644723D01*
X00283900Y00643223D01*
Y00633378D01*
X00280314D01*
Y00614758D01*
X00300434D01*
X00300434Y00614758D01*
X00302283Y00614394D01*
Y00607233D01*
X00302104Y00607053D01*
X00300599Y00604447D01*
X00299820Y00601540D01*
Y00598530D01*
X00300599Y00595623D01*
X00302104Y00593017D01*
X00304232Y00590889D01*
X00306838Y00589384D01*
X00309745Y00588605D01*
X00312755D01*
X00313411Y00588781D01*
X00314447Y00586988D01*
X00310703Y00583245D01*
X00268425D01*
X00265947Y00582752D01*
X00263847Y00581348D01*
X00243204Y00560706D01*
X00241801Y00558605D01*
X00241308Y00556128D01*
Y00500000D01*
X00241801Y00497522D01*
X00243204Y00495422D01*
X00308915Y00429712D01*
X00311015Y00428308D01*
X00313493Y00427815D01*
X00336128D01*
Y00424469D01*
X00273830D01*
Y00430085D01*
X00252845D01*
X00231858Y00451072D01*
Y00586111D01*
X00231858Y00586111D01*
X00231463Y00588093D01*
X00230340Y00589773D01*
X00225765Y00594349D01*
X00224085Y00595471D01*
X00222103Y00595866D01*
X00205244D01*
X00204583Y00596978D01*
X00204320Y00597866D01*
X00205086Y00599193D01*
X00205550Y00600925D01*
Y00602718D01*
X00205086Y00604450D01*
X00204189Y00606003D01*
X00203675Y00606517D01*
X00204503Y00608517D01*
X00235743D01*
Y00614895D01*
X00240549D01*
X00240819Y00614625D01*
X00242372Y00613729D01*
X00244104Y00613265D01*
X00245897D01*
X00247629Y00613729D01*
X00249182Y00614625D01*
X00250450Y00615893D01*
X00251346Y00617446D01*
X00251810Y00619178D01*
Y00620971D01*
X00251346Y00622703D01*
X00250450Y00624256D01*
X00249182Y00625524D01*
X00247629Y00626420D01*
X00245897Y00626884D01*
X00244104D01*
X00242372Y00626420D01*
X00240819Y00625524D01*
X00240549Y00625254D01*
X00235743D01*
Y00631632D01*
X00184435D01*
Y00608517D01*
X00184993D01*
X00185311Y00606916D01*
X00186715Y00604815D01*
X00192472Y00599058D01*
X00193160Y00597866D01*
X00192897Y00596978D01*
X00192236Y00595866D01*
X00080624D01*
X00078642Y00595471D01*
X00076961Y00594349D01*
X00009058Y00526445D01*
X00007935Y00524765D01*
X00007541Y00522782D01*
Y00247980D01*
X00007935Y00245998D01*
X00009058Y00244317D01*
X00021070Y00232305D01*
Y00216770D01*
X00035419D01*
X00035803Y00216230D01*
X00034771Y00214230D01*
X00021070D01*
Y00191370D01*
X00043930D01*
Y00208504D01*
X00045637Y00209986D01*
X00046834Y00209839D01*
X00047764Y00208103D01*
X00047249Y00207212D01*
X00046470Y00204305D01*
Y00201295D01*
X00047249Y00198388D01*
X00048754Y00195782D01*
X00050882Y00193654D01*
X00053488Y00192149D01*
X00056395Y00191370D01*
X00059405D01*
X00062312Y00192149D01*
X00064918Y00193654D01*
X00067046Y00195782D01*
X00068551Y00198388D01*
X00069330Y00201295D01*
Y00204305D01*
X00068551Y00207212D01*
X00067911Y00208320D01*
X00069066Y00210320D01*
X00118860D01*
X00120842Y00210714D01*
X00122523Y00211837D01*
X00139325Y00228639D01*
X00308976D01*
Y00213531D01*
X00308976D01*
X00308811Y00211599D01*
X00307922Y00211005D01*
X00306518Y00208904D01*
X00306284Y00207724D01*
X00302440D01*
Y00196028D01*
X00302326Y00195454D01*
Y00193849D01*
X00288923Y00180446D01*
X00287519Y00178346D01*
X00287027Y00175868D01*
Y00169816D01*
X00283648D01*
X00282396Y00170152D01*
X00280603D01*
X00278871Y00169688D01*
X00278036Y00169206D01*
X00276191Y00170083D01*
X00276036Y00170261D01*
Y00205757D01*
X00275544Y00208235D01*
X00274140Y00210335D01*
X00271108Y00213367D01*
X00269008Y00214771D01*
X00266729Y00215224D01*
Y00218849D01*
X00248109D01*
Y00215263D01*
X00242210D01*
Y00218849D01*
X00223590D01*
Y00215263D01*
X00217692D01*
Y00218849D01*
X00199072D01*
Y00215263D01*
X00193174D01*
Y00218849D01*
X00174554D01*
Y00215263D01*
X00164981D01*
X00163728Y00215599D01*
X00161935D01*
X00160203Y00215135D01*
X00158650Y00214238D01*
X00157382Y00212971D01*
X00156486Y00211418D01*
X00156022Y00209686D01*
Y00207892D01*
X00156486Y00206160D01*
X00157382Y00204608D01*
X00158650Y00203340D01*
X00160203Y00202443D01*
X00161935Y00201979D01*
X00163728D01*
X00164981Y00202315D01*
X00174554D01*
Y00198729D01*
X00193174D01*
Y00202315D01*
X00199072D01*
Y00198729D01*
X00217692D01*
Y00202315D01*
X00223590D01*
Y00198729D01*
X00242210D01*
Y00202315D01*
X00248109D01*
Y00198729D01*
X00263088D01*
Y00141560D01*
X00263580Y00139083D01*
X00264984Y00136982D01*
X00270588Y00131378D01*
Y00120630D01*
X00270252Y00119377D01*
Y00117584D01*
X00270716Y00115852D01*
X00271613Y00114299D01*
X00272881Y00113031D01*
X00274434Y00112135D01*
X00276166Y00111671D01*
X00277959D01*
X00279691Y00112135D01*
X00281244Y00113031D01*
X00282512Y00114299D01*
X00283408Y00115852D01*
X00283872Y00117584D01*
Y00119377D01*
X00283537Y00120630D01*
Y00124978D01*
X00284691Y00126500D01*
X00302311D01*
Y00141501D01*
Y00155103D01*
X00303690Y00156532D01*
X00304274Y00156532D01*
X00307321D01*
Y00123145D01*
X00300338Y00116162D01*
X00300338Y00116162D01*
X00300338Y00116162D01*
X00299215Y00114482D01*
X00299215Y00114482D01*
X00299215Y00114482D01*
X00299035Y00113575D01*
X00298821Y00112500D01*
Y00101238D01*
X00290690D01*
Y00096108D01*
X00285988D01*
X00284006Y00095713D01*
X00282325Y00094591D01*
X00273166Y00085431D01*
X00272043Y00083751D01*
X00271692Y00081988D01*
X00267518D01*
Y00061868D01*
X00286138D01*
Y00081988D01*
X00286138D01*
X00285621Y00083237D01*
X00288133Y00085749D01*
X00290690D01*
Y00080618D01*
X00317310D01*
Y00101238D01*
X00309180D01*
Y00110354D01*
X00316162Y00117338D01*
X00316163Y00117338D01*
X00316163Y00117338D01*
X00317285Y00119018D01*
Y00119018D01*
X00317285Y00119018D01*
X00317680Y00121000D01*
X00317680Y00121000D01*
Y00156532D01*
X00322321D01*
Y00107056D01*
X00322715Y00105073D01*
X00323838Y00103393D01*
X00324145Y00103086D01*
X00323380Y00101238D01*
X00322690D01*
Y00080618D01*
X00348342D01*
Y00061868D01*
X00366962D01*
Y00075581D01*
X00368809Y00076347D01*
X00376891Y00068265D01*
X00378571Y00067143D01*
X00380553Y00066748D01*
X00403948D01*
X00405930Y00067143D01*
X00407610Y00068265D01*
X00432116Y00092771D01*
X00441805D01*
Y00089140D01*
X00459067D01*
Y00064541D01*
X00440732D01*
Y00046810D01*
X00440732Y00045921D01*
X00439192Y00044810D01*
X00436949D01*
X00433122Y00044049D01*
X00429517Y00042555D01*
X00426272Y00040387D01*
X00423513Y00037628D01*
X00421345Y00034383D01*
X00419851Y00030778D01*
X00419090Y00026951D01*
Y00023049D01*
X00419851Y00019221D01*
X00421345Y00015616D01*
X00423513Y00012372D01*
X00426272Y00009612D01*
X00429517Y00007444D01*
X00433122Y00005951D01*
X00436949Y00005190D01*
X00440851D01*
X00444678Y00005951D01*
X00448284Y00007444D01*
X00451528Y00009612D01*
X00454288Y00012372D01*
X00456456Y00015616D01*
X00457949Y00019221D01*
X00458710Y00023049D01*
Y00026951D01*
X00457949Y00030778D01*
X00456456Y00034383D01*
X00454288Y00037628D01*
X00451528Y00040387D01*
X00448284Y00042555D01*
X00444679Y00044049D01*
X00445202Y00045921D01*
X00460852D01*
Y00048133D01*
X00462852Y00048961D01*
X00478723Y00033090D01*
X00478723Y00033090D01*
X00480403Y00031967D01*
X00482385Y00031573D01*
X00499518D01*
Y00004590D01*
X00499518Y00003351D01*
X00497833Y00002590D01*
X00002590D01*
Y00822411D01*
X00569330D01*
X00569898Y00821441D01*
X00570088Y00820411D01*
X00562974Y00813296D01*
X00550669D01*
Y00815835D01*
X00527809D01*
Y00792975D01*
X00550669D01*
Y00795524D01*
X00563374D01*
X00563951Y00795600D01*
X00574684D01*
Y00806434D01*
X00577712Y00809462D01*
X00583704D01*
X00593399Y00799766D01*
X00594759Y00798723D01*
X00596343Y00798067D01*
X00598042Y00797843D01*
X00606004D01*
X00606431Y00797899D01*
X00614114D01*
Y00810919D01*
X00606431D01*
X00606004Y00810976D01*
X00600762D01*
X00591327Y00820411D01*
X00591517Y00821441D01*
X00592085Y00822411D01*
X00697411D01*
Y00369720D01*
D02*
G37*
G36*
X00302555Y00756678D02*
X00304226Y00755985D01*
X00306020Y00755749D01*
X00316282D01*
X00316287Y00755750D01*
X00330930D01*
Y00753369D01*
X00330930D01*
Y00752990D01*
X00330930D01*
Y00750609D01*
X00316287D01*
X00316282Y00750610D01*
X00306020D01*
X00304226Y00750373D01*
X00302555Y00749681D01*
X00301120Y00748580D01*
X00300693Y00748023D01*
X00300585Y00747969D01*
X00298393D01*
X00298284Y00748023D01*
X00297857Y00748580D01*
X00296422Y00749681D01*
X00294751Y00750373D01*
X00292957Y00750610D01*
X00282696D01*
X00280902Y00750373D01*
X00279231Y00749681D01*
X00277796Y00748580D01*
X00276694Y00747144D01*
X00276002Y00745473D01*
X00275766Y00743680D01*
X00276002Y00741886D01*
X00276694Y00740215D01*
X00277796Y00738779D01*
X00279231Y00737678D01*
X00280902Y00736986D01*
X00281260Y00736939D01*
Y00729338D01*
X00278517D01*
Y00729338D01*
X00278310Y00729340D01*
Y00729340D01*
X00276518Y00729340D01*
X00259690D01*
Y00725846D01*
X00250294D01*
Y00756114D01*
X00275825D01*
Y00755809D01*
X00299828D01*
Y00756321D01*
X00301828Y00757236D01*
X00302555Y00756678D01*
D02*
G37*
G36*
X00531799Y00639659D02*
Y00639659D01*
X00541679D01*
Y00633990D01*
X00540527Y00633319D01*
X00539679Y00633072D01*
X00538339Y00633846D01*
X00536607Y00634310D01*
X00534814D01*
X00533561Y00633974D01*
X00526048D01*
X00523570Y00633481D01*
X00521470Y00632078D01*
X00520428Y00631024D01*
X00504490D01*
Y00623976D01*
X00520428D01*
X00521470Y00622922D01*
X00523570Y00621518D01*
X00526048Y00621026D01*
X00533561D01*
X00534814Y00620690D01*
X00536607D01*
X00538339Y00621154D01*
X00539679Y00621928D01*
X00540527Y00621681D01*
X00541679Y00621010D01*
Y00607529D01*
X00536830Y00602679D01*
X00520428D01*
Y00606024D01*
X00504490D01*
Y00593976D01*
Y00585834D01*
X00500742D01*
X00492169Y00594407D01*
Y00601297D01*
X00496781Y00605909D01*
X00497503Y00606990D01*
X00497757Y00608266D01*
Y00630364D01*
X00497503Y00631640D01*
X00496908Y00632531D01*
X00497089Y00633269D01*
X00497799Y00634531D01*
X00500983D01*
Y00639166D01*
X00522141D01*
X00522361Y00638838D01*
X00524041Y00637715D01*
X00526023Y00637321D01*
X00528005Y00637715D01*
X00529686Y00638838D01*
X00530885Y00640038D01*
X00531799Y00639659D01*
D02*
G37*
G36*
X00448935Y00638460D02*
Y00634531D01*
X00466947D01*
X00467775Y00632531D01*
X00465101Y00629857D01*
X00464379Y00628776D01*
X00464125Y00627500D01*
Y00612797D01*
X00460384Y00609057D01*
X00459439Y00609310D01*
X00457646D01*
X00455914Y00608846D01*
X00455164Y00608413D01*
X00453164Y00609424D01*
Y00624918D01*
X00452910Y00626194D01*
X00452187Y00627275D01*
X00446654Y00632809D01*
X00445983Y00634531D01*
X00445983Y00634531D01*
X00445983D01*
X00445983Y00634531D01*
Y00638585D01*
X00447983Y00639371D01*
X00448935Y00638460D01*
D02*
G37*
G36*
X00381674Y00613838D02*
X00383354Y00612715D01*
X00385336Y00612320D01*
X00385337Y00612321D01*
X00419490D01*
Y00608976D01*
Y00603976D01*
Y00598976D01*
Y00597679D01*
X00406379D01*
X00405196Y00597444D01*
X00404397Y00597285D01*
X00404397Y00597285D01*
X00404397D01*
X00403385Y00596609D01*
X00402717Y00596162D01*
X00389363Y00582809D01*
X00384217D01*
Y00585657D01*
Y00603277D01*
X00375760D01*
X00369217Y00609820D01*
Y00612790D01*
X00371654Y00615227D01*
X00380285D01*
X00381674Y00613838D01*
D02*
G37*
G36*
X00438435Y00617051D02*
X00439988Y00616154D01*
X00441720Y00615690D01*
X00443513D01*
X00444496Y00615953D01*
X00446496Y00614785D01*
Y00596435D01*
X00440102Y00590041D01*
X00439379Y00588959D01*
X00439125Y00587683D01*
Y00576119D01*
X00438778Y00575834D01*
X00435428D01*
Y00576024D01*
X00419490D01*
X00418448Y00577078D01*
X00416348Y00578481D01*
X00413870Y00578974D01*
X00408528D01*
X00407276Y00579310D01*
X00405482D01*
X00403750Y00578846D01*
X00402198Y00577949D01*
X00400930Y00576681D01*
X00400033Y00575128D01*
X00399569Y00573396D01*
Y00571603D01*
X00400033Y00569871D01*
X00400930Y00568318D01*
X00402198Y00567051D01*
X00403750Y00566154D01*
X00405482Y00565690D01*
X00407276D01*
X00408528Y00566025D01*
X00413870D01*
X00416348Y00566518D01*
X00418448Y00567922D01*
X00419490Y00568976D01*
X00435428D01*
Y00569092D01*
X00437428Y00569135D01*
X00439094Y00567469D01*
X00439050Y00565469D01*
X00438935D01*
Y00549531D01*
X00437393Y00548427D01*
X00406568D01*
Y00552057D01*
X00391448D01*
Y00534437D01*
X00406568D01*
Y00538068D01*
X00442066D01*
X00444048Y00538462D01*
X00445728Y00539585D01*
X00446851Y00541265D01*
X00447245Y00543247D01*
X00447168Y00543634D01*
X00449817Y00546283D01*
X00450539Y00547365D01*
X00450793Y00548641D01*
Y00549531D01*
X00453414D01*
X00454179Y00547683D01*
X00450798Y00544302D01*
X00449675Y00542622D01*
X00449281Y00540640D01*
Y00515588D01*
X00389014D01*
Y00515448D01*
X00381575D01*
X00380915Y00515361D01*
X00366765D01*
Y00495241D01*
X00380915D01*
X00381575Y00495154D01*
X00389014D01*
Y00495014D01*
X00455816D01*
Y00499455D01*
X00456284Y00499896D01*
X00458073Y00499124D01*
X00458284Y00498848D01*
Y00443297D01*
X00458777Y00440819D01*
X00460180Y00438718D01*
X00460515Y00438383D01*
X00460511Y00438219D01*
X00459889Y00436384D01*
X00454949D01*
X00437650Y00453682D01*
Y00474805D01*
X00437157Y00477283D01*
X00435754Y00479383D01*
X00433653Y00480787D01*
X00431175Y00481279D01*
X00371702D01*
X00362724Y00490257D01*
X00360624Y00491661D01*
X00358146Y00492154D01*
X00313399D01*
X00312146Y00492489D01*
X00310354D01*
X00308621Y00492025D01*
X00307069Y00491129D01*
X00305801Y00489861D01*
X00304904Y00488308D01*
X00304440Y00486576D01*
Y00484783D01*
X00304904Y00483051D01*
X00305801Y00481498D01*
X00307069Y00480230D01*
X00308621Y00479333D01*
X00310354Y00478869D01*
X00312146D01*
X00313399Y00479205D01*
X00355464D01*
X00364442Y00470227D01*
X00366543Y00468824D01*
X00369020Y00468331D01*
X00397330D01*
Y00452812D01*
X00399711D01*
Y00446349D01*
X00395582D01*
Y00424469D01*
X00392107D01*
Y00441850D01*
X00389771D01*
Y00449313D01*
X00389278Y00451791D01*
X00387875Y00453891D01*
X00382445Y00459321D01*
X00382421Y00459412D01*
X00381524Y00460965D01*
X00380256Y00462233D01*
X00378703Y00463130D01*
X00376971Y00463594D01*
X00375178D01*
X00373446Y00463130D01*
X00371893Y00462233D01*
X00370625Y00460965D01*
X00369729Y00459412D01*
X00369265Y00457680D01*
Y00455887D01*
X00369729Y00454155D01*
X00370625Y00452602D01*
X00371893Y00451334D01*
X00372427Y00451026D01*
X00376822Y00446631D01*
Y00441850D01*
X00374487D01*
Y00440764D01*
X00316174D01*
X00254257Y00502682D01*
Y00553446D01*
X00271107Y00570296D01*
X00281348D01*
X00283072Y00569629D01*
X00283072Y00568296D01*
Y00555478D01*
X00282985Y00554819D01*
Y00543009D01*
Y00525700D01*
Y00513890D01*
X00283072Y00513231D01*
Y00499080D01*
X00303192D01*
Y00501916D01*
X00317357D01*
Y00496960D01*
X00340217D01*
Y00519820D01*
X00317357D01*
Y00514865D01*
X00303279D01*
Y00525700D01*
Y00543009D01*
Y00554819D01*
X00303192Y00555478D01*
Y00568296D01*
X00303192Y00569629D01*
X00304916Y00570296D01*
X00313385D01*
X00315863Y00570788D01*
X00317963Y00572192D01*
X00334376Y00588605D01*
X00342476D01*
X00343242Y00586757D01*
X00325124Y00568640D01*
X00324001Y00566959D01*
X00323607Y00564977D01*
Y00543998D01*
X00321768Y00542937D01*
X00319640Y00540808D01*
X00318136Y00538202D01*
X00317357Y00535295D01*
Y00532285D01*
X00318136Y00529378D01*
X00319640Y00526772D01*
X00321768Y00524644D01*
X00324375Y00523139D01*
X00327282Y00522360D01*
X00330291D01*
X00333198Y00523139D01*
X00335805Y00524644D01*
X00337933Y00526772D01*
X00339438Y00529378D01*
X00340217Y00532285D01*
Y00535295D01*
X00339438Y00538202D01*
X00337933Y00540808D01*
X00335805Y00542937D01*
X00333966Y00543998D01*
Y00562832D01*
X00352057Y00580923D01*
X00369097D01*
Y00568820D01*
X00384217D01*
Y00572450D01*
X00391508D01*
X00393490Y00572844D01*
X00395171Y00573967D01*
X00395171Y00573967D01*
X00408524Y00587320D01*
X00419490D01*
Y00578976D01*
X00435428D01*
Y00588976D01*
Y00598976D01*
Y00608976D01*
Y00617331D01*
X00436361Y00617861D01*
X00437428Y00618058D01*
X00438435Y00617051D01*
D02*
G37*
G36*
X00221499Y00583965D02*
Y00547019D01*
X00219912Y00545802D01*
X00219909Y00545802D01*
X00218116D01*
X00216384Y00545338D01*
X00214831Y00544441D01*
X00214562Y00544172D01*
X00154024D01*
Y00555991D01*
X00159639D01*
Y00584693D01*
X00161303Y00585507D01*
X00219957D01*
X00221499Y00583965D01*
D02*
G37*
G36*
X00480690Y00573551D02*
X00480649Y00573396D01*
Y00571603D01*
X00481113Y00569871D01*
X00482010Y00568318D01*
X00482859Y00567469D01*
X00482343Y00565725D01*
X00482162Y00565469D01*
X00478935D01*
Y00549531D01*
X00479125D01*
Y00548826D01*
X00479379Y00547550D01*
X00480102Y00546469D01*
X00482645Y00543926D01*
X00483727Y00543203D01*
X00484810Y00542987D01*
X00484698Y00542427D01*
X00485191Y00539949D01*
X00486595Y00537849D01*
X00489545Y00534899D01*
X00490193Y00533776D01*
X00491461Y00532508D01*
X00493014Y00531611D01*
X00494746Y00531147D01*
X00496539D01*
X00498271Y00531611D01*
X00499824Y00532508D01*
X00501092Y00533776D01*
X00501988Y00535329D01*
X00502453Y00537061D01*
Y00538854D01*
X00501988Y00540586D01*
X00501092Y00542139D01*
X00499824Y00543406D01*
X00498701Y00544055D01*
X00495751Y00547005D01*
X00494964Y00547531D01*
X00495570Y00549531D01*
X00500983D01*
Y00565469D01*
X00500793D01*
Y00568451D01*
X00502181Y00569252D01*
X00502490Y00569561D01*
X00504490Y00568976D01*
Y00568976D01*
X00508704D01*
X00508797Y00568837D01*
X00510477Y00567715D01*
X00512459Y00567320D01*
X00528252D01*
X00528522Y00567051D01*
X00530075Y00566154D01*
X00531807Y00565690D01*
X00532188D01*
X00543596Y00554282D01*
X00543144Y00551906D01*
X00542608Y00551596D01*
X00541340Y00550328D01*
X00540443Y00548775D01*
X00539979Y00547043D01*
Y00545250D01*
X00540443Y00543518D01*
X00541340Y00541965D01*
X00542608Y00540697D01*
X00544160Y00539801D01*
X00545892Y00539337D01*
X00547686D01*
X00549418Y00539801D01*
X00550970Y00540697D01*
X00552238Y00541965D01*
X00552548Y00542502D01*
X00554924Y00542954D01*
X00560042Y00537836D01*
Y00515360D01*
X00549010D01*
X00548350Y00515447D01*
X00540906Y00515447D01*
Y00515588D01*
X00480640D01*
Y00540640D01*
X00480640Y00540640D01*
X00480640Y00540640D01*
X00480457Y00541560D01*
X00480246Y00542622D01*
X00480246Y00542622D01*
X00480246Y00542622D01*
X00479681Y00543467D01*
X00479123Y00544302D01*
X00479123Y00544302D01*
X00479123Y00544302D01*
X00475371Y00548054D01*
X00475983Y00549531D01*
X00475983D01*
Y00565469D01*
X00475793D01*
Y00570820D01*
X00476641Y00571310D01*
X00477909Y00572577D01*
X00478806Y00574130D01*
X00480690Y00573551D01*
D02*
G37*
G36*
X00474104Y00499949D02*
Y00495014D01*
X00540906D01*
Y00495014D01*
X00541045Y00495153D01*
X00548350Y00495153D01*
X00549010Y00495240D01*
X00560042D01*
Y00464762D01*
X00520223Y00424943D01*
X00516949D01*
X00516120Y00426942D01*
X00518688Y00429510D01*
X00520091Y00431610D01*
X00520584Y00434088D01*
Y00436610D01*
X00522920D01*
Y00451610D01*
X00537680D01*
Y00466730D01*
X00521397D01*
X00520242Y00468730D01*
X00520456Y00469100D01*
X00520920Y00470832D01*
Y00472625D01*
X00520456Y00474357D01*
X00519559Y00475910D01*
X00518291Y00477178D01*
X00516738Y00478074D01*
X00515006Y00478538D01*
X00513213D01*
X00511481Y00478074D01*
X00509928Y00477178D01*
X00508660Y00475910D01*
X00507764Y00474357D01*
X00507300Y00472625D01*
Y00470832D01*
X00507764Y00469100D01*
X00507977Y00468730D01*
X00506822Y00466730D01*
X00505300D01*
Y00450980D01*
X00492263D01*
X00492224Y00451176D01*
X00491101Y00452857D01*
X00491101Y00452857D01*
X00486270Y00457688D01*
Y00465484D01*
X00483138D01*
X00482846Y00467483D01*
X00482909Y00467547D01*
X00483806Y00469100D01*
X00484270Y00470832D01*
Y00472625D01*
X00483806Y00474357D01*
X00482909Y00475910D01*
X00481641Y00477178D01*
X00480089Y00478074D01*
X00478356Y00478538D01*
X00476563D01*
X00474831Y00478074D01*
X00473279Y00477178D01*
X00473233Y00477132D01*
X00471233Y00477961D01*
Y00499471D01*
X00473233Y00500536D01*
X00474104Y00499949D01*
D02*
G37*
G36*
X00424701Y00451000D02*
X00425194Y00448523D01*
X00426597Y00446422D01*
X00446206Y00426814D01*
X00445378Y00424813D01*
X00426510D01*
X00426240Y00425083D01*
X00424688Y00425980D01*
X00422956Y00426444D01*
X00421162D01*
X00419430Y00425980D01*
X00417878Y00425083D01*
X00416610Y00423815D01*
X00416202Y00423110D01*
X00414202Y00423646D01*
Y00426229D01*
Y00446349D01*
X00410070D01*
Y00452812D01*
X00412450D01*
Y00468331D01*
X00424701D01*
Y00451000D01*
D02*
G37*
G36*
X00138049Y00584693D02*
Y00555991D01*
X00143665D01*
Y00541797D01*
X00144059Y00539815D01*
X00145182Y00538135D01*
X00147987Y00535330D01*
X00147996Y00535324D01*
X00148192Y00533334D01*
X00145182Y00530324D01*
X00144059Y00528644D01*
X00143665Y00526661D01*
Y00493693D01*
X00138049D01*
Y00489488D01*
X00121187Y00489487D01*
X00120527Y00489400D01*
X00107077D01*
Y00469280D01*
X00120528D01*
X00121188Y00469193D01*
X00136635Y00469195D01*
X00138049Y00467780D01*
Y00464991D01*
X00143665D01*
Y00439473D01*
X00144059Y00437491D01*
X00145182Y00435811D01*
X00163710Y00417281D01*
Y00413596D01*
X00161710Y00413060D01*
X00161568Y00413307D01*
X00160300Y00414575D01*
X00158747Y00415472D01*
X00157015Y00415936D01*
X00155222D01*
X00153970Y00415600D01*
X00146466D01*
X00113312Y00448755D01*
X00111212Y00450158D01*
X00108734Y00450651D01*
X00069548D01*
X00069391Y00450923D01*
X00068622Y00452651D01*
X00069330Y00455295D01*
Y00458305D01*
X00068551Y00461212D01*
X00067046Y00463818D01*
X00064918Y00465946D01*
X00062312Y00467451D01*
X00059405Y00468230D01*
X00056395D01*
X00053488Y00467451D01*
X00050882Y00465946D01*
X00048754Y00463818D01*
X00047249Y00461212D01*
X00046470Y00458305D01*
Y00456071D01*
X00044769Y00454988D01*
X00044561Y00454951D01*
X00043930Y00455380D01*
Y00468230D01*
X00022440D01*
Y00470770D01*
X00043930D01*
Y00493630D01*
X00030230D01*
X00029197Y00495630D01*
X00029581Y00496170D01*
X00043930D01*
Y00519030D01*
X00021070D01*
Y00503495D01*
X00019748Y00502172D01*
X00017900Y00502937D01*
Y00520637D01*
X00082769Y00585507D01*
X00136386D01*
X00138049Y00584693D01*
D02*
G37*
G36*
X00565384Y00434070D02*
X00565765Y00433744D01*
Y00432108D01*
X00566229Y00430376D01*
X00567125Y00428823D01*
X00567395Y00428553D01*
Y00411834D01*
X00565395Y00411299D01*
X00565174Y00411681D01*
X00563906Y00412949D01*
X00562354Y00413846D01*
X00560621Y00414310D01*
X00558828D01*
X00557096Y00413846D01*
X00555544Y00412949D01*
X00554276Y00411681D01*
X00553379Y00410129D01*
X00552915Y00408396D01*
Y00406603D01*
X00553379Y00404871D01*
X00554276Y00403318D01*
X00554545Y00403049D01*
Y00399604D01*
X00524112Y00369172D01*
X00522990Y00367491D01*
X00522595Y00365509D01*
Y00328853D01*
X00504475Y00310733D01*
X00503570Y00310852D01*
X00502302Y00312120D01*
X00500749Y00313016D01*
X00499017Y00313480D01*
X00498636D01*
X00496680Y00315436D01*
X00495000Y00316559D01*
X00493017Y00316953D01*
X00480430D01*
X00478448Y00316559D01*
X00476767Y00315436D01*
X00466156Y00304825D01*
X00465074Y00305048D01*
X00464068Y00305565D01*
X00463692Y00306970D01*
X00462795Y00308523D01*
X00461527Y00309791D01*
X00459974Y00310687D01*
X00458242Y00311151D01*
X00456449D01*
X00454717Y00310687D01*
X00453585Y00312343D01*
X00471828Y00330586D01*
X00472210D01*
X00473942Y00331050D01*
X00475495Y00331947D01*
X00476763Y00333215D01*
X00477659Y00334768D01*
X00478123Y00336500D01*
Y00338293D01*
X00477659Y00340025D01*
X00476763Y00341578D01*
X00475495Y00342846D01*
X00473942Y00343742D01*
X00472210Y00344206D01*
X00470417D01*
X00468685Y00343742D01*
X00467132Y00342846D01*
X00465864Y00341578D01*
X00464967Y00340025D01*
X00464503Y00338293D01*
Y00337911D01*
X00446837Y00320245D01*
X00445523D01*
X00443541Y00319851D01*
X00441861Y00318728D01*
X00434812Y00311679D01*
X00421089D01*
X00419107Y00311285D01*
X00417427Y00310162D01*
X00417417Y00310149D01*
X00415469Y00310024D01*
Y00310024D01*
X00399531D01*
Y00297976D01*
Y00289834D01*
X00394316D01*
X00393040Y00289580D01*
X00391959Y00288857D01*
X00385638Y00282537D01*
X00384915Y00281455D01*
X00384661Y00280179D01*
Y00277438D01*
X00383814Y00276949D01*
X00382546Y00275681D01*
X00381650Y00274128D01*
X00381185Y00272396D01*
Y00270603D01*
X00381650Y00268871D01*
X00382546Y00267318D01*
X00383814Y00266050D01*
X00385367Y00265154D01*
X00387099Y00264690D01*
X00388892D01*
X00390624Y00265154D01*
X00392177Y00266050D01*
X00393445Y00267318D01*
X00394341Y00268871D01*
X00394805Y00270603D01*
Y00272396D01*
X00394341Y00274128D01*
X00393445Y00275681D01*
X00392177Y00276949D01*
X00391975Y00277066D01*
X00391775Y00279243D01*
X00395697Y00283166D01*
X00399531D01*
Y00272976D01*
Y00262976D01*
Y00254834D01*
X00396618D01*
X00396618Y00254834D01*
X00395342Y00254580D01*
X00395342Y00254580D01*
X00395342D01*
X00394260Y00253857D01*
X00394260Y00253857D01*
X00394260Y00253857D01*
X00389719Y00249316D01*
X00389360Y00248778D01*
X00388997Y00248234D01*
X00388997Y00248234D01*
X00388997Y00248234D01*
X00388861Y00247550D01*
X00388743Y00246958D01*
Y00236508D01*
X00386895Y00235743D01*
X00370024Y00252614D01*
Y00282234D01*
X00389858Y00302068D01*
X00390580Y00303149D01*
X00390834Y00304425D01*
Y00309764D01*
X00397531Y00316461D01*
X00399531Y00315633D01*
Y00312976D01*
X00415469D01*
Y00315309D01*
X00419622Y00319461D01*
X00421089Y00319169D01*
X00423567Y00319662D01*
X00425667Y00321066D01*
X00434451Y00329849D01*
X00438945D01*
X00439540Y00329690D01*
X00441333D01*
X00443065Y00330154D01*
X00444618Y00331050D01*
X00445886Y00332318D01*
X00446783Y00333871D01*
X00447247Y00335603D01*
Y00337396D01*
X00446783Y00339128D01*
X00445886Y00340681D01*
X00444618Y00341949D01*
X00443065Y00342846D01*
X00441333Y00343310D01*
X00439540D01*
X00437808Y00342846D01*
X00437726Y00342798D01*
X00431731D01*
X00429253Y00342305D01*
X00427152Y00340902D01*
X00427075Y00340786D01*
X00424635Y00338346D01*
X00422405Y00338944D01*
X00422355Y00339128D01*
X00421459Y00340681D01*
X00420191Y00341949D01*
X00420023Y00343225D01*
X00451940Y00375142D01*
X00452321D01*
X00454053Y00375606D01*
X00455606Y00376503D01*
X00456874Y00377771D01*
X00457771Y00379324D01*
X00458235Y00381055D01*
Y00382849D01*
X00457771Y00384581D01*
X00456874Y00386133D01*
X00455606Y00387401D01*
X00454053Y00388298D01*
X00452321Y00388762D01*
X00450528D01*
X00448796Y00388298D01*
X00447243Y00387401D01*
X00445975Y00386133D01*
X00445079Y00384581D01*
X00444798Y00383532D01*
X00442728D01*
X00442447Y00384581D01*
X00441550Y00386133D01*
X00440282Y00387401D01*
X00438729Y00388298D01*
X00436997Y00388762D01*
X00436557D01*
X00436545Y00388774D01*
X00434865Y00389897D01*
X00432883Y00390291D01*
X00431009D01*
X00430243Y00392139D01*
X00438939Y00400835D01*
X00527881D01*
X00529863Y00401229D01*
X00531543Y00402351D01*
X00563914Y00434722D01*
X00565384Y00434070D01*
D02*
G37*
G36*
X00139206Y00404548D02*
X00141307Y00403144D01*
X00143785Y00402651D01*
X00153970D01*
X00155222Y00402316D01*
X00157015D01*
X00158747Y00402780D01*
X00160300Y00403676D01*
X00161568Y00404944D01*
X00161710Y00405191D01*
X00163710Y00404655D01*
Y00398661D01*
X00157654Y00392605D01*
X00155654Y00393433D01*
Y00394196D01*
X00155190Y00395928D01*
X00154294Y00397481D01*
X00153026Y00398749D01*
X00151473Y00399646D01*
X00149741Y00400110D01*
X00147948D01*
X00146216Y00399646D01*
X00144663Y00398749D01*
X00144393Y00398479D01*
X00120130D01*
Y00417430D01*
X00097270D01*
Y00398479D01*
X00069066D01*
X00067911Y00400479D01*
X00068551Y00401588D01*
X00069330Y00404495D01*
Y00407505D01*
X00068551Y00410412D01*
X00067046Y00413018D01*
X00064918Y00415146D01*
X00062312Y00416651D01*
X00059405Y00417430D01*
X00056395D01*
X00053488Y00416651D01*
X00050882Y00415146D01*
X00048754Y00413018D01*
X00047249Y00410412D01*
X00046470Y00407505D01*
Y00404495D01*
X00047249Y00401588D01*
X00047500Y00401153D01*
X00045900Y00399925D01*
X00043930Y00401895D01*
Y00417430D01*
X00022440D01*
Y00419970D01*
X00043930D01*
Y00436723D01*
X00045124Y00437702D01*
X00106052D01*
X00139206Y00404548D01*
D02*
G37*
G36*
X00214831Y00533543D02*
X00216384Y00532646D01*
X00218116Y00532182D01*
X00219909D01*
X00219912Y00532183D01*
X00221499Y00530965D01*
Y00448927D01*
X00221893Y00446945D01*
X00223016Y00445264D01*
X00245128Y00423152D01*
Y00408495D01*
X00273830D01*
Y00414110D01*
X00322429D01*
X00323036Y00412110D01*
X00322755Y00411922D01*
X00321267Y00410434D01*
X00320144Y00408754D01*
X00319750Y00406772D01*
Y00371245D01*
X00318397Y00370207D01*
X00316604D01*
X00314872Y00369743D01*
X00313319Y00368846D01*
X00312051Y00367578D01*
X00311154Y00366025D01*
X00310690Y00364293D01*
Y00362500D01*
X00311154Y00360768D01*
X00312051Y00359215D01*
X00312318Y00358949D01*
X00312151Y00357016D01*
X00310321Y00356134D01*
X00309402Y00356748D01*
X00307420Y00357142D01*
X00139670D01*
X00138998Y00358067D01*
X00138855Y00359155D01*
X00172553Y00392854D01*
X00173675Y00394534D01*
X00174070Y00396516D01*
Y00419427D01*
X00173675Y00421409D01*
X00172553Y00423089D01*
X00172552Y00423089D01*
X00154024Y00441618D01*
Y00464991D01*
X00159639D01*
Y00493693D01*
X00154024D01*
Y00524516D01*
X00163321Y00533813D01*
X00214562D01*
X00214831Y00533543D01*
D02*
G37*
G36*
X00150848Y00304472D02*
X00117855Y00271479D01*
X00026717D01*
X00022440Y00275757D01*
Y00292970D01*
X00036605D01*
X00041538Y00288037D01*
X00043218Y00286915D01*
X00045200Y00286520D01*
X00116320D01*
X00118302Y00286915D01*
X00119983Y00288037D01*
X00138265Y00306320D01*
X00150082D01*
X00150848Y00304472D01*
D02*
G37*
G36*
X00363356Y00267109D02*
Y00253237D01*
X00362513Y00252656D01*
X00361356Y00252271D01*
X00360129Y00252980D01*
X00358397Y00253444D01*
X00356604D01*
X00354872Y00252980D01*
X00353319Y00252083D01*
X00352630Y00251394D01*
X00351737Y00250887D01*
X00350013Y00251285D01*
X00349623Y00251675D01*
X00348070Y00252572D01*
X00346338Y00253036D01*
X00344545D01*
X00342813Y00252572D01*
X00341260Y00251675D01*
X00339992Y00250407D01*
X00339095Y00248854D01*
X00338631Y00247122D01*
Y00245562D01*
X00338063Y00245112D01*
X00336753Y00244612D01*
X00334057Y00247308D01*
X00334310Y00248253D01*
Y00250046D01*
X00333846Y00251778D01*
X00332950Y00253331D01*
X00331682Y00254599D01*
X00330129Y00255496D01*
X00328397Y00255960D01*
X00326604D01*
X00324872Y00255496D01*
X00323319Y00254599D01*
X00322051Y00253331D01*
X00321154Y00251778D01*
X00320690Y00250046D01*
Y00248253D01*
X00321154Y00246521D01*
X00322051Y00244968D01*
X00322882Y00244137D01*
X00322941Y00242286D01*
X00322785Y00241699D01*
X00321687Y00240601D01*
X00320818Y00239096D01*
X00320780Y00239045D01*
X00318509Y00238261D01*
X00317994Y00238604D01*
X00316012Y00238998D01*
X00300469D01*
Y00245024D01*
X00284531D01*
X00283489Y00246078D01*
X00281389Y00247481D01*
X00278911Y00247974D01*
X00271399D01*
X00270147Y00248310D01*
X00268354D01*
X00266622Y00247846D01*
X00265069Y00246949D01*
X00263801Y00245681D01*
X00262905Y00244128D01*
X00262440Y00242396D01*
Y00240603D01*
X00262445Y00240585D01*
X00261228Y00238998D01*
X00234791D01*
X00234594Y00240998D01*
X00235121Y00241103D01*
X00236801Y00242226D01*
X00239429Y00244853D01*
X00242194Y00244800D01*
X00243747Y00243904D01*
X00245479Y00243440D01*
X00247272D01*
X00249004Y00243904D01*
X00250557Y00244800D01*
X00251825Y00246068D01*
X00252721Y00247621D01*
X00253185Y00249353D01*
Y00249735D01*
X00254771Y00251320D01*
X00284531D01*
Y00247976D01*
X00300469D01*
Y00248166D01*
X00305862D01*
X00306476Y00248288D01*
X00308246D01*
X00309978Y00248752D01*
X00311531Y00249648D01*
X00312799Y00250916D01*
X00313695Y00252469D01*
X00314160Y00254201D01*
Y00255994D01*
X00314114Y00256166D01*
X00315648Y00258166D01*
X00350203D01*
X00351479Y00258419D01*
X00352560Y00259142D01*
X00361356Y00267938D01*
X00363356Y00267109D01*
D02*
G37*
G36*
X00229940Y00252690D02*
X00229027Y00251068D01*
X00224241D01*
X00223859Y00251450D01*
X00222306Y00252346D01*
X00220574Y00252810D01*
X00218781D01*
X00217049Y00252346D01*
X00215496Y00251450D01*
X00214228Y00250182D01*
X00213332Y00248629D01*
X00212868Y00246897D01*
Y00245103D01*
X00213332Y00243372D01*
X00214228Y00241819D01*
X00215049Y00240998D01*
X00214459Y00239136D01*
X00214359Y00238998D01*
X00147736D01*
X00146971Y00240846D01*
X00170945Y00264820D01*
X00229940D01*
Y00252690D01*
D02*
G37*
G36*
X00260148Y00299473D02*
X00244485Y00283810D01*
X00244104D01*
X00242372Y00283346D01*
X00240819Y00282449D01*
X00239551Y00281181D01*
X00238654Y00279628D01*
X00238190Y00277896D01*
Y00276103D01*
X00237481Y00275179D01*
X00168799D01*
X00166817Y00274785D01*
X00165137Y00273662D01*
X00137554Y00246079D01*
X00047346D01*
X00043930Y00249495D01*
Y00261120D01*
X00120000D01*
X00121982Y00261514D01*
X00123663Y00262637D01*
X00162346Y00301320D01*
X00259383D01*
X00260148Y00299473D01*
D02*
G37*
G36*
X00379571Y00115095D02*
X00380284Y00114953D01*
Y00103751D01*
X00388145D01*
X00396133Y00095764D01*
Y00094676D01*
X00395973Y00094080D01*
Y00092287D01*
X00396437Y00090555D01*
X00397333Y00089003D01*
X00398601Y00087735D01*
X00400154Y00086838D01*
X00401517Y00086473D01*
X00402067Y00085369D01*
X00402246Y00084374D01*
X00400638Y00082765D01*
X00383699D01*
X00360308Y00106156D01*
X00358628Y00107279D01*
X00356646Y00107673D01*
X00354772D01*
X00353526Y00109201D01*
X00354243Y00110925D01*
X00355210D01*
X00356942Y00111389D01*
X00358495Y00112285D01*
X00358765Y00112555D01*
X00362147D01*
X00364129Y00112950D01*
X00365809Y00114072D01*
X00367438Y00115701D01*
X00378665D01*
X00379571Y00115095D01*
D02*
G37*
%LPC*%
G36*
X00635514Y00810919D02*
X00619294D01*
Y00797899D01*
X00635514D01*
Y00810919D01*
D02*
G37*
G36*
X00167006Y00791833D02*
X00165213D01*
X00163481Y00791368D01*
X00161929Y00790472D01*
X00160660Y00789204D01*
X00160012Y00788081D01*
X00148879Y00776948D01*
X00146993Y00777730D01*
X00144673Y00778035D01*
X00136631D01*
Y00780879D01*
X00114025D01*
Y00757257D01*
X00136631D01*
Y00760102D01*
X00140958D01*
X00141657Y00759403D01*
Y00735899D01*
X00139194D01*
Y00713038D01*
X00162054D01*
Y00735899D01*
X00159591D01*
Y00763117D01*
X00159285Y00765438D01*
X00158389Y00767600D01*
X00158153Y00767909D01*
X00168792Y00778548D01*
X00214218D01*
Y00778513D01*
X00230438D01*
Y00791533D01*
X00214218D01*
Y00791497D01*
X00168259D01*
X00167006Y00791833D01*
D02*
G37*
G36*
X00479054Y00780810D02*
X00476866D01*
X00474752Y00780244D01*
X00472857Y00779150D01*
X00471310Y00777602D01*
X00470216Y00775707D01*
X00469650Y00773594D01*
Y00771406D01*
X00470216Y00769292D01*
X00471310Y00767398D01*
X00472857Y00765850D01*
X00474752Y00764756D01*
X00476866Y00764190D01*
X00479054D01*
X00481167Y00764756D01*
X00483062Y00765850D01*
X00484609Y00767398D01*
X00485703Y00769292D01*
X00486270Y00771406D01*
Y00773594D01*
X00485703Y00775707D01*
X00484609Y00777602D01*
X00483062Y00779150D01*
X00481167Y00780244D01*
X00479054Y00780810D01*
D02*
G37*
G36*
X00435054D02*
X00432866D01*
X00430752Y00780244D01*
X00428857Y00779150D01*
X00427310Y00777602D01*
X00426216Y00775707D01*
X00425650Y00773594D01*
Y00771406D01*
X00426216Y00769292D01*
X00427310Y00767398D01*
X00428857Y00765850D01*
X00430752Y00764756D01*
X00432866Y00764190D01*
X00435054D01*
X00437167Y00764756D01*
X00439062Y00765850D01*
X00440610Y00767398D01*
X00441703Y00769292D01*
X00442270Y00771406D01*
Y00773594D01*
X00441703Y00775707D01*
X00440610Y00777602D01*
X00439062Y00779150D01*
X00437167Y00780244D01*
X00435054Y00780810D01*
D02*
G37*
G36*
X00199635Y00769490D02*
X00197842D01*
X00196110Y00769026D01*
X00194557Y00768129D01*
X00193289Y00766861D01*
X00192392Y00765308D01*
X00191928Y00763576D01*
Y00761783D01*
X00192392Y00760051D01*
X00193289Y00758498D01*
X00194557Y00757230D01*
X00196110Y00756334D01*
X00197842Y00755870D01*
X00199635D01*
X00200887Y00756205D01*
X00214218D01*
Y00756170D01*
X00230438D01*
Y00769190D01*
X00214218D01*
Y00769154D01*
X00200887D01*
X00199635Y00769490D01*
D02*
G37*
G36*
X00637705Y00765040D02*
X00614845D01*
Y00742180D01*
X00637705D01*
Y00765040D01*
D02*
G37*
G36*
X00627780Y00739640D02*
X00624770D01*
X00621863Y00738861D01*
X00619257Y00737356D01*
X00617129Y00735228D01*
X00615624Y00732622D01*
X00614845Y00729715D01*
Y00726705D01*
X00615624Y00723798D01*
X00617129Y00721192D01*
X00619257Y00719064D01*
X00621863Y00717559D01*
X00624770Y00716780D01*
X00627780D01*
X00630687Y00717559D01*
X00633293Y00719064D01*
X00635421Y00721192D01*
X00636926Y00723798D01*
X00637705Y00726705D01*
Y00729715D01*
X00636926Y00732622D01*
X00635421Y00735228D01*
X00633293Y00737356D01*
X00630687Y00738861D01*
X00627780Y00739640D01*
D02*
G37*
G36*
X00653332Y00668693D02*
X00651539D01*
X00649807Y00668229D01*
X00648254Y00667332D01*
X00646986Y00666064D01*
X00646090Y00664511D01*
X00645626Y00662779D01*
Y00660986D01*
X00646090Y00659254D01*
X00646986Y00657701D01*
X00648254Y00656433D01*
X00649807Y00655537D01*
X00651539Y00655073D01*
X00653332D01*
X00655064Y00655537D01*
X00656617Y00656433D01*
X00657885Y00657701D01*
X00658782Y00659254D01*
X00659246Y00660986D01*
Y00662779D01*
X00658782Y00664511D01*
X00657885Y00666064D01*
X00656617Y00667332D01*
X00655064Y00668229D01*
X00653332Y00668693D01*
D02*
G37*
G36*
X00262870Y00652914D02*
X00258870D01*
X00256603Y00652463D01*
X00254681Y00651179D01*
X00253397Y00649257D01*
X00252946Y00646990D01*
X00253397Y00644723D01*
X00254681Y00642801D01*
X00256603Y00641517D01*
X00258870Y00641066D01*
X00262870D01*
X00265137Y00641517D01*
X00267059Y00642801D01*
X00268343Y00644723D01*
X00268794Y00646990D01*
X00268343Y00649257D01*
X00267059Y00651179D01*
X00265137Y00652463D01*
X00262870Y00652914D01*
D02*
G37*
G36*
X00091927Y00780879D02*
X00069321D01*
Y00757257D01*
X00071657D01*
Y00742878D01*
X00060814D01*
Y00719258D01*
X00072172D01*
Y00667065D01*
Y00644944D01*
X00068123D01*
Y00613194D01*
X00093125D01*
Y00644944D01*
X00089076D01*
Y00667065D01*
Y00719258D01*
X00100434D01*
Y00742878D01*
X00089591D01*
Y00757257D01*
X00091927D01*
Y00780879D01*
D02*
G37*
G36*
X00623173Y00631830D02*
X00620163D01*
X00617256Y00631051D01*
X00614650Y00629546D01*
X00612522Y00627418D01*
X00611017Y00624812D01*
X00610238Y00621905D01*
Y00618895D01*
X00611017Y00615988D01*
X00612522Y00613382D01*
X00614650Y00611254D01*
X00617256Y00609749D01*
X00620163Y00608970D01*
X00623173D01*
X00626080Y00609749D01*
X00628686Y00611254D01*
X00630814Y00613382D01*
X00632319Y00615988D01*
X00633098Y00618895D01*
Y00621905D01*
X00632319Y00624812D01*
X00630814Y00627418D01*
X00628686Y00629546D01*
X00626080Y00631051D01*
X00623173Y00631830D01*
D02*
G37*
G36*
X00657787Y00613438D02*
X00655994D01*
X00654262Y00612974D01*
X00652709Y00612077D01*
X00651441Y00610809D01*
X00650545Y00609256D01*
X00650081Y00607524D01*
Y00605731D01*
X00650545Y00603999D01*
X00651441Y00602446D01*
X00652709Y00601178D01*
X00654262Y00600282D01*
X00655994Y00599818D01*
X00657787D01*
X00659519Y00600282D01*
X00661072Y00601178D01*
X00662340Y00602446D01*
X00663236Y00603999D01*
X00663701Y00605731D01*
Y00607524D01*
X00663236Y00609256D01*
X00662340Y00610809D01*
X00661072Y00612077D01*
X00659519Y00612974D01*
X00657787Y00613438D01*
D02*
G37*
G36*
X00112006Y00678876D02*
X00095242D01*
Y00667599D01*
X00095172Y00667065D01*
Y00634793D01*
X00095172Y00634793D01*
X00095172Y00634793D01*
Y00634793D01*
X00095249Y00634207D01*
X00095460Y00632606D01*
X00095460Y00632605D01*
X00095460Y00632605D01*
X00095760Y00631881D01*
X00096304Y00630567D01*
X00096304Y00630567D01*
X00096304Y00630567D01*
X00097116Y00629508D01*
X00097647Y00628816D01*
X00097647Y00628816D01*
X00097648Y00628816D01*
X00102504Y00623960D01*
Y00607849D01*
X00102168Y00606596D01*
Y00604803D01*
X00102632Y00603071D01*
X00103529Y00601518D01*
X00104797Y00600250D01*
X00106349Y00599354D01*
X00108082Y00598890D01*
X00109875D01*
X00111607Y00599354D01*
X00113160Y00600250D01*
X00114427Y00601518D01*
X00115324Y00603071D01*
X00115788Y00604803D01*
Y00606596D01*
X00115452Y00607849D01*
Y00613194D01*
X00135735D01*
Y00644944D01*
X00112077D01*
Y00667065D01*
X00112006Y00667599D01*
Y00678876D01*
D02*
G37*
G36*
X00623173Y00606430D02*
X00620163D01*
X00617256Y00605651D01*
X00614650Y00604146D01*
X00612522Y00602018D01*
X00611017Y00599412D01*
X00610238Y00596505D01*
Y00593495D01*
X00611017Y00590588D01*
X00612522Y00587982D01*
X00614650Y00585854D01*
X00617256Y00584349D01*
X00620163Y00583570D01*
X00623173D01*
X00626080Y00584349D01*
X00628686Y00585854D01*
X00630814Y00587982D01*
X00632319Y00590588D01*
X00633098Y00593495D01*
Y00596505D01*
X00632319Y00599412D01*
X00630814Y00602018D01*
X00628686Y00604146D01*
X00626080Y00605651D01*
X00623173Y00606430D01*
D02*
G37*
G36*
X00633098Y00581030D02*
X00610238D01*
Y00558170D01*
X00633098D01*
Y00581030D01*
D02*
G37*
G36*
X00668166Y00559873D02*
X00666372D01*
X00664640Y00559409D01*
X00663087Y00558513D01*
X00661820Y00557245D01*
X00660923Y00555692D01*
X00660459Y00553960D01*
Y00552167D01*
X00660923Y00550435D01*
X00661820Y00548882D01*
X00663087Y00547614D01*
X00664640Y00546717D01*
X00666372Y00546253D01*
X00668166D01*
X00669898Y00546717D01*
X00671450Y00547614D01*
X00672718Y00548882D01*
X00673615Y00550435D01*
X00674079Y00552167D01*
Y00553960D01*
X00673615Y00555692D01*
X00672718Y00557245D01*
X00671450Y00558513D01*
X00669898Y00559409D01*
X00668166Y00559873D01*
D02*
G37*
G36*
X00669005Y00519030D02*
X00665995D01*
X00663088Y00518251D01*
X00660482Y00516746D01*
X00658354Y00514618D01*
X00656849Y00512012D01*
X00656070Y00509105D01*
Y00506095D01*
X00656849Y00503188D01*
X00658354Y00500582D01*
X00660482Y00498453D01*
X00663088Y00496949D01*
X00665995Y00496170D01*
X00669005D01*
X00671912Y00496949D01*
X00674518Y00498453D01*
X00676646Y00500582D01*
X00678151Y00503188D01*
X00678930Y00506095D01*
Y00509105D01*
X00678151Y00512012D01*
X00676646Y00514618D01*
X00674518Y00516746D01*
X00671912Y00518251D01*
X00669005Y00519030D01*
D02*
G37*
G36*
X00653530D02*
X00630670D01*
Y00496170D01*
X00653530D01*
Y00519030D01*
D02*
G37*
G36*
X00669005Y00493630D02*
X00665995D01*
X00663088Y00492851D01*
X00660482Y00491346D01*
X00658354Y00489218D01*
X00656849Y00486612D01*
X00656070Y00483705D01*
Y00480695D01*
X00656849Y00477788D01*
X00658354Y00475182D01*
X00660482Y00473054D01*
X00663088Y00471549D01*
X00665995Y00470770D01*
X00669005D01*
X00671912Y00471549D01*
X00674518Y00473054D01*
X00676646Y00475182D01*
X00678151Y00477788D01*
X00678930Y00480695D01*
Y00483705D01*
X00678151Y00486612D01*
X00676646Y00489218D01*
X00674518Y00491346D01*
X00671912Y00492851D01*
X00669005Y00493630D01*
D02*
G37*
G36*
Y00468230D02*
X00665995D01*
X00663088Y00467451D01*
X00660482Y00465946D01*
X00658354Y00463818D01*
X00656849Y00461212D01*
X00656070Y00458305D01*
Y00455295D01*
X00656849Y00452388D01*
X00658354Y00449782D01*
X00660482Y00447654D01*
X00663088Y00446149D01*
X00665995Y00445370D01*
X00669005D01*
X00671912Y00446149D01*
X00674518Y00447654D01*
X00676646Y00449782D01*
X00678151Y00452388D01*
X00678930Y00455295D01*
Y00458305D01*
X00678151Y00461212D01*
X00676646Y00463818D01*
X00674518Y00465946D01*
X00671912Y00467451D01*
X00669005Y00468230D01*
D02*
G37*
G36*
Y00442830D02*
X00665995D01*
X00663088Y00442051D01*
X00660482Y00440546D01*
X00658354Y00438418D01*
X00656849Y00435812D01*
X00656070Y00432905D01*
Y00429895D01*
X00656849Y00426988D01*
X00658354Y00424382D01*
X00660482Y00422253D01*
X00663088Y00420749D01*
X00665995Y00419970D01*
X00669005D01*
X00671912Y00420749D01*
X00674518Y00422253D01*
X00676646Y00424382D01*
X00678151Y00426988D01*
X00678930Y00429895D01*
Y00432905D01*
X00678151Y00435812D01*
X00676646Y00438418D01*
X00674518Y00440546D01*
X00671912Y00442051D01*
X00669005Y00442830D01*
D02*
G37*
G36*
Y00417430D02*
X00665995D01*
X00663088Y00416651D01*
X00660482Y00415146D01*
X00658354Y00413018D01*
X00656849Y00410412D01*
X00656070Y00407505D01*
Y00404495D01*
X00656849Y00401588D01*
X00658354Y00398982D01*
X00660482Y00396853D01*
X00663088Y00395349D01*
X00665995Y00394570D01*
X00669005D01*
X00671912Y00395349D01*
X00674518Y00396853D01*
X00676646Y00398982D01*
X00678151Y00401588D01*
X00678930Y00404495D01*
Y00407505D01*
X00678151Y00410412D01*
X00676646Y00413018D01*
X00674518Y00415146D01*
X00671912Y00416651D01*
X00669005Y00417430D01*
D02*
G37*
G36*
Y00341230D02*
X00665995D01*
X00663088Y00340451D01*
X00660482Y00338946D01*
X00658354Y00336818D01*
X00656849Y00334212D01*
X00656070Y00331305D01*
Y00328295D01*
X00656849Y00325388D01*
X00658354Y00322782D01*
X00660482Y00320653D01*
X00663088Y00319149D01*
X00665995Y00318370D01*
X00669005D01*
X00671912Y00319149D01*
X00674518Y00320653D01*
X00676646Y00322782D01*
X00678151Y00325388D01*
X00678930Y00328295D01*
Y00331305D01*
X00678151Y00334212D01*
X00676646Y00336818D01*
X00674518Y00338946D01*
X00671912Y00340451D01*
X00669005Y00341230D01*
D02*
G37*
G36*
X00592805Y00356430D02*
X00589795D01*
X00586888Y00355651D01*
X00584282Y00354146D01*
X00582154Y00352018D01*
X00580649Y00349412D01*
X00579870Y00346505D01*
Y00343495D01*
X00580649Y00340588D01*
X00582154Y00337982D01*
X00584282Y00335854D01*
X00586888Y00334349D01*
X00589795Y00333570D01*
X00592805D01*
X00595712Y00334349D01*
X00598318Y00335854D01*
X00600446Y00337982D01*
X00601508Y00339821D01*
X00604697D01*
X00618381Y00326137D01*
X00620061Y00325014D01*
X00622043Y00324620D01*
X00630670D01*
Y00318370D01*
X00653530D01*
Y00341230D01*
X00630670D01*
Y00334979D01*
X00624189D01*
X00610505Y00348663D01*
X00608825Y00349785D01*
X00606843Y00350180D01*
X00601508D01*
X00600446Y00352018D01*
X00598318Y00354146D01*
X00595712Y00355651D01*
X00592805Y00356430D01*
D02*
G37*
G36*
X00669005Y00315830D02*
X00665995D01*
X00663088Y00315051D01*
X00660482Y00313546D01*
X00658354Y00311418D01*
X00656849Y00308812D01*
X00656070Y00305905D01*
Y00302895D01*
X00656849Y00299988D01*
X00658354Y00297382D01*
X00660482Y00295254D01*
X00663088Y00293749D01*
X00665995Y00292970D01*
X00669005D01*
X00671912Y00293749D01*
X00674518Y00295254D01*
X00676646Y00297382D01*
X00678151Y00299988D01*
X00678930Y00302895D01*
Y00305905D01*
X00678151Y00308812D01*
X00676646Y00311418D01*
X00674518Y00313546D01*
X00671912Y00315051D01*
X00669005Y00315830D01*
D02*
G37*
G36*
X00592805Y00331030D02*
X00589795D01*
X00586888Y00330251D01*
X00584282Y00328746D01*
X00582154Y00326618D01*
X00580649Y00324012D01*
X00579870Y00321105D01*
Y00318095D01*
X00580649Y00315188D01*
X00582154Y00312582D01*
X00584282Y00310454D01*
X00586888Y00308949D01*
X00589795Y00308170D01*
X00592805D01*
X00595712Y00308949D01*
X00598318Y00310454D01*
X00600446Y00312582D01*
X00601508Y00314421D01*
X00604697D01*
X00618381Y00300737D01*
X00620061Y00299615D01*
X00622043Y00299220D01*
X00630670D01*
Y00292970D01*
X00653530D01*
Y00315830D01*
X00630670D01*
Y00309579D01*
X00624189D01*
X00610505Y00323263D01*
X00608825Y00324385D01*
X00606843Y00324780D01*
X00601508D01*
X00600446Y00326618D01*
X00598318Y00328746D01*
X00595712Y00330251D01*
X00592805Y00331030D01*
D02*
G37*
G36*
Y00305630D02*
X00589795D01*
X00586888Y00304851D01*
X00584282Y00303346D01*
X00582154Y00301218D01*
X00580649Y00298612D01*
X00579870Y00295705D01*
Y00292695D01*
X00580649Y00289788D01*
X00582154Y00287182D01*
X00584282Y00285054D01*
X00586888Y00283549D01*
X00589795Y00282770D01*
X00592805D01*
X00595712Y00283549D01*
X00598318Y00285054D01*
X00600446Y00287182D01*
X00601508Y00289021D01*
X00604697D01*
X00618381Y00275337D01*
X00620061Y00274214D01*
X00622043Y00273820D01*
X00630670D01*
Y00267570D01*
X00653530D01*
Y00290430D01*
X00630670D01*
Y00284179D01*
X00624189D01*
X00610505Y00297863D01*
X00608825Y00298985D01*
X00606843Y00299380D01*
X00601508D01*
X00600446Y00301218D01*
X00598318Y00303346D01*
X00595712Y00304851D01*
X00592805Y00305630D01*
D02*
G37*
G36*
X00669005Y00265030D02*
X00665995D01*
X00663088Y00264251D01*
X00660482Y00262746D01*
X00658354Y00260618D01*
X00656849Y00258012D01*
X00656070Y00255105D01*
Y00252095D01*
X00656849Y00249188D01*
X00658354Y00246582D01*
X00660482Y00244454D01*
X00663088Y00242949D01*
X00665995Y00242170D01*
X00669005D01*
X00671912Y00242949D01*
X00674518Y00244454D01*
X00676646Y00246582D01*
X00678151Y00249188D01*
X00678930Y00252095D01*
Y00255105D01*
X00678151Y00258012D01*
X00676646Y00260618D01*
X00674518Y00262746D01*
X00671912Y00264251D01*
X00669005Y00265030D01*
D02*
G37*
G36*
X00592805Y00280230D02*
X00589795D01*
X00586888Y00279451D01*
X00584282Y00277946D01*
X00582154Y00275818D01*
X00580649Y00273212D01*
X00579870Y00270305D01*
Y00267295D01*
X00580649Y00264388D01*
X00582154Y00261782D01*
X00584282Y00259654D01*
X00586888Y00258149D01*
X00589795Y00257370D01*
X00592805D01*
X00595712Y00258149D01*
X00598318Y00259654D01*
X00600446Y00261782D01*
X00601508Y00263621D01*
X00604697D01*
X00618381Y00249937D01*
X00620061Y00248815D01*
X00622043Y00248420D01*
X00630670D01*
Y00242170D01*
X00653530D01*
Y00265030D01*
X00630670D01*
Y00258779D01*
X00624189D01*
X00610505Y00272463D01*
X00608825Y00273585D01*
X00606843Y00273980D01*
X00601508D01*
X00600446Y00275818D01*
X00598318Y00277946D01*
X00595712Y00279451D01*
X00592805Y00280230D01*
D02*
G37*
G36*
X00653530Y00239630D02*
X00630670D01*
Y00233379D01*
X00602730D01*
Y00239630D01*
X00579870D01*
Y00216770D01*
X00602730D01*
Y00223020D01*
X00630670D01*
Y00216770D01*
X00653530D01*
Y00239630D01*
D02*
G37*
G36*
X00669005D02*
X00665995D01*
X00663088Y00238851D01*
X00660482Y00237346D01*
X00658354Y00235218D01*
X00656849Y00232612D01*
X00656070Y00229705D01*
Y00226695D01*
X00656849Y00223788D01*
X00658354Y00221182D01*
X00660482Y00219053D01*
X00663088Y00217549D01*
X00665995Y00216770D01*
X00669005D01*
X00671912Y00217549D01*
X00674518Y00219053D01*
X00676646Y00221182D01*
X00678151Y00223788D01*
X00678930Y00226695D01*
Y00229705D01*
X00678151Y00232612D01*
X00676646Y00235218D01*
X00674518Y00237346D01*
X00671912Y00238851D01*
X00669005Y00239630D01*
D02*
G37*
G36*
X00653530Y00214230D02*
X00630670D01*
Y00207979D01*
X00601508D01*
X00600446Y00209818D01*
X00598318Y00211946D01*
X00595712Y00213451D01*
X00592805Y00214230D01*
X00589795D01*
X00586888Y00213451D01*
X00584282Y00211946D01*
X00582154Y00209818D01*
X00580649Y00207212D01*
X00579870Y00204305D01*
Y00201295D01*
X00580649Y00198388D01*
X00582154Y00195782D01*
X00584282Y00193654D01*
X00586888Y00192149D01*
X00589795Y00191370D01*
X00592805D01*
X00595712Y00192149D01*
X00598318Y00193654D01*
X00600446Y00195782D01*
X00601508Y00197620D01*
X00630670D01*
Y00191370D01*
X00653530D01*
Y00214230D01*
D02*
G37*
G36*
X00669005D02*
X00665995D01*
X00663088Y00213451D01*
X00660482Y00211946D01*
X00658354Y00209818D01*
X00656849Y00207212D01*
X00656070Y00204305D01*
Y00201295D01*
X00656849Y00198388D01*
X00658354Y00195782D01*
X00660482Y00193654D01*
X00663088Y00192149D01*
X00665995Y00191370D01*
X00669005D01*
X00671912Y00192149D01*
X00674518Y00193654D01*
X00676646Y00195782D01*
X00678151Y00198388D01*
X00678930Y00201295D01*
Y00204305D01*
X00678151Y00207212D01*
X00676646Y00209818D01*
X00674518Y00211946D01*
X00671912Y00213451D01*
X00669005Y00214230D01*
D02*
G37*
G36*
X00653530Y00188830D02*
X00630670D01*
Y00182579D01*
X00601508D01*
X00600446Y00184418D01*
X00598318Y00186546D01*
X00595712Y00188051D01*
X00592805Y00188830D01*
X00589795D01*
X00586888Y00188051D01*
X00584282Y00186546D01*
X00582154Y00184418D01*
X00580649Y00181812D01*
X00579870Y00178905D01*
Y00175895D01*
X00580649Y00172988D01*
X00582154Y00170382D01*
X00584282Y00168253D01*
X00586888Y00166749D01*
X00589795Y00165970D01*
X00592805D01*
X00595712Y00166749D01*
X00598318Y00168253D01*
X00600446Y00170382D01*
X00601508Y00172220D01*
X00630670D01*
Y00165970D01*
X00653530D01*
Y00188830D01*
D02*
G37*
G36*
X00120130D02*
X00097270D01*
Y00182579D01*
X00068108D01*
X00067046Y00184418D01*
X00064918Y00186546D01*
X00062312Y00188051D01*
X00059405Y00188830D01*
X00056395D01*
X00053488Y00188051D01*
X00050882Y00186546D01*
X00048754Y00184418D01*
X00047249Y00181812D01*
X00046470Y00178905D01*
Y00175895D01*
X00047249Y00172988D01*
X00048754Y00170382D01*
X00050882Y00168253D01*
X00053488Y00166749D01*
X00056395Y00165970D01*
X00059405D01*
X00062312Y00166749D01*
X00064918Y00168253D01*
X00067046Y00170382D01*
X00068108Y00172220D01*
X00097270D01*
Y00165970D01*
X00120130D01*
Y00188830D01*
D02*
G37*
G36*
X00669005D02*
X00665995D01*
X00663088Y00188051D01*
X00660482Y00186546D01*
X00658354Y00184418D01*
X00656849Y00181812D01*
X00656070Y00178905D01*
Y00175895D01*
X00656849Y00172988D01*
X00658354Y00170382D01*
X00660482Y00168253D01*
X00663088Y00166749D01*
X00665995Y00165970D01*
X00669005D01*
X00671912Y00166749D01*
X00674518Y00168253D01*
X00676646Y00170382D01*
X00678151Y00172988D01*
X00678930Y00175895D01*
Y00178905D01*
X00678151Y00181812D01*
X00676646Y00184418D01*
X00674518Y00186546D01*
X00671912Y00188051D01*
X00669005Y00188830D01*
D02*
G37*
G36*
X00043930D02*
X00021070D01*
Y00165970D01*
X00043930D01*
Y00188830D01*
D02*
G37*
G36*
X00653530Y00163430D02*
X00630670D01*
Y00157179D01*
X00601508D01*
X00600446Y00159018D01*
X00598318Y00161146D01*
X00595712Y00162651D01*
X00592805Y00163430D01*
X00589795D01*
X00586888Y00162651D01*
X00584282Y00161146D01*
X00582154Y00159018D01*
X00580649Y00156412D01*
X00579870Y00153505D01*
Y00150495D01*
X00580649Y00147588D01*
X00582154Y00144982D01*
X00584282Y00142853D01*
X00586888Y00141349D01*
X00589795Y00140570D01*
X00592805D01*
X00595712Y00141349D01*
X00598318Y00142853D01*
X00600446Y00144982D01*
X00601508Y00146820D01*
X00630670D01*
Y00140570D01*
X00653530D01*
Y00163430D01*
D02*
G37*
G36*
X00110205D02*
X00107195D01*
X00104288Y00162651D01*
X00101682Y00161146D01*
X00099554Y00159018D01*
X00098492Y00157179D01*
X00068108D01*
X00067046Y00159018D01*
X00064918Y00161146D01*
X00062312Y00162651D01*
X00059405Y00163430D01*
X00056395D01*
X00053488Y00162651D01*
X00050882Y00161146D01*
X00048754Y00159018D01*
X00047249Y00156412D01*
X00046470Y00153505D01*
Y00150495D01*
X00047249Y00147588D01*
X00048754Y00144982D01*
X00050882Y00142853D01*
X00053488Y00141349D01*
X00056395Y00140570D01*
X00059405D01*
X00062312Y00141349D01*
X00064918Y00142853D01*
X00067046Y00144982D01*
X00068108Y00146820D01*
X00098492D01*
X00099554Y00144982D01*
X00101682Y00142853D01*
X00104288Y00141349D01*
X00107195Y00140570D01*
X00110205D01*
X00113112Y00141349D01*
X00115718Y00142853D01*
X00117846Y00144982D01*
X00119351Y00147588D01*
X00120130Y00150495D01*
Y00153505D01*
X00119351Y00156412D01*
X00117846Y00159018D01*
X00115718Y00161146D01*
X00113112Y00162651D01*
X00110205Y00163430D01*
D02*
G37*
G36*
X00669005D02*
X00665995D01*
X00663088Y00162651D01*
X00660482Y00161146D01*
X00658354Y00159018D01*
X00656849Y00156412D01*
X00656070Y00153505D01*
Y00150495D01*
X00656849Y00147588D01*
X00658354Y00144982D01*
X00660482Y00142853D01*
X00663088Y00141349D01*
X00665995Y00140570D01*
X00669005D01*
X00671912Y00141349D01*
X00674518Y00142853D01*
X00676646Y00144982D01*
X00678151Y00147588D01*
X00678930Y00150495D01*
Y00153505D01*
X00678151Y00156412D01*
X00676646Y00159018D01*
X00674518Y00161146D01*
X00671912Y00162651D01*
X00669005Y00163430D01*
D02*
G37*
G36*
X00043930D02*
X00021070D01*
Y00140570D01*
X00043930D01*
Y00163430D01*
D02*
G37*
G36*
X00110205Y00138030D02*
X00107195D01*
X00104288Y00137251D01*
X00101682Y00135746D01*
X00099554Y00133618D01*
X00098492Y00131779D01*
X00068108D01*
X00067046Y00133618D01*
X00064918Y00135746D01*
X00062312Y00137251D01*
X00059405Y00138030D01*
X00056395D01*
X00053488Y00137251D01*
X00050882Y00135746D01*
X00048754Y00133618D01*
X00047249Y00131012D01*
X00046470Y00128105D01*
Y00125095D01*
X00047249Y00122188D01*
X00048754Y00119582D01*
X00050882Y00117453D01*
X00053488Y00115949D01*
X00056395Y00115170D01*
X00059405D01*
X00062312Y00115949D01*
X00064918Y00117453D01*
X00067046Y00119582D01*
X00068108Y00121420D01*
X00098492D01*
X00099554Y00119582D01*
X00101682Y00117453D01*
X00104288Y00115949D01*
X00107195Y00115170D01*
X00110205D01*
X00113112Y00115949D01*
X00115718Y00117453D01*
X00117846Y00119582D01*
X00119351Y00122188D01*
X00120130Y00125095D01*
Y00128105D01*
X00119351Y00131012D01*
X00117846Y00133618D01*
X00115718Y00135746D01*
X00113112Y00137251D01*
X00110205Y00138030D01*
D02*
G37*
G36*
X00669005D02*
X00665995D01*
X00663088Y00137251D01*
X00660482Y00135746D01*
X00658354Y00133618D01*
X00656849Y00131012D01*
X00656070Y00128105D01*
Y00125095D01*
X00656849Y00122188D01*
X00658354Y00119582D01*
X00660482Y00117453D01*
X00663088Y00115949D01*
X00665995Y00115170D01*
X00669005D01*
X00671912Y00115949D01*
X00674518Y00117453D01*
X00676646Y00119582D01*
X00678151Y00122188D01*
X00678930Y00125095D01*
Y00128105D01*
X00678151Y00131012D01*
X00676646Y00133618D01*
X00674518Y00135746D01*
X00671912Y00137251D01*
X00669005Y00138030D01*
D02*
G37*
G36*
X00043930D02*
X00021070D01*
Y00115170D01*
X00043930D01*
Y00138030D01*
D02*
G37*
G36*
X00110205Y00112630D02*
X00107195D01*
X00104288Y00111851D01*
X00101682Y00110346D01*
X00099554Y00108218D01*
X00098049Y00105612D01*
X00097270Y00102705D01*
Y00099695D01*
X00098049Y00096788D01*
X00099554Y00094182D01*
X00101682Y00092053D01*
X00104288Y00090549D01*
X00107195Y00089770D01*
X00110205D01*
X00113112Y00090549D01*
X00115718Y00092053D01*
X00117846Y00094182D01*
X00119351Y00096788D01*
X00120130Y00099695D01*
Y00102705D01*
X00119351Y00105612D01*
X00117846Y00108218D01*
X00115718Y00110346D01*
X00113112Y00111851D01*
X00110205Y00112630D01*
D02*
G37*
G36*
X00059405D02*
X00056395D01*
X00053488Y00111851D01*
X00050882Y00110346D01*
X00048754Y00108218D01*
X00047249Y00105612D01*
X00046470Y00102705D01*
Y00099695D01*
X00047249Y00096788D01*
X00048754Y00094182D01*
X00050882Y00092053D01*
X00053488Y00090549D01*
X00056395Y00089770D01*
X00059405D01*
X00062312Y00090549D01*
X00064918Y00092053D01*
X00067046Y00094182D01*
X00068551Y00096788D01*
X00069330Y00099695D01*
Y00102705D01*
X00068551Y00105612D01*
X00067046Y00108218D01*
X00064918Y00110346D01*
X00062312Y00111851D01*
X00059405Y00112630D01*
D02*
G37*
G36*
X00043930D02*
X00021070D01*
Y00089770D01*
X00043930D01*
Y00112630D01*
D02*
G37*
G36*
X00653530Y00087230D02*
X00630670D01*
Y00080979D01*
X00601508D01*
X00600446Y00082818D01*
X00598318Y00084946D01*
X00595712Y00086451D01*
X00592805Y00087230D01*
X00589795D01*
X00586888Y00086451D01*
X00584282Y00084946D01*
X00582154Y00082818D01*
X00580649Y00080212D01*
X00579870Y00077305D01*
Y00074295D01*
X00580649Y00071388D01*
X00582154Y00068782D01*
X00584282Y00066653D01*
X00586888Y00065149D01*
X00589795Y00064370D01*
X00592805D01*
X00595712Y00065149D01*
X00598318Y00066653D01*
X00600446Y00068782D01*
X00601508Y00070620D01*
X00630670D01*
Y00064370D01*
X00653530D01*
Y00087230D01*
D02*
G37*
G36*
X00110205D02*
X00107195D01*
X00104288Y00086451D01*
X00101682Y00084946D01*
X00099554Y00082818D01*
X00098049Y00080212D01*
X00097270Y00077305D01*
Y00074295D01*
X00098049Y00071388D01*
X00099554Y00068782D01*
X00101682Y00066653D01*
X00104288Y00065149D01*
X00107195Y00064370D01*
X00110205D01*
X00113112Y00065149D01*
X00115718Y00066653D01*
X00117846Y00068782D01*
X00119351Y00071388D01*
X00120130Y00074295D01*
Y00077305D01*
X00119351Y00080212D01*
X00117846Y00082818D01*
X00115718Y00084946D01*
X00113112Y00086451D01*
X00110205Y00087230D01*
D02*
G37*
G36*
X00059405D02*
X00056395D01*
X00053488Y00086451D01*
X00050882Y00084946D01*
X00048754Y00082818D01*
X00047249Y00080212D01*
X00046470Y00077305D01*
Y00074295D01*
X00047249Y00071388D01*
X00048754Y00068782D01*
X00050882Y00066653D01*
X00053488Y00065149D01*
X00056395Y00064370D01*
X00059405D01*
X00062312Y00065149D01*
X00064918Y00066653D01*
X00067046Y00068782D01*
X00068551Y00071388D01*
X00069330Y00074295D01*
Y00077305D01*
X00068551Y00080212D01*
X00067046Y00082818D01*
X00064918Y00084946D01*
X00062312Y00086451D01*
X00059405Y00087230D01*
D02*
G37*
G36*
X00043930D02*
X00021070D01*
Y00064370D01*
X00043930D01*
Y00087230D01*
D02*
G37*
G36*
X00653530Y00061830D02*
X00630670D01*
Y00055579D01*
X00601508D01*
X00600446Y00057418D01*
X00598318Y00059546D01*
X00595712Y00061051D01*
X00592805Y00061830D01*
X00589795D01*
X00586888Y00061051D01*
X00584282Y00059546D01*
X00582154Y00057418D01*
X00580649Y00054812D01*
X00579870Y00051905D01*
Y00048895D01*
X00580649Y00045988D01*
X00582154Y00043382D01*
X00584282Y00041253D01*
X00586888Y00039749D01*
X00589795Y00038970D01*
X00592805D01*
X00595712Y00039749D01*
X00598318Y00041253D01*
X00600446Y00043382D01*
X00601508Y00045220D01*
X00630670D01*
Y00038970D01*
X00653530D01*
Y00061830D01*
D02*
G37*
G36*
X00110205D02*
X00107195D01*
X00104288Y00061051D01*
X00101682Y00059546D01*
X00099554Y00057418D01*
X00098049Y00054812D01*
X00097270Y00051905D01*
Y00048895D01*
X00098049Y00045988D01*
X00099554Y00043382D01*
X00101682Y00041253D01*
X00104288Y00039749D01*
X00107195Y00038970D01*
X00110205D01*
X00113112Y00039749D01*
X00115718Y00041253D01*
X00117846Y00043382D01*
X00119351Y00045988D01*
X00120130Y00048895D01*
Y00051905D01*
X00119351Y00054812D01*
X00117846Y00057418D01*
X00115718Y00059546D01*
X00113112Y00061051D01*
X00110205Y00061830D01*
D02*
G37*
G36*
X00059405D02*
X00056395D01*
X00053488Y00061051D01*
X00050882Y00059546D01*
X00048754Y00057418D01*
X00047249Y00054812D01*
X00046470Y00051905D01*
Y00048895D01*
X00047249Y00045988D01*
X00048754Y00043382D01*
X00050882Y00041253D01*
X00053488Y00039749D01*
X00056395Y00038970D01*
X00059405D01*
X00062312Y00039749D01*
X00064918Y00041253D01*
X00067046Y00043382D01*
X00068551Y00045988D01*
X00069330Y00048895D01*
Y00051905D01*
X00068551Y00054812D01*
X00067046Y00057418D01*
X00064918Y00059546D01*
X00062312Y00061051D01*
X00059405Y00061830D01*
D02*
G37*
G36*
X00043930D02*
X00021070D01*
Y00038970D01*
X00043930D01*
Y00061830D01*
D02*
G37*
G36*
X00349310Y00046238D02*
X00322690D01*
Y00025618D01*
X00349310D01*
Y00046238D01*
D02*
G37*
G36*
X00317310D02*
X00290690D01*
Y00025618D01*
X00317310D01*
Y00046238D01*
D02*
G37*
G36*
X00520428Y00621024D02*
X00504490D01*
Y00608976D01*
X00520428D01*
Y00613976D01*
Y00621024D01*
D02*
G37*
G36*
X00110651Y00565510D02*
X00106749D01*
X00102922Y00564748D01*
X00099317Y00563255D01*
X00096072Y00561087D01*
X00093313Y00558328D01*
X00091145Y00555083D01*
X00089651Y00551478D01*
X00088890Y00547651D01*
Y00543749D01*
X00089651Y00539921D01*
X00091145Y00536316D01*
X00093313Y00533072D01*
X00096072Y00530312D01*
X00099317Y00528144D01*
X00102922Y00526651D01*
X00106749Y00525890D01*
X00110651D01*
X00114479Y00526651D01*
X00118084Y00528144D01*
X00121328Y00530312D01*
X00124088Y00533072D01*
X00126256Y00536316D01*
X00127749Y00539921D01*
X00128510Y00543749D01*
Y00547651D01*
X00127749Y00551478D01*
X00126256Y00555083D01*
X00124088Y00558328D01*
X00121328Y00561087D01*
X00118084Y00563255D01*
X00114479Y00564748D01*
X00110651Y00565510D01*
D02*
G37*
G36*
X00059405Y00519030D02*
X00056395D01*
X00053488Y00518251D01*
X00050882Y00516746D01*
X00048754Y00514618D01*
X00047249Y00512012D01*
X00046470Y00509105D01*
Y00506095D01*
X00047249Y00503188D01*
X00048754Y00500582D01*
X00050882Y00498453D01*
X00053488Y00496949D01*
X00056395Y00496170D01*
X00059405D01*
X00062312Y00496949D01*
X00064918Y00498453D01*
X00067046Y00500582D01*
X00068551Y00503188D01*
X00069330Y00506095D01*
Y00509105D01*
X00068551Y00512012D01*
X00067046Y00514618D01*
X00064918Y00516746D01*
X00062312Y00518251D01*
X00059405Y00519030D01*
D02*
G37*
G36*
Y00493630D02*
X00056395D01*
X00053488Y00492851D01*
X00050882Y00491346D01*
X00048754Y00489218D01*
X00047249Y00486612D01*
X00046470Y00483705D01*
Y00480695D01*
X00047249Y00477788D01*
X00048754Y00475182D01*
X00050882Y00473054D01*
X00053488Y00471549D01*
X00056395Y00470770D01*
X00059405D01*
X00062312Y00471549D01*
X00064918Y00473054D01*
X00067046Y00475182D01*
X00068551Y00477788D01*
X00069330Y00480695D01*
Y00483705D01*
X00068551Y00486612D01*
X00067046Y00489218D01*
X00064918Y00491346D01*
X00062312Y00492851D01*
X00059405Y00493630D01*
D02*
G37*
%LPD*%
D13*
X00263846Y00677859D02*
X00286808D01*
X00260870Y00668127D02*
Y00674884D01*
X00263846Y00677859D01*
X00286808D02*
X00290370Y00674297D01*
Y00668300D02*
Y00674297D01*
X00250168Y00665985D02*
X00257240D01*
X00293132Y00513890D02*
X00298632Y00508390D01*
X00406379Y00572500D02*
X00413870D01*
X00526048Y00627500D02*
X00535710D01*
X00431731Y00336285D02*
Y00336324D01*
X00421089Y00325644D02*
X00431731Y00336285D01*
X00491173Y00542427D02*
X00495643Y00537957D01*
X00431731Y00336324D02*
X00440261D01*
X00440437Y00336500D01*
X00389174Y00111880D02*
X00402607Y00098446D01*
Y00093360D02*
Y00098446D01*
X00388793Y00111880D02*
X00389174D01*
X00402607Y00093360D02*
X00402783Y00093184D01*
X00247782Y00500000D02*
X00313493Y00434290D01*
X00247782Y00500000D02*
Y00556128D01*
X00268425Y00576770D01*
X00313493Y00434290D02*
X00383297D01*
X00464758Y00443297D02*
X00465132Y00442923D01*
X00464758Y00443297D02*
Y00536995D01*
X00465132Y00442923D02*
X00477460D01*
X00437746Y00159819D02*
X00447124Y00169198D01*
Y00191278D01*
X00405562Y00159819D02*
X00437746D01*
X00388793Y00143049D02*
X00405562Y00159819D01*
X00108734Y00444176D02*
X00143785Y00409126D01*
X00045124Y00444176D02*
X00108734D01*
X00032500Y00456800D02*
X00045124Y00444176D01*
X00143785Y00409126D02*
X00156119D01*
X00471960Y00737580D02*
X00481158Y00728381D01*
X00481916D01*
X00471960Y00737580D02*
Y00746500D01*
X00481916Y00728381D02*
X00482092Y00728205D01*
X00311250Y00485679D02*
X00358146D01*
X00369020Y00474805D01*
X00431175D01*
Y00451000D02*
Y00474805D01*
Y00451000D02*
X00452267Y00429909D01*
X00477460D01*
X00191293Y00609393D02*
Y00619821D01*
X00198740Y00601821D02*
Y00601946D01*
X00191293Y00609393D02*
X00198740Y00601946D01*
X00108978Y00605700D02*
Y00629439D01*
X00109348Y00629069D01*
X00277062Y00118481D02*
Y00134060D01*
X00293501Y00164092D02*
Y00175868D01*
Y00149060D02*
Y00164092D01*
X00292751Y00163342D02*
X00293501Y00164092D01*
X00281499Y00163342D02*
X00292751D01*
X00509931Y00429909D02*
X00514110Y00434088D01*
Y00444170D01*
X00477460Y00429909D02*
X00509931D01*
X00298632Y00508390D02*
X00328787D01*
X00310624Y00665989D02*
X00330624D01*
X00276159Y00771656D02*
X00297044D01*
X00269002Y00778812D02*
Y00787879D01*
X00268853Y00788028D02*
X00269002Y00787879D01*
Y00778812D02*
X00276159Y00771656D01*
X00297044D02*
X00306020Y00762679D01*
X00311151D01*
X00361657Y00594467D02*
Y00595717D01*
X00353118Y00604255D02*
X00361657Y00595717D01*
X00344581Y00627738D02*
X00353118Y00619201D01*
Y00604255D02*
Y00619201D01*
X00357445Y00627738D02*
X00369157D01*
X00353118Y00632065D02*
X00357445Y00627738D01*
X00353118Y00632065D02*
Y00642738D01*
X00198738Y00762680D02*
X00222328D01*
X00148549Y00767462D02*
X00166110Y00785023D01*
X00222328D01*
X00162832Y00208789D02*
X00183864D01*
X00266530D02*
X00269562Y00205757D01*
Y00141560D02*
Y00205757D01*
X00257419Y00208789D02*
X00266530D01*
X00269562Y00141560D02*
X00277062Y00134060D01*
X00293501D01*
X00232900Y00208789D02*
X00257419D01*
X00208382D02*
X00232900D01*
X00183864D02*
X00208382D01*
X00057900Y00228200D02*
X00108700D01*
X00057900Y00329800D02*
X00108700D01*
X00057900Y00304400D02*
X00108700D01*
X00057900Y00380600D02*
X00108700D01*
X00376075Y00456535D02*
X00383297Y00449313D01*
X00376075Y00456535D02*
Y00456784D01*
X00383297Y00434290D02*
Y00449313D01*
X00269251Y00241500D02*
X00278911D01*
X00191492Y00689361D02*
X00193398Y00687455D01*
X00200864D01*
X00290374Y00624068D02*
Y00644986D01*
X00294000Y00665987D02*
X00310624Y00665989D01*
X00191492Y00689361D02*
Y00699069D01*
X00200864Y00687455D02*
X00240712Y00687456D01*
X00243312Y00684855D01*
Y00672840D02*
Y00684855D01*
Y00672840D02*
X00250168Y00665985D01*
X00622043Y00431400D02*
X00642100D01*
X00606843Y00446600D02*
X00622043Y00431400D01*
X00591300Y00446600D02*
X00606843D01*
X00388793Y00127881D02*
Y00143049D01*
X00372500Y00159342D02*
X00388793Y00143049D01*
X00372500Y00159342D02*
Y00206427D01*
X00268425Y00576770D02*
X00313385D01*
X00336650Y00600035D01*
X00293501Y00175868D02*
X00308800Y00191168D01*
Y00195454D01*
X00311761Y00198414D01*
X00312500D01*
Y00206427D01*
D14*
X00440265Y00668693D02*
X00445361Y00663597D01*
X00448025D02*
X00452459Y00659163D01*
X00445361Y00663597D02*
X00448025D01*
X00492459Y00656089D02*
Y00701384D01*
Y00642500D02*
Y00656089D01*
Y00701384D02*
X00514928Y00723852D01*
Y00753360D02*
X00526356Y00764789D01*
X00514928Y00723852D02*
Y00753360D01*
X00512459Y00597500D02*
X00538975D01*
X00546859Y00605383D01*
Y00657930D01*
X00550812Y00661883D01*
X00601250D01*
X00615624Y00676257D01*
Y00691841D01*
X00600000Y00672410D02*
Y00687805D01*
X00601250Y00702805D02*
X00607399Y00696656D01*
X00610808D02*
X00615624Y00691841D01*
X00600000Y00702805D02*
X00601250D01*
X00607399Y00696656D02*
X00610808D01*
X00599157Y00648469D02*
X00633098Y00682410D01*
X00596729Y00728210D02*
X00633098Y00691841D01*
X00554359Y00648469D02*
X00599157D01*
X00633098Y00682410D02*
Y00691841D01*
X00582129Y00702805D02*
X00600000D01*
X00582124Y00702810D02*
X00582129Y00702805D01*
X00582124Y00728210D02*
X00596729D01*
X00472459Y00557500D02*
Y00576758D01*
X00472460Y00576759D01*
X00382500Y00325567D02*
X00383500Y00324567D01*
X00382500Y00325567D02*
Y00336500D01*
X00383500Y00323631D02*
Y00324567D01*
X00387500Y00311145D02*
X00397683Y00321328D01*
X00387500Y00304425D02*
Y00311145D01*
X00397683Y00321328D02*
X00400838D01*
X00416009Y00336500D01*
X00168799Y00270000D02*
X00252458D01*
X00045200Y00240900D02*
X00139699D01*
X00168799Y00270000D01*
X00361657Y00611305D02*
Y00612555D01*
Y00610055D02*
Y00611305D01*
X00369508Y00620406D02*
X00382430D01*
X00361657Y00612555D02*
X00369508Y00620406D01*
X00382430D02*
X00385336Y00617500D01*
X00427459D01*
X00376657Y00594467D02*
Y00595717D01*
Y00593217D02*
Y00594467D01*
X00361657Y00610055D02*
X00373515Y00598197D01*
X00374177D01*
X00376657Y00595717D01*
X00425721Y00715060D02*
X00440494Y00729833D01*
X00447960D01*
X00417351Y00692500D02*
X00425721Y00700870D01*
X00416101Y00692500D02*
X00417351D01*
X00425721Y00700870D02*
Y00715060D01*
X00381476Y00742556D02*
X00402438Y00721594D01*
Y00697707D02*
Y00721594D01*
X00442459Y00632288D02*
X00449830Y00624918D01*
X00442459Y00632288D02*
Y00642500D01*
X00449830Y00595054D02*
Y00624918D01*
X00487439Y00442408D02*
Y00449194D01*
X00488927Y00440920D02*
X00498372D01*
X00487439Y00442408D02*
X00488927Y00440920D01*
X00477460Y00457924D02*
X00478710D01*
X00487439Y00449194D01*
X00250208Y00425005D02*
X00255923Y00419290D01*
X00226678Y00448927D02*
Y00586111D01*
X00255923Y00419290D02*
X00350479D01*
X00226678Y00448927D02*
X00250208Y00425396D01*
X00222103Y00590686D02*
X00226678Y00586111D01*
X00250208Y00425005D02*
Y00425396D01*
X00485002Y00546283D02*
X00487317D01*
X00491173Y00542427D01*
X00482459Y00548826D02*
X00485002Y00546283D01*
X00482459Y00548826D02*
Y00557500D01*
X00431130Y00686843D02*
Y00690020D01*
X00388207Y00688182D02*
Y00692500D01*
X00391034Y00685355D02*
X00429642D01*
X00433610Y00692500D02*
X00434531D01*
X00431130Y00690020D02*
X00433610Y00692500D01*
X00429642Y00685355D02*
X00431130Y00686843D01*
X00388207Y00688182D02*
X00391034Y00685355D01*
X00452459Y00642500D02*
Y00659163D01*
X00442459Y00587683D02*
X00449830Y00595054D01*
X00407500Y00316500D02*
X00411945D01*
X00421089Y00325644D01*
X00407500Y00306500D02*
X00421089D01*
X00436958D01*
X00445523Y00315065D01*
X00448982D01*
X00421089Y00301500D02*
X00440869D01*
X00407500D02*
X00421089D01*
X00440869D02*
X00443711Y00304341D01*
X00457346D01*
X00448982Y00315065D02*
X00471313Y00337396D01*
X00402783Y00077586D02*
X00427691Y00102494D01*
X00352520D02*
X00356646D01*
X00381554Y00077586D02*
X00402783D01*
X00356646Y00102494D02*
X00381554Y00077586D01*
X00403948Y00071928D02*
X00429970Y00097950D01*
X00350643D02*
X00354531D01*
X00380553Y00071928D02*
X00403948D01*
X00354531Y00097950D02*
X00380553Y00071928D01*
X00347486Y00101108D02*
X00350643Y00097950D01*
X00381554Y00119881D02*
X00424290D01*
X00432039Y00127630D01*
X00380553Y00120881D02*
X00381554Y00119881D01*
X00365293Y00120881D02*
X00380553D01*
X00362147Y00117735D02*
X00365293Y00120881D01*
X00354313Y00117735D02*
X00362147D01*
X00442459Y00568819D02*
Y00587683D01*
X00437617Y00627500D02*
X00442617Y00622500D01*
X00427459Y00627500D02*
X00437617D01*
X00467459Y00611416D02*
Y00627500D01*
X00458543Y00602500D02*
X00467459Y00611416D01*
X00442459Y00557500D02*
Y00568819D01*
X00438778Y00572500D02*
X00442459Y00568819D01*
X00427459Y00572500D02*
X00438778D01*
X00413870D02*
X00427459D01*
X00512459Y00627500D02*
X00526048D01*
X00392077Y00233076D02*
X00418726Y00206427D01*
X00421992Y00203161D01*
X00449720D01*
X00480557Y00172324D01*
X00397067Y00235143D02*
X00421089Y00211120D01*
X00424262Y00207947D01*
X00451559D02*
X00482641Y00176864D01*
X00424262Y00207947D02*
X00451559D01*
X00336000Y00090928D02*
X00350643D01*
X00357652Y00083920D01*
Y00071928D02*
Y00083920D01*
X00336000Y00090928D02*
Y00101006D01*
X00332062Y00102494D02*
X00334512D01*
X00336000Y00101006D01*
X00327500Y00107056D02*
X00332062Y00102494D01*
X00327500Y00107056D02*
Y00164092D01*
X00531992Y00648469D02*
X00539359D01*
X00526023Y00642500D02*
X00531992Y00648469D01*
X00497459Y00642500D02*
X00526023D01*
X00427691Y00102494D02*
X00432039D01*
X00429970Y00097950D02*
X00449365D01*
X00278911Y00241500D02*
X00292500D01*
X00048544Y00316500D02*
X00292500D01*
X00048483Y00316560D02*
X00048544Y00316500D01*
X00045740Y00316560D02*
X00048483D01*
X00032500Y00329800D02*
X00045740Y00316560D01*
X00354313Y00117735D02*
Y00125023D01*
X00357671Y00128381D02*
X00371292D01*
X00354313Y00125023D02*
X00357671Y00128381D01*
X00341175Y00113839D02*
Y00190724D01*
X00337500Y00194398D02*
X00341175Y00190724D01*
Y00113839D02*
X00352520Y00102494D01*
X00354582Y00358848D02*
Y00370305D01*
X00362500Y00378223D01*
X00354582Y00358848D02*
X00357500Y00355929D01*
Y00336500D02*
Y00355929D01*
X00352500Y00336500D02*
Y00351347D01*
X00347789Y00356058D02*
X00352500Y00351347D01*
X00347789Y00356058D02*
Y00384006D01*
X00332500Y00336500D02*
Y00350089D01*
Y00393035D01*
X00339474Y00400009D02*
X00394633D01*
X00332500Y00393035D02*
X00339474Y00400009D01*
X00394633D02*
X00409531Y00385111D01*
X00432883D01*
X00436042Y00381952D02*
X00436101D01*
X00432883Y00385111D02*
X00436042Y00381952D01*
X00326417Y00408260D02*
X00426028D01*
X00432863Y00415094D01*
X00324929Y00358848D02*
Y00406772D01*
X00326417Y00408260D01*
X00414607Y00392989D02*
X00423768D01*
X00436794Y00406014D01*
X00405574Y00400511D02*
X00424729D01*
X00434771Y00410554D01*
X00393363Y00336500D02*
X00406952Y00350089D01*
X00410141Y00353278D01*
X00387500Y00336500D02*
X00393363D01*
X00367500Y00356492D02*
X00374405Y00363397D01*
X00397176D01*
X00362500Y00336500D02*
Y00363397D01*
X00367500Y00336500D02*
Y00356492D01*
X00436794Y00406014D02*
X00527881D01*
X00407500Y00261510D02*
X00499555D01*
X00219678Y00245888D02*
X00233139D01*
X00487459Y00557500D02*
Y00572500D01*
X00497459Y00557500D02*
X00497459Y00557501D01*
Y00574701D01*
X00691001Y00321520D02*
Y00347160D01*
X00670201Y00367900D02*
X00675941Y00362160D01*
X00654800Y00367900D02*
X00670201D01*
X00675941Y00362160D02*
X00691001D01*
X00642100Y00380600D02*
X00654800Y00367900D01*
X00544524Y00582500D02*
X00557424Y00569600D01*
X00512459Y00582500D02*
X00544524D01*
X00434531Y00707500D02*
X00449460D01*
X00328787Y00564977D02*
X00349911Y00586102D01*
X00118860Y00215500D02*
X00137179Y00233819D01*
X00045200Y00215500D02*
X00118860D01*
X00012720Y00247980D02*
X00032500Y00228200D01*
X00012720Y00247980D02*
Y00522782D01*
X00377500Y00336500D02*
Y00355672D01*
X00372500Y00323631D02*
Y00336500D01*
X00317500Y00336729D02*
Y00363397D01*
X00322500Y00336500D02*
Y00356418D01*
X00322484Y00328715D02*
Y00336484D01*
X00322500Y00336500D01*
X00292500Y00316500D02*
X00312153D01*
X00331658Y00296995D01*
X00359927D01*
X00397944Y00656430D02*
X00405544Y00664030D01*
X00397944Y00638481D02*
Y00656430D01*
X00405544Y00664030D02*
Y00665280D01*
X00384157Y00630988D02*
Y00659739D01*
Y00630988D02*
X00392645Y00622500D01*
X00427459D01*
X00327136Y00236420D02*
X00332500Y00231056D01*
Y00221500D02*
Y00231056D01*
X00327500Y00249150D02*
X00337500Y00239150D01*
X00342500Y00221500D02*
Y00242349D01*
X00345441Y00245289D01*
Y00246226D01*
X00357500Y00221500D02*
Y00246634D01*
X00310977Y00261500D02*
X00350203D01*
X00359927Y00271224D01*
Y00284196D01*
X00300977Y00271500D02*
X00310977Y00261500D01*
X00292500Y00271500D02*
X00300977D01*
X00307349Y00276500D02*
X00313805Y00270044D01*
X00323285D01*
X00316191Y00294298D02*
X00324024D01*
X00292500Y00286500D02*
X00308393D01*
X00316191Y00294298D01*
X00387995Y00280179D02*
X00394316Y00286500D01*
X00407500D01*
X00387995Y00271500D02*
Y00280179D01*
X00461809Y00278932D02*
X00462746D01*
X00459378Y00276500D02*
X00461809Y00278932D01*
X00464246Y00054892D02*
X00482385Y00036752D01*
X00463907Y00055231D02*
X00464246Y00054892D01*
X00161175Y00538992D02*
X00219013D01*
X00151650D02*
X00161175D01*
X00371292Y00128381D02*
Y00146224D01*
X00366690Y00150826D02*
X00371292Y00146224D01*
X00366690Y00150826D02*
Y00205977D01*
X00366240Y00206427D02*
X00366690Y00205977D01*
X00366240Y00206427D02*
Y00208933D01*
X00367500Y00210194D01*
Y00221500D01*
X00514110Y00459170D02*
Y00471728D01*
Y00459170D02*
X00528870D01*
X00372500Y00206427D02*
Y00221500D01*
X00219678Y00245888D02*
Y00246000D01*
X00233139Y00245888D02*
X00237500Y00250250D01*
Y00261500D01*
X00292500D01*
X00351100Y00788028D02*
Y00804480D01*
Y00788028D02*
X00375006D01*
X00381476Y00781559D01*
Y00742556D02*
Y00781559D01*
X00467459Y00627500D02*
X00472459Y00632500D01*
Y00642500D01*
X00404890Y00436291D02*
X00404892Y00436289D01*
X00404890Y00436291D02*
Y00461622D01*
X00032500Y00228200D02*
X00045200Y00215500D01*
X00137179Y00233819D02*
X00316012D01*
X00317500Y00232331D01*
Y00221500D02*
Y00232331D01*
X00012720Y00522782D02*
X00080624Y00590686D01*
X00222103D01*
X00350479Y00419290D02*
X00383297D01*
X00404892D01*
X00276828Y00071928D02*
Y00081769D01*
X00285988Y00090928D01*
X00304000D01*
Y00112500D01*
X00312500Y00121000D01*
Y00164092D01*
X00450792Y00055231D02*
X00463907D01*
X00464246Y00097832D02*
X00464365Y00097950D01*
X00464246Y00054892D02*
Y00097832D01*
X00482385Y00036752D02*
X00509805D01*
X00464360Y00116088D02*
Y00137807D01*
Y00116088D02*
X00474714D01*
X00480877Y00122250D01*
X00509397D01*
X00509805Y00121842D01*
X00399008Y00543247D02*
X00442066D01*
X00447459Y00548641D01*
Y00557500D01*
X00420542Y00665278D02*
X00420545Y00665280D01*
X00420540Y00649059D02*
X00420542Y00665278D01*
X00477459Y00642500D02*
X00477459Y00626694D01*
X00328787Y00533790D02*
Y00564977D01*
X00349911Y00586102D02*
X00369542D01*
X00376657Y00593217D01*
Y00577630D02*
X00391508D01*
X00406379Y00592500D01*
X00427459D01*
X00407500Y00241500D02*
X00521711D01*
X00572575Y00292364D01*
Y00433004D01*
X00447960Y00729833D02*
Y00746500D01*
X00449460Y00707500D02*
Y00724698D01*
X00455960Y00731198D01*
Y00746500D01*
X00463960Y00731198D02*
Y00746500D01*
Y00731198D02*
X00470460Y00724698D01*
Y00707500D02*
Y00724698D01*
X00283853Y00788028D02*
X00300791D01*
X00315791D02*
X00336100D01*
X00315791Y00804480D02*
X00336100D01*
X00057900Y00355200D02*
X00108700D01*
X00110432Y00356931D01*
X00129306D01*
X00168890Y00396516D01*
Y00419427D01*
X00148844Y00439473D02*
X00168890Y00419427D01*
X00148844Y00439473D02*
Y00479342D01*
Y00541797D02*
Y00570342D01*
Y00541797D02*
X00151650Y00538992D01*
X00148844Y00479342D02*
Y00526661D01*
X00161175Y00538992D01*
X00422415Y00505301D02*
X00452972D01*
X00454460Y00506789D01*
Y00540640D01*
X00462459Y00548639D01*
Y00557500D01*
X00467459Y00548641D02*
Y00557500D01*
Y00548641D02*
X00475460Y00540640D01*
Y00506789D02*
Y00540640D01*
Y00506789D02*
X00476948Y00505301D01*
X00507505D01*
X00057900Y00177400D02*
X00108700D01*
X00385789Y00187353D02*
Y00201904D01*
X00377500Y00210193D02*
X00385789Y00201904D01*
X00377500Y00210193D02*
Y00221500D01*
X00057900Y00152000D02*
X00108700D01*
X00400038Y00181940D02*
Y00194712D01*
X00382500Y00212251D02*
X00400038Y00194712D01*
X00382500Y00212251D02*
Y00221500D01*
X00591300Y00075800D02*
X00642100D01*
X00591300Y00050400D02*
X00642100D01*
X00057900Y00126600D02*
X00108700D01*
X00425214Y00256500D02*
X00430214Y00251500D01*
X00407500Y00256500D02*
X00425214D01*
X00407500Y00261500D02*
Y00261510D01*
X00499555D02*
X00562553Y00324508D01*
Y00370400D01*
X00591300Y00395800D02*
X00606843D01*
X00622043Y00380600D01*
X00642100D01*
X00407500Y00266500D02*
X00421089D01*
X00492613Y00266960D01*
X00546301Y00320647D01*
Y00360499D01*
X00591300Y00370400D02*
X00606843D01*
X00622043Y00355200D01*
X00642100D01*
X00407500Y00271500D02*
X00490733D01*
X00536764Y00317531D01*
Y00344798D01*
X00591300Y00345000D02*
X00606843D01*
X00622043Y00329800D01*
X00642100D01*
X00347500Y00325687D02*
Y00336500D01*
Y00325687D02*
X00350923Y00322265D01*
X00357441D01*
X00591300Y00228200D02*
X00642100D01*
X00342500Y00323631D02*
Y00336500D01*
Y00323631D02*
X00354582Y00311549D01*
X00591300Y00268800D02*
X00606843D01*
X00622043Y00253600D01*
X00642100D01*
X00337500Y00318310D02*
Y00336500D01*
X00591300Y00101200D02*
X00642100D01*
X00327500Y00318310D02*
Y00336500D01*
Y00318310D02*
X00341059Y00304752D01*
X00374225D01*
X00451425Y00381952D01*
X00319024Y00325255D02*
X00322484Y00328715D01*
X00138645Y00325255D02*
X00319024D01*
X00121400Y00342500D02*
X00138645Y00325255D01*
X00045200Y00342500D02*
X00121400D01*
X00032500Y00355200D02*
X00045200Y00342500D01*
X00322500Y00356418D02*
X00324929Y00358848D01*
X00432863Y00415094D02*
X00487310D01*
X00487439Y00415223D01*
X00514550D01*
X00514679Y00415094D01*
X00524120D01*
X00569762Y00460736D01*
Y00544313D01*
X00576068Y00550620D01*
Y00633800D01*
X00032500Y00304400D02*
X00045200Y00291700D01*
X00116320D01*
X00136120Y00311500D01*
X00292500D01*
X00407500Y00291500D02*
X00477519D01*
X00485066Y00299046D01*
Y00304341D01*
X00407500Y00296500D02*
X00465156D01*
X00480430Y00311774D01*
X00493017D01*
X00498121Y00306670D01*
X00591300Y00126600D02*
X00642100D01*
X00292500Y00281500D02*
X00309460D01*
X00311230Y00279730D01*
X00317255D01*
X00319024Y00281500D01*
X00324024D01*
X00591300Y00177400D02*
X00642100D01*
X00292500Y00276500D02*
X00307349D01*
X00591300Y00152000D02*
X00642100D01*
X00591300Y00319600D02*
X00606843D01*
X00622043Y00304400D01*
X00642100D01*
X00032500Y00253600D02*
X00045200Y00240900D01*
X00252458Y00270000D02*
X00255958Y00266500D01*
X00292500D01*
X00252626Y00256500D02*
X00292500D01*
X00246375Y00250250D02*
X00252626Y00256500D01*
X00434771Y00410554D02*
X00491850D01*
X00491979Y00410683D01*
X00510010D01*
X00510139Y00410554D01*
X00526000D01*
X00574302Y00458855D01*
Y00480402D01*
X00591300Y00497400D01*
X00606843D01*
X00622043Y00482200D01*
X00642100D01*
X00292500Y00251500D02*
X00305862D01*
X00307349Y00252988D01*
Y00255098D01*
X00527881Y00406014D02*
X00578842Y00456975D01*
Y00459542D01*
X00591300Y00472000D01*
X00606843D01*
X00622043Y00456800D01*
X00642100D01*
X00591300Y00202800D02*
X00642100D01*
X00347500Y00166369D02*
X00349778Y00164092D01*
X00347500Y00166369D02*
Y00221500D01*
X00355000Y00189097D02*
Y00198414D01*
X00352500Y00200914D02*
X00355000Y00198414D01*
X00352500Y00200914D02*
Y00221500D01*
X00357652Y00138714D02*
X00362150Y00143212D01*
Y00203568D01*
X00361250Y00204468D02*
X00362150Y00203568D01*
X00361250Y00204468D02*
Y00210987D01*
X00362500Y00212237D01*
Y00221500D01*
X00407500Y00276500D02*
X00459378D01*
X00472397Y00233080D02*
X00567310Y00138166D01*
Y00115871D02*
Y00138166D01*
Y00115871D02*
X00569540Y00113641D01*
X00651907D01*
X00664349Y00101200D01*
X00667500D01*
X00407500Y00281500D02*
X00445934D01*
X00451186Y00286751D01*
X00487818D01*
X00527775Y00326708D01*
Y00365509D01*
X00559725Y00397459D01*
Y00407500D01*
X00591300Y00294200D02*
X00606843D01*
X00622043Y00279000D01*
X00642100D01*
X00017260Y00492360D02*
X00032500Y00507600D01*
X00017260Y00273611D02*
Y00492360D01*
Y00273611D02*
X00024572Y00266300D01*
X00120000D01*
X00160200Y00306500D01*
X00292500D01*
X00245000Y00277000D02*
X00269500Y00301500D01*
X00292500D01*
X00257126Y00277000D02*
X00276626Y00296500D01*
X00292500D01*
X00312500Y00179092D02*
Y00185638D01*
X00314024Y00187162D01*
X00318494D01*
X00322500Y00191168D01*
Y00221500D01*
X00327500Y00179092D02*
Y00221500D01*
X00269251Y00277000D02*
X00283750Y00291500D01*
X00292500D01*
X00332500Y00189545D02*
Y00221500D01*
Y00189545D02*
X00335927Y00186118D01*
Y00109156D02*
Y00186118D01*
Y00109156D02*
X00343975Y00101108D01*
X00347486D01*
X00337500Y00221500D02*
Y00239150D01*
Y00194398D02*
Y00221500D01*
X00432039Y00102494D02*
X00433527Y00103982D01*
Y00111869D01*
X00437746Y00116088D01*
X00449360D01*
X00398675Y00246500D02*
X00407500D01*
X00397067Y00244892D02*
X00398675Y00246500D01*
X00397067Y00235143D02*
Y00244892D01*
X00482641Y00176864D02*
X00522191D01*
X00562770Y00136286D01*
Y00039829D02*
Y00136286D01*
Y00039829D02*
X00576739Y00025859D01*
X00662657D01*
X00667500Y00030702D01*
Y00050400D01*
X00396618Y00251500D02*
X00407500D01*
X00392077Y00246958D02*
X00396618Y00251500D01*
X00392077Y00233076D02*
Y00246958D01*
X00480557Y00172324D02*
X00520311D01*
X00558230Y00134406D01*
Y00037948D02*
Y00134406D01*
Y00037948D02*
X00574859Y00021319D01*
X00664223D01*
X00664717Y00021814D01*
X00678695D01*
X00682740Y00025859D01*
Y00060560D01*
X00667500Y00075800D02*
X00682740Y00060560D01*
X00032500Y00406000D02*
X00045200Y00393300D01*
X00148844D01*
X00134903Y00351963D02*
X00307420D01*
X00312500Y00346883D01*
Y00336500D02*
Y00346883D01*
X00229139Y00620075D02*
X00245000D01*
X00486120Y00663187D02*
Y00678080D01*
X00482459Y00659526D02*
X00486120Y00663187D01*
X00482092Y00682108D02*
X00486120Y00678080D01*
X00482459Y00642500D02*
Y00659526D01*
X00387500Y00221500D02*
Y00230423D01*
X00366690Y00251233D02*
X00387500Y00230423D01*
X00366690Y00251233D02*
Y00283615D01*
X00387500Y00304425D01*
X00422059Y00419634D02*
X00482770D01*
X00482899Y00419763D01*
X00522369D01*
X00565222Y00462616D01*
Y00539981D01*
X00532703Y00572500D02*
X00565222Y00539981D01*
X00512459Y00572500D02*
X00532703D01*
X00477460Y00457924D02*
Y00471728D01*
X00499361Y00582500D02*
X00512459D01*
X00488835Y00593026D02*
X00499361Y00582500D01*
X00488835Y00593026D02*
Y00602678D01*
X00494423Y00608266D01*
Y00630364D01*
X00492459Y00632328D02*
X00494423Y00630364D01*
X00492459Y00632328D02*
Y00642500D01*
X00526356Y00764789D02*
X00576719D01*
X00582124Y00770194D01*
Y00779010D01*
X00487459Y00620400D02*
Y00642500D01*
X00559095Y00630527D02*
Y00630686D01*
X00554359Y00635422D02*
X00559095Y00630686D01*
X00554359Y00635422D02*
Y00648469D01*
X00467459Y00642500D02*
Y00657841D01*
X00478311Y00668693D01*
X00572230Y00688554D02*
X00582124Y00678660D01*
X00506079Y00688554D02*
X00572230D01*
X00582124Y00677410D02*
Y00678660D01*
X00462459Y00642500D02*
Y00666349D01*
X00470460Y00674350D01*
Y00692500D01*
X00449460Y00674350D02*
Y00692500D01*
Y00674350D02*
X00457459Y00666351D01*
Y00642500D02*
Y00666351D01*
X00312500Y00206427D02*
Y00221500D01*
D17*
X00292500Y00241500D02*
D03*
Y00246500D02*
D03*
Y00251500D02*
D03*
Y00256500D02*
D03*
Y00261500D02*
D03*
Y00266500D02*
D03*
Y00271500D02*
D03*
Y00276500D02*
D03*
Y00281500D02*
D03*
Y00286500D02*
D03*
Y00291500D02*
D03*
Y00296500D02*
D03*
Y00301500D02*
D03*
Y00306500D02*
D03*
Y00311500D02*
D03*
Y00316500D02*
D03*
X00407500D02*
D03*
Y00311500D02*
D03*
Y00306500D02*
D03*
Y00301500D02*
D03*
Y00296500D02*
D03*
Y00291500D02*
D03*
Y00286500D02*
D03*
Y00281500D02*
D03*
Y00276500D02*
D03*
Y00271500D02*
D03*
Y00266500D02*
D03*
Y00261500D02*
D03*
Y00256500D02*
D03*
Y00251500D02*
D03*
Y00246500D02*
D03*
Y00241500D02*
D03*
X00427459Y00572500D02*
D03*
Y00577500D02*
D03*
Y00582500D02*
D03*
Y00587500D02*
D03*
Y00592500D02*
D03*
Y00597500D02*
D03*
Y00602500D02*
D03*
Y00607500D02*
D03*
Y00612500D02*
D03*
Y00617500D02*
D03*
Y00622500D02*
D03*
Y00627500D02*
D03*
X00512459D02*
D03*
Y00622500D02*
D03*
Y00617500D02*
D03*
Y00612500D02*
D03*
Y00607500D02*
D03*
Y00602500D02*
D03*
Y00597500D02*
D03*
Y00592500D02*
D03*
Y00587500D02*
D03*
Y00582500D02*
D03*
Y00577500D02*
D03*
Y00572500D02*
D03*
D18*
X00312500Y00336500D02*
D03*
X00317500D02*
D03*
X00322500D02*
D03*
X00327500D02*
D03*
X00332500D02*
D03*
X00337500D02*
D03*
X00342500D02*
D03*
X00347500D02*
D03*
X00352500D02*
D03*
X00357500D02*
D03*
X00362500D02*
D03*
X00367500D02*
D03*
X00372500D02*
D03*
X00377500D02*
D03*
X00382500D02*
D03*
X00387500D02*
D03*
Y00221500D02*
D03*
X00382500D02*
D03*
X00377500D02*
D03*
X00372500D02*
D03*
X00367500D02*
D03*
X00362500D02*
D03*
X00357500D02*
D03*
X00352500D02*
D03*
X00347500D02*
D03*
X00342500D02*
D03*
X00337500D02*
D03*
X00332500D02*
D03*
X00327500D02*
D03*
X00322500D02*
D03*
X00317500D02*
D03*
X00312500D02*
D03*
X00442459Y00642500D02*
D03*
X00447459D02*
D03*
X00452459D02*
D03*
X00457459D02*
D03*
X00462459D02*
D03*
X00467459D02*
D03*
X00472459D02*
D03*
X00477459D02*
D03*
X00482459D02*
D03*
X00487459D02*
D03*
X00492459D02*
D03*
X00497459D02*
D03*
Y00557500D02*
D03*
X00492459D02*
D03*
X00487459D02*
D03*
X00482459D02*
D03*
X00477459D02*
D03*
X00472459D02*
D03*
X00467459D02*
D03*
X00462459D02*
D03*
X00457459D02*
D03*
X00452459D02*
D03*
X00447459D02*
D03*
X00442459D02*
D03*
D19*
X00311151Y00762679D02*
D03*
Y00743680D02*
D03*
X00287827D02*
D03*
Y00753180D02*
D03*
D20*
Y00762679D02*
D03*
D21*
X00283853Y00788028D02*
D03*
X00268853D02*
D03*
X00351100Y00804480D02*
D03*
X00336100D02*
D03*
X00351100Y00788028D02*
D03*
X00336100D02*
D03*
X00405544Y00665280D02*
D03*
X00420545D02*
D03*
X00361657Y00594467D02*
D03*
X00376657D02*
D03*
Y00611305D02*
D03*
X00361657D02*
D03*
Y00577630D02*
D03*
X00376657D02*
D03*
X00384157Y00659739D02*
D03*
X00369157D02*
D03*
X00384008Y00543247D02*
D03*
X00399008D02*
D03*
X00419890Y00461622D02*
D03*
X00404890D02*
D03*
X00539359Y00648469D02*
D03*
X00554359D02*
D03*
X00582124Y00677410D02*
D03*
X00567124D02*
D03*
X00582124Y00702810D02*
D03*
X00567124D02*
D03*
X00582124Y00728210D02*
D03*
X00567124D02*
D03*
X00582124Y00804410D02*
D03*
X00567124D02*
D03*
X00582124Y00779010D02*
D03*
X00567124D02*
D03*
X00464365Y00097950D02*
D03*
X00449365D02*
D03*
X00464360Y00116088D02*
D03*
X00449360D02*
D03*
X00222500Y00261500D02*
D03*
X00237500D02*
D03*
X00206492Y00699069D02*
D03*
X00191492D02*
D03*
D22*
X00315791Y00804480D02*
D03*
X00300791D02*
D03*
Y00788028D02*
D03*
X00315791D02*
D03*
X00250299Y00699069D02*
D03*
X00235298D02*
D03*
D23*
X00357990Y00762679D02*
D03*
X00340990D02*
D03*
X00357990Y00743680D02*
D03*
X00340990D02*
D03*
X00290374Y00624068D02*
D03*
X00273374D02*
D03*
X00311250D02*
D03*
X00328250D02*
D03*
X00295500Y00198414D02*
D03*
X00312500D02*
D03*
X00464360Y00137807D02*
D03*
X00447360D02*
D03*
X00450792Y00055231D02*
D03*
X00433792D02*
D03*
X00276132Y00560319D02*
D03*
X00293132D02*
D03*
X00276132Y00543009D02*
D03*
X00293132D02*
D03*
X00276132Y00525700D02*
D03*
X00293132D02*
D03*
X00276132Y00508390D02*
D03*
X00293132D02*
D03*
D24*
X00411460Y00747500D02*
D03*
X00500460D02*
D03*
Y00802500D02*
D03*
X00411460D02*
D03*
D25*
X00471960Y00746500D02*
D03*
X00463960D02*
D03*
X00455960D02*
D03*
X00447960D02*
D03*
X00439960D02*
D03*
D26*
X00470460Y00692500D02*
D03*
Y00707500D02*
D03*
X00449460Y00692500D02*
D03*
Y00707500D02*
D03*
X00434531Y00692500D02*
D03*
Y00707500D02*
D03*
X00416101D02*
D03*
Y00692500D02*
D03*
X00369157Y00642738D02*
D03*
Y00627738D02*
D03*
X00344490Y00692500D02*
D03*
Y00707500D02*
D03*
X00528870Y00444170D02*
D03*
Y00459170D02*
D03*
X00514110Y00444170D02*
D03*
Y00459170D02*
D03*
X00477460Y00457924D02*
D03*
Y00442923D02*
D03*
X00383297Y00419290D02*
D03*
Y00434290D02*
D03*
X00600000Y00687805D02*
D03*
Y00702805D02*
D03*
X00327500Y00179092D02*
D03*
Y00164092D02*
D03*
X00312500Y00179092D02*
D03*
Y00164092D02*
D03*
X00293501Y00149060D02*
D03*
Y00134060D02*
D03*
X00691001Y00347160D02*
D03*
Y00362160D02*
D03*
X00371292Y00128381D02*
D03*
Y00113381D02*
D03*
D27*
X00378682Y00711804D02*
D03*
X00388207Y00692500D02*
D03*
X00369157D02*
D03*
D28*
X00422415Y00505301D02*
D03*
X00507505D02*
D03*
D29*
X00222328Y00762680D02*
D03*
X00243728D02*
D03*
Y00785023D02*
D03*
X00222328D02*
D03*
X00606004Y00804409D02*
D03*
X00627404D02*
D03*
D30*
X00269000Y00702280D02*
D03*
Y00719280D02*
D03*
X00287827Y00702278D02*
D03*
Y00719278D02*
D03*
X00330624Y00665989D02*
D03*
Y00648988D02*
D03*
X00310624Y00665989D02*
D03*
Y00682988D02*
D03*
X00498372Y00457920D02*
D03*
Y00440920D02*
D03*
X00376075Y00488301D02*
D03*
Y00505301D02*
D03*
X00404892Y00436289D02*
D03*
Y00419290D02*
D03*
X00553850Y00488300D02*
D03*
Y00505300D02*
D03*
X00257419Y00191789D02*
D03*
Y00208789D02*
D03*
X00232900Y00191789D02*
D03*
Y00208789D02*
D03*
X00208382Y00191789D02*
D03*
Y00208789D02*
D03*
X00183864Y00191789D02*
D03*
Y00208789D02*
D03*
X00276828Y00054928D02*
D03*
Y00071928D02*
D03*
X00357652Y00054928D02*
D03*
Y00071928D02*
D03*
X00116387Y00462341D02*
D03*
Y00479340D02*
D03*
D31*
X00260870Y00665990D02*
D03*
Y00656490D02*
D03*
Y00646990D02*
D03*
X00290370D02*
D03*
Y00656490D02*
D03*
Y00665990D02*
D03*
D32*
X00275620Y00656490D02*
D03*
D33*
X00336000Y00090928D02*
D03*
X00304000D02*
D03*
X00336000Y00035928D02*
D03*
X00304000D02*
D03*
D34*
X00388793Y00111880D02*
D03*
Y00127881D02*
D03*
D35*
X00509805Y00036752D02*
D03*
Y00121842D02*
D03*
D36*
X00691001Y00321520D02*
D03*
Y00306520D02*
D03*
D37*
X00350479Y00464289D02*
D03*
Y00419290D02*
D03*
X00259479D02*
D03*
Y00464289D02*
D03*
D38*
X00191039Y00620075D02*
D03*
X00203739D02*
D03*
X00216439D02*
D03*
X00229139D02*
D03*
Y00673669D02*
D03*
X00216439D02*
D03*
X00203739D02*
D03*
X00191039D02*
D03*
D39*
X00193844Y00479342D02*
D03*
X00148844D02*
D03*
Y00570342D02*
D03*
X00193844D02*
D03*
D40*
X00055843Y00629069D02*
D03*
X00080624D02*
D03*
X00123233D02*
D03*
X00148015D02*
D03*
D41*
X00103624Y00667065D02*
D03*
X00080624D02*
D03*
X00057624D02*
D03*
D42*
X00125328Y00769068D02*
D03*
X00080624D02*
D03*
D50*
Y00731068D02*
D03*
D51*
X00621668Y00620400D02*
D03*
Y00645800D02*
D03*
Y00595000D02*
D03*
X00539239Y00702805D02*
D03*
Y00677405D02*
D03*
Y00753605D02*
D03*
Y00728205D02*
D03*
Y00779005D02*
D03*
X00626275Y00728210D02*
D03*
X00311250Y00600035D02*
D03*
X00667500Y00787000D02*
D03*
X00591300Y00294200D02*
D03*
Y00268800D02*
D03*
Y00345000D02*
D03*
Y00319600D02*
D03*
Y00395800D02*
D03*
Y00370400D02*
D03*
Y00421200D02*
D03*
Y00472000D02*
D03*
Y00446600D02*
D03*
X00667500Y00507600D02*
D03*
Y00482200D02*
D03*
Y00456800D02*
D03*
Y00126600D02*
D03*
Y00101200D02*
D03*
Y00075800D02*
D03*
Y00050400D02*
D03*
Y00431400D02*
D03*
Y00406000D02*
D03*
Y00380600D02*
D03*
Y00355200D02*
D03*
Y00228200D02*
D03*
Y00202800D02*
D03*
Y00177400D02*
D03*
Y00152000D02*
D03*
Y00329800D02*
D03*
Y00304400D02*
D03*
Y00279000D02*
D03*
Y00253600D02*
D03*
X00591300Y00075800D02*
D03*
Y00050400D02*
D03*
Y00126600D02*
D03*
Y00101200D02*
D03*
Y00177400D02*
D03*
Y00152000D02*
D03*
Y00202800D02*
D03*
X00328787Y00533790D02*
D03*
X00108700Y00075800D02*
D03*
Y00050400D02*
D03*
Y00126600D02*
D03*
Y00101200D02*
D03*
Y00152000D02*
D03*
Y00253600D02*
D03*
Y00228200D02*
D03*
Y00304400D02*
D03*
Y00279000D02*
D03*
Y00355200D02*
D03*
Y00329800D02*
D03*
Y00380600D02*
D03*
X00057900Y00253600D02*
D03*
Y00279000D02*
D03*
Y00304400D02*
D03*
Y00329800D02*
D03*
Y00152000D02*
D03*
Y00177400D02*
D03*
Y00202800D02*
D03*
Y00228200D02*
D03*
Y00355200D02*
D03*
Y00380600D02*
D03*
Y00406000D02*
D03*
Y00431400D02*
D03*
Y00050400D02*
D03*
Y00075800D02*
D03*
Y00101200D02*
D03*
Y00126600D02*
D03*
Y00456800D02*
D03*
Y00482200D02*
D03*
Y00507600D02*
D03*
X00150624Y00673669D02*
D03*
Y00699069D02*
D03*
X00032500Y00787000D02*
D03*
D52*
X00621668Y00569600D02*
D03*
X00539239Y00804405D02*
D03*
X00626275Y00753610D02*
D03*
X00667500Y00761600D02*
D03*
X00591300Y00497400D02*
D03*
Y00228200D02*
D03*
X00328787Y00508390D02*
D03*
X00108700Y00177400D02*
D03*
Y00406000D02*
D03*
X00150624Y00724469D02*
D03*
X00032500Y00761600D02*
D03*
D54*
X00336650Y00600035D02*
D03*
X00642100Y00507600D02*
D03*
Y00482200D02*
D03*
Y00456800D02*
D03*
Y00126600D02*
D03*
Y00101200D02*
D03*
Y00075800D02*
D03*
Y00050400D02*
D03*
Y00406000D02*
D03*
Y00380600D02*
D03*
Y00355200D02*
D03*
Y00228200D02*
D03*
Y00202800D02*
D03*
Y00177400D02*
D03*
Y00152000D02*
D03*
Y00329800D02*
D03*
Y00304400D02*
D03*
Y00279000D02*
D03*
Y00253600D02*
D03*
Y00431400D02*
D03*
X00032500Y00253600D02*
D03*
Y00279000D02*
D03*
Y00304400D02*
D03*
Y00329800D02*
D03*
Y00152000D02*
D03*
Y00177400D02*
D03*
Y00202800D02*
D03*
Y00228200D02*
D03*
Y00355200D02*
D03*
Y00380600D02*
D03*
Y00406000D02*
D03*
Y00431400D02*
D03*
Y00075800D02*
D03*
Y00101200D02*
D03*
Y00126600D02*
D03*
Y00456800D02*
D03*
Y00482200D02*
D03*
Y00507600D02*
D03*
Y00050400D02*
D03*
D56*
X00243728Y00762680D02*
X00287826D01*
X00243728D02*
Y00765000D01*
Y00722443D02*
Y00762680D01*
X00246891Y00719280D02*
X00269000D01*
X00243728Y00722443D02*
X00246891Y00719280D01*
X00269001Y00719279D02*
X00287825D01*
X00287827Y00719278D02*
Y00743680D01*
X00563374Y00804410D02*
X00574992Y00816028D01*
X00586423D01*
X00598042Y00804409D01*
X00606004D01*
D57*
X00109348Y00629069D02*
X00123233D01*
X00080624D02*
Y00667065D01*
Y00731068D01*
X00103624Y00634793D02*
Y00667065D01*
Y00634793D02*
X00108978Y00629439D01*
D58*
X00378682Y00711804D02*
Y00727991D01*
X00372828Y00733845D02*
X00378682Y00727991D01*
X00372828Y00733845D02*
Y00770303D01*
X00368632Y00774499D02*
X00372828Y00770303D01*
X00347189Y00774499D02*
X00368632D01*
X00343604Y00765119D02*
Y00770914D01*
X00347189Y00774499D01*
X00340990Y00762679D02*
X00341164D01*
X00343604Y00765119D01*
X00311151Y00762679D02*
X00340990D01*
X00311151Y00743680D02*
X00340990D01*
D59*
X00144673Y00769068D02*
X00150624Y00763117D01*
X00290374Y00624068D02*
X00311250D01*
Y00600035D02*
Y00624068D01*
X00125328Y00769068D02*
X00144673D01*
X00150624Y00724469D02*
Y00763117D01*
X00080624Y00731068D02*
Y00769068D01*
X00150624Y00673669D02*
X00191039D01*
X00203739D01*
X00216439D02*
X00226345D01*
X00203739D02*
X00216439D01*
X00193833Y00620075D02*
X00203739D01*
X00213645D01*
D60*
X00293132Y00513890D02*
Y00525700D01*
Y00543009D02*
Y00554819D01*
Y00525700D02*
Y00543009D01*
X00121187Y00479340D02*
X00148844Y00479342D01*
X00381575Y00505301D02*
X00422415D01*
X00507505D02*
X00548350Y00505300D01*
D61*
X00150624Y00699069D02*
X00187742D01*
X00539239Y00804405D02*
X00539243Y00804410D01*
X00563374D01*
X00539243Y00779010D02*
X00563374D01*
X00539239Y00779005D02*
X00539243Y00779010D01*
Y00728210D02*
X00563374D01*
X00539239Y00728205D02*
X00539243Y00728210D01*
Y00702810D02*
X00563374D01*
X00539239Y00702805D02*
X00539243Y00702810D01*
Y00677410D02*
X00563374D01*
X00539239Y00677405D02*
X00539243Y00677410D01*
D62*
X00243728Y00765000D02*
Y00782323D01*
D63*
X00369157Y00642738D02*
Y00659739D01*
X00344490Y00692500D02*
X00366363D01*
D64*
X00369157Y00659739D02*
Y00692500D01*
D65*
X00210624Y00699069D02*
X00235298D01*
D66*
X00433960Y00772500D02*
D03*
X00477960D02*
D03*
X00440265Y00668693D02*
D03*
X00500015Y00724459D02*
D03*
X00600000Y00672410D02*
D03*
X00615624Y00691841D02*
D03*
X00559634Y00585819D02*
D03*
X00656891Y00606628D02*
D03*
X00652436Y00661883D02*
D03*
X00180604Y00256249D02*
D03*
X00407276Y00603976D02*
D03*
X00261293Y00743680D02*
D03*
X00402438Y00697707D02*
D03*
X00458543Y00627950D02*
D03*
X00538339Y00612272D02*
D03*
X00487317Y00521333D02*
D03*
X00419490Y00557500D02*
D03*
X00431919Y00431790D02*
D03*
X00419890Y00488051D02*
D03*
X00213645Y00570342D02*
D03*
X00239203Y00464289D02*
D03*
X00204175Y00452310D02*
D03*
X00134361Y00452306D02*
D03*
X00410994Y00678409D02*
D03*
X00495643Y00537957D02*
D03*
X00471313Y00337396D02*
D03*
X00385000Y00093180D02*
D03*
X00402783Y00093184D02*
D03*
X00259642Y00533543D02*
D03*
X00255221Y00585192D02*
D03*
X00314950Y00649726D02*
D03*
X00361657Y00543247D02*
D03*
X00544225Y00469100D02*
D03*
X00492111Y00348295D02*
D03*
X00283237Y00211724D02*
D03*
X00257419Y00149810D02*
D03*
X00276828Y00035928D02*
D03*
X00546789Y00546147D02*
D03*
X00432039Y00127630D02*
D03*
X00464758Y00536995D02*
D03*
X00442617Y00622500D02*
D03*
X00458543Y00602500D02*
D03*
X00372828Y00733845D02*
D03*
X00406379Y00572500D02*
D03*
X00447124Y00191278D02*
D03*
X00156119Y00409126D02*
D03*
X00482092Y00728205D02*
D03*
X00311250Y00485679D02*
D03*
X00108978Y00605700D02*
D03*
X00477460Y00429909D02*
D03*
X00166110Y00785023D02*
D03*
X00535710Y00627500D02*
D03*
X00344581Y00627738D02*
D03*
X00353118Y00642738D02*
D03*
X00198738Y00762680D02*
D03*
X00198740Y00601821D02*
D03*
X00162832Y00208789D02*
D03*
X00281499Y00163342D02*
D03*
X00388793Y00143049D02*
D03*
X00277062Y00118481D02*
D03*
X00667269Y00553063D02*
D03*
X00376075Y00456784D02*
D03*
X00256229Y00242396D02*
D03*
X00354313Y00117735D02*
D03*
X00397176Y00363397D02*
D03*
X00362500Y00378223D02*
D03*
X00347789Y00384006D02*
D03*
X00414607Y00392989D02*
D03*
X00405574Y00400511D02*
D03*
X00410141Y00353278D02*
D03*
X00362500Y00363397D02*
D03*
X00487459Y00572500D02*
D03*
X00498000Y00574701D02*
D03*
X00472460Y00576759D02*
D03*
X00557424Y00569600D02*
D03*
X00377500Y00355672D02*
D03*
X00572575Y00433004D02*
D03*
X00372500Y00323631D02*
D03*
X00383500D02*
D03*
X00397944Y00638481D02*
D03*
X00327136Y00236420D02*
D03*
X00327500Y00249150D02*
D03*
X00345441Y00246226D02*
D03*
X00357500Y00246634D02*
D03*
X00324024Y00294298D02*
D03*
X00269251Y00241500D02*
D03*
X00440437Y00336500D02*
D03*
X00387995Y00271500D02*
D03*
X00357441Y00322265D02*
D03*
X00307349Y00255098D02*
D03*
X00323285Y00270044D02*
D03*
X00462746Y00278932D02*
D03*
X00514110Y00471728D02*
D03*
X00219678Y00246000D02*
D03*
X00420540Y00649059D02*
D03*
X00477459Y00626694D02*
D03*
X00219013Y00538992D02*
D03*
X00385789Y00187353D02*
D03*
X00400038Y00181940D02*
D03*
X00430214Y00251500D02*
D03*
X00562553Y00370400D02*
D03*
X00546301Y00360499D02*
D03*
X00536764Y00344798D02*
D03*
X00354582Y00311549D02*
D03*
X00337500Y00318310D02*
D03*
X00436101Y00381952D02*
D03*
X00451425D02*
D03*
X00576068Y00633800D02*
D03*
X00359927Y00296995D02*
D03*
X00485066Y00304341D02*
D03*
X00498121Y00306670D02*
D03*
X00324024Y00281500D02*
D03*
X00359927Y00284196D02*
D03*
X00246375Y00250250D02*
D03*
X00457346Y00304341D02*
D03*
X00349778Y00164092D02*
D03*
X00355000Y00189097D02*
D03*
X00357652Y00138714D02*
D03*
X00472397Y00233080D02*
D03*
X00559725Y00407500D02*
D03*
X00245000Y00277000D02*
D03*
X00257126D02*
D03*
X00269251D02*
D03*
X00148844Y00393300D02*
D03*
X00317500Y00363397D02*
D03*
X00134903Y00351963D02*
D03*
X00245000Y00620075D02*
D03*
X00482092Y00682108D02*
D03*
X00416009Y00336500D02*
D03*
X00422059Y00419634D02*
D03*
X00532703Y00572500D02*
D03*
X00477460Y00471728D02*
D03*
X00487459Y00620400D02*
D03*
X00559095Y00630527D02*
D03*
X00478311Y00668693D02*
D03*
X00506079Y00688554D02*
D03*
D67*
X00591300Y00533000D02*
D03*
X00108700Y00545700D02*
D03*
X00438900Y00025000D02*
D03*
D68*
X00275620Y00661990D02*
D03*
Y00650990D02*
D03*
M02*
