G04*
G04 #@! TF.GenerationSoftware,Altium Limited,Altium Designer,24.4.1 (13)*
G04*
G04 Layer_Color=16711935*
%FSAX44Y44*%
%MOMM*%
G71*
G04*
G04 #@! TF.SameCoordinates,09090911-0CFD-4792-A0CC-E2C5D1EC5460*
G04*
G04*
G04 #@! TF.FilePolarity,Negative*
G04*
G01*
G75*
%ADD21R,0.7500X1.0000*%
%ADD43R,1.4600X1.3100*%
%ADD46R,1.3100X1.4600*%
%ADD51C,1.5240*%
%ADD52R,1.5240X1.5240*%
%ADD53C,0.8100*%
%ADD54R,1.5240X1.5240*%
%ADD55C,3.4100*%
D21*
X00506080Y00710423D02*
D03*
X00491080D02*
D03*
X00576068Y00645800D02*
D03*
X00591068D02*
D03*
X00576068Y00620400D02*
D03*
X00591068D02*
D03*
X00576068Y00595000D02*
D03*
X00591068D02*
D03*
X00576068Y00569600D02*
D03*
X00591068D02*
D03*
X00652268Y00645800D02*
D03*
X00667268D02*
D03*
X00652268Y00620400D02*
D03*
X00667268D02*
D03*
X00652268Y00595000D02*
D03*
X00667268D02*
D03*
X00652268Y00569600D02*
D03*
X00667268D02*
D03*
X00454959Y00682108D02*
D03*
X00439959D02*
D03*
D43*
X00650270Y00536527D02*
D03*
X00667270D02*
D03*
D46*
X00408468Y00111380D02*
D03*
Y00128380D02*
D03*
D51*
X00621668Y00620400D02*
D03*
Y00645800D02*
D03*
Y00595000D02*
D03*
X00539239Y00702805D02*
D03*
Y00677405D02*
D03*
Y00753605D02*
D03*
Y00728205D02*
D03*
Y00779005D02*
D03*
X00626275Y00728210D02*
D03*
X00311250Y00600035D02*
D03*
X00667500Y00787000D02*
D03*
X00591300Y00294200D02*
D03*
Y00268800D02*
D03*
Y00345000D02*
D03*
Y00319600D02*
D03*
Y00395800D02*
D03*
Y00370400D02*
D03*
Y00421200D02*
D03*
Y00472000D02*
D03*
Y00446600D02*
D03*
X00667500Y00507600D02*
D03*
Y00482200D02*
D03*
Y00456800D02*
D03*
Y00126600D02*
D03*
Y00101200D02*
D03*
Y00075800D02*
D03*
Y00050400D02*
D03*
Y00431400D02*
D03*
Y00406000D02*
D03*
Y00380600D02*
D03*
Y00355200D02*
D03*
Y00228200D02*
D03*
Y00202800D02*
D03*
Y00177400D02*
D03*
Y00152000D02*
D03*
Y00329800D02*
D03*
Y00304400D02*
D03*
Y00279000D02*
D03*
Y00253600D02*
D03*
X00591300Y00075800D02*
D03*
Y00050400D02*
D03*
Y00126600D02*
D03*
Y00101200D02*
D03*
Y00177400D02*
D03*
Y00152000D02*
D03*
Y00202800D02*
D03*
X00328787Y00533790D02*
D03*
X00108700Y00075800D02*
D03*
Y00050400D02*
D03*
Y00126600D02*
D03*
Y00101200D02*
D03*
Y00152000D02*
D03*
Y00253600D02*
D03*
Y00228200D02*
D03*
Y00304400D02*
D03*
Y00279000D02*
D03*
Y00355200D02*
D03*
Y00329800D02*
D03*
Y00380600D02*
D03*
X00057900Y00253600D02*
D03*
Y00279000D02*
D03*
Y00304400D02*
D03*
Y00329800D02*
D03*
Y00152000D02*
D03*
Y00177400D02*
D03*
Y00202800D02*
D03*
Y00228200D02*
D03*
Y00355200D02*
D03*
Y00380600D02*
D03*
Y00406000D02*
D03*
Y00431400D02*
D03*
Y00050400D02*
D03*
Y00075800D02*
D03*
Y00101200D02*
D03*
Y00126600D02*
D03*
Y00456800D02*
D03*
Y00482200D02*
D03*
Y00507600D02*
D03*
X00150624Y00673669D02*
D03*
Y00699069D02*
D03*
X00032500Y00787000D02*
D03*
D52*
X00621668Y00569600D02*
D03*
X00539239Y00804405D02*
D03*
X00626275Y00753610D02*
D03*
X00667500Y00761600D02*
D03*
X00591300Y00497400D02*
D03*
Y00228200D02*
D03*
X00328787Y00508390D02*
D03*
X00108700Y00177400D02*
D03*
Y00406000D02*
D03*
X00150624Y00724469D02*
D03*
X00032500Y00761600D02*
D03*
D53*
X00433960Y00772500D02*
D03*
X00477960D02*
D03*
X00440265Y00668693D02*
D03*
X00500015Y00724459D02*
D03*
X00600000Y00672410D02*
D03*
X00615624Y00691841D02*
D03*
X00559634Y00585819D02*
D03*
X00656891Y00606628D02*
D03*
X00652436Y00661883D02*
D03*
X00402438Y00697707D02*
D03*
X00410994Y00678409D02*
D03*
X00495643Y00537957D02*
D03*
X00471313Y00337396D02*
D03*
X00402783Y00093184D02*
D03*
X00546789Y00546147D02*
D03*
X00464758Y00536995D02*
D03*
X00442617Y00622500D02*
D03*
X00458543Y00602500D02*
D03*
X00372828Y00733845D02*
D03*
X00406379Y00572500D02*
D03*
X00447124Y00191278D02*
D03*
X00156119Y00409126D02*
D03*
X00482092Y00728205D02*
D03*
X00311250Y00485679D02*
D03*
X00108978Y00605700D02*
D03*
X00477460Y00429909D02*
D03*
X00166110Y00785023D02*
D03*
X00535710Y00627500D02*
D03*
X00344581Y00627738D02*
D03*
X00353118Y00642738D02*
D03*
X00198738Y00762680D02*
D03*
X00198740Y00601821D02*
D03*
X00162832Y00208789D02*
D03*
X00281499Y00163342D02*
D03*
X00388793Y00143049D02*
D03*
X00277062Y00118481D02*
D03*
X00667269Y00553063D02*
D03*
X00376075Y00456784D02*
D03*
X00397176Y00363397D02*
D03*
X00362500Y00378223D02*
D03*
X00347789Y00384006D02*
D03*
X00414607Y00392989D02*
D03*
X00405574Y00400511D02*
D03*
X00410141Y00353278D02*
D03*
X00362500Y00363397D02*
D03*
X00487459Y00572500D02*
D03*
X00498000Y00574701D02*
D03*
X00472460Y00576759D02*
D03*
X00557424Y00569600D02*
D03*
X00377500Y00355672D02*
D03*
X00572575Y00433004D02*
D03*
X00372500Y00323631D02*
D03*
X00383500D02*
D03*
X00397944Y00638481D02*
D03*
X00327136Y00236420D02*
D03*
X00327500Y00249150D02*
D03*
X00345441Y00246226D02*
D03*
X00357500Y00246634D02*
D03*
X00324024Y00294298D02*
D03*
X00269251Y00241500D02*
D03*
X00440437Y00336500D02*
D03*
X00387995Y00271500D02*
D03*
X00357441Y00322265D02*
D03*
X00307349Y00255098D02*
D03*
X00323285Y00270044D02*
D03*
X00462746Y00278932D02*
D03*
X00514110Y00471728D02*
D03*
X00219678Y00246000D02*
D03*
X00420540Y00649059D02*
D03*
X00477459Y00626694D02*
D03*
X00219013Y00538992D02*
D03*
X00385789Y00187353D02*
D03*
X00400038Y00181940D02*
D03*
X00430214Y00251500D02*
D03*
X00562553Y00370400D02*
D03*
X00546301Y00360499D02*
D03*
X00536764Y00344798D02*
D03*
X00354582Y00311549D02*
D03*
X00337500Y00318310D02*
D03*
X00436101Y00381952D02*
D03*
X00451425D02*
D03*
X00576068Y00633800D02*
D03*
X00359927Y00296995D02*
D03*
X00485066Y00304341D02*
D03*
X00498121Y00306670D02*
D03*
X00324024Y00281500D02*
D03*
X00359927Y00284196D02*
D03*
X00246375Y00250250D02*
D03*
X00457346Y00304341D02*
D03*
X00349778Y00164092D02*
D03*
X00355000Y00189097D02*
D03*
X00357652Y00138714D02*
D03*
X00472397Y00233080D02*
D03*
X00559725Y00407500D02*
D03*
X00245000Y00277000D02*
D03*
X00257126D02*
D03*
X00269251D02*
D03*
X00148844Y00393300D02*
D03*
X00317500Y00363397D02*
D03*
X00134903Y00351963D02*
D03*
X00245000Y00620075D02*
D03*
X00482092Y00682108D02*
D03*
X00416009Y00336500D02*
D03*
X00422059Y00419634D02*
D03*
X00532703Y00572500D02*
D03*
X00477460Y00471728D02*
D03*
X00487459Y00620400D02*
D03*
X00559095Y00630527D02*
D03*
X00478311Y00668693D02*
D03*
X00506079Y00688554D02*
D03*
D54*
X00336650Y00600035D02*
D03*
X00642100Y00507600D02*
D03*
Y00482200D02*
D03*
Y00456800D02*
D03*
Y00126600D02*
D03*
Y00101200D02*
D03*
Y00075800D02*
D03*
Y00050400D02*
D03*
Y00406000D02*
D03*
Y00380600D02*
D03*
Y00355200D02*
D03*
Y00228200D02*
D03*
Y00202800D02*
D03*
Y00177400D02*
D03*
Y00152000D02*
D03*
Y00329800D02*
D03*
Y00304400D02*
D03*
Y00279000D02*
D03*
Y00253600D02*
D03*
Y00431400D02*
D03*
X00032500Y00253600D02*
D03*
Y00279000D02*
D03*
Y00304400D02*
D03*
Y00329800D02*
D03*
Y00152000D02*
D03*
Y00177400D02*
D03*
Y00202800D02*
D03*
Y00228200D02*
D03*
Y00355200D02*
D03*
Y00380600D02*
D03*
Y00406000D02*
D03*
Y00431400D02*
D03*
Y00075800D02*
D03*
Y00101200D02*
D03*
Y00126600D02*
D03*
Y00456800D02*
D03*
Y00482200D02*
D03*
Y00507600D02*
D03*
Y00050400D02*
D03*
D55*
X00591300Y00533000D02*
D03*
X00108700Y00545700D02*
D03*
X00438900Y00025000D02*
D03*
M02*
