G04*
G04 #@! TF.GenerationSoftware,Altium Limited,Altium Designer,24.4.1 (13)*
G04*
G04 Layer_Physical_Order=4*
G04 Layer_Color=16711680*
%FSAX44Y44*%
%MOMM*%
G71*
G04*
G04 #@! TF.SameCoordinates,09090911-0CFD-4792-A0CC-E2C5D1EC5460*
G04*
G04*
G04 #@! TF.FilePolarity,Positive*
G04*
G01*
G75*
%ADD13C,0.5080*%
%ADD14C,0.2540*%
%ADD21R,0.7500X1.0000*%
%ADD23R,1.2500X1.1000*%
%ADD30R,1.1000X1.2500*%
%ADD51C,1.5240*%
%ADD52R,1.5240X1.5240*%
%ADD54R,1.5240X1.5240*%
%ADD58C,0.6120*%
%ADD61C,1.0000*%
%ADD66C,0.6000*%
%ADD67C,3.2000*%
%ADD68C,0.5000*%
G36*
X00697411Y00002590D02*
X00002590D01*
Y00822411D01*
X00697411D01*
Y00002590D01*
D02*
G37*
%LPC*%
G36*
X00550669Y00815835D02*
X00527809D01*
Y00792975D01*
X00550669D01*
Y00815835D01*
D02*
G37*
G36*
X00167006Y00791833D02*
X00165213D01*
X00163481Y00791368D01*
X00161929Y00790472D01*
X00160660Y00789204D01*
X00159764Y00787651D01*
X00159300Y00785919D01*
Y00784126D01*
X00159764Y00782394D01*
X00160660Y00780841D01*
X00161929Y00779573D01*
X00163481Y00778677D01*
X00165213Y00778213D01*
X00167006D01*
X00168738Y00778677D01*
X00170291Y00779573D01*
X00171559Y00780841D01*
X00172456Y00782394D01*
X00172920Y00784126D01*
Y00785919D01*
X00172456Y00787651D01*
X00171559Y00789204D01*
X00170291Y00790472D01*
X00168738Y00791368D01*
X00167006Y00791833D01*
D02*
G37*
G36*
X00540744Y00790435D02*
X00537734D01*
X00534827Y00789656D01*
X00532221Y00788152D01*
X00530093Y00786023D01*
X00528588Y00783417D01*
X00527809Y00780510D01*
Y00777501D01*
X00528588Y00774594D01*
X00530093Y00771987D01*
X00532221Y00769859D01*
X00534827Y00768354D01*
X00537734Y00767575D01*
X00540744D01*
X00543651Y00768354D01*
X00546257Y00769859D01*
X00548385Y00771987D01*
X00549890Y00774594D01*
X00550669Y00777501D01*
Y00780510D01*
X00549890Y00783417D01*
X00548385Y00786023D01*
X00546257Y00788152D01*
X00543651Y00789656D01*
X00540744Y00790435D01*
D02*
G37*
G36*
X00479054Y00780810D02*
X00476866D01*
X00474752Y00780244D01*
X00472857Y00779150D01*
X00471310Y00777602D01*
X00470216Y00775707D01*
X00469650Y00773594D01*
Y00771406D01*
X00470216Y00769292D01*
X00471310Y00767398D01*
X00472857Y00765850D01*
X00474752Y00764756D01*
X00476866Y00764190D01*
X00479054D01*
X00481167Y00764756D01*
X00483062Y00765850D01*
X00484609Y00767398D01*
X00485703Y00769292D01*
X00486270Y00771406D01*
Y00773594D01*
X00485703Y00775707D01*
X00484609Y00777602D01*
X00483062Y00779150D01*
X00481167Y00780244D01*
X00479054Y00780810D01*
D02*
G37*
G36*
X00435054D02*
X00432866D01*
X00430752Y00780244D01*
X00428857Y00779150D01*
X00427310Y00777602D01*
X00426216Y00775707D01*
X00425650Y00773594D01*
Y00771406D01*
X00426216Y00769292D01*
X00427310Y00767398D01*
X00428857Y00765850D01*
X00430752Y00764756D01*
X00432866Y00764190D01*
X00435054D01*
X00437167Y00764756D01*
X00439062Y00765850D01*
X00440610Y00767398D01*
X00441703Y00769292D01*
X00442270Y00771406D01*
Y00773594D01*
X00441703Y00775707D01*
X00440610Y00777602D01*
X00439062Y00779150D01*
X00437167Y00780244D01*
X00435054Y00780810D01*
D02*
G37*
G36*
X00199635Y00769490D02*
X00197842D01*
X00196110Y00769026D01*
X00194557Y00768129D01*
X00193289Y00766861D01*
X00192392Y00765308D01*
X00191928Y00763576D01*
Y00761783D01*
X00192392Y00760051D01*
X00193289Y00758498D01*
X00194557Y00757230D01*
X00196110Y00756334D01*
X00197842Y00755870D01*
X00199635D01*
X00201367Y00756334D01*
X00202920Y00757230D01*
X00204188Y00758498D01*
X00205084Y00760051D01*
X00205548Y00761783D01*
Y00763576D01*
X00205084Y00765308D01*
X00204188Y00766861D01*
X00202920Y00768129D01*
X00201367Y00769026D01*
X00199635Y00769490D01*
D02*
G37*
G36*
X00373724Y00740655D02*
X00371931D01*
X00370199Y00740191D01*
X00368646Y00739295D01*
X00367378Y00738027D01*
X00366482Y00736474D01*
X00366018Y00734742D01*
Y00732949D01*
X00366482Y00731217D01*
X00367378Y00729664D01*
X00368646Y00728396D01*
X00370199Y00727499D01*
X00371931Y00727035D01*
X00373724D01*
X00375456Y00727499D01*
X00377009Y00728396D01*
X00378277Y00729664D01*
X00379174Y00731217D01*
X00379638Y00732949D01*
Y00734742D01*
X00379174Y00736474D01*
X00378277Y00738027D01*
X00377009Y00739295D01*
X00375456Y00740191D01*
X00373724Y00740655D01*
D02*
G37*
G36*
X00540744Y00739635D02*
X00537734D01*
X00534827Y00738856D01*
X00532221Y00737352D01*
X00530093Y00735223D01*
X00528588Y00732617D01*
X00527809Y00729710D01*
Y00726701D01*
X00528588Y00723793D01*
X00530093Y00721187D01*
X00532221Y00719059D01*
X00534827Y00717554D01*
X00537734Y00716775D01*
X00540744D01*
X00543651Y00717554D01*
X00546257Y00719059D01*
X00548385Y00721187D01*
X00549890Y00723793D01*
X00550669Y00726701D01*
Y00729710D01*
X00549890Y00732617D01*
X00548385Y00735223D01*
X00546257Y00737352D01*
X00543651Y00738856D01*
X00540744Y00739635D01*
D02*
G37*
G36*
X00162054Y00735899D02*
X00139194D01*
Y00713038D01*
X00162054D01*
Y00735899D01*
D02*
G37*
G36*
X00638251Y00771773D02*
X00616063D01*
X00614081Y00771379D01*
X00612401Y00770256D01*
X00551161Y00709016D01*
X00551084Y00708951D01*
X00548797Y00709111D01*
X00548385Y00709824D01*
X00546257Y00711952D01*
X00543651Y00713456D01*
X00540744Y00714235D01*
X00537734D01*
X00534827Y00713456D01*
X00532221Y00711952D01*
X00530093Y00709824D01*
X00528588Y00707217D01*
X00527809Y00704310D01*
Y00701301D01*
X00528588Y00698393D01*
X00530093Y00695787D01*
X00529689Y00693677D01*
X00529562Y00693490D01*
X00492273Y00656201D01*
X00491150Y00654520D01*
X00490756Y00652538D01*
Y00628562D01*
X00488756Y00627103D01*
X00488355Y00627210D01*
X00486562D01*
X00486269Y00627132D01*
X00484464Y00627546D01*
X00484025Y00628504D01*
X00483805Y00629322D01*
X00482909Y00630875D01*
X00482639Y00631145D01*
Y00634058D01*
X00482245Y00636040D01*
X00481122Y00637721D01*
X00466122Y00652721D01*
X00464441Y00653844D01*
X00462459Y00654238D01*
X00424991D01*
X00424721Y00654508D01*
X00423169Y00655404D01*
X00421437Y00655869D01*
X00419644D01*
X00417911Y00655404D01*
X00416359Y00654508D01*
X00415091Y00653240D01*
X00414194Y00651687D01*
X00413730Y00649955D01*
Y00648162D01*
X00414194Y00646430D01*
X00415091Y00644877D01*
X00416359Y00643609D01*
X00417911Y00642713D01*
X00419644Y00642249D01*
X00421437D01*
X00423169Y00642713D01*
X00424721Y00643609D01*
X00424991Y00643879D01*
X00460314D01*
X00472280Y00631913D01*
Y00631145D01*
X00472010Y00630875D01*
X00471114Y00629322D01*
X00470649Y00627590D01*
Y00625797D01*
X00471114Y00624065D01*
X00472010Y00622512D01*
X00473278Y00621244D01*
X00474831Y00620348D01*
X00476563Y00619884D01*
X00478356D01*
X00478649Y00619962D01*
X00480454Y00619548D01*
X00480894Y00618590D01*
X00481113Y00617772D01*
X00482010Y00616219D01*
X00483277Y00614951D01*
X00484830Y00614054D01*
X00486562Y00613590D01*
X00488355D01*
X00488756Y00613698D01*
X00490756Y00612238D01*
Y00599646D01*
X00480314Y00589203D01*
X00403912D01*
X00403912Y00589203D01*
X00401930Y00588809D01*
X00400249Y00587686D01*
X00400249Y00587686D01*
X00379261Y00566698D01*
X00241540D01*
X00239558Y00566304D01*
X00237878Y00565181D01*
X00218498Y00545802D01*
X00218116D01*
X00216384Y00545338D01*
X00214831Y00544441D01*
X00213563Y00543174D01*
X00212667Y00541621D01*
X00212203Y00539889D01*
Y00538096D01*
X00212667Y00536364D01*
X00213563Y00534811D01*
X00214831Y00533543D01*
X00216384Y00532646D01*
X00218116Y00532182D01*
X00219909D01*
X00221641Y00532646D01*
X00223194Y00533543D01*
X00224462Y00534811D01*
X00225359Y00536364D01*
X00225823Y00538096D01*
Y00538477D01*
X00243685Y00556339D01*
X00381407D01*
X00383389Y00556734D01*
X00385069Y00557856D01*
X00397777Y00570564D01*
X00400008Y00569966D01*
X00400033Y00569871D01*
X00400930Y00568318D01*
X00402198Y00567051D01*
X00403750Y00566154D01*
X00405482Y00565690D01*
X00407276D01*
X00409008Y00566154D01*
X00410560Y00567051D01*
X00411828Y00568318D01*
X00412725Y00569871D01*
X00413189Y00571603D01*
Y00573396D01*
X00412725Y00575128D01*
X00411828Y00576681D01*
X00411665Y00576844D01*
X00412494Y00578844D01*
X00464738D01*
X00465650Y00577655D01*
Y00575862D01*
X00466114Y00574130D01*
X00467011Y00572577D01*
X00468279Y00571310D01*
X00469831Y00570413D01*
X00471563Y00569949D01*
X00471945D01*
X00472280Y00569613D01*
Y00541587D01*
X00470280Y00541051D01*
X00470208Y00541176D01*
X00468940Y00542444D01*
X00467387Y00543341D01*
X00465655Y00543805D01*
X00463862D01*
X00462130Y00543341D01*
X00460577Y00542444D01*
X00459309Y00541176D01*
X00458413Y00539624D01*
X00457948Y00537892D01*
Y00536098D01*
X00458413Y00534366D01*
X00459309Y00532813D01*
X00460577Y00531546D01*
X00462130Y00530649D01*
X00463862Y00530185D01*
X00465655D01*
X00467387Y00530649D01*
X00468940Y00531546D01*
X00470208Y00532813D01*
X00470280Y00532939D01*
X00472280Y00532403D01*
Y00476180D01*
X00472010Y00475910D01*
X00471114Y00474357D01*
X00470650Y00472625D01*
Y00470832D01*
X00471114Y00469100D01*
X00472010Y00467547D01*
X00473279Y00466279D01*
X00474831Y00465382D01*
X00476563Y00464918D01*
X00478356D01*
X00480089Y00465382D01*
X00481641Y00466279D01*
X00482909Y00467547D01*
X00483806Y00469100D01*
X00484270Y00470832D01*
Y00472625D01*
X00483806Y00474357D01*
X00482909Y00475910D01*
X00482639Y00476180D01*
Y00557026D01*
X00484639Y00557854D01*
X00495726Y00546767D01*
X00494898Y00544767D01*
X00494746D01*
X00493014Y00544303D01*
X00491461Y00543406D01*
X00490193Y00542139D01*
X00489297Y00540586D01*
X00488833Y00538854D01*
Y00537061D01*
X00489297Y00535329D01*
X00490193Y00533776D01*
X00491461Y00532508D01*
X00493014Y00531611D01*
X00494746Y00531147D01*
X00496539D01*
X00498271Y00531611D01*
X00499824Y00532508D01*
X00501092Y00533776D01*
X00503567Y00534062D01*
X00503858Y00533862D01*
Y00476801D01*
X00504252Y00474819D01*
X00505375Y00473138D01*
X00507300Y00471213D01*
Y00470832D01*
X00507764Y00469100D01*
X00508660Y00467547D01*
X00509928Y00466279D01*
X00511481Y00465382D01*
X00513213Y00464918D01*
X00515006D01*
X00516738Y00465382D01*
X00518291Y00466279D01*
X00519559Y00467547D01*
X00520456Y00469100D01*
X00520920Y00470832D01*
Y00472625D01*
X00520456Y00474357D01*
X00519559Y00475910D01*
X00518291Y00477178D01*
X00516738Y00478074D01*
X00515006Y00478538D01*
X00514624D01*
X00514217Y00478946D01*
Y00540781D01*
X00513822Y00542763D01*
X00512700Y00544444D01*
X00492638Y00564505D01*
Y00567741D01*
X00492666Y00567777D01*
X00494241Y00569008D01*
X00495371Y00568356D01*
X00495620Y00568289D01*
X00522385Y00541524D01*
X00530018Y00533891D01*
X00531698Y00532769D01*
X00533680Y00532374D01*
X00533909D01*
X00567360Y00498923D01*
Y00437420D01*
X00567125Y00437186D01*
X00566229Y00435633D01*
X00565765Y00433901D01*
Y00432108D01*
X00566229Y00430376D01*
X00567125Y00428823D01*
X00568393Y00427555D01*
X00569175Y00427104D01*
X00569724Y00424824D01*
X00559210Y00414310D01*
X00558828D01*
X00557096Y00413846D01*
X00555544Y00412949D01*
X00554276Y00411681D01*
X00553379Y00410129D01*
X00552915Y00408396D01*
Y00406603D01*
X00553379Y00404871D01*
X00554276Y00403318D01*
X00555544Y00402051D01*
X00557096Y00401154D01*
X00558828Y00400690D01*
X00560621D01*
X00562354Y00401154D01*
X00563556Y00399539D01*
X00551149Y00387132D01*
X00455876D01*
X00455606Y00387401D01*
X00454053Y00388298D01*
X00452321Y00388762D01*
X00450528D01*
X00448796Y00388298D01*
X00447243Y00387401D01*
X00445975Y00386133D01*
X00445079Y00384581D01*
X00444798Y00383532D01*
X00442728D01*
X00442447Y00384581D01*
X00441550Y00386133D01*
X00440282Y00387401D01*
X00438729Y00388298D01*
X00436997Y00388762D01*
X00435204D01*
X00433472Y00388298D01*
X00431919Y00387401D01*
X00430651Y00386133D01*
X00429755Y00384581D01*
X00429291Y00382849D01*
Y00381055D01*
X00429755Y00379324D01*
X00430651Y00377771D01*
X00431919Y00376503D01*
X00433472Y00375606D01*
X00435204Y00375142D01*
X00435586D01*
X00450993Y00359734D01*
X00452674Y00358612D01*
X00454656Y00358217D01*
X00506022D01*
X00516093Y00348147D01*
X00517773Y00347024D01*
X00519755Y00346630D01*
X00529236D01*
X00529954Y00345694D01*
Y00343901D01*
X00530418Y00342169D01*
X00531315Y00340616D01*
X00532583Y00339348D01*
X00534136Y00338451D01*
X00535868Y00337988D01*
X00537661D01*
X00539393Y00338451D01*
X00540946Y00339348D01*
X00541317Y00339719D01*
X00581151D01*
X00581695Y00338777D01*
X00582062Y00337821D01*
X00581130Y00336177D01*
X00580694Y00335885D01*
X00576464Y00331655D01*
X00483482D01*
X00478123Y00337015D01*
Y00338293D01*
X00477659Y00340025D01*
X00476763Y00341578D01*
X00475495Y00342846D01*
X00473942Y00343742D01*
X00472210Y00344206D01*
X00470417D01*
X00468685Y00343742D01*
X00467132Y00342846D01*
X00465864Y00341578D01*
X00464967Y00340025D01*
X00464503Y00338293D01*
Y00336500D01*
X00464782Y00335458D01*
X00463643Y00333458D01*
X00448743D01*
X00447208Y00335458D01*
X00447247Y00335603D01*
Y00337396D01*
X00446783Y00339128D01*
X00445886Y00340681D01*
X00444618Y00341949D01*
X00443065Y00342846D01*
X00441333Y00343310D01*
X00439540D01*
X00437808Y00342846D01*
X00436255Y00341949D01*
X00434987Y00340681D01*
X00434091Y00339128D01*
X00433627Y00337396D01*
Y00335603D01*
X00433666Y00335458D01*
X00432131Y00333458D01*
X00424315D01*
X00422780Y00335458D01*
X00422819Y00335603D01*
Y00335985D01*
X00425303Y00338469D01*
X00425721Y00338748D01*
X00426844Y00340429D01*
X00427239Y00342411D01*
Y00415183D01*
X00427508Y00415452D01*
X00428405Y00417005D01*
X00428869Y00418737D01*
Y00420531D01*
X00428405Y00422263D01*
X00427508Y00423815D01*
X00426240Y00425083D01*
X00424688Y00425980D01*
X00422956Y00426444D01*
X00421162D01*
X00419430Y00425980D01*
X00417878Y00425083D01*
X00416610Y00423815D01*
X00415713Y00422263D01*
X00415249Y00420531D01*
Y00418737D01*
X00415713Y00417005D01*
X00416610Y00415452D01*
X00416879Y00415183D01*
Y00400854D01*
X00415504Y00399799D01*
X00413711D01*
X00412410Y00401376D01*
X00412357Y00401507D01*
X00411920Y00403140D01*
X00411023Y00404693D01*
X00409755Y00405961D01*
X00408202Y00406857D01*
X00406470Y00407321D01*
X00404677D01*
X00402945Y00406857D01*
X00401392Y00405961D01*
X00401122Y00405691D01*
X00328913D01*
X00326931Y00405297D01*
X00325251Y00404174D01*
X00323763Y00402686D01*
X00322640Y00401006D01*
X00322245Y00399024D01*
Y00370830D01*
X00320246Y00369675D01*
X00320129Y00369743D01*
X00318397Y00370207D01*
X00318015D01*
X00291259Y00396962D01*
X00289579Y00398085D01*
X00287597Y00398479D01*
X00153296D01*
X00153026Y00398749D01*
X00151473Y00399646D01*
X00149741Y00400110D01*
X00147948D01*
X00146457Y00399710D01*
X00145920Y00399755D01*
X00144289Y00400362D01*
X00144167Y00400544D01*
X00143166Y00402042D01*
X00137511Y00407697D01*
Y00421780D01*
X00137117Y00423762D01*
X00135994Y00425442D01*
X00092349Y00469087D01*
Y00485590D01*
X00091955Y00487572D01*
X00090832Y00489253D01*
X00081042Y00499042D01*
X00079362Y00500165D01*
X00077380Y00500559D01*
X00072266D01*
X00068781Y00504044D01*
X00069330Y00506095D01*
Y00509105D01*
X00068551Y00512012D01*
X00067046Y00514618D01*
X00064918Y00516746D01*
X00062312Y00518251D01*
X00059405Y00519030D01*
X00056395D01*
X00053488Y00518251D01*
X00050882Y00516746D01*
X00048754Y00514618D01*
X00047249Y00512012D01*
X00046470Y00509105D01*
Y00506095D01*
X00047249Y00503188D01*
X00047764Y00502296D01*
X00046834Y00500560D01*
X00045637Y00500413D01*
X00043930Y00501896D01*
Y00519030D01*
X00021070D01*
Y00496170D01*
X00034771D01*
X00035803Y00494170D01*
X00035419Y00493630D01*
X00021070D01*
Y00470770D01*
X00043930D01*
Y00486305D01*
X00045900Y00488274D01*
X00047500Y00487046D01*
X00047249Y00486612D01*
X00046470Y00483705D01*
Y00480695D01*
X00047249Y00477788D01*
X00048754Y00475182D01*
X00050882Y00473054D01*
X00053488Y00471549D01*
X00056395Y00470770D01*
X00059405D01*
X00062312Y00471549D01*
X00062556Y00471690D01*
X00074331Y00459915D01*
X00074936Y00459009D01*
X00114667Y00419277D01*
X00113902Y00417430D01*
X00097270D01*
Y00404942D01*
X00095422Y00404177D01*
X00077237Y00422362D01*
X00075557Y00423485D01*
X00073575Y00423879D01*
X00052426D01*
X00047593Y00428712D01*
X00045912Y00429835D01*
X00043930Y00430229D01*
Y00442830D01*
X00021070D01*
Y00419970D01*
X00038350D01*
X00038850Y00419870D01*
X00040243D01*
X00040537Y00419430D01*
X00039468Y00417430D01*
X00021070D01*
Y00394570D01*
X00043930D01*
Y00414896D01*
X00045930Y00415725D01*
X00046618Y00415037D01*
X00047413Y00414506D01*
X00048266Y00413560D01*
X00048115Y00411912D01*
X00047249Y00410412D01*
X00046470Y00407505D01*
Y00404495D01*
X00047249Y00401588D01*
X00048754Y00398982D01*
X00050882Y00396853D01*
X00053488Y00395349D01*
X00056395Y00394570D01*
X00059405D01*
X00062312Y00395349D01*
X00064918Y00396853D01*
X00067046Y00398982D01*
X00068551Y00401588D01*
X00069330Y00404495D01*
Y00407505D01*
X00068551Y00410412D01*
X00067911Y00411520D01*
X00069066Y00413520D01*
X00071429D01*
X00095312Y00389637D01*
X00095312Y00389637D01*
X00096992Y00388515D01*
X00097683Y00388377D01*
X00098728Y00386187D01*
X00098049Y00385012D01*
X00097270Y00382105D01*
Y00379095D01*
X00098049Y00376188D01*
X00098689Y00375079D01*
X00097535Y00373079D01*
X00069066D01*
X00067911Y00375079D01*
X00068551Y00376188D01*
X00069330Y00379095D01*
Y00382105D01*
X00068551Y00385012D01*
X00067046Y00387618D01*
X00064918Y00389746D01*
X00062312Y00391251D01*
X00059405Y00392030D01*
X00056395D01*
X00053488Y00391251D01*
X00050882Y00389746D01*
X00048754Y00387618D01*
X00047249Y00385012D01*
X00046470Y00382105D01*
Y00379095D01*
X00047249Y00376188D01*
X00047500Y00375753D01*
X00045900Y00374525D01*
X00043930Y00376495D01*
Y00392030D01*
X00021070D01*
Y00369170D01*
X00035419D01*
X00035803Y00368630D01*
X00034771Y00366630D01*
X00021070D01*
Y00343770D01*
X00043930D01*
Y00360904D01*
X00045637Y00362386D01*
X00046834Y00362239D01*
X00047764Y00360503D01*
X00047249Y00359612D01*
X00046470Y00356705D01*
Y00353695D01*
X00047249Y00350788D01*
X00048754Y00348182D01*
X00050882Y00346054D01*
X00053488Y00344549D01*
X00056395Y00343770D01*
X00059405D01*
X00062312Y00344549D01*
X00064918Y00346054D01*
X00067046Y00348182D01*
X00068551Y00350788D01*
X00069330Y00353695D01*
Y00356705D01*
X00068551Y00359612D01*
X00067911Y00360720D01*
X00069066Y00362720D01*
X00097535D01*
X00098689Y00360720D01*
X00098049Y00359612D01*
X00097270Y00356705D01*
Y00353695D01*
X00098049Y00350788D01*
X00099554Y00348182D01*
X00101682Y00346054D01*
X00104288Y00344549D01*
X00107195Y00343770D01*
X00110205D01*
X00112256Y00344319D01*
X00114775Y00341800D01*
X00113547Y00340199D01*
X00113112Y00340451D01*
X00110205Y00341230D01*
X00107195D01*
X00104288Y00340451D01*
X00101682Y00338946D01*
X00099554Y00336818D01*
X00098049Y00334212D01*
X00097270Y00331305D01*
Y00328295D01*
X00098049Y00325388D01*
X00099554Y00322782D01*
X00101682Y00320653D01*
X00104288Y00319149D01*
X00107195Y00318370D01*
X00110205D01*
X00113112Y00319149D01*
X00115718Y00320653D01*
X00117846Y00322782D01*
X00119351Y00325388D01*
X00119594Y00326294D01*
X00120213Y00326581D01*
X00121760Y00326651D01*
X00122104Y00326137D01*
X00122104Y00326137D01*
X00216407Y00231835D01*
X00215642Y00229987D01*
X00145126D01*
X00145126Y00229987D01*
X00143144Y00229593D01*
X00141464Y00228470D01*
X00125513Y00212519D01*
X00090594D01*
X00088611Y00212125D01*
X00086931Y00211002D01*
X00074160Y00198232D01*
X00073038Y00196551D01*
X00072643Y00194569D01*
Y00144479D01*
X00069066D01*
X00067911Y00146479D01*
X00068551Y00147588D01*
X00069330Y00150495D01*
Y00153505D01*
X00068551Y00156412D01*
X00067046Y00159018D01*
X00064918Y00161146D01*
X00062312Y00162651D01*
X00059405Y00163430D01*
X00056395D01*
X00053488Y00162651D01*
X00050882Y00161146D01*
X00048754Y00159018D01*
X00047249Y00156412D01*
X00046470Y00153505D01*
Y00150495D01*
X00047249Y00147588D01*
X00047764Y00146697D01*
X00046834Y00144960D01*
X00045637Y00144813D01*
X00043930Y00146296D01*
Y00163430D01*
X00021070D01*
Y00140570D01*
X00034771D01*
X00035803Y00138570D01*
X00035419Y00138030D01*
X00021070D01*
Y00115170D01*
X00043930D01*
Y00130705D01*
X00045900Y00132674D01*
X00047500Y00131446D01*
X00047249Y00131012D01*
X00046470Y00128105D01*
Y00125095D01*
X00047249Y00122188D01*
X00048754Y00119582D01*
X00050882Y00117453D01*
X00053488Y00115949D01*
X00056395Y00115170D01*
X00059405D01*
X00062312Y00115949D01*
X00064918Y00117453D01*
X00067046Y00119582D01*
X00068551Y00122188D01*
X00069330Y00125095D01*
Y00128105D01*
X00068551Y00131012D01*
X00067911Y00132120D01*
X00069066Y00134120D01*
X00076335D01*
X00077183Y00133424D01*
Y00092133D01*
X00076919Y00091869D01*
X00067563D01*
X00066734Y00093869D01*
X00067046Y00094182D01*
X00068551Y00096788D01*
X00069330Y00099695D01*
Y00102705D01*
X00068551Y00105612D01*
X00067046Y00108218D01*
X00064918Y00110346D01*
X00062312Y00111851D01*
X00059405Y00112630D01*
X00056395D01*
X00053488Y00111851D01*
X00050882Y00110346D01*
X00048754Y00108218D01*
X00047249Y00105612D01*
X00046470Y00102705D01*
Y00099695D01*
X00047249Y00096788D01*
X00048754Y00094182D01*
X00049066Y00093869D01*
X00048238Y00091869D01*
X00043930D01*
Y00112630D01*
X00021070D01*
Y00089770D01*
X00034771D01*
X00035803Y00087770D01*
X00035419Y00087230D01*
X00021070D01*
Y00064370D01*
X00043930D01*
Y00078373D01*
X00045498Y00079762D01*
X00046657Y00078002D01*
X00046470Y00077305D01*
Y00074295D01*
X00047249Y00071388D01*
X00048754Y00068782D01*
X00050882Y00066653D01*
X00053488Y00065149D01*
X00056395Y00064370D01*
X00059405D01*
X00062312Y00065149D01*
X00064918Y00066653D01*
X00067046Y00068782D01*
X00068108Y00070620D01*
X00098492D01*
X00099554Y00068782D01*
X00101682Y00066653D01*
X00104288Y00065149D01*
X00107195Y00064370D01*
X00110205D01*
X00113112Y00065149D01*
X00115718Y00066653D01*
X00117846Y00068782D01*
X00119351Y00071388D01*
X00120130Y00074295D01*
Y00077305D01*
X00119351Y00080212D01*
X00117846Y00082818D01*
X00115718Y00084946D01*
X00113112Y00086451D01*
X00110205Y00087230D01*
X00107195D01*
X00105145Y00086680D01*
X00102626Y00089199D01*
X00103854Y00090800D01*
X00104288Y00090549D01*
X00107195Y00089770D01*
X00110205D01*
X00113112Y00090549D01*
X00115718Y00092053D01*
X00117846Y00094182D01*
X00119351Y00096788D01*
X00120130Y00099695D01*
Y00102705D01*
X00119351Y00105612D01*
X00117846Y00108218D01*
X00115718Y00110346D01*
X00113112Y00111851D01*
X00110205Y00112630D01*
X00107195D01*
X00104288Y00111851D01*
X00103796Y00111566D01*
X00102064Y00112566D01*
Y00115233D01*
X00103796Y00116233D01*
X00104288Y00115949D01*
X00107195Y00115170D01*
X00110205D01*
X00113112Y00115949D01*
X00115718Y00117453D01*
X00117846Y00119582D01*
X00119351Y00122188D01*
X00120130Y00125095D01*
Y00128105D01*
X00119351Y00131012D01*
X00117846Y00133618D01*
X00115718Y00135746D01*
X00113112Y00137251D01*
X00110205Y00138030D01*
X00107195D01*
X00104288Y00137251D01*
X00103796Y00136966D01*
X00102064Y00137966D01*
Y00140633D01*
X00103796Y00141633D01*
X00104288Y00141349D01*
X00107195Y00140570D01*
X00110205D01*
X00113112Y00141349D01*
X00115718Y00142853D01*
X00117846Y00144982D01*
X00119351Y00147588D01*
X00120130Y00150495D01*
Y00153505D01*
X00119581Y00155555D01*
X00131706Y00167680D01*
X00273831D01*
X00274608Y00166675D01*
X00275076Y00165680D01*
X00274689Y00164238D01*
Y00162445D01*
X00275153Y00160713D01*
X00276050Y00159160D01*
X00277318Y00157893D01*
X00278871Y00156996D01*
X00280603Y00156532D01*
X00282396D01*
X00284128Y00156996D01*
X00285681Y00157893D01*
X00286949Y00159160D01*
X00287845Y00160713D01*
X00288309Y00162445D01*
Y00164238D01*
X00287923Y00165680D01*
X00288390Y00166675D01*
X00289167Y00167680D01*
X00336273D01*
X00338256Y00168074D01*
X00339936Y00169197D01*
X00340961Y00170222D01*
X00343449D01*
X00344328Y00168273D01*
X00343432Y00166720D01*
X00342968Y00164988D01*
Y00164607D01*
X00233940Y00055579D01*
X00118908D01*
X00117846Y00057418D01*
X00115718Y00059546D01*
X00113112Y00061051D01*
X00110205Y00061830D01*
X00107195D01*
X00104288Y00061051D01*
X00101682Y00059546D01*
X00099554Y00057418D01*
X00098492Y00055579D01*
X00068108D01*
X00067046Y00057418D01*
X00064918Y00059546D01*
X00062312Y00061051D01*
X00059405Y00061830D01*
X00056395D01*
X00053488Y00061051D01*
X00050882Y00059546D01*
X00048754Y00057418D01*
X00047249Y00054812D01*
X00046470Y00051905D01*
Y00048895D01*
X00047249Y00045988D01*
X00047500Y00045553D01*
X00045900Y00044325D01*
X00043930Y00046295D01*
Y00061830D01*
X00021070D01*
Y00038970D01*
X00036605D01*
X00041538Y00034037D01*
X00043218Y00032915D01*
X00045200Y00032520D01*
X00256638D01*
X00258620Y00032915D01*
X00260300Y00034037D01*
X00345630Y00119367D01*
X00346968Y00118842D01*
X00347503Y00118412D01*
Y00116838D01*
X00347967Y00115106D01*
X00348864Y00113553D01*
X00350132Y00112285D01*
X00351685Y00111389D01*
X00353417Y00110925D01*
X00355210D01*
X00356942Y00111389D01*
X00358495Y00112285D01*
X00358765Y00112555D01*
X00397823D01*
X00399158Y00111460D01*
Y00101320D01*
X00399452D01*
X00399646Y00100828D01*
X00399791Y00099320D01*
X00398601Y00098633D01*
X00397333Y00097365D01*
X00396437Y00095813D01*
X00395973Y00094080D01*
Y00092287D01*
X00396437Y00090555D01*
X00397333Y00089003D01*
X00398601Y00087735D01*
X00400154Y00086838D01*
X00401886Y00086374D01*
X00403680D01*
X00405411Y00086838D01*
X00406964Y00087735D01*
X00408232Y00089003D01*
X00409129Y00090555D01*
X00409593Y00092287D01*
Y00094080D01*
X00409129Y00095813D01*
X00408232Y00097365D01*
X00406964Y00098633D01*
X00405774Y00099320D01*
X00405920Y00100828D01*
X00406113Y00101320D01*
X00417778D01*
Y00108616D01*
X00418141D01*
X00420619Y00109109D01*
X00422719Y00110512D01*
X00425422Y00113215D01*
X00426826Y00115316D01*
X00427318Y00117793D01*
Y00120183D01*
X00429319Y00121337D01*
X00429411Y00121284D01*
X00431143Y00120820D01*
X00432936D01*
X00434668Y00121284D01*
X00436221Y00122181D01*
X00437489Y00123449D01*
X00438385Y00125001D01*
X00438849Y00126734D01*
Y00128527D01*
X00438385Y00130259D01*
X00437489Y00131812D01*
X00436221Y00133079D01*
X00434668Y00133976D01*
X00432936Y00134440D01*
X00431143D01*
X00429411Y00133976D01*
X00429319Y00133923D01*
X00427318Y00135077D01*
Y00139977D01*
X00426826Y00142455D01*
X00425422Y00144556D01*
X00422350Y00147627D01*
X00420250Y00149031D01*
X00417772Y00149524D01*
X00390942D01*
X00389689Y00149859D01*
X00387896D01*
X00386164Y00149395D01*
X00384611Y00148499D01*
X00383343Y00147231D01*
X00382447Y00145678D01*
X00381983Y00143946D01*
Y00142153D01*
X00382447Y00140421D01*
X00383343Y00138868D01*
X00384611Y00137600D01*
X00386164Y00136703D01*
X00387896Y00136239D01*
X00389689D01*
X00390942Y00136575D01*
X00399158D01*
Y00126395D01*
X00395677Y00122914D01*
X00358765D01*
X00358495Y00123184D01*
X00356942Y00124081D01*
X00355210Y00124545D01*
X00353636D01*
X00353206Y00125081D01*
X00352681Y00126418D01*
X00358167Y00131903D01*
X00358548D01*
X00360280Y00132368D01*
X00361833Y00133264D01*
X00363101Y00134532D01*
X00363998Y00136085D01*
X00364462Y00137817D01*
Y00139610D01*
X00363998Y00141342D01*
X00363101Y00142895D01*
X00361833Y00144163D01*
X00360280Y00145059D01*
X00358548Y00145524D01*
X00356755D01*
X00355023Y00145059D01*
X00353470Y00144163D01*
X00352202Y00142895D01*
X00351306Y00141342D01*
X00350842Y00139610D01*
Y00139228D01*
X00254492Y00042879D01*
X00121782D01*
X00120627Y00044879D01*
X00120824Y00045220D01*
X00236086D01*
X00238068Y00045615D01*
X00239748Y00046737D01*
X00350293Y00157282D01*
X00350674D01*
X00352406Y00157746D01*
X00353959Y00158642D01*
X00355227Y00159910D01*
X00356124Y00161463D01*
X00356588Y00163195D01*
Y00164988D01*
X00356124Y00166720D01*
X00355227Y00168273D01*
X00356106Y00170222D01*
X00393500D01*
X00395482Y00170616D01*
X00397163Y00171739D01*
X00400553Y00175130D01*
X00400935D01*
X00402667Y00175594D01*
X00404220Y00176490D01*
X00405488Y00177758D01*
X00406384Y00179311D01*
X00406848Y00181043D01*
Y00181466D01*
X00408848Y00182294D01*
X00421945Y00169197D01*
X00423625Y00168074D01*
X00425607Y00167680D01*
X00552855D01*
X00572197Y00148337D01*
X00573878Y00147214D01*
X00575860Y00146820D01*
X00581092D01*
X00582154Y00144982D01*
X00584282Y00142853D01*
X00586888Y00141349D01*
X00589795Y00140570D01*
X00592805D01*
X00595712Y00141349D01*
X00596584Y00141852D01*
X00598316Y00140852D01*
Y00137748D01*
X00596584Y00136748D01*
X00595712Y00137251D01*
X00592805Y00138030D01*
X00589795D01*
X00586888Y00137251D01*
X00584282Y00135746D01*
X00582154Y00133618D01*
X00580649Y00131012D01*
X00579870Y00128105D01*
Y00125095D01*
X00580649Y00122188D01*
X00582154Y00119582D01*
X00584282Y00117453D01*
X00586888Y00115949D01*
X00589795Y00115170D01*
X00592805D01*
X00595712Y00115949D01*
X00596147Y00116200D01*
X00597375Y00114599D01*
X00594856Y00112080D01*
X00592805Y00112630D01*
X00589795D01*
X00586888Y00111851D01*
X00584282Y00110346D01*
X00582154Y00108218D01*
X00580649Y00105612D01*
X00579870Y00102705D01*
Y00099695D01*
X00580649Y00096788D01*
X00582154Y00094182D01*
X00584282Y00092053D01*
X00586888Y00090549D01*
X00589795Y00089770D01*
X00592805D01*
X00595712Y00090549D01*
X00598318Y00092053D01*
X00600446Y00094182D01*
X00601951Y00096788D01*
X00602730Y00099695D01*
Y00102705D01*
X00602181Y00104755D01*
X00607158Y00109732D01*
X00608280Y00111413D01*
X00608675Y00113395D01*
Y00187560D01*
X00608280Y00189542D01*
X00607158Y00191222D01*
X00604619Y00193761D01*
X00602938Y00194884D01*
X00602310Y00195009D01*
X00601281Y00197227D01*
X00601951Y00198388D01*
X00602730Y00201295D01*
Y00204305D01*
X00601951Y00207212D01*
X00600446Y00209818D01*
X00598318Y00211946D01*
X00595712Y00213451D01*
X00592805Y00214230D01*
X00589795D01*
X00586888Y00213451D01*
X00584282Y00211946D01*
X00582154Y00209818D01*
X00581092Y00207979D01*
X00561033D01*
X00483624Y00285388D01*
X00484609Y00287232D01*
X00485028Y00287148D01*
X00505334D01*
X00567945Y00224537D01*
X00569625Y00223414D01*
X00571608Y00223020D01*
X00579870D01*
Y00216770D01*
X00602730D01*
Y00239630D01*
X00579870D01*
Y00233379D01*
X00573753D01*
X00563410Y00243722D01*
X00564175Y00245570D01*
X00609353D01*
Y00242388D01*
X00609748Y00240406D01*
X00610871Y00238725D01*
X00614168Y00235427D01*
X00614169Y00235427D01*
X00615849Y00234305D01*
X00617831Y00233910D01*
X00630670D01*
Y00216770D01*
X00653530D01*
Y00231224D01*
X00655513Y00232057D01*
X00656461Y00231162D01*
X00656070Y00229705D01*
Y00226695D01*
X00656849Y00223788D01*
X00658354Y00221182D01*
X00660482Y00219053D01*
X00663088Y00217549D01*
X00665995Y00216770D01*
X00669005D01*
X00671912Y00217549D01*
X00674518Y00219053D01*
X00676646Y00221182D01*
X00678151Y00223788D01*
X00678930Y00226695D01*
Y00229705D01*
X00678151Y00232612D01*
X00676646Y00235218D01*
X00674518Y00237346D01*
X00671912Y00238851D01*
X00669005Y00239630D01*
X00665995D01*
X00663945Y00239080D01*
X00661426Y00241599D01*
X00662654Y00243200D01*
X00663088Y00242949D01*
X00665995Y00242170D01*
X00669005D01*
X00671912Y00242949D01*
X00674518Y00244454D01*
X00676646Y00246582D01*
X00678151Y00249188D01*
X00678930Y00252095D01*
Y00255105D01*
X00678151Y00258012D01*
X00676646Y00260618D01*
X00674518Y00262746D01*
X00671912Y00264251D01*
X00669005Y00265030D01*
X00665995D01*
X00663945Y00264480D01*
X00660217Y00268208D01*
X00658536Y00269331D01*
X00656554Y00269725D01*
X00653530D01*
Y00290430D01*
X00630670D01*
Y00269725D01*
X00620982D01*
X00620982Y00269725D01*
X00619664Y00269463D01*
X00619000Y00269331D01*
X00619000Y00269331D01*
X00619000Y00269331D01*
X00618325Y00268880D01*
X00617320Y00268208D01*
X00617320Y00268208D01*
X00609581Y00260469D01*
X00601771D01*
X00600843Y00262469D01*
X00601951Y00264388D01*
X00602730Y00267295D01*
Y00270305D01*
X00601951Y00273212D01*
X00600446Y00275818D01*
X00598318Y00277946D01*
X00595712Y00279451D01*
X00592805Y00280230D01*
X00589795D01*
X00586888Y00279451D01*
X00584282Y00277946D01*
X00582154Y00275818D01*
X00581092Y00273980D01*
X00564807D01*
X00523878Y00314909D01*
X00524643Y00316756D01*
X00580229D01*
X00580649Y00315188D01*
X00582154Y00312582D01*
X00584282Y00310454D01*
X00586888Y00308949D01*
X00589795Y00308170D01*
X00592805D01*
X00595712Y00308949D01*
X00598318Y00310454D01*
X00600446Y00312582D01*
X00601951Y00315188D01*
X00602730Y00318095D01*
Y00321105D01*
X00601951Y00324012D01*
X00601356Y00325043D01*
X00602510Y00327043D01*
X00609352D01*
X00623140Y00313255D01*
X00624821Y00312132D01*
X00626803Y00311738D01*
X00630670D01*
Y00292970D01*
X00653530D01*
Y00308278D01*
X00655291Y00309010D01*
X00656572Y00307778D01*
X00656070Y00305905D01*
Y00302895D01*
X00656849Y00299988D01*
X00658354Y00297382D01*
X00660482Y00295254D01*
X00663088Y00293749D01*
X00665995Y00292970D01*
X00669005D01*
X00671912Y00293749D01*
X00674518Y00295254D01*
X00676646Y00297382D01*
X00678151Y00299988D01*
X00678930Y00302895D01*
Y00305905D01*
X00678151Y00308812D01*
X00676646Y00311418D01*
X00674518Y00313546D01*
X00671912Y00315051D01*
X00669005Y00315830D01*
X00665995D01*
X00663945Y00315280D01*
X00661426Y00317799D01*
X00662654Y00319400D01*
X00663088Y00319149D01*
X00665995Y00318370D01*
X00669005D01*
X00671912Y00319149D01*
X00674518Y00320653D01*
X00676646Y00322782D01*
X00678151Y00325388D01*
X00678930Y00328295D01*
Y00331305D01*
X00678151Y00334212D01*
X00676646Y00336818D01*
X00674518Y00338946D01*
X00671912Y00340451D01*
X00669005Y00341230D01*
X00665995D01*
X00663088Y00340451D01*
X00662654Y00340200D01*
X00661426Y00341800D01*
X00663945Y00344319D01*
X00665995Y00343770D01*
X00669005D01*
X00671912Y00344549D01*
X00674518Y00346054D01*
X00676646Y00348182D01*
X00678151Y00350788D01*
X00678930Y00353695D01*
Y00356705D01*
X00678151Y00359612D01*
X00676646Y00362218D01*
X00674518Y00364346D01*
X00671912Y00365851D01*
X00669005Y00366630D01*
X00665995D01*
X00663088Y00365851D01*
X00660482Y00364346D01*
X00658354Y00362218D01*
X00656849Y00359612D01*
X00656070Y00356705D01*
Y00353695D01*
X00656572Y00351821D01*
X00655291Y00350590D01*
X00653530Y00351321D01*
Y00366630D01*
X00630670D01*
Y00347679D01*
X00620499D01*
X00607949Y00360229D01*
X00606269Y00361352D01*
X00604287Y00361746D01*
X00601350D01*
X00600657Y00363746D01*
X00601951Y00365988D01*
X00602730Y00368895D01*
Y00371905D01*
X00601951Y00374812D01*
X00600446Y00377418D01*
X00598318Y00379546D01*
X00595712Y00381051D01*
X00592805Y00381830D01*
X00589795D01*
X00586888Y00381051D01*
X00584282Y00379546D01*
X00582154Y00377418D01*
X00580649Y00374812D01*
X00580301Y00373512D01*
X00579870D01*
X00579870Y00373512D01*
X00579870Y00373512D01*
X00578950Y00373329D01*
X00577888Y00373118D01*
X00577888Y00373118D01*
X00577888Y00373118D01*
X00577043Y00372553D01*
X00576208Y00371995D01*
X00576208Y00371995D01*
X00576208Y00371995D01*
X00571294Y00367081D01*
X00570774Y00367180D01*
X00570279Y00367660D01*
X00569815Y00369401D01*
X00586048Y00385634D01*
X00586888Y00385149D01*
X00589795Y00384370D01*
X00592805D01*
X00595712Y00385149D01*
X00598318Y00386654D01*
X00600446Y00388782D01*
X00601951Y00391388D01*
X00602730Y00394295D01*
Y00397305D01*
X00601951Y00400212D01*
X00601734Y00400588D01*
X00602734Y00402320D01*
X00610515D01*
X00623198Y00389637D01*
X00624878Y00388515D01*
X00626860Y00388120D01*
X00630670D01*
Y00369170D01*
X00653530D01*
Y00384478D01*
X00655291Y00385210D01*
X00656572Y00383978D01*
X00656070Y00382105D01*
Y00379095D01*
X00656849Y00376188D01*
X00658354Y00373582D01*
X00660482Y00371454D01*
X00663088Y00369949D01*
X00665995Y00369170D01*
X00669005D01*
X00671912Y00369949D01*
X00674518Y00371454D01*
X00676646Y00373582D01*
X00678151Y00376188D01*
X00678930Y00379095D01*
Y00382105D01*
X00678151Y00385012D01*
X00676646Y00387618D01*
X00674518Y00389746D01*
X00671912Y00391251D01*
X00669005Y00392030D01*
X00665995D01*
X00663945Y00391480D01*
X00661426Y00393999D01*
X00662654Y00395600D01*
X00663088Y00395349D01*
X00665995Y00394570D01*
X00669005D01*
X00671912Y00395349D01*
X00674518Y00396853D01*
X00676646Y00398982D01*
X00678151Y00401588D01*
X00678930Y00404495D01*
Y00407505D01*
X00678151Y00410412D01*
X00676646Y00413018D01*
X00674518Y00415146D01*
X00671912Y00416651D01*
X00669005Y00417430D01*
X00665995D01*
X00663088Y00416651D01*
X00660482Y00415146D01*
X00658354Y00413018D01*
X00656849Y00410412D01*
X00656070Y00407505D01*
Y00404495D01*
X00656849Y00401588D01*
X00657923Y00399728D01*
X00657201Y00398689D01*
X00656534Y00398134D01*
X00654800Y00398479D01*
X00629006D01*
X00616323Y00411162D01*
X00614642Y00412285D01*
X00612660Y00412679D01*
X00578842D01*
X00576860Y00412285D01*
X00575179Y00411162D01*
X00567686Y00403669D01*
X00566071Y00404871D01*
X00566535Y00406603D01*
Y00406985D01*
X00588416Y00428867D01*
X00604551D01*
X00618381Y00415037D01*
X00620061Y00413914D01*
X00622043Y00413520D01*
X00651682D01*
X00653664Y00413914D01*
X00655344Y00415037D01*
X00657885Y00417577D01*
X00659007Y00419258D01*
X00659303Y00420742D01*
X00659316Y00420759D01*
X00660610Y00421531D01*
X00661402Y00421722D01*
X00663088Y00420749D01*
X00665995Y00419970D01*
X00669005D01*
X00671912Y00420749D01*
X00674518Y00422253D01*
X00676646Y00424382D01*
X00678151Y00426988D01*
X00678930Y00429895D01*
Y00432905D01*
X00678151Y00435812D01*
X00676646Y00438418D01*
X00674518Y00440546D01*
X00671912Y00442051D01*
X00669005Y00442830D01*
X00665995D01*
X00663088Y00442051D01*
X00662654Y00441800D01*
X00661426Y00443400D01*
X00663945Y00445919D01*
X00665995Y00445370D01*
X00669005D01*
X00671912Y00446149D01*
X00674518Y00447654D01*
X00676646Y00449782D01*
X00678151Y00452388D01*
X00678930Y00455295D01*
Y00458305D01*
X00678151Y00461212D01*
X00676646Y00463818D01*
X00674518Y00465946D01*
X00671912Y00467451D01*
X00669005Y00468230D01*
X00665995D01*
X00663088Y00467451D01*
X00660482Y00465946D01*
X00658354Y00463818D01*
X00656849Y00461212D01*
X00656070Y00458305D01*
Y00455295D01*
X00656572Y00453421D01*
X00655291Y00452190D01*
X00653530Y00452921D01*
Y00468230D01*
X00630670D01*
Y00445370D01*
X00646320D01*
X00647587Y00443370D01*
X00647331Y00442830D01*
X00630670D01*
Y00423879D01*
X00624189D01*
X00610359Y00437709D01*
X00608679Y00438832D01*
X00606697Y00439226D01*
X00602550D01*
X00601396Y00441226D01*
X00601951Y00442188D01*
X00602730Y00445095D01*
Y00448105D01*
X00601951Y00451012D01*
X00600446Y00453618D01*
X00598318Y00455746D01*
X00595712Y00457251D01*
X00592805Y00458030D01*
X00589795D01*
X00586888Y00457251D01*
X00584282Y00455746D01*
X00582154Y00453618D01*
X00580649Y00451012D01*
X00579870Y00448105D01*
Y00445095D01*
X00580649Y00442188D01*
X00582154Y00439582D01*
X00582736Y00439000D01*
X00582608Y00437709D01*
X00582608Y00437709D01*
X00580755Y00435855D01*
X00578475Y00436404D01*
X00578024Y00437186D01*
X00577719Y00437491D01*
Y00501069D01*
X00577719Y00501069D01*
X00577324Y00503051D01*
X00576202Y00504731D01*
X00542689Y00538244D01*
X00543822Y00539940D01*
X00544996Y00539454D01*
X00546789Y00539217D01*
X00548582Y00539454D01*
X00550254Y00540146D01*
X00551689Y00541247D01*
X00561097Y00550656D01*
X00578467D01*
X00579074Y00548656D01*
X00578672Y00548387D01*
X00575913Y00545628D01*
X00573745Y00542383D01*
X00572252Y00538778D01*
X00571490Y00534951D01*
Y00531049D01*
X00572252Y00527221D01*
X00573745Y00523616D01*
X00575913Y00520372D01*
X00578672Y00517612D01*
X00581917Y00515444D01*
X00585522Y00513951D01*
X00589349Y00513190D01*
X00593251D01*
X00597079Y00513951D01*
X00600684Y00515444D01*
X00603928Y00517612D01*
X00606688Y00520372D01*
X00608856Y00523616D01*
X00610349Y00527221D01*
X00611110Y00531049D01*
Y00534951D01*
X00610349Y00538778D01*
X00608856Y00542383D01*
X00606688Y00545628D01*
X00603928Y00548387D01*
X00603527Y00548656D01*
X00604133Y00550656D01*
X00606338D01*
X00608830Y00548164D01*
X00610265Y00547062D01*
X00611936Y00546370D01*
X00613730Y00546134D01*
X00655333D01*
X00657210Y00545837D01*
Y00527217D01*
X00677330D01*
Y00545837D01*
X00673743D01*
Y00550742D01*
X00673962Y00551270D01*
X00674198Y00553063D01*
X00673962Y00554857D01*
X00673743Y00555385D01*
Y00560790D01*
X00674828D01*
Y00578410D01*
X00649095D01*
X00648518Y00578486D01*
X00633098D01*
Y00581030D01*
X00610238D01*
Y00578486D01*
X00594818D01*
X00594241Y00578410D01*
X00568508D01*
Y00574780D01*
X00561875D01*
X00561606Y00575050D01*
X00560053Y00575946D01*
X00558321Y00576410D01*
X00556528D01*
X00554796Y00575946D01*
X00553243Y00575050D01*
X00551975Y00573782D01*
X00551078Y00572229D01*
X00550614Y00570497D01*
Y00568704D01*
X00551078Y00566972D01*
X00551975Y00565419D01*
X00552796Y00564598D01*
X00553109Y00563354D01*
X00552889Y00562046D01*
X00541889Y00551046D01*
X00540788Y00549611D01*
X00540096Y00547940D01*
X00539860Y00546147D01*
X00540096Y00544353D01*
X00540660Y00542992D01*
X00540096Y00542211D01*
X00539170Y00541582D01*
X00538036Y00542339D01*
X00536054Y00542733D01*
X00535826D01*
X00529711Y00548849D01*
X00510625Y00567935D01*
X00511390Y00569782D01*
X00516437D01*
X00518419Y00570177D01*
X00520100Y00571299D01*
X00524418Y00575618D01*
X00526211Y00574582D01*
X00525893Y00573396D01*
Y00571603D01*
X00526357Y00569871D01*
X00527254Y00568318D01*
X00528522Y00567051D01*
X00530075Y00566154D01*
X00531807Y00565690D01*
X00533600D01*
X00535332Y00566154D01*
X00536885Y00567051D01*
X00538153Y00568318D01*
X00539049Y00569871D01*
X00539513Y00571603D01*
Y00571985D01*
X00551112Y00583584D01*
X00553117Y00583221D01*
X00553383Y00583026D01*
X00554185Y00581638D01*
X00555453Y00580370D01*
X00557006Y00579473D01*
X00558738Y00579009D01*
X00560531D01*
X00562263Y00579473D01*
X00563816Y00580370D01*
X00565084Y00581638D01*
X00565980Y00583190D01*
X00566444Y00584922D01*
Y00585153D01*
X00567988Y00586405D01*
X00568508Y00586190D01*
Y00586190D01*
X00594241D01*
X00594818Y00586114D01*
X00614389D01*
X00614650Y00585854D01*
X00617256Y00584349D01*
X00620163Y00583570D01*
X00623173D01*
X00626080Y00584349D01*
X00628686Y00585854D01*
X00628946Y00586114D01*
X00648518D01*
X00649095Y00586190D01*
X00674828D01*
Y00603810D01*
X00667033D01*
X00663701Y00607142D01*
Y00607524D01*
X00663236Y00609256D01*
X00662340Y00610809D01*
X00661072Y00612077D01*
X00659828Y00612795D01*
Y00629210D01*
X00649095D01*
X00648518Y00629286D01*
X00628946D01*
X00628686Y00629546D01*
X00626080Y00631051D01*
X00623173Y00631830D01*
X00620163D01*
X00617256Y00631051D01*
X00614650Y00629546D01*
X00614389Y00629286D01*
X00594818D01*
X00594241Y00629210D01*
X00588747D01*
Y00636990D01*
X00594241D01*
X00594818Y00636914D01*
X00614389D01*
X00614650Y00636654D01*
X00617256Y00635149D01*
X00620163Y00634370D01*
X00623173D01*
X00626080Y00635149D01*
X00628686Y00636654D01*
X00628946Y00636914D01*
X00648518D01*
X00649095Y00636990D01*
X00674828D01*
Y00654610D01*
X00667033D01*
X00659246Y00662398D01*
Y00662779D01*
X00658782Y00664511D01*
X00657885Y00666064D01*
X00656617Y00667332D01*
X00655064Y00668229D01*
X00653332Y00668693D01*
X00651539D01*
X00649807Y00668229D01*
X00648254Y00667332D01*
X00646986Y00666064D01*
X00646090Y00664511D01*
X00645626Y00662779D01*
Y00660986D01*
X00646090Y00659254D01*
X00646986Y00657701D01*
X00648001Y00656686D01*
X00647815Y00655646D01*
X00647280Y00654686D01*
X00628946D01*
X00628686Y00654946D01*
X00626080Y00656451D01*
X00623173Y00657230D01*
X00620163D01*
X00617256Y00656451D01*
X00614650Y00654946D01*
X00614389Y00654686D01*
X00594818D01*
X00594241Y00654610D01*
X00593665D01*
X00592716Y00656610D01*
X00593135Y00657122D01*
X00602286D01*
X00604268Y00657517D01*
X00605948Y00658640D01*
X00629937Y00682629D01*
X00631060Y00684309D01*
X00631455Y00686291D01*
Y00718002D01*
X00633293Y00719064D01*
X00635421Y00721192D01*
X00636926Y00723798D01*
X00637705Y00726705D01*
Y00729715D01*
X00636926Y00732622D01*
X00636441Y00733462D01*
X00637170Y00735071D01*
X00638850Y00736194D01*
X00643402Y00740745D01*
X00644525Y00742426D01*
X00644919Y00744408D01*
Y00765106D01*
X00644525Y00767088D01*
X00643402Y00768768D01*
X00641914Y00770256D01*
X00640234Y00771379D01*
X00638251Y00771773D01*
D02*
G37*
G36*
X00482988Y00735015D02*
X00481195D01*
X00479463Y00734551D01*
X00477910Y00733655D01*
X00476642Y00732387D01*
X00475746Y00730834D01*
X00475282Y00729102D01*
Y00727309D01*
X00475746Y00725577D01*
X00476642Y00724024D01*
X00477910Y00722756D01*
X00479463Y00721860D01*
X00481195Y00721395D01*
X00482546D01*
X00483609Y00720438D01*
X00484131Y00719631D01*
X00484021Y00719233D01*
X00483520D01*
Y00703548D01*
X00483520Y00702645D01*
X00481855Y00701284D01*
X00481472Y00701313D01*
X00471623Y00711162D01*
X00469942Y00712285D01*
X00467960Y00712679D01*
X00383299D01*
X00383299Y00712679D01*
X00381316Y00712285D01*
X00379636Y00711162D01*
X00303949Y00635475D01*
X00255221D01*
X00255221Y00635475D01*
X00253239Y00635081D01*
X00251559Y00633958D01*
X00251559Y00633958D01*
X00244485Y00626884D01*
X00244104D01*
X00242372Y00626420D01*
X00240819Y00625524D01*
X00239551Y00624256D01*
X00238654Y00622703D01*
X00238190Y00620971D01*
Y00619178D01*
X00238654Y00617446D01*
X00239551Y00615893D01*
X00240819Y00614625D01*
X00242372Y00613729D01*
X00244104Y00613265D01*
X00245897D01*
X00247629Y00613729D01*
X00249182Y00614625D01*
X00250450Y00615893D01*
X00251346Y00617446D01*
X00251810Y00619178D01*
Y00619560D01*
X00257367Y00625116D01*
X00306094D01*
X00308076Y00625510D01*
X00309757Y00626633D01*
X00385444Y00702320D01*
X00394929D01*
X00396092Y00700335D01*
X00395628Y00698604D01*
Y00698222D01*
X00390100Y00692694D01*
X00388978Y00691014D01*
X00388583Y00689032D01*
Y00655962D01*
X00388978Y00653979D01*
X00390100Y00652299D01*
X00395463Y00646937D01*
X00395392Y00645928D01*
X00394953Y00644618D01*
X00393763Y00643930D01*
X00392495Y00642662D01*
X00391598Y00641109D01*
X00391134Y00639377D01*
Y00637584D01*
X00391598Y00635852D01*
X00392495Y00634299D01*
X00393763Y00633032D01*
X00395316Y00632135D01*
X00397048Y00631671D01*
X00398841D01*
X00400573Y00632135D01*
X00402126Y00633032D01*
X00403394Y00634299D01*
X00404081Y00635490D01*
X00405391Y00635929D01*
X00406400Y00635999D01*
X00443239Y00599161D01*
X00444919Y00598038D01*
X00446901Y00597644D01*
X00453768D01*
X00454361Y00597050D01*
X00455914Y00596154D01*
X00457646Y00595690D01*
X00459439D01*
X00461171Y00596154D01*
X00462724Y00597050D01*
X00463992Y00598318D01*
X00464888Y00599871D01*
X00465353Y00601603D01*
Y00603396D01*
X00464888Y00605128D01*
X00463992Y00606681D01*
X00462724Y00607949D01*
X00461171Y00608846D01*
X00459439Y00609310D01*
X00457646D01*
X00455914Y00608846D01*
X00454454Y00608003D01*
X00449047D01*
X00443359Y00613690D01*
X00443414Y00614403D01*
X00444045Y00615833D01*
X00445245Y00616154D01*
X00446798Y00617051D01*
X00448066Y00618319D01*
X00448962Y00619872D01*
X00449426Y00621604D01*
Y00623397D01*
X00448962Y00625129D01*
X00448066Y00626682D01*
X00446798Y00627950D01*
X00445245Y00628846D01*
X00443513Y00629310D01*
X00441720D01*
X00439988Y00628846D01*
X00438435Y00627950D01*
X00437167Y00626682D01*
X00436271Y00625129D01*
X00435949Y00623929D01*
X00434520Y00623298D01*
X00433806Y00623243D01*
X00398942Y00658107D01*
Y00686886D01*
X00402953Y00690897D01*
X00403335D01*
X00405067Y00691361D01*
X00406620Y00692258D01*
X00407887Y00693525D01*
X00408784Y00695078D01*
X00409248Y00696810D01*
Y00698604D01*
X00408784Y00700335D01*
X00409948Y00702320D01*
X00465815D01*
X00476912Y00691223D01*
Y00687287D01*
X00462519D01*
Y00690918D01*
X00432399D01*
Y00688582D01*
X00430178D01*
X00427700Y00688090D01*
X00425600Y00686686D01*
X00423797Y00684883D01*
X00413143D01*
X00411890Y00685219D01*
X00410097D01*
X00408365Y00684755D01*
X00406812Y00683858D01*
X00405544Y00682590D01*
X00404648Y00681037D01*
X00404184Y00679305D01*
Y00677512D01*
X00404648Y00675780D01*
X00405544Y00674227D01*
X00406812Y00672960D01*
X00408365Y00672063D01*
X00410097Y00671599D01*
X00411890D01*
X00413143Y00671935D01*
X00426479D01*
X00428956Y00672427D01*
X00430399Y00673391D01*
X00432399Y00673298D01*
X00433631Y00671809D01*
X00433919Y00671321D01*
X00433455Y00669589D01*
Y00667796D01*
X00433919Y00666064D01*
X00434816Y00664511D01*
X00436084Y00663243D01*
X00437637Y00662347D01*
X00439369Y00661883D01*
X00441162D01*
X00442894Y00662347D01*
X00444447Y00663243D01*
X00445715Y00664511D01*
X00446611Y00666064D01*
X00447075Y00667796D01*
Y00669589D01*
X00446611Y00671321D01*
X00447779Y00673298D01*
X00462519D01*
Y00676928D01*
X00474389D01*
X00474551Y00676668D01*
X00474129Y00674142D01*
X00472861Y00672874D01*
X00471965Y00671321D01*
X00471501Y00669589D01*
Y00667796D01*
X00471965Y00666064D01*
X00472861Y00664511D01*
X00474129Y00663243D01*
X00475682Y00662347D01*
X00477414Y00661883D01*
X00479207D01*
X00480939Y00662347D01*
X00482492Y00663243D01*
X00482762Y00663513D01*
X00486218D01*
X00488200Y00663907D01*
X00489880Y00665030D01*
X00506594Y00681744D01*
X00506976D01*
X00508708Y00682208D01*
X00510261Y00683105D01*
X00511529Y00684372D01*
X00512425Y00685925D01*
X00512889Y00687657D01*
Y00689451D01*
X00512425Y00691182D01*
X00511529Y00692735D01*
X00511259Y00693005D01*
X00511259Y00701613D01*
X00513640D01*
Y00719233D01*
X00507138D01*
X00506016Y00721233D01*
X00506361Y00721831D01*
X00506825Y00723562D01*
Y00725356D01*
X00506361Y00727088D01*
X00505464Y00728641D01*
X00504197Y00729908D01*
X00502644Y00730805D01*
X00500911Y00731269D01*
X00499118D01*
X00497386Y00730805D01*
X00495834Y00729908D01*
X00495370Y00729445D01*
X00493205D01*
X00493205Y00729445D01*
X00491223Y00729050D01*
X00490902Y00728836D01*
X00490342Y00728910D01*
X00488719Y00729783D01*
X00488438Y00730834D01*
X00487541Y00732387D01*
X00486273Y00733655D01*
X00484720Y00734551D01*
X00482988Y00735015D01*
D02*
G37*
G36*
X00152129Y00710499D02*
X00149119D01*
X00146212Y00709720D01*
X00143606Y00708215D01*
X00141478Y00706087D01*
X00139973Y00703480D01*
X00139194Y00700573D01*
Y00697564D01*
X00139973Y00694657D01*
X00141478Y00692050D01*
X00143606Y00689922D01*
X00146212Y00688418D01*
X00149119Y00687638D01*
X00152129D01*
X00155036Y00688418D01*
X00157642Y00689922D01*
X00159770Y00692050D01*
X00161275Y00694657D01*
X00162054Y00697564D01*
Y00700573D01*
X00161275Y00703480D01*
X00159770Y00706087D01*
X00157642Y00708215D01*
X00155036Y00709720D01*
X00152129Y00710499D01*
D02*
G37*
G36*
Y00685098D02*
X00149119D01*
X00146212Y00684320D01*
X00143606Y00682815D01*
X00141478Y00680687D01*
X00139973Y00678080D01*
X00139194Y00675173D01*
Y00672164D01*
X00139973Y00669257D01*
X00141478Y00666650D01*
X00143606Y00664522D01*
X00146212Y00663018D01*
X00149119Y00662238D01*
X00152129D01*
X00155036Y00663018D01*
X00157642Y00664522D01*
X00159770Y00666650D01*
X00161275Y00669257D01*
X00162054Y00672164D01*
Y00675173D01*
X00161275Y00678080D01*
X00159770Y00680687D01*
X00157642Y00682815D01*
X00155036Y00684320D01*
X00152129Y00685098D01*
D02*
G37*
G36*
X00354015Y00649548D02*
X00352222D01*
X00350490Y00649084D01*
X00348937Y00648188D01*
X00347669Y00646920D01*
X00346772Y00645367D01*
X00346308Y00643635D01*
Y00641842D01*
X00346772Y00640110D01*
X00347669Y00638557D01*
X00348937Y00637289D01*
X00350490Y00636393D01*
X00352222Y00635928D01*
X00354015D01*
X00355747Y00636393D01*
X00357300Y00637289D01*
X00358568Y00638557D01*
X00359464Y00640110D01*
X00359928Y00641842D01*
Y00643635D01*
X00359464Y00645367D01*
X00358568Y00646920D01*
X00357300Y00648188D01*
X00355747Y00649084D01*
X00354015Y00649548D01*
D02*
G37*
G36*
X00345478Y00634548D02*
X00343685D01*
X00341953Y00634084D01*
X00340400Y00633188D01*
X00339132Y00631920D01*
X00338236Y00630367D01*
X00337771Y00628635D01*
Y00626842D01*
X00338236Y00625110D01*
X00339132Y00623557D01*
X00340400Y00622289D01*
X00341953Y00621392D01*
X00343685Y00620928D01*
X00345478D01*
X00347210Y00621392D01*
X00348763Y00622289D01*
X00350031Y00623557D01*
X00350927Y00625110D01*
X00351391Y00626842D01*
Y00628635D01*
X00350927Y00630367D01*
X00350031Y00631920D01*
X00348763Y00633188D01*
X00347210Y00634084D01*
X00345478Y00634548D01*
D02*
G37*
G36*
X00109875Y00612510D02*
X00108082D01*
X00106349Y00612046D01*
X00104797Y00611149D01*
X00103529Y00609881D01*
X00102632Y00608328D01*
X00102168Y00606596D01*
Y00604803D01*
X00102632Y00603071D01*
X00103529Y00601518D01*
X00104797Y00600250D01*
X00106349Y00599354D01*
X00108082Y00598890D01*
X00109875D01*
X00111607Y00599354D01*
X00113160Y00600250D01*
X00114427Y00601518D01*
X00115324Y00603071D01*
X00115788Y00604803D01*
Y00606596D01*
X00115324Y00608328D01*
X00114427Y00609881D01*
X00113160Y00611149D01*
X00111607Y00612046D01*
X00109875Y00612510D01*
D02*
G37*
G36*
X00199636Y00608631D02*
X00197843D01*
X00196111Y00608167D01*
X00194559Y00607271D01*
X00193291Y00606003D01*
X00192394Y00604450D01*
X00191930Y00602718D01*
Y00600925D01*
X00192394Y00599193D01*
X00193291Y00597640D01*
X00194559Y00596372D01*
X00196111Y00595476D01*
X00197843Y00595011D01*
X00199636D01*
X00201369Y00595476D01*
X00202921Y00596372D01*
X00204189Y00597640D01*
X00205086Y00599193D01*
X00205550Y00600925D01*
Y00602718D01*
X00205086Y00604450D01*
X00204189Y00606003D01*
X00202921Y00607271D01*
X00201369Y00608167D01*
X00199636Y00608631D01*
D02*
G37*
G36*
X00348080Y00611465D02*
X00325220D01*
Y00588605D01*
X00348080D01*
Y00611465D01*
D02*
G37*
G36*
X00312755D02*
X00309745D01*
X00306838Y00610686D01*
X00304232Y00609181D01*
X00302104Y00607053D01*
X00300599Y00604447D01*
X00299820Y00601540D01*
Y00598530D01*
X00300599Y00595623D01*
X00302104Y00593017D01*
X00304232Y00590889D01*
X00306838Y00589384D01*
X00309745Y00588605D01*
X00312755D01*
X00315662Y00589384D01*
X00318268Y00590889D01*
X00320396Y00593017D01*
X00321901Y00595623D01*
X00322680Y00598530D01*
Y00601540D01*
X00321901Y00604447D01*
X00320396Y00607053D01*
X00318268Y00609181D01*
X00315662Y00610686D01*
X00312755Y00611465D01*
D02*
G37*
G36*
X00110651Y00565510D02*
X00106749D01*
X00102922Y00564748D01*
X00099317Y00563255D01*
X00096072Y00561087D01*
X00093313Y00558328D01*
X00091145Y00555083D01*
X00089651Y00551478D01*
X00088890Y00547651D01*
Y00543749D01*
X00089651Y00539921D01*
X00091145Y00536316D01*
X00093313Y00533072D01*
X00096072Y00530312D01*
X00099317Y00528144D01*
X00102922Y00526651D01*
X00106749Y00525890D01*
X00110651D01*
X00114479Y00526651D01*
X00118084Y00528144D01*
X00121328Y00530312D01*
X00124088Y00533072D01*
X00126256Y00536316D01*
X00127749Y00539921D01*
X00128510Y00543749D01*
Y00547651D01*
X00127749Y00551478D01*
X00126256Y00555083D01*
X00124088Y00558328D01*
X00121328Y00561087D01*
X00118084Y00563255D01*
X00114479Y00564748D01*
X00110651Y00565510D01*
D02*
G37*
G36*
X00330291Y00545220D02*
X00327282D01*
X00324375Y00544441D01*
X00321768Y00542937D01*
X00319640Y00540808D01*
X00318136Y00538202D01*
X00317357Y00535295D01*
Y00532285D01*
X00318136Y00529378D01*
X00319640Y00526772D01*
X00321768Y00524644D01*
X00324375Y00523139D01*
X00327282Y00522360D01*
X00330291D01*
X00333198Y00523139D01*
X00335805Y00524644D01*
X00337933Y00526772D01*
X00339438Y00529378D01*
X00340217Y00532285D01*
Y00535295D01*
X00339438Y00538202D01*
X00337933Y00540808D01*
X00335805Y00542937D01*
X00333198Y00544441D01*
X00330291Y00545220D01*
D02*
G37*
G36*
X00340217Y00519820D02*
X00317357D01*
Y00496960D01*
X00340217D01*
Y00519820D01*
D02*
G37*
G36*
X00669005Y00519030D02*
X00665995D01*
X00663088Y00518251D01*
X00660482Y00516746D01*
X00658354Y00514618D01*
X00656849Y00512012D01*
X00656070Y00509105D01*
Y00506095D01*
X00656849Y00503188D01*
X00658354Y00500582D01*
X00660482Y00498453D01*
X00663088Y00496949D01*
X00665995Y00496170D01*
X00669005D01*
X00671912Y00496949D01*
X00674518Y00498453D01*
X00676646Y00500582D01*
X00678151Y00503188D01*
X00678930Y00506095D01*
Y00509105D01*
X00678151Y00512012D01*
X00676646Y00514618D01*
X00674518Y00516746D01*
X00671912Y00518251D01*
X00669005Y00519030D01*
D02*
G37*
G36*
X00653530D02*
X00630670D01*
Y00496170D01*
X00653530D01*
Y00519030D01*
D02*
G37*
G36*
X00602730Y00508830D02*
X00579870D01*
Y00485970D01*
X00602730D01*
Y00508830D01*
D02*
G37*
G36*
X00312146Y00492489D02*
X00310354D01*
X00308621Y00492025D01*
X00307069Y00491129D01*
X00305801Y00489861D01*
X00304904Y00488308D01*
X00304440Y00486576D01*
Y00484783D01*
X00304904Y00483051D01*
X00305801Y00481498D01*
X00307069Y00480230D01*
X00308621Y00479333D01*
X00310354Y00478869D01*
X00312146D01*
X00313879Y00479333D01*
X00315431Y00480230D01*
X00316699Y00481498D01*
X00317596Y00483051D01*
X00318060Y00484783D01*
Y00486576D01*
X00317596Y00488308D01*
X00316699Y00489861D01*
X00315431Y00491129D01*
X00313879Y00492025D01*
X00312146Y00492489D01*
D02*
G37*
G36*
X00669005Y00493630D02*
X00665995D01*
X00663088Y00492851D01*
X00660482Y00491346D01*
X00658354Y00489218D01*
X00656849Y00486612D01*
X00656070Y00483705D01*
Y00480695D01*
X00656849Y00477788D01*
X00658354Y00475182D01*
X00660482Y00473054D01*
X00663088Y00471549D01*
X00665995Y00470770D01*
X00669005D01*
X00671912Y00471549D01*
X00674518Y00473054D01*
X00676646Y00475182D01*
X00678151Y00477788D01*
X00678930Y00480695D01*
Y00483705D01*
X00678151Y00486612D01*
X00676646Y00489218D01*
X00674518Y00491346D01*
X00671912Y00492851D01*
X00669005Y00493630D01*
D02*
G37*
G36*
X00653530D02*
X00630670D01*
Y00470770D01*
X00653530D01*
Y00493630D01*
D02*
G37*
G36*
X00592805Y00483430D02*
X00589795D01*
X00586888Y00482651D01*
X00584282Y00481146D01*
X00582154Y00479018D01*
X00580649Y00476412D01*
X00579870Y00473505D01*
Y00470495D01*
X00580649Y00467588D01*
X00582154Y00464982D01*
X00584282Y00462854D01*
X00586888Y00461349D01*
X00589795Y00460570D01*
X00592805D01*
X00595712Y00461349D01*
X00598318Y00462854D01*
X00600446Y00464982D01*
X00601951Y00467588D01*
X00602730Y00470495D01*
Y00473505D01*
X00601951Y00476412D01*
X00600446Y00479018D01*
X00598318Y00481146D01*
X00595712Y00482651D01*
X00592805Y00483430D01*
D02*
G37*
G36*
X00376971Y00463594D02*
X00375178D01*
X00373446Y00463130D01*
X00371893Y00462233D01*
X00370625Y00460965D01*
X00369729Y00459412D01*
X00369265Y00457680D01*
Y00455887D01*
X00369729Y00454155D01*
X00370625Y00452602D01*
X00371893Y00451334D01*
X00373446Y00450438D01*
X00375178Y00449974D01*
X00376971D01*
X00378703Y00450438D01*
X00380256Y00451334D01*
X00381524Y00452602D01*
X00382421Y00454155D01*
X00382885Y00455887D01*
Y00457680D01*
X00382421Y00459412D01*
X00381524Y00460965D01*
X00380256Y00462233D01*
X00378703Y00463130D01*
X00376971Y00463594D01*
D02*
G37*
G36*
X00059405Y00468230D02*
X00056395D01*
X00053488Y00467451D01*
X00050882Y00465946D01*
X00048754Y00463818D01*
X00047249Y00461212D01*
X00046470Y00458305D01*
Y00455295D01*
X00047249Y00452388D01*
X00048754Y00449782D01*
X00050882Y00447654D01*
X00053488Y00446149D01*
X00056395Y00445370D01*
X00059405D01*
X00062312Y00446149D01*
X00064918Y00447654D01*
X00067046Y00449782D01*
X00068551Y00452388D01*
X00069330Y00455295D01*
Y00458305D01*
X00068551Y00461212D01*
X00067046Y00463818D01*
X00064918Y00465946D01*
X00062312Y00467451D01*
X00059405Y00468230D01*
D02*
G37*
G36*
X00043930D02*
X00021070D01*
Y00445370D01*
X00043930D01*
Y00468230D01*
D02*
G37*
G36*
X00478356Y00436719D02*
X00476563D01*
X00474831Y00436255D01*
X00473279Y00435359D01*
X00472010Y00434090D01*
X00471114Y00432538D01*
X00470650Y00430806D01*
Y00429013D01*
X00471114Y00427281D01*
X00472010Y00425728D01*
X00473279Y00424460D01*
X00474831Y00423563D01*
X00476563Y00423099D01*
X00478356D01*
X00480089Y00423563D01*
X00481641Y00424460D01*
X00482909Y00425728D01*
X00483806Y00427281D01*
X00484270Y00429013D01*
Y00430806D01*
X00483806Y00432538D01*
X00482909Y00434090D01*
X00481641Y00435359D01*
X00480089Y00436255D01*
X00478356Y00436719D01*
D02*
G37*
G36*
X00157015Y00415936D02*
X00155222D01*
X00153490Y00415472D01*
X00151937Y00414575D01*
X00150669Y00413307D01*
X00149773Y00411754D01*
X00149309Y00410022D01*
Y00408229D01*
X00149773Y00406497D01*
X00150669Y00404944D01*
X00151937Y00403676D01*
X00153490Y00402780D01*
X00155222Y00402316D01*
X00157015D01*
X00158747Y00402780D01*
X00160300Y00403676D01*
X00161568Y00404944D01*
X00162465Y00406497D01*
X00162929Y00408229D01*
Y00410022D01*
X00162465Y00411754D01*
X00161568Y00413307D01*
X00160300Y00414575D01*
X00158747Y00415472D01*
X00157015Y00415936D01*
D02*
G37*
G36*
X00059405Y00341230D02*
X00056395D01*
X00053488Y00340451D01*
X00050882Y00338946D01*
X00048754Y00336818D01*
X00047249Y00334212D01*
X00046470Y00331305D01*
Y00328295D01*
X00047249Y00325388D01*
X00048754Y00322782D01*
X00050882Y00320653D01*
X00053488Y00319149D01*
X00056395Y00318370D01*
X00059405D01*
X00062312Y00319149D01*
X00064918Y00320653D01*
X00067046Y00322782D01*
X00068551Y00325388D01*
X00069330Y00328295D01*
Y00331305D01*
X00068551Y00334212D01*
X00067046Y00336818D01*
X00064918Y00338946D01*
X00062312Y00340451D01*
X00059405Y00341230D01*
D02*
G37*
G36*
X00043930D02*
X00021070D01*
Y00318370D01*
X00043930D01*
Y00341230D01*
D02*
G37*
G36*
X00110205Y00315830D02*
X00107195D01*
X00104288Y00315051D01*
X00101682Y00313546D01*
X00099554Y00311418D01*
X00098049Y00308812D01*
X00097270Y00305905D01*
Y00302895D01*
X00098049Y00299988D01*
X00099554Y00297382D01*
X00101682Y00295254D01*
X00104288Y00293749D01*
X00107195Y00292970D01*
X00110205D01*
X00113112Y00293749D01*
X00115718Y00295254D01*
X00117846Y00297382D01*
X00119351Y00299988D01*
X00120130Y00302895D01*
Y00305905D01*
X00119351Y00308812D01*
X00117846Y00311418D01*
X00115718Y00313546D01*
X00113112Y00315051D01*
X00110205Y00315830D01*
D02*
G37*
G36*
X00059405D02*
X00056395D01*
X00053488Y00315051D01*
X00050882Y00313546D01*
X00048754Y00311418D01*
X00047249Y00308812D01*
X00046470Y00305905D01*
Y00302895D01*
X00047249Y00299988D01*
X00048754Y00297382D01*
X00050882Y00295254D01*
X00053488Y00293749D01*
X00056395Y00292970D01*
X00059405D01*
X00062312Y00293749D01*
X00064918Y00295254D01*
X00067046Y00297382D01*
X00068551Y00299988D01*
X00069330Y00302895D01*
Y00305905D01*
X00068551Y00308812D01*
X00067046Y00311418D01*
X00064918Y00313546D01*
X00062312Y00315051D01*
X00059405Y00315830D01*
D02*
G37*
G36*
X00043930D02*
X00021070D01*
Y00292970D01*
X00043930D01*
Y00315830D01*
D02*
G37*
G36*
X00592805Y00305630D02*
X00589795D01*
X00586888Y00304851D01*
X00584282Y00303346D01*
X00582154Y00301218D01*
X00580649Y00298612D01*
X00579870Y00295705D01*
Y00292695D01*
X00580649Y00289788D01*
X00582154Y00287182D01*
X00584282Y00285054D01*
X00586888Y00283549D01*
X00589795Y00282770D01*
X00592805D01*
X00595712Y00283549D01*
X00598318Y00285054D01*
X00600446Y00287182D01*
X00601951Y00289788D01*
X00602730Y00292695D01*
Y00295705D01*
X00601951Y00298612D01*
X00600446Y00301218D01*
X00598318Y00303346D01*
X00595712Y00304851D01*
X00592805Y00305630D01*
D02*
G37*
G36*
X00043930Y00265030D02*
X00021070D01*
Y00242170D01*
X00043930D01*
Y00265030D01*
D02*
G37*
G36*
X00110205Y00239630D02*
X00107195D01*
X00104288Y00238851D01*
X00101682Y00237346D01*
X00099554Y00235218D01*
X00098049Y00232612D01*
X00097270Y00229705D01*
Y00226695D01*
X00098049Y00223788D01*
X00099554Y00221182D01*
X00101682Y00219053D01*
X00104288Y00217549D01*
X00107195Y00216770D01*
X00110205D01*
X00113112Y00217549D01*
X00115718Y00219053D01*
X00117846Y00221182D01*
X00119351Y00223788D01*
X00120130Y00226695D01*
Y00229705D01*
X00119351Y00232612D01*
X00117846Y00235218D01*
X00115718Y00237346D01*
X00113112Y00238851D01*
X00110205Y00239630D01*
D02*
G37*
G36*
X00059405D02*
X00056395D01*
X00053488Y00238851D01*
X00050882Y00237346D01*
X00048754Y00235218D01*
X00047249Y00232612D01*
X00046470Y00229705D01*
Y00226695D01*
X00047249Y00223788D01*
X00048754Y00221182D01*
X00050882Y00219053D01*
X00053488Y00217549D01*
X00056395Y00216770D01*
X00059405D01*
X00062312Y00217549D01*
X00064918Y00219053D01*
X00067046Y00221182D01*
X00068551Y00223788D01*
X00069330Y00226695D01*
Y00229705D01*
X00068551Y00232612D01*
X00067046Y00235218D01*
X00064918Y00237346D01*
X00062312Y00238851D01*
X00059405Y00239630D01*
D02*
G37*
G36*
X00043930D02*
X00021070D01*
Y00216770D01*
X00043930D01*
Y00239630D01*
D02*
G37*
G36*
X00669005Y00214230D02*
X00665995D01*
X00663088Y00213451D01*
X00660482Y00211946D01*
X00658354Y00209818D01*
X00656849Y00207212D01*
X00656070Y00204305D01*
Y00201295D01*
X00656849Y00198388D01*
X00658354Y00195782D01*
X00660482Y00193654D01*
X00663088Y00192149D01*
X00665995Y00191370D01*
X00669005D01*
X00671912Y00192149D01*
X00674518Y00193654D01*
X00676646Y00195782D01*
X00678151Y00198388D01*
X00678930Y00201295D01*
Y00204305D01*
X00678151Y00207212D01*
X00676646Y00209818D01*
X00674518Y00211946D01*
X00671912Y00213451D01*
X00669005Y00214230D01*
D02*
G37*
G36*
X00653530D02*
X00630670D01*
Y00191370D01*
X00653530D01*
Y00214230D01*
D02*
G37*
G36*
X00059405D02*
X00056395D01*
X00053488Y00213451D01*
X00050882Y00211946D01*
X00048754Y00209818D01*
X00047249Y00207212D01*
X00046470Y00204305D01*
Y00201295D01*
X00047249Y00198388D01*
X00048754Y00195782D01*
X00050882Y00193654D01*
X00053488Y00192149D01*
X00056395Y00191370D01*
X00059405D01*
X00062312Y00192149D01*
X00064918Y00193654D01*
X00067046Y00195782D01*
X00068551Y00198388D01*
X00069330Y00201295D01*
Y00204305D01*
X00068551Y00207212D01*
X00067046Y00209818D01*
X00064918Y00211946D01*
X00062312Y00213451D01*
X00059405Y00214230D01*
D02*
G37*
G36*
X00043930D02*
X00021070D01*
Y00191370D01*
X00043930D01*
Y00214230D01*
D02*
G37*
G36*
X00669005Y00188830D02*
X00665995D01*
X00663088Y00188051D01*
X00660482Y00186546D01*
X00658354Y00184418D01*
X00656849Y00181812D01*
X00656070Y00178905D01*
Y00175895D01*
X00656849Y00172988D01*
X00658354Y00170382D01*
X00660482Y00168253D01*
X00663088Y00166749D01*
X00665995Y00165970D01*
X00669005D01*
X00671912Y00166749D01*
X00674518Y00168253D01*
X00676646Y00170382D01*
X00678151Y00172988D01*
X00678930Y00175895D01*
Y00178905D01*
X00678151Y00181812D01*
X00676646Y00184418D01*
X00674518Y00186546D01*
X00671912Y00188051D01*
X00669005Y00188830D01*
D02*
G37*
G36*
X00653530D02*
X00630670D01*
Y00165970D01*
X00653530D01*
Y00188830D01*
D02*
G37*
G36*
X00059405D02*
X00056395D01*
X00053488Y00188051D01*
X00050882Y00186546D01*
X00048754Y00184418D01*
X00047249Y00181812D01*
X00046470Y00178905D01*
Y00175895D01*
X00047249Y00172988D01*
X00048754Y00170382D01*
X00050882Y00168253D01*
X00053488Y00166749D01*
X00056395Y00165970D01*
X00059405D01*
X00062312Y00166749D01*
X00064918Y00168253D01*
X00067046Y00170382D01*
X00068551Y00172988D01*
X00069330Y00175895D01*
Y00178905D01*
X00068551Y00181812D01*
X00067046Y00184418D01*
X00064918Y00186546D01*
X00062312Y00188051D01*
X00059405Y00188830D01*
D02*
G37*
G36*
X00043930D02*
X00021070D01*
Y00165970D01*
X00043930D01*
Y00188830D01*
D02*
G37*
G36*
X00669005Y00163430D02*
X00665995D01*
X00663088Y00162651D01*
X00660482Y00161146D01*
X00658354Y00159018D01*
X00656849Y00156412D01*
X00656070Y00153505D01*
Y00150495D01*
X00656849Y00147588D01*
X00658354Y00144982D01*
X00660482Y00142853D01*
X00663088Y00141349D01*
X00665995Y00140570D01*
X00669005D01*
X00671912Y00141349D01*
X00674518Y00142853D01*
X00676646Y00144982D01*
X00678151Y00147588D01*
X00678930Y00150495D01*
Y00153505D01*
X00678151Y00156412D01*
X00676646Y00159018D01*
X00674518Y00161146D01*
X00671912Y00162651D01*
X00669005Y00163430D01*
D02*
G37*
G36*
X00653530D02*
X00630670D01*
Y00140570D01*
X00653530D01*
Y00163430D01*
D02*
G37*
G36*
X00669005Y00138030D02*
X00665995D01*
X00663088Y00137251D01*
X00660482Y00135746D01*
X00658354Y00133618D01*
X00656849Y00131012D01*
X00656070Y00128105D01*
Y00125095D01*
X00656849Y00122188D01*
X00658354Y00119582D01*
X00660482Y00117453D01*
X00663088Y00115949D01*
X00665995Y00115170D01*
X00669005D01*
X00671912Y00115949D01*
X00674518Y00117453D01*
X00676646Y00119582D01*
X00678151Y00122188D01*
X00678930Y00125095D01*
Y00128105D01*
X00678151Y00131012D01*
X00676646Y00133618D01*
X00674518Y00135746D01*
X00671912Y00137251D01*
X00669005Y00138030D01*
D02*
G37*
G36*
X00653530D02*
X00630670D01*
Y00115170D01*
X00653530D01*
Y00138030D01*
D02*
G37*
G36*
X00277959Y00125291D02*
X00276166D01*
X00274434Y00124826D01*
X00272881Y00123930D01*
X00271613Y00122662D01*
X00270716Y00121109D01*
X00270252Y00119377D01*
Y00117584D01*
X00270716Y00115852D01*
X00271613Y00114299D01*
X00272881Y00113031D01*
X00274434Y00112135D01*
X00276166Y00111671D01*
X00277959D01*
X00279691Y00112135D01*
X00281244Y00113031D01*
X00282512Y00114299D01*
X00283408Y00115852D01*
X00283872Y00117584D01*
Y00119377D01*
X00283408Y00121109D01*
X00282512Y00122662D01*
X00281244Y00123930D01*
X00279691Y00124826D01*
X00277959Y00125291D01*
D02*
G37*
G36*
X00669005Y00112630D02*
X00665995D01*
X00663088Y00111851D01*
X00660482Y00110346D01*
X00658354Y00108218D01*
X00656849Y00105612D01*
X00656070Y00102705D01*
Y00099695D01*
X00656849Y00096788D01*
X00658354Y00094182D01*
X00660482Y00092053D01*
X00663088Y00090549D01*
X00665995Y00089770D01*
X00669005D01*
X00671912Y00090549D01*
X00674518Y00092053D01*
X00676646Y00094182D01*
X00678151Y00096788D01*
X00678930Y00099695D01*
Y00102705D01*
X00678151Y00105612D01*
X00676646Y00108218D01*
X00674518Y00110346D01*
X00671912Y00111851D01*
X00669005Y00112630D01*
D02*
G37*
G36*
X00653530D02*
X00630670D01*
Y00089770D01*
X00653530D01*
Y00112630D01*
D02*
G37*
G36*
X00669005Y00087230D02*
X00665995D01*
X00663088Y00086451D01*
X00660482Y00084946D01*
X00658354Y00082818D01*
X00656849Y00080212D01*
X00656070Y00077305D01*
Y00074295D01*
X00656849Y00071388D01*
X00658354Y00068782D01*
X00660482Y00066653D01*
X00663088Y00065149D01*
X00665995Y00064370D01*
X00669005D01*
X00671912Y00065149D01*
X00674518Y00066653D01*
X00676646Y00068782D01*
X00678151Y00071388D01*
X00678930Y00074295D01*
Y00077305D01*
X00678151Y00080212D01*
X00676646Y00082818D01*
X00674518Y00084946D01*
X00671912Y00086451D01*
X00669005Y00087230D01*
D02*
G37*
G36*
X00653530D02*
X00630670D01*
Y00064370D01*
X00653530D01*
Y00087230D01*
D02*
G37*
G36*
X00592805D02*
X00589795D01*
X00586888Y00086451D01*
X00584282Y00084946D01*
X00582154Y00082818D01*
X00580649Y00080212D01*
X00579870Y00077305D01*
Y00074295D01*
X00580649Y00071388D01*
X00582154Y00068782D01*
X00584282Y00066653D01*
X00586888Y00065149D01*
X00589795Y00064370D01*
X00592805D01*
X00595712Y00065149D01*
X00598318Y00066653D01*
X00600446Y00068782D01*
X00601951Y00071388D01*
X00602730Y00074295D01*
Y00077305D01*
X00601951Y00080212D01*
X00600446Y00082818D01*
X00598318Y00084946D01*
X00595712Y00086451D01*
X00592805Y00087230D01*
D02*
G37*
G36*
X00669005Y00061830D02*
X00665995D01*
X00663088Y00061051D01*
X00660482Y00059546D01*
X00658354Y00057418D01*
X00656849Y00054812D01*
X00656070Y00051905D01*
Y00048895D01*
X00656849Y00045988D01*
X00658354Y00043382D01*
X00660482Y00041253D01*
X00663088Y00039749D01*
X00665995Y00038970D01*
X00669005D01*
X00671912Y00039749D01*
X00674518Y00041253D01*
X00676646Y00043382D01*
X00678151Y00045988D01*
X00678930Y00048895D01*
Y00051905D01*
X00678151Y00054812D01*
X00676646Y00057418D01*
X00674518Y00059546D01*
X00671912Y00061051D01*
X00669005Y00061830D01*
D02*
G37*
G36*
X00653530D02*
X00630670D01*
Y00038970D01*
X00653530D01*
Y00061830D01*
D02*
G37*
G36*
X00592805D02*
X00589795D01*
X00586888Y00061051D01*
X00584282Y00059546D01*
X00582154Y00057418D01*
X00580649Y00054812D01*
X00579870Y00051905D01*
Y00048895D01*
X00580649Y00045988D01*
X00582154Y00043382D01*
X00584282Y00041253D01*
X00586888Y00039749D01*
X00589795Y00038970D01*
X00592805D01*
X00595712Y00039749D01*
X00598318Y00041253D01*
X00600446Y00043382D01*
X00601951Y00045988D01*
X00602730Y00048895D01*
Y00051905D01*
X00601951Y00054812D01*
X00600446Y00057418D01*
X00598318Y00059546D01*
X00595712Y00061051D01*
X00592805Y00061830D01*
D02*
G37*
G36*
X00440851Y00044810D02*
X00436949D01*
X00433122Y00044049D01*
X00429517Y00042555D01*
X00426272Y00040387D01*
X00423513Y00037628D01*
X00421345Y00034383D01*
X00419851Y00030778D01*
X00419090Y00026951D01*
Y00023049D01*
X00419851Y00019221D01*
X00421345Y00015616D01*
X00423513Y00012372D01*
X00426272Y00009612D01*
X00429517Y00007444D01*
X00433122Y00005951D01*
X00436949Y00005190D01*
X00440851D01*
X00444678Y00005951D01*
X00448284Y00007444D01*
X00451528Y00009612D01*
X00454288Y00012372D01*
X00456456Y00015616D01*
X00457949Y00019221D01*
X00458710Y00023049D01*
Y00026951D01*
X00457949Y00030778D01*
X00456456Y00034383D01*
X00454288Y00037628D01*
X00451528Y00040387D01*
X00448284Y00042555D01*
X00444678Y00044049D01*
X00440851Y00044810D01*
D02*
G37*
%LPD*%
G36*
X00528156Y00674605D02*
X00528588Y00672993D01*
X00530093Y00670387D01*
X00532221Y00668259D01*
X00534827Y00666754D01*
X00537734Y00665975D01*
X00540744D01*
X00543435Y00666696D01*
X00544233Y00666478D01*
X00545435Y00665784D01*
Y00611284D01*
X00522385Y00588235D01*
X00514292Y00580141D01*
X00502191D01*
X00502181Y00580151D01*
X00500629Y00581047D01*
X00498896Y00581511D01*
X00497104D01*
X00495371Y00581047D01*
X00493819Y00580151D01*
X00492551Y00578883D01*
X00492042Y00578002D01*
X00491640Y00577949D01*
X00490087Y00578846D01*
X00488355Y00579310D01*
X00487898D01*
X00487070Y00581310D01*
X00499598Y00593838D01*
X00500721Y00595518D01*
X00501115Y00597500D01*
Y00650393D01*
X00525925Y00675203D01*
X00528156Y00674605D01*
D02*
G37*
G36*
X00226925Y00266137D02*
X00228047Y00264456D01*
X00234457Y00258047D01*
X00236137Y00256924D01*
X00238119Y00256530D01*
X00238119Y00256530D01*
X00240196D01*
X00241025Y00254530D01*
X00240926Y00254431D01*
X00240029Y00252878D01*
X00239565Y00251146D01*
Y00249353D01*
X00240029Y00247621D01*
X00240926Y00246068D01*
X00242194Y00244800D01*
X00243747Y00243904D01*
X00245479Y00243440D01*
X00247272D01*
X00249004Y00243904D01*
X00250557Y00244800D01*
X00251233Y00245476D01*
X00253186D01*
X00255168Y00245871D01*
X00256848Y00246993D01*
X00260429Y00250574D01*
X00298971D01*
X00300953Y00250968D01*
X00301140Y00251094D01*
X00301900Y00250916D01*
X00303168Y00249648D01*
X00303315Y00248529D01*
X00301956Y00247060D01*
X00285594D01*
X00283612Y00246666D01*
X00281932Y00245543D01*
X00278060Y00241672D01*
X00276336Y00242297D01*
X00276038Y00242478D01*
X00275596Y00244128D01*
X00274700Y00245681D01*
X00273432Y00246949D01*
X00271879Y00247846D01*
X00270147Y00248310D01*
X00268354D01*
X00266622Y00247846D01*
X00265069Y00246949D01*
X00263801Y00245681D01*
X00262905Y00244128D01*
X00262440Y00242396D01*
Y00240603D01*
X00262905Y00238871D01*
X00263801Y00237318D01*
X00264286Y00236833D01*
X00263458Y00234833D01*
X00228058D01*
X00224200Y00238692D01*
X00224514Y00241206D01*
X00225127Y00241819D01*
X00226024Y00243372D01*
X00226488Y00245103D01*
Y00246897D01*
X00226024Y00248629D01*
X00225127Y00250182D01*
X00224857Y00250451D01*
Y00266278D01*
X00226857Y00266475D01*
X00226925Y00266137D01*
D02*
G37*
G36*
X00373831Y00240354D02*
Y00219457D01*
X00374225Y00217474D01*
X00375348Y00215794D01*
X00400392Y00190750D01*
X00399564Y00188750D01*
X00399142D01*
X00397410Y00188286D01*
X00395857Y00187389D01*
X00394589Y00186121D01*
X00392732Y00186560D01*
X00392599Y00186675D01*
Y00188250D01*
X00392135Y00189982D01*
X00391239Y00191535D01*
X00389971Y00192802D01*
X00388418Y00193699D01*
X00386686Y00194163D01*
X00384893D01*
X00383161Y00193699D01*
X00381608Y00192802D01*
X00380340Y00191535D01*
X00379443Y00189982D01*
X00378979Y00188250D01*
Y00187868D01*
X00376233Y00185121D01*
X00362642D01*
X00361521Y00187121D01*
X00361810Y00188200D01*
Y00189993D01*
X00361346Y00191725D01*
X00360449Y00193278D01*
X00359181Y00194546D01*
X00357629Y00195442D01*
X00355896Y00195907D01*
X00354103D01*
X00352371Y00195442D01*
X00350818Y00194546D01*
X00350549Y00194276D01*
X00099609D01*
X00099608Y00194276D01*
X00097626Y00193882D01*
X00095946Y00192759D01*
X00095946Y00192759D01*
X00093222Y00190035D01*
X00092099Y00188354D01*
X00091705Y00186372D01*
Y00087616D01*
X00092099Y00085634D01*
X00093222Y00083953D01*
X00094348Y00082827D01*
X00093583Y00080979D01*
X00083262D01*
X00082656Y00082979D01*
X00082727Y00083027D01*
X00086025Y00086325D01*
X00086025Y00086325D01*
X00087148Y00088006D01*
X00087542Y00089988D01*
Y00190543D01*
X00094620Y00197620D01*
X00129539D01*
X00131522Y00198015D01*
X00133202Y00199137D01*
X00148690Y00214626D01*
X00156209D01*
X00156775Y00213827D01*
X00157183Y00212626D01*
X00156486Y00211418D01*
X00156022Y00209686D01*
Y00207892D01*
X00156486Y00206160D01*
X00157382Y00204608D01*
X00158650Y00203340D01*
X00160203Y00202443D01*
X00161935Y00201979D01*
X00163728D01*
X00165460Y00202443D01*
X00167013Y00203340D01*
X00168281Y00204608D01*
X00169178Y00206160D01*
X00169642Y00207892D01*
Y00209686D01*
X00169178Y00211418D01*
X00168480Y00212626D01*
X00168888Y00213827D01*
X00169455Y00214626D01*
X00337139D01*
X00339121Y00215020D01*
X00340802Y00216143D01*
X00360820Y00236161D01*
X00361943Y00237842D01*
X00362337Y00239824D01*
Y00241840D01*
X00362950Y00242452D01*
X00363846Y00244005D01*
X00364310Y00245737D01*
Y00247047D01*
X00365552Y00247805D01*
X00366230Y00247955D01*
X00373831Y00240354D01*
D02*
G37*
%LPC*%
G36*
X00536607Y00634310D02*
X00534814D01*
X00533082Y00633846D01*
X00531529Y00632949D01*
X00530261Y00631681D01*
X00529364Y00630129D01*
X00528900Y00628396D01*
Y00626603D01*
X00529364Y00624871D01*
X00530261Y00623318D01*
X00531529Y00622051D01*
X00533082Y00621154D01*
X00534814Y00620690D01*
X00536607D01*
X00538339Y00621154D01*
X00539892Y00622051D01*
X00541160Y00623318D01*
X00542056Y00624871D01*
X00542520Y00626603D01*
Y00628396D01*
X00542056Y00630129D01*
X00541160Y00631681D01*
X00539892Y00632949D01*
X00538339Y00633846D01*
X00536607Y00634310D01*
D02*
G37*
%LPD*%
D13*
X00410994Y00678409D02*
X00426479D01*
X00430178Y00682108D01*
X00439959D01*
X00667269Y00553063D02*
Y00569599D01*
Y00536528D02*
Y00553063D01*
X00417772Y00143049D02*
X00420844Y00139977D01*
X00388793Y00143049D02*
X00417772D01*
X00420844Y00117793D02*
Y00139977D01*
X00418141Y00115090D02*
X00420844Y00117793D01*
X00411428Y00115090D02*
X00418141D01*
X00408468Y00111380D02*
Y00112130D01*
X00411428Y00115090D01*
X00667269Y00536528D02*
X00667270Y00536527D01*
X00667268Y00569600D02*
X00667269Y00569599D01*
D14*
X00493205Y00724265D02*
X00499821D01*
X00491080Y00722140D02*
X00493205Y00724265D01*
X00499821D02*
X00500015Y00724459D01*
X00491080Y00710423D02*
Y00722140D01*
X00616063Y00766594D02*
X00638251D01*
X00554757Y00689940D02*
Y00705287D01*
X00616063Y00766594D01*
X00639739Y00744408D02*
Y00765106D01*
X00638251Y00766594D02*
X00639739Y00765106D01*
X00635188Y00739856D02*
X00639739Y00744408D01*
X00600000Y00672410D02*
Y00702557D01*
X00613479Y00716035D01*
Y00731835D01*
X00621500Y00739856D01*
X00635188D01*
X00495935Y00652538D02*
X00533337Y00689940D01*
X00495935Y00597500D02*
Y00652538D01*
X00533337Y00689940D02*
X00554757D01*
X00487459Y00562360D02*
Y00572500D01*
X00526048Y00545186D02*
X00533680Y00537554D01*
X00497459Y00573775D02*
X00526048Y00545186D01*
X00516437Y00574962D02*
X00526048Y00584573D01*
X00497459Y00574701D02*
X00497720Y00574962D01*
X00497459Y00573775D02*
Y00574701D01*
X00533680Y00537554D02*
X00536054D01*
X00497720Y00574962D02*
X00516437D01*
X00536054Y00537554D02*
X00572539Y00501069D01*
X00477460Y00471728D02*
Y00571759D01*
X00472460Y00576759D02*
X00477460Y00571759D01*
X00559634Y00585819D02*
X00568815Y00595000D01*
X00576068D01*
X00559095Y00630527D02*
X00569221Y00620400D01*
X00576068D01*
X00652436Y00661882D02*
Y00661883D01*
X00667268Y00645800D02*
Y00647050D01*
X00652436Y00661882D02*
X00667268Y00647050D01*
X00656891Y00606628D02*
X00667268Y00596250D01*
Y00595000D02*
Y00596250D01*
X00656891Y00606628D02*
Y00606628D01*
X00393763Y00689032D02*
X00402438Y00697707D01*
X00393763Y00655962D02*
Y00689032D01*
X00526048Y00584573D02*
X00550614Y00609139D01*
Y00669166D01*
X00596283Y00714835D01*
X00393763Y00655962D02*
X00446901Y00602823D01*
X00458219D01*
X00383299Y00707500D02*
X00467960D01*
X00482092Y00693368D01*
X00255221Y00630295D02*
X00306094D01*
X00383299Y00707500D01*
X00487459Y00562360D02*
X00509037Y00540781D01*
Y00476801D02*
X00514110Y00471728D01*
X00509037Y00476801D02*
Y00540781D01*
X00471313Y00336500D02*
Y00337396D01*
Y00336500D02*
X00481337Y00326476D01*
X00436101Y00381952D02*
X00454656Y00363397D01*
X00519755Y00351809D02*
X00572575D01*
X00454656Y00363397D02*
X00508168D01*
X00519755Y00351809D01*
X00458219Y00602823D02*
X00458543Y00602500D01*
X00420540Y00649059D02*
X00462459D01*
X00477459Y00634058D01*
Y00626694D02*
Y00634058D01*
X00454959Y00682108D02*
X00454959Y00682108D01*
X00482092D01*
X00408468Y00127630D02*
Y00128380D01*
X00397823Y00117735D02*
X00403488Y00123400D01*
X00404238D02*
X00408468Y00127630D01*
X00354313Y00117735D02*
X00397823D01*
X00403488Y00123400D02*
X00404238D01*
X00337326Y00392989D02*
X00414607D01*
X00335838Y00391501D02*
X00337326Y00392989D01*
X00335838Y00363095D02*
Y00391501D01*
X00331646Y00358903D02*
X00335838Y00363095D01*
X00306195Y00333166D02*
X00331646Y00358617D01*
Y00358903D01*
X00327425Y00361780D02*
Y00399024D01*
X00328913Y00400511D02*
X00405574D01*
X00327425Y00399024D02*
X00328913Y00400511D01*
X00301205Y00335560D02*
X00327425Y00361780D01*
X00306195Y00275913D02*
Y00333166D01*
X00301205Y00257988D02*
Y00335560D01*
X00278911Y00219805D02*
X00337139D01*
X00146545D02*
X00278911D01*
X00327787Y00277737D02*
X00336632Y00268892D01*
X00324024Y00281500D02*
X00327787Y00277737D01*
X00356797Y00321974D02*
X00357733D01*
X00572539Y00432559D02*
Y00501069D01*
X00557424Y00569600D02*
X00576068D01*
X00068239Y00490840D02*
X00075499D01*
X00082630Y00465061D02*
Y00483709D01*
X00075499Y00490840D02*
X00082630Y00483709D01*
X00288253Y00236420D02*
X00305775D01*
X00327136Y00249514D02*
X00327500Y00249150D01*
X00318869Y00249514D02*
X00327136D01*
X00305775Y00236420D02*
X00318869Y00249514D01*
X00276641Y00224807D02*
X00288253Y00236420D01*
X00319234Y00256936D02*
X00330783D01*
X00304179Y00241881D02*
X00319234Y00256936D01*
X00330783D02*
X00341191Y00246527D01*
X00285594Y00241881D02*
X00304179D01*
X00345140Y00246527D02*
X00345441Y00246226D01*
X00341191Y00246527D02*
X00345140D01*
X00357158Y00239824D02*
Y00246291D01*
X00357500Y00246634D01*
X00337139Y00219805D02*
X00357158Y00239824D01*
X00329731Y00263598D02*
X00334869D01*
X00323285Y00270044D02*
X00329731Y00263598D01*
X00379011Y00219457D02*
X00425607Y00172860D01*
X00555000D01*
X00428124Y00177400D02*
X00591300D01*
X00379011Y00219457D02*
Y00242500D01*
X00366418Y00255093D02*
X00379011Y00242500D01*
X00343374Y00255093D02*
X00366418D01*
X00334869Y00263598D02*
X00343374Y00255093D01*
X00384001Y00221524D02*
X00428124Y00177400D01*
X00384001Y00221524D02*
Y00244567D01*
X00368485Y00260083D02*
X00384001Y00244567D01*
X00345441Y00260083D02*
X00368485D01*
X00336632Y00268892D02*
X00345441Y00260083D01*
X00556349Y00182576D02*
X00563872Y00190099D01*
X00430005Y00182576D02*
X00556349D01*
X00388991Y00223590D02*
X00430005Y00182576D01*
X00347508Y00265073D02*
X00370551D01*
X00388991Y00223590D02*
Y00246634D01*
X00337500Y00275081D02*
X00347508Y00265073D01*
X00370551D02*
X00388991Y00246634D01*
X00278911Y00235198D02*
X00278911D01*
X00125766Y00329800D02*
X00225913Y00229654D01*
X00278911Y00235198D02*
X00285594Y00241881D01*
X00273366Y00229654D02*
X00278911Y00235198D01*
X00225913Y00229654D02*
X00273366D01*
X00145126Y00224807D02*
X00276641D01*
X00127659Y00207340D02*
X00145126Y00224807D01*
X00129539Y00202800D02*
X00146545Y00219805D01*
X00032500Y00431400D02*
X00038850Y00425050D01*
X00043930D01*
X00050280Y00418700D01*
X00073575D01*
X00098975Y00393300D01*
X00117250D01*
X00125561Y00384989D01*
Y00376678D02*
Y00384989D01*
Y00376678D02*
X00219678Y00282561D01*
Y00246000D02*
Y00282561D01*
X00572539Y00432559D02*
X00572575Y00433004D01*
X00596283Y00723618D02*
X00626275Y00753610D01*
X00596283Y00714835D02*
Y00723618D01*
X00108700Y00355200D02*
X00125766Y00338134D01*
Y00329800D02*
Y00338134D01*
X00241540Y00561519D02*
X00381407D01*
X00403912Y00584024D01*
X00482459D02*
X00495935Y00597500D01*
X00219013Y00538992D02*
X00241540Y00561519D01*
X00403912Y00584024D02*
X00482459D01*
X00108700Y00177400D02*
X00331734D01*
X00334276Y00179942D01*
X00378378D01*
X00385789Y00187353D01*
X00108700Y00152000D02*
X00129560Y00172860D01*
X00336273D01*
X00338815Y00175402D01*
X00393500D01*
X00400038Y00181940D01*
X00562553Y00370400D02*
X00563489D01*
X00588889Y00395800D01*
X00591300D01*
X00546301Y00360499D02*
X00572037D01*
X00579870Y00368333D01*
X00589233D01*
X00591300Y00370400D01*
X00536764Y00344798D02*
X00536865Y00344898D01*
X00591199D01*
X00591300Y00345000D01*
X00357441Y00322265D02*
X00357733Y00321974D01*
X00353142Y00318319D02*
X00356797Y00321974D01*
X00350131Y00318319D02*
X00353142D01*
X00345169Y00313357D02*
X00350131Y00318319D01*
X00345169Y00275355D02*
Y00313357D01*
Y00275355D02*
X00350433Y00270091D01*
X00369674D01*
X00409203Y00309620D01*
X00421884D01*
X00421960Y00309697D01*
X00423952D01*
X00428865Y00314610D01*
X00462746D01*
X00485028Y00292328D01*
X00507480D01*
X00571608Y00228200D01*
X00591300D01*
X00354582Y00310765D02*
Y00311549D01*
X00350159Y00306341D02*
X00354582Y00310765D01*
X00350159Y00277422D02*
Y00306341D01*
Y00277422D02*
X00352500Y00275081D01*
X00367607D01*
X00407136Y00314610D01*
X00421089D01*
X00428415Y00321936D01*
X00471313D01*
X00478189Y00315060D01*
X00516401D01*
X00562661Y00268800D01*
X00591300D01*
X00337500Y00275081D02*
Y00318310D01*
X00563872Y00190099D02*
X00600956D01*
X00603495Y00187560D01*
Y00113395D02*
Y00187560D01*
X00591300Y00101200D02*
X00603495Y00113395D01*
X00572575Y00351809D02*
X00577332Y00356567D01*
X00604287D01*
X00618354Y00342500D01*
X00654800D01*
X00667500Y00355200D01*
X00451425Y00381952D02*
X00553294D01*
X00578842Y00407500D01*
X00612660D01*
X00626860Y00393300D01*
X00654800D01*
X00667500Y00380600D01*
X00576068Y00633800D02*
Y00645800D01*
X00485066Y00304341D02*
X00492539Y00296868D01*
X00509360D01*
X00555479Y00250749D01*
X00611726D01*
X00614533Y00247943D01*
Y00242388D02*
Y00247943D01*
Y00242388D02*
X00617831Y00239090D01*
X00656610D01*
X00667500Y00228200D01*
X00498121Y00306670D02*
X00505978D01*
X00557359Y00255289D01*
X00611726D01*
X00620982Y00264546D01*
X00656554D01*
X00667500Y00253600D01*
X00555000Y00172860D02*
X00575860Y00152000D01*
X00591300D01*
X00359927Y00284196D02*
Y00284261D01*
X00403946Y00328279D01*
X00473114D01*
X00479456Y00321936D01*
X00580361D01*
X00580456Y00322030D01*
X00588870D01*
X00591300Y00319600D01*
X00246375Y00250250D02*
X00246782Y00250656D01*
X00253186D01*
X00258283Y00255754D01*
X00298971D01*
X00301205Y00257988D01*
X00307337Y00255111D02*
X00307349Y00255098D01*
X00307337Y00255111D02*
Y00274771D01*
X00306195Y00275913D02*
X00307337Y00274771D01*
X00457346Y00304341D02*
X00558887Y00202800D01*
X00591300D01*
X00481337Y00326476D02*
X00578609D01*
X00584356Y00332223D01*
X00611497D01*
X00626803Y00316917D01*
X00654983D01*
X00667500Y00304400D01*
X00057900Y00050400D02*
X00108700D01*
X00236086D01*
X00349778Y00164092D01*
X00057900Y00075800D02*
X00108700D01*
X00096884Y00087616D02*
X00108700Y00075800D01*
X00096884Y00087616D02*
Y00186372D01*
X00099608Y00189097D01*
X00355000D01*
X00032500Y00075800D02*
X00043390Y00086690D01*
X00079065D01*
X00082363Y00089988D01*
Y00192689D01*
X00092474Y00202800D01*
X00129539D01*
X00032500Y00050400D02*
X00045200Y00037700D01*
X00256638D01*
X00357652Y00138714D01*
X00462746Y00278932D02*
X00472397Y00269281D01*
Y00233080D02*
Y00269281D01*
X00559725Y00407500D02*
X00586271Y00434047D01*
X00606697D01*
X00622043Y00418700D01*
X00651682D01*
X00654222Y00421240D01*
Y00443522D01*
X00667500Y00456800D01*
X00057900Y00507600D02*
X00070120Y00495380D01*
X00077380D01*
X00087170Y00485590D01*
Y00466941D02*
Y00485590D01*
Y00466941D02*
X00132331Y00421780D01*
Y00405552D02*
Y00421780D01*
Y00405552D02*
X00139503Y00398380D01*
Y00382497D02*
Y00398380D01*
Y00382497D02*
X00245000Y00277000D01*
X00032500Y00482200D02*
X00045200Y00494900D01*
X00064180D01*
X00068239Y00490840D01*
X00082630Y00465061D02*
X00127791Y00419899D01*
Y00403590D02*
Y00419899D01*
Y00403590D02*
X00134866Y00396516D01*
Y00380214D02*
Y00396516D01*
Y00380214D02*
X00236250Y00278830D01*
Y00270000D02*
Y00278830D01*
Y00270000D02*
X00240000Y00266250D01*
X00246375D01*
X00257126Y00277000D01*
X00057900Y00482200D02*
X00059371D01*
X00078599Y00462972D01*
Y00462671D02*
Y00462972D01*
Y00462671D02*
X00123006Y00418264D01*
Y00401954D02*
Y00418264D01*
Y00401954D02*
X00130306Y00394654D01*
Y00378353D02*
Y00394654D01*
Y00378353D02*
X00231710Y00276950D01*
Y00268119D02*
Y00276950D01*
Y00268119D02*
X00238119Y00261709D01*
X00253960D01*
X00269251Y00277000D01*
X00032500Y00126600D02*
X00045200Y00139300D01*
X00076335D01*
X00077823Y00140788D01*
Y00194569D01*
X00090594Y00207340D01*
X00127659D01*
X00148844Y00393300D02*
X00287597D01*
X00317500Y00363397D01*
X00032500Y00380600D02*
X00045200Y00367900D01*
X00118966D01*
X00134903Y00351963D01*
X00245000Y00620075D02*
X00255221Y00630295D01*
X00482092Y00682108D02*
Y00693368D01*
X00416009Y00336500D02*
X00421920Y00342411D01*
X00422059D01*
Y00419634D01*
X00583568Y00611795D02*
Y00656105D01*
X00589971Y00662509D01*
X00592075D01*
X00602286Y00662302D02*
X00626275Y00686291D01*
X00532703Y00572500D02*
X00569342Y00609139D01*
X00580912D01*
X00583568Y00611795D01*
X00592075Y00662509D02*
X00592282Y00662302D01*
X00602286D01*
X00626275Y00686291D02*
Y00728210D01*
X00478311Y00668693D02*
X00486218D01*
X00506079Y00688554D01*
X00506080Y00710422D02*
X00506080Y00710423D01*
X00506079Y00688554D02*
X00506080Y00710422D01*
D21*
X00506080Y00710423D02*
D03*
X00491080D02*
D03*
X00576068Y00645800D02*
D03*
X00591068D02*
D03*
X00576068Y00620400D02*
D03*
X00591068D02*
D03*
X00576068Y00595000D02*
D03*
X00591068D02*
D03*
X00576068Y00569600D02*
D03*
X00591068D02*
D03*
X00652268Y00645800D02*
D03*
X00667268D02*
D03*
X00652268Y00620400D02*
D03*
X00667268D02*
D03*
X00652268Y00595000D02*
D03*
X00667268D02*
D03*
X00652268Y00569600D02*
D03*
X00667268D02*
D03*
X00454959Y00682108D02*
D03*
X00439959D02*
D03*
D23*
X00650270Y00536527D02*
D03*
X00667270D02*
D03*
D30*
X00408468Y00111380D02*
D03*
Y00128380D02*
D03*
D51*
X00621668Y00620400D02*
D03*
Y00645800D02*
D03*
Y00595000D02*
D03*
X00539239Y00702805D02*
D03*
Y00677405D02*
D03*
Y00753605D02*
D03*
Y00728205D02*
D03*
Y00779005D02*
D03*
X00626275Y00728210D02*
D03*
X00311250Y00600035D02*
D03*
X00667500Y00787000D02*
D03*
X00591300Y00294200D02*
D03*
Y00268800D02*
D03*
Y00345000D02*
D03*
Y00319600D02*
D03*
Y00395800D02*
D03*
Y00370400D02*
D03*
Y00421200D02*
D03*
Y00472000D02*
D03*
Y00446600D02*
D03*
X00667500Y00507600D02*
D03*
Y00482200D02*
D03*
Y00456800D02*
D03*
Y00126600D02*
D03*
Y00101200D02*
D03*
Y00075800D02*
D03*
Y00050400D02*
D03*
Y00431400D02*
D03*
Y00406000D02*
D03*
Y00380600D02*
D03*
Y00355200D02*
D03*
Y00228200D02*
D03*
Y00202800D02*
D03*
Y00177400D02*
D03*
Y00152000D02*
D03*
Y00329800D02*
D03*
Y00304400D02*
D03*
Y00279000D02*
D03*
Y00253600D02*
D03*
X00591300Y00075800D02*
D03*
Y00050400D02*
D03*
Y00126600D02*
D03*
Y00101200D02*
D03*
Y00177400D02*
D03*
Y00152000D02*
D03*
Y00202800D02*
D03*
X00328787Y00533790D02*
D03*
X00108700Y00075800D02*
D03*
Y00050400D02*
D03*
Y00126600D02*
D03*
Y00101200D02*
D03*
Y00152000D02*
D03*
Y00253600D02*
D03*
Y00228200D02*
D03*
Y00304400D02*
D03*
Y00279000D02*
D03*
Y00355200D02*
D03*
Y00329800D02*
D03*
Y00380600D02*
D03*
X00057900Y00253600D02*
D03*
Y00279000D02*
D03*
Y00304400D02*
D03*
Y00329800D02*
D03*
Y00152000D02*
D03*
Y00177400D02*
D03*
Y00202800D02*
D03*
Y00228200D02*
D03*
Y00355200D02*
D03*
Y00380600D02*
D03*
Y00406000D02*
D03*
Y00431400D02*
D03*
Y00050400D02*
D03*
Y00075800D02*
D03*
Y00101200D02*
D03*
Y00126600D02*
D03*
Y00456800D02*
D03*
Y00482200D02*
D03*
Y00507600D02*
D03*
X00150624Y00673669D02*
D03*
Y00699069D02*
D03*
X00032500Y00787000D02*
D03*
D52*
X00621668Y00569600D02*
D03*
X00539239Y00804405D02*
D03*
X00626275Y00753610D02*
D03*
X00667500Y00761600D02*
D03*
X00591300Y00497400D02*
D03*
Y00228200D02*
D03*
X00328787Y00508390D02*
D03*
X00108700Y00177400D02*
D03*
Y00406000D02*
D03*
X00150624Y00724469D02*
D03*
X00032500Y00761600D02*
D03*
D54*
X00336650Y00600035D02*
D03*
X00642100Y00507600D02*
D03*
Y00482200D02*
D03*
Y00456800D02*
D03*
Y00126600D02*
D03*
Y00101200D02*
D03*
Y00075800D02*
D03*
Y00050400D02*
D03*
Y00406000D02*
D03*
Y00380600D02*
D03*
Y00355200D02*
D03*
Y00228200D02*
D03*
Y00202800D02*
D03*
Y00177400D02*
D03*
Y00152000D02*
D03*
Y00329800D02*
D03*
Y00304400D02*
D03*
Y00279000D02*
D03*
Y00253600D02*
D03*
Y00431400D02*
D03*
X00032500Y00253600D02*
D03*
Y00279000D02*
D03*
Y00304400D02*
D03*
Y00329800D02*
D03*
Y00152000D02*
D03*
Y00177400D02*
D03*
Y00202800D02*
D03*
Y00228200D02*
D03*
Y00355200D02*
D03*
Y00380600D02*
D03*
Y00406000D02*
D03*
Y00431400D02*
D03*
Y00075800D02*
D03*
Y00101200D02*
D03*
Y00126600D02*
D03*
Y00456800D02*
D03*
Y00482200D02*
D03*
Y00507600D02*
D03*
Y00050400D02*
D03*
D58*
X00609209Y00557585D02*
X00613730Y00553063D01*
X00667269D01*
X00558227Y00557585D02*
X00609209D01*
X00546789Y00546147D02*
X00558227Y00557585D01*
D61*
X00621668Y00569600D02*
X00648518D01*
X00594818D02*
X00621668D01*
Y00595000D02*
X00648518D01*
X00594818D02*
X00621668D01*
Y00620400D02*
X00648518D01*
X00594818D02*
X00621668D01*
Y00645800D02*
X00648518D01*
X00594818D02*
X00621668D01*
D66*
X00433960Y00772500D02*
D03*
X00477960D02*
D03*
X00440265Y00668693D02*
D03*
X00500015Y00724459D02*
D03*
X00600000Y00672410D02*
D03*
X00615624Y00691841D02*
D03*
X00559634Y00585819D02*
D03*
X00656891Y00606628D02*
D03*
X00652436Y00661883D02*
D03*
X00180604Y00256249D02*
D03*
X00407276Y00603976D02*
D03*
X00261293Y00743680D02*
D03*
X00402438Y00697707D02*
D03*
X00458543Y00627950D02*
D03*
X00538339Y00612272D02*
D03*
X00487317Y00521333D02*
D03*
X00419490Y00557500D02*
D03*
X00431919Y00431790D02*
D03*
X00419890Y00488051D02*
D03*
X00213645Y00570342D02*
D03*
X00239203Y00464289D02*
D03*
X00204175Y00452310D02*
D03*
X00134361Y00452306D02*
D03*
X00410994Y00678409D02*
D03*
X00495643Y00537957D02*
D03*
X00471313Y00337396D02*
D03*
X00385000Y00093180D02*
D03*
X00402783Y00093184D02*
D03*
X00259642Y00533543D02*
D03*
X00255221Y00585192D02*
D03*
X00314950Y00649726D02*
D03*
X00361657Y00543247D02*
D03*
X00544225Y00469100D02*
D03*
X00492111Y00348295D02*
D03*
X00283237Y00211724D02*
D03*
X00257419Y00149810D02*
D03*
X00276828Y00035928D02*
D03*
X00546789Y00546147D02*
D03*
X00432039Y00127630D02*
D03*
X00464758Y00536995D02*
D03*
X00442617Y00622500D02*
D03*
X00458543Y00602500D02*
D03*
X00372828Y00733845D02*
D03*
X00406379Y00572500D02*
D03*
X00447124Y00191278D02*
D03*
X00156119Y00409126D02*
D03*
X00482092Y00728205D02*
D03*
X00311250Y00485679D02*
D03*
X00108978Y00605700D02*
D03*
X00477460Y00429909D02*
D03*
X00166110Y00785023D02*
D03*
X00535710Y00627500D02*
D03*
X00344581Y00627738D02*
D03*
X00353118Y00642738D02*
D03*
X00198738Y00762680D02*
D03*
X00198740Y00601821D02*
D03*
X00162832Y00208789D02*
D03*
X00281499Y00163342D02*
D03*
X00388793Y00143049D02*
D03*
X00277062Y00118481D02*
D03*
X00667269Y00553063D02*
D03*
X00376075Y00456784D02*
D03*
X00256229Y00242396D02*
D03*
X00354313Y00117735D02*
D03*
X00397176Y00363397D02*
D03*
X00362500Y00378223D02*
D03*
X00347789Y00384006D02*
D03*
X00414607Y00392989D02*
D03*
X00405574Y00400511D02*
D03*
X00410141Y00353278D02*
D03*
X00362500Y00363397D02*
D03*
X00487459Y00572500D02*
D03*
X00498000Y00574701D02*
D03*
X00472460Y00576759D02*
D03*
X00557424Y00569600D02*
D03*
X00377500Y00355672D02*
D03*
X00572575Y00433004D02*
D03*
X00372500Y00323631D02*
D03*
X00383500D02*
D03*
X00397944Y00638481D02*
D03*
X00327136Y00236420D02*
D03*
X00327500Y00249150D02*
D03*
X00345441Y00246226D02*
D03*
X00357500Y00246634D02*
D03*
X00324024Y00294298D02*
D03*
X00269251Y00241500D02*
D03*
X00440437Y00336500D02*
D03*
X00387995Y00271500D02*
D03*
X00357441Y00322265D02*
D03*
X00307349Y00255098D02*
D03*
X00323285Y00270044D02*
D03*
X00462746Y00278932D02*
D03*
X00514110Y00471728D02*
D03*
X00219678Y00246000D02*
D03*
X00420540Y00649059D02*
D03*
X00477459Y00626694D02*
D03*
X00219013Y00538992D02*
D03*
X00385789Y00187353D02*
D03*
X00400038Y00181940D02*
D03*
X00430214Y00251500D02*
D03*
X00562553Y00370400D02*
D03*
X00546301Y00360499D02*
D03*
X00536764Y00344798D02*
D03*
X00354582Y00311549D02*
D03*
X00337500Y00318310D02*
D03*
X00436101Y00381952D02*
D03*
X00451425D02*
D03*
X00576068Y00633800D02*
D03*
X00359927Y00296995D02*
D03*
X00485066Y00304341D02*
D03*
X00498121Y00306670D02*
D03*
X00324024Y00281500D02*
D03*
X00359927Y00284196D02*
D03*
X00246375Y00250250D02*
D03*
X00457346Y00304341D02*
D03*
X00349778Y00164092D02*
D03*
X00355000Y00189097D02*
D03*
X00357652Y00138714D02*
D03*
X00472397Y00233080D02*
D03*
X00559725Y00407500D02*
D03*
X00245000Y00277000D02*
D03*
X00257126D02*
D03*
X00269251D02*
D03*
X00148844Y00393300D02*
D03*
X00317500Y00363397D02*
D03*
X00134903Y00351963D02*
D03*
X00245000Y00620075D02*
D03*
X00482092Y00682108D02*
D03*
X00416009Y00336500D02*
D03*
X00422059Y00419634D02*
D03*
X00532703Y00572500D02*
D03*
X00477460Y00471728D02*
D03*
X00487459Y00620400D02*
D03*
X00559095Y00630527D02*
D03*
X00478311Y00668693D02*
D03*
X00506079Y00688554D02*
D03*
D67*
X00591300Y00533000D02*
D03*
X00108700Y00545700D02*
D03*
X00438900Y00025000D02*
D03*
D68*
X00275620Y00661990D02*
D03*
Y00650990D02*
D03*
M02*
