G04*
G04 #@! TF.GenerationSoftware,Altium Limited,Altium Designer,24.4.1 (13)*
G04*
G04 Layer_Color=8388736*
%FSAX44Y44*%
%MOMM*%
G71*
G04*
G04 #@! TF.SameCoordinates,09090911-0CFD-4792-A0CC-E2C5D1EC5460*
G04*
G04*
G04 #@! TF.FilePolarity,Negative*
G04*
G01*
G75*
%ADD17R,1.1938X0.3048*%
%ADD18R,0.3048X1.1938*%
G04:AMPARAMS|DCode=19|XSize=1.6383mm|YSize=0.6121mm|CornerRadius=0.3061mm|HoleSize=0mm|Usage=FLASHONLY|Rotation=0.000|XOffset=0mm|YOffset=0mm|HoleType=Round|Shape=RoundedRectangle|*
%AMROUNDEDRECTD19*
21,1,1.6383,0.0000,0,0,0.0*
21,1,1.0261,0.6121,0,0,0.0*
1,1,0.6121,0.5131,0.0000*
1,1,0.6121,-0.5131,0.0000*
1,1,0.6121,-0.5131,0.0000*
1,1,0.6121,0.5131,0.0000*
%
%ADD19ROUNDEDRECTD19*%
%ADD20R,1.6383X0.6121*%
%ADD21R,0.7500X1.0000*%
%ADD22R,0.8128X0.8128*%
%ADD26R,1.0000X0.7500*%
%ADD27R,0.5588X1.4224*%
%ADD28R,5.9182X1.2954*%
%ADD29R,0.8600X0.5400*%
%ADD34R,0.9398X0.8636*%
%ADD35R,1.2954X5.9182*%
%ADD36R,0.8128X0.8128*%
%ADD37R,2.1082X1.3970*%
%ADD38R,0.5588X1.5494*%
%ADD39R,1.3970X2.1082*%
%ADD40R,1.7383X2.4130*%
%ADD41R,0.9144X1.6002*%
%ADD42R,1.4986X1.6002*%
%ADD43R,1.4600X1.3100*%
%ADD44R,2.2100X2.7100*%
%ADD45R,0.7100X2.5100*%
%ADD46R,1.3100X1.4600*%
%ADD47O,0.9000X0.5000*%
%ADD48R,1.7500X2.5000*%
%ADD49R,2.1100X1.5100*%
%ADD50R,3.2000X1.6000*%
%ADD51C,1.5240*%
%ADD52R,1.5240X1.5240*%
%ADD53C,0.8100*%
%ADD54R,1.5240X1.5240*%
%ADD55C,3.4100*%
G36*
X00096880Y00719516D02*
Y00742629D01*
X00064368D01*
Y00719516D01*
X00096880D01*
D02*
G37*
D17*
X00292500Y00241500D02*
D03*
Y00246500D02*
D03*
Y00251500D02*
D03*
Y00256500D02*
D03*
Y00261500D02*
D03*
Y00266500D02*
D03*
Y00271500D02*
D03*
Y00276500D02*
D03*
Y00281500D02*
D03*
Y00286500D02*
D03*
Y00291500D02*
D03*
Y00296500D02*
D03*
Y00301500D02*
D03*
Y00306500D02*
D03*
Y00311500D02*
D03*
Y00316500D02*
D03*
X00407500D02*
D03*
Y00311500D02*
D03*
Y00306500D02*
D03*
Y00301500D02*
D03*
Y00296500D02*
D03*
Y00291500D02*
D03*
Y00286500D02*
D03*
Y00281500D02*
D03*
Y00276500D02*
D03*
Y00271500D02*
D03*
Y00266500D02*
D03*
Y00261500D02*
D03*
Y00256500D02*
D03*
Y00251500D02*
D03*
Y00246500D02*
D03*
Y00241500D02*
D03*
X00427459Y00572500D02*
D03*
Y00577500D02*
D03*
Y00582500D02*
D03*
Y00587500D02*
D03*
Y00592500D02*
D03*
Y00597500D02*
D03*
Y00602500D02*
D03*
Y00607500D02*
D03*
Y00612500D02*
D03*
Y00617500D02*
D03*
Y00622500D02*
D03*
Y00627500D02*
D03*
X00512459D02*
D03*
Y00622500D02*
D03*
Y00617500D02*
D03*
Y00612500D02*
D03*
Y00607500D02*
D03*
Y00602500D02*
D03*
Y00597500D02*
D03*
Y00592500D02*
D03*
Y00587500D02*
D03*
Y00582500D02*
D03*
Y00577500D02*
D03*
Y00572500D02*
D03*
D18*
X00312500Y00336500D02*
D03*
X00317500D02*
D03*
X00322500D02*
D03*
X00327500D02*
D03*
X00332500D02*
D03*
X00337500D02*
D03*
X00342500D02*
D03*
X00347500D02*
D03*
X00352500D02*
D03*
X00357500D02*
D03*
X00362500D02*
D03*
X00367500D02*
D03*
X00372500D02*
D03*
X00377500D02*
D03*
X00382500D02*
D03*
X00387500D02*
D03*
Y00221500D02*
D03*
X00382500D02*
D03*
X00377500D02*
D03*
X00372500D02*
D03*
X00367500D02*
D03*
X00362500D02*
D03*
X00357500D02*
D03*
X00352500D02*
D03*
X00347500D02*
D03*
X00342500D02*
D03*
X00337500D02*
D03*
X00332500D02*
D03*
X00327500D02*
D03*
X00322500D02*
D03*
X00317500D02*
D03*
X00312500D02*
D03*
X00442459Y00642500D02*
D03*
X00447459D02*
D03*
X00452459D02*
D03*
X00457459D02*
D03*
X00462459D02*
D03*
X00467459D02*
D03*
X00472459D02*
D03*
X00477459D02*
D03*
X00482459D02*
D03*
X00487459D02*
D03*
X00492459D02*
D03*
X00497459D02*
D03*
Y00557500D02*
D03*
X00492459D02*
D03*
X00487459D02*
D03*
X00482459D02*
D03*
X00477459D02*
D03*
X00472459D02*
D03*
X00467459D02*
D03*
X00462459D02*
D03*
X00457459D02*
D03*
X00452459D02*
D03*
X00447459D02*
D03*
X00442459D02*
D03*
D19*
X00311151Y00762679D02*
D03*
Y00743680D02*
D03*
X00287827D02*
D03*
Y00753180D02*
D03*
D20*
Y00762679D02*
D03*
D21*
X00283853Y00788028D02*
D03*
X00268853D02*
D03*
X00351100Y00804480D02*
D03*
X00336100D02*
D03*
X00351100Y00788028D02*
D03*
X00336100D02*
D03*
X00405544Y00665280D02*
D03*
X00420545D02*
D03*
X00361657Y00594467D02*
D03*
X00376657D02*
D03*
Y00611305D02*
D03*
X00361657D02*
D03*
Y00577630D02*
D03*
X00376657D02*
D03*
X00384157Y00659739D02*
D03*
X00369157D02*
D03*
X00384008Y00543247D02*
D03*
X00399008D02*
D03*
X00419890Y00461622D02*
D03*
X00404890D02*
D03*
X00539359Y00648469D02*
D03*
X00554359D02*
D03*
X00582124Y00677410D02*
D03*
X00567124D02*
D03*
X00582124Y00702810D02*
D03*
X00567124D02*
D03*
X00582124Y00728210D02*
D03*
X00567124D02*
D03*
X00582124Y00804410D02*
D03*
X00567124D02*
D03*
X00582124Y00779010D02*
D03*
X00567124D02*
D03*
X00464365Y00097950D02*
D03*
X00449365D02*
D03*
X00464360Y00116088D02*
D03*
X00449360D02*
D03*
X00222500Y00261500D02*
D03*
X00237500D02*
D03*
X00206492Y00699069D02*
D03*
X00191492D02*
D03*
D22*
X00315791Y00804480D02*
D03*
X00300791D02*
D03*
Y00788028D02*
D03*
X00315791D02*
D03*
X00250299Y00699069D02*
D03*
X00235298D02*
D03*
D26*
X00470460Y00692500D02*
D03*
Y00707500D02*
D03*
X00449460Y00692500D02*
D03*
Y00707500D02*
D03*
X00434531Y00692500D02*
D03*
Y00707500D02*
D03*
X00416101D02*
D03*
Y00692500D02*
D03*
X00369157Y00642738D02*
D03*
Y00627738D02*
D03*
X00344490Y00692500D02*
D03*
Y00707500D02*
D03*
X00528870Y00444170D02*
D03*
Y00459170D02*
D03*
X00514110Y00444170D02*
D03*
Y00459170D02*
D03*
X00477460Y00457924D02*
D03*
Y00442923D02*
D03*
X00383297Y00419290D02*
D03*
Y00434290D02*
D03*
X00600000Y00687805D02*
D03*
Y00702805D02*
D03*
X00327500Y00179092D02*
D03*
Y00164092D02*
D03*
X00312500Y00179092D02*
D03*
Y00164092D02*
D03*
X00293501Y00149060D02*
D03*
Y00134060D02*
D03*
X00691001Y00347160D02*
D03*
Y00362160D02*
D03*
X00371292Y00128381D02*
D03*
Y00113381D02*
D03*
D27*
X00378682Y00711804D02*
D03*
X00388207Y00692500D02*
D03*
X00369157D02*
D03*
D28*
X00422415Y00505301D02*
D03*
X00507505D02*
D03*
D29*
X00222328Y00762680D02*
D03*
X00243728D02*
D03*
Y00785023D02*
D03*
X00222328D02*
D03*
X00606004Y00804409D02*
D03*
X00627404D02*
D03*
D34*
X00388793Y00111880D02*
D03*
Y00127881D02*
D03*
D35*
X00509805Y00036752D02*
D03*
Y00121842D02*
D03*
D36*
X00691001Y00321520D02*
D03*
Y00306520D02*
D03*
D37*
X00350479Y00464289D02*
D03*
Y00419290D02*
D03*
X00259479D02*
D03*
Y00464289D02*
D03*
D38*
X00191039Y00620075D02*
D03*
X00203739D02*
D03*
X00216439D02*
D03*
X00229139D02*
D03*
Y00673669D02*
D03*
X00216439D02*
D03*
X00203739D02*
D03*
X00191039D02*
D03*
D39*
X00193844Y00479342D02*
D03*
X00148844D02*
D03*
Y00570342D02*
D03*
X00193844D02*
D03*
D40*
X00055843Y00629069D02*
D03*
X00080624D02*
D03*
X00123233D02*
D03*
X00148015D02*
D03*
D41*
X00103624Y00667065D02*
D03*
X00080624D02*
D03*
X00057624D02*
D03*
D42*
X00125328Y00769068D02*
D03*
X00080624D02*
D03*
D43*
X00357990Y00762679D02*
D03*
X00340990D02*
D03*
X00357990Y00743680D02*
D03*
X00340990D02*
D03*
X00290374Y00624068D02*
D03*
X00273374D02*
D03*
X00311250D02*
D03*
X00328250D02*
D03*
X00295500Y00198414D02*
D03*
X00312500D02*
D03*
X00464360Y00137807D02*
D03*
X00447360D02*
D03*
X00450792Y00055231D02*
D03*
X00433792D02*
D03*
X00276132Y00560319D02*
D03*
X00293132D02*
D03*
X00276132Y00543009D02*
D03*
X00293132D02*
D03*
X00276132Y00525700D02*
D03*
X00293132D02*
D03*
X00276132Y00508390D02*
D03*
X00293132D02*
D03*
D44*
X00411460Y00747500D02*
D03*
X00500460D02*
D03*
Y00802500D02*
D03*
X00411460D02*
D03*
D45*
X00471960Y00746500D02*
D03*
X00463960D02*
D03*
X00455960D02*
D03*
X00447960D02*
D03*
X00439960D02*
D03*
D46*
X00269000Y00702280D02*
D03*
Y00719280D02*
D03*
X00287827Y00702278D02*
D03*
Y00719278D02*
D03*
X00330624Y00665989D02*
D03*
Y00648988D02*
D03*
X00310624Y00665989D02*
D03*
Y00682988D02*
D03*
X00498372Y00457920D02*
D03*
Y00440920D02*
D03*
X00376075Y00488301D02*
D03*
Y00505301D02*
D03*
X00404892Y00436289D02*
D03*
Y00419290D02*
D03*
X00553850Y00488300D02*
D03*
Y00505300D02*
D03*
X00257419Y00191789D02*
D03*
Y00208789D02*
D03*
X00232900Y00191789D02*
D03*
Y00208789D02*
D03*
X00208382Y00191789D02*
D03*
Y00208789D02*
D03*
X00183864Y00191789D02*
D03*
Y00208789D02*
D03*
X00276828Y00054928D02*
D03*
Y00071928D02*
D03*
X00357652Y00054928D02*
D03*
Y00071928D02*
D03*
X00116387Y00462341D02*
D03*
Y00479340D02*
D03*
D47*
X00260870Y00665990D02*
D03*
Y00656490D02*
D03*
Y00646990D02*
D03*
X00290370D02*
D03*
Y00656490D02*
D03*
Y00665990D02*
D03*
D48*
X00275620Y00656490D02*
D03*
D49*
X00336000Y00090928D02*
D03*
X00304000D02*
D03*
X00336000Y00035928D02*
D03*
X00304000D02*
D03*
D50*
X00080624Y00731068D02*
D03*
D51*
X00621668Y00620400D02*
D03*
Y00645800D02*
D03*
Y00595000D02*
D03*
X00539239Y00702805D02*
D03*
Y00677405D02*
D03*
Y00753605D02*
D03*
Y00728205D02*
D03*
Y00779005D02*
D03*
X00626275Y00728210D02*
D03*
X00311250Y00600035D02*
D03*
X00667500Y00787000D02*
D03*
X00591300Y00294200D02*
D03*
Y00268800D02*
D03*
Y00345000D02*
D03*
Y00319600D02*
D03*
Y00395800D02*
D03*
Y00370400D02*
D03*
Y00421200D02*
D03*
Y00472000D02*
D03*
Y00446600D02*
D03*
X00667500Y00507600D02*
D03*
Y00482200D02*
D03*
Y00456800D02*
D03*
Y00126600D02*
D03*
Y00101200D02*
D03*
Y00075800D02*
D03*
Y00050400D02*
D03*
Y00431400D02*
D03*
Y00406000D02*
D03*
Y00380600D02*
D03*
Y00355200D02*
D03*
Y00228200D02*
D03*
Y00202800D02*
D03*
Y00177400D02*
D03*
Y00152000D02*
D03*
Y00329800D02*
D03*
Y00304400D02*
D03*
Y00279000D02*
D03*
Y00253600D02*
D03*
X00591300Y00075800D02*
D03*
Y00050400D02*
D03*
Y00126600D02*
D03*
Y00101200D02*
D03*
Y00177400D02*
D03*
Y00152000D02*
D03*
Y00202800D02*
D03*
X00328787Y00533790D02*
D03*
X00108700Y00075800D02*
D03*
Y00050400D02*
D03*
Y00126600D02*
D03*
Y00101200D02*
D03*
Y00152000D02*
D03*
Y00253600D02*
D03*
Y00228200D02*
D03*
Y00304400D02*
D03*
Y00279000D02*
D03*
Y00355200D02*
D03*
Y00329800D02*
D03*
Y00380600D02*
D03*
X00057900Y00253600D02*
D03*
Y00279000D02*
D03*
Y00304400D02*
D03*
Y00329800D02*
D03*
Y00152000D02*
D03*
Y00177400D02*
D03*
Y00202800D02*
D03*
Y00228200D02*
D03*
Y00355200D02*
D03*
Y00380600D02*
D03*
Y00406000D02*
D03*
Y00431400D02*
D03*
Y00050400D02*
D03*
Y00075800D02*
D03*
Y00101200D02*
D03*
Y00126600D02*
D03*
Y00456800D02*
D03*
Y00482200D02*
D03*
Y00507600D02*
D03*
X00150624Y00673669D02*
D03*
Y00699069D02*
D03*
X00032500Y00787000D02*
D03*
D52*
X00621668Y00569600D02*
D03*
X00539239Y00804405D02*
D03*
X00626275Y00753610D02*
D03*
X00667500Y00761600D02*
D03*
X00591300Y00497400D02*
D03*
Y00228200D02*
D03*
X00328787Y00508390D02*
D03*
X00108700Y00177400D02*
D03*
Y00406000D02*
D03*
X00150624Y00724469D02*
D03*
X00032500Y00761600D02*
D03*
D53*
X00433960Y00772500D02*
D03*
X00477960D02*
D03*
X00440265Y00668693D02*
D03*
X00500015Y00724459D02*
D03*
X00600000Y00672410D02*
D03*
X00615624Y00691841D02*
D03*
X00559634Y00585819D02*
D03*
X00656891Y00606628D02*
D03*
X00652436Y00661883D02*
D03*
X00402438Y00697707D02*
D03*
X00410994Y00678409D02*
D03*
X00495643Y00537957D02*
D03*
X00471313Y00337396D02*
D03*
X00402783Y00093184D02*
D03*
X00546789Y00546147D02*
D03*
X00464758Y00536995D02*
D03*
X00442617Y00622500D02*
D03*
X00458543Y00602500D02*
D03*
X00372828Y00733845D02*
D03*
X00406379Y00572500D02*
D03*
X00447124Y00191278D02*
D03*
X00156119Y00409126D02*
D03*
X00482092Y00728205D02*
D03*
X00311250Y00485679D02*
D03*
X00108978Y00605700D02*
D03*
X00477460Y00429909D02*
D03*
X00166110Y00785023D02*
D03*
X00535710Y00627500D02*
D03*
X00344581Y00627738D02*
D03*
X00353118Y00642738D02*
D03*
X00198738Y00762680D02*
D03*
X00198740Y00601821D02*
D03*
X00162832Y00208789D02*
D03*
X00281499Y00163342D02*
D03*
X00388793Y00143049D02*
D03*
X00277062Y00118481D02*
D03*
X00667269Y00553063D02*
D03*
X00376075Y00456784D02*
D03*
X00397176Y00363397D02*
D03*
X00362500Y00378223D02*
D03*
X00347789Y00384006D02*
D03*
X00414607Y00392989D02*
D03*
X00405574Y00400511D02*
D03*
X00410141Y00353278D02*
D03*
X00362500Y00363397D02*
D03*
X00487459Y00572500D02*
D03*
X00498000Y00574701D02*
D03*
X00472460Y00576759D02*
D03*
X00557424Y00569600D02*
D03*
X00377500Y00355672D02*
D03*
X00572575Y00433004D02*
D03*
X00372500Y00323631D02*
D03*
X00383500D02*
D03*
X00397944Y00638481D02*
D03*
X00327136Y00236420D02*
D03*
X00327500Y00249150D02*
D03*
X00345441Y00246226D02*
D03*
X00357500Y00246634D02*
D03*
X00324024Y00294298D02*
D03*
X00269251Y00241500D02*
D03*
X00440437Y00336500D02*
D03*
X00387995Y00271500D02*
D03*
X00357441Y00322265D02*
D03*
X00307349Y00255098D02*
D03*
X00323285Y00270044D02*
D03*
X00462746Y00278932D02*
D03*
X00514110Y00471728D02*
D03*
X00219678Y00246000D02*
D03*
X00420540Y00649059D02*
D03*
X00477459Y00626694D02*
D03*
X00219013Y00538992D02*
D03*
X00385789Y00187353D02*
D03*
X00400038Y00181940D02*
D03*
X00430214Y00251500D02*
D03*
X00562553Y00370400D02*
D03*
X00546301Y00360499D02*
D03*
X00536764Y00344798D02*
D03*
X00354582Y00311549D02*
D03*
X00337500Y00318310D02*
D03*
X00436101Y00381952D02*
D03*
X00451425D02*
D03*
X00576068Y00633800D02*
D03*
X00359927Y00296995D02*
D03*
X00485066Y00304341D02*
D03*
X00498121Y00306670D02*
D03*
X00324024Y00281500D02*
D03*
X00359927Y00284196D02*
D03*
X00246375Y00250250D02*
D03*
X00457346Y00304341D02*
D03*
X00349778Y00164092D02*
D03*
X00355000Y00189097D02*
D03*
X00357652Y00138714D02*
D03*
X00472397Y00233080D02*
D03*
X00559725Y00407500D02*
D03*
X00245000Y00277000D02*
D03*
X00257126D02*
D03*
X00269251D02*
D03*
X00148844Y00393300D02*
D03*
X00317500Y00363397D02*
D03*
X00134903Y00351963D02*
D03*
X00245000Y00620075D02*
D03*
X00482092Y00682108D02*
D03*
X00416009Y00336500D02*
D03*
X00422059Y00419634D02*
D03*
X00532703Y00572500D02*
D03*
X00477460Y00471728D02*
D03*
X00487459Y00620400D02*
D03*
X00559095Y00630527D02*
D03*
X00478311Y00668693D02*
D03*
X00506079Y00688554D02*
D03*
D54*
X00336650Y00600035D02*
D03*
X00642100Y00507600D02*
D03*
Y00482200D02*
D03*
Y00456800D02*
D03*
Y00126600D02*
D03*
Y00101200D02*
D03*
Y00075800D02*
D03*
Y00050400D02*
D03*
Y00406000D02*
D03*
Y00380600D02*
D03*
Y00355200D02*
D03*
Y00228200D02*
D03*
Y00202800D02*
D03*
Y00177400D02*
D03*
Y00152000D02*
D03*
Y00329800D02*
D03*
Y00304400D02*
D03*
Y00279000D02*
D03*
Y00253600D02*
D03*
Y00431400D02*
D03*
X00032500Y00253600D02*
D03*
Y00279000D02*
D03*
Y00304400D02*
D03*
Y00329800D02*
D03*
Y00152000D02*
D03*
Y00177400D02*
D03*
Y00202800D02*
D03*
Y00228200D02*
D03*
Y00355200D02*
D03*
Y00380600D02*
D03*
Y00406000D02*
D03*
Y00431400D02*
D03*
Y00075800D02*
D03*
Y00101200D02*
D03*
Y00126600D02*
D03*
Y00456800D02*
D03*
Y00482200D02*
D03*
Y00507600D02*
D03*
Y00050400D02*
D03*
D55*
X00591300Y00533000D02*
D03*
X00108700Y00545700D02*
D03*
X00438900Y00025000D02*
D03*
M02*
